G04 EAGLE Gerber RS-274X export*
G75*
%MOMM*%
%FSLAX34Y34*%
%LPD*%
%INBottom Copper*%
%IPPOS*%
%AMOC8*
5,1,8,0,0,1.08239X$1,22.5*%
G01*
%ADD10R,2.700000X5.000000*%
%ADD11C,1.508000*%
%ADD12C,1.158000*%
%ADD13C,1.980000*%
%ADD14C,0.706400*%
%ADD15C,1.000000*%
%ADD16C,0.200000*%
%ADD17C,0.800000*%

G36*
X14250Y10170D02*
X14250Y10170D01*
X14314Y10169D01*
X14389Y10190D01*
X14465Y10201D01*
X14524Y10227D01*
X14586Y10244D01*
X14652Y10285D01*
X14722Y10317D01*
X14771Y10359D01*
X14826Y10392D01*
X14878Y10450D01*
X14936Y10500D01*
X14972Y10554D01*
X15015Y10602D01*
X15048Y10671D01*
X15091Y10736D01*
X15110Y10798D01*
X15138Y10855D01*
X15149Y10925D01*
X15173Y11006D01*
X15174Y11091D01*
X15185Y11160D01*
X15185Y14503D01*
X16565Y17835D01*
X19115Y20385D01*
X22447Y21765D01*
X26053Y21765D01*
X29385Y20385D01*
X31935Y17835D01*
X33315Y14503D01*
X33315Y11160D01*
X33324Y11096D01*
X33323Y11032D01*
X33344Y10957D01*
X33355Y10881D01*
X33381Y10822D01*
X33398Y10760D01*
X33439Y10694D01*
X33471Y10624D01*
X33513Y10575D01*
X33546Y10520D01*
X33604Y10468D01*
X33654Y10410D01*
X33708Y10374D01*
X33756Y10331D01*
X33825Y10298D01*
X33890Y10255D01*
X33952Y10236D01*
X34009Y10208D01*
X34079Y10197D01*
X34160Y10173D01*
X34245Y10172D01*
X34314Y10161D01*
X85686Y10161D01*
X85750Y10170D01*
X85814Y10169D01*
X85889Y10190D01*
X85965Y10201D01*
X86024Y10227D01*
X86086Y10244D01*
X86152Y10285D01*
X86222Y10317D01*
X86271Y10359D01*
X86326Y10392D01*
X86378Y10450D01*
X86436Y10500D01*
X86472Y10554D01*
X86515Y10602D01*
X86548Y10671D01*
X86591Y10736D01*
X86610Y10798D01*
X86638Y10855D01*
X86649Y10925D01*
X86673Y11006D01*
X86674Y11091D01*
X86685Y11160D01*
X86685Y14503D01*
X88065Y17835D01*
X90615Y20385D01*
X93947Y21765D01*
X97553Y21765D01*
X98990Y21170D01*
X99021Y21162D01*
X99050Y21147D01*
X99157Y21127D01*
X99263Y21100D01*
X99295Y21101D01*
X99327Y21095D01*
X99435Y21105D01*
X99545Y21109D01*
X99575Y21119D01*
X99607Y21122D01*
X99709Y21162D01*
X99813Y21196D01*
X99839Y21214D01*
X99869Y21226D01*
X99955Y21293D01*
X100046Y21355D01*
X100066Y21380D01*
X100092Y21400D01*
X100156Y21488D01*
X100225Y21573D01*
X100238Y21602D01*
X100257Y21628D01*
X100293Y21731D01*
X100337Y21832D01*
X100340Y21864D01*
X100351Y21894D01*
X100358Y22003D01*
X100371Y22112D01*
X100366Y22143D01*
X100368Y22176D01*
X100346Y22264D01*
X100326Y22390D01*
X100305Y22434D01*
X100295Y22475D01*
X98575Y26627D01*
X98575Y31173D01*
X100315Y35372D01*
X103528Y38585D01*
X107727Y40325D01*
X112273Y40325D01*
X116472Y38585D01*
X119685Y35372D01*
X121425Y31173D01*
X121425Y26627D01*
X119685Y22428D01*
X116472Y19215D01*
X112273Y17475D01*
X107727Y17475D01*
X104954Y18624D01*
X104923Y18632D01*
X104894Y18647D01*
X104787Y18667D01*
X104681Y18694D01*
X104649Y18693D01*
X104617Y18699D01*
X104508Y18689D01*
X104399Y18685D01*
X104368Y18675D01*
X104336Y18672D01*
X104235Y18631D01*
X104131Y18598D01*
X104104Y18579D01*
X104074Y18567D01*
X103988Y18500D01*
X103898Y18439D01*
X103877Y18414D01*
X103852Y18394D01*
X103788Y18305D01*
X103719Y18221D01*
X103706Y18191D01*
X103687Y18165D01*
X103650Y18063D01*
X103607Y17962D01*
X103603Y17930D01*
X103592Y17900D01*
X103586Y17790D01*
X103573Y17682D01*
X103578Y17650D01*
X103576Y17618D01*
X103597Y17530D01*
X103618Y17404D01*
X103639Y17360D01*
X103649Y17318D01*
X104815Y14503D01*
X104815Y11160D01*
X104824Y11096D01*
X104823Y11032D01*
X104844Y10957D01*
X104855Y10881D01*
X104881Y10822D01*
X104898Y10760D01*
X104939Y10694D01*
X104971Y10624D01*
X105013Y10575D01*
X105046Y10520D01*
X105104Y10468D01*
X105154Y10410D01*
X105208Y10374D01*
X105256Y10331D01*
X105325Y10298D01*
X105390Y10255D01*
X105452Y10236D01*
X105509Y10208D01*
X105579Y10197D01*
X105660Y10173D01*
X105745Y10172D01*
X105814Y10161D01*
X140276Y10161D01*
X140308Y10165D01*
X140340Y10163D01*
X140447Y10185D01*
X140555Y10201D01*
X140584Y10214D01*
X140616Y10220D01*
X140712Y10272D01*
X140812Y10317D01*
X140836Y10338D01*
X140865Y10353D01*
X140943Y10429D01*
X141026Y10500D01*
X141044Y10527D01*
X141067Y10550D01*
X141121Y10645D01*
X141180Y10736D01*
X141190Y10767D01*
X141206Y10795D01*
X141231Y10901D01*
X141263Y11006D01*
X141263Y11038D01*
X141271Y11069D01*
X141265Y11179D01*
X141267Y11288D01*
X141258Y11319D01*
X141256Y11351D01*
X141221Y11454D01*
X141191Y11560D01*
X141174Y11587D01*
X141164Y11618D01*
X141111Y11691D01*
X141043Y11800D01*
X141007Y11832D01*
X140982Y11867D01*
X139443Y13405D01*
X139443Y16572D01*
X139430Y16667D01*
X139425Y16763D01*
X139410Y16807D01*
X139403Y16852D01*
X139364Y16939D01*
X139332Y17030D01*
X139307Y17064D01*
X139287Y17108D01*
X139204Y17206D01*
X139151Y17279D01*
X124975Y31454D01*
X124975Y36960D01*
X124962Y37054D01*
X124957Y37151D01*
X124942Y37194D01*
X124935Y37239D01*
X124896Y37326D01*
X124864Y37417D01*
X124839Y37452D01*
X124819Y37496D01*
X124736Y37593D01*
X124683Y37666D01*
X122443Y39905D01*
X122443Y44095D01*
X125405Y47057D01*
X129595Y47057D01*
X132557Y44095D01*
X132557Y39905D01*
X130317Y37666D01*
X130260Y37589D01*
X130195Y37518D01*
X130175Y37477D01*
X130148Y37441D01*
X130114Y37350D01*
X130072Y37264D01*
X130066Y37222D01*
X130049Y37177D01*
X130039Y37049D01*
X130025Y36960D01*
X130025Y33960D01*
X130038Y33865D01*
X130043Y33769D01*
X130058Y33725D01*
X130065Y33680D01*
X130104Y33593D01*
X130136Y33502D01*
X130161Y33468D01*
X130181Y33424D01*
X130264Y33326D01*
X130317Y33253D01*
X142721Y20849D01*
X142798Y20792D01*
X142869Y20727D01*
X142910Y20707D01*
X142947Y20680D01*
X143037Y20646D01*
X143123Y20604D01*
X143165Y20598D01*
X143211Y20581D01*
X143338Y20571D01*
X143428Y20557D01*
X146595Y20557D01*
X149557Y17595D01*
X149557Y13405D01*
X148018Y11867D01*
X147999Y11841D01*
X147974Y11820D01*
X147914Y11728D01*
X147849Y11641D01*
X147837Y11611D01*
X147820Y11584D01*
X147788Y11479D01*
X147749Y11377D01*
X147747Y11345D01*
X147737Y11314D01*
X147736Y11205D01*
X147727Y11096D01*
X147734Y11064D01*
X147733Y11032D01*
X147763Y10927D01*
X147785Y10820D01*
X147800Y10791D01*
X147809Y10760D01*
X147866Y10667D01*
X147917Y10571D01*
X147940Y10548D01*
X147957Y10520D01*
X148038Y10447D01*
X148114Y10369D01*
X148142Y10353D01*
X148166Y10331D01*
X148264Y10284D01*
X148359Y10230D01*
X148391Y10222D01*
X148420Y10208D01*
X148509Y10194D01*
X148634Y10165D01*
X148682Y10167D01*
X148724Y10161D01*
X208840Y10161D01*
X208904Y10170D01*
X208968Y10169D01*
X209043Y10190D01*
X209119Y10201D01*
X209178Y10227D01*
X209240Y10244D01*
X209306Y10285D01*
X209376Y10317D01*
X209425Y10359D01*
X209480Y10392D01*
X209532Y10450D01*
X209590Y10500D01*
X209626Y10554D01*
X209669Y10602D01*
X209702Y10671D01*
X209745Y10736D01*
X209764Y10798D01*
X209792Y10855D01*
X209803Y10925D01*
X209827Y11006D01*
X209828Y11091D01*
X209839Y11160D01*
X209839Y108200D01*
X209835Y108231D01*
X209837Y108264D01*
X209815Y108371D01*
X209799Y108479D01*
X209786Y108508D01*
X209780Y108540D01*
X209728Y108636D01*
X209683Y108736D01*
X209662Y108760D01*
X209647Y108789D01*
X209571Y108867D01*
X209500Y108950D01*
X209473Y108968D01*
X209450Y108991D01*
X209355Y109044D01*
X209264Y109104D01*
X209233Y109114D01*
X209205Y109130D01*
X209098Y109155D01*
X208994Y109187D01*
X208962Y109187D01*
X208931Y109195D01*
X208821Y109189D01*
X208712Y109191D01*
X208681Y109182D01*
X208649Y109180D01*
X208546Y109144D01*
X208440Y109115D01*
X208413Y109098D01*
X208382Y109088D01*
X208309Y109035D01*
X208200Y108967D01*
X208168Y108931D01*
X208133Y108906D01*
X155696Y56469D01*
X153298Y55475D01*
X63524Y55475D01*
X63460Y55466D01*
X63396Y55467D01*
X63321Y55446D01*
X63245Y55435D01*
X63186Y55409D01*
X63124Y55392D01*
X63058Y55351D01*
X62988Y55319D01*
X62939Y55277D01*
X62884Y55244D01*
X62832Y55186D01*
X62774Y55136D01*
X62738Y55082D01*
X62695Y55034D01*
X62662Y54965D01*
X62619Y54900D01*
X62600Y54838D01*
X62572Y54781D01*
X62561Y54711D01*
X62537Y54630D01*
X62536Y54545D01*
X62525Y54476D01*
X62525Y38954D01*
X61046Y37475D01*
X43289Y37475D01*
X43280Y37474D01*
X43271Y37475D01*
X43141Y37454D01*
X43010Y37435D01*
X43002Y37432D01*
X42992Y37430D01*
X42873Y37373D01*
X42753Y37319D01*
X42746Y37313D01*
X42737Y37309D01*
X42639Y37221D01*
X42539Y37136D01*
X42534Y37128D01*
X42527Y37122D01*
X42487Y37056D01*
X42384Y36900D01*
X42377Y36877D01*
X42366Y36858D01*
X41951Y35856D01*
X39894Y33799D01*
X37205Y32685D01*
X34295Y32685D01*
X31606Y33799D01*
X29549Y35856D01*
X28901Y37421D01*
X28880Y37457D01*
X28866Y37496D01*
X28815Y37566D01*
X28757Y37664D01*
X28714Y37704D01*
X28684Y37745D01*
X27475Y38954D01*
X27475Y54960D01*
X27462Y55054D01*
X27457Y55151D01*
X27442Y55194D01*
X27435Y55239D01*
X27396Y55326D01*
X27364Y55417D01*
X27339Y55452D01*
X27319Y55496D01*
X27236Y55593D01*
X27183Y55666D01*
X24943Y57905D01*
X24943Y62095D01*
X27142Y64293D01*
X27181Y64345D01*
X27227Y64390D01*
X27265Y64457D01*
X27311Y64519D01*
X27334Y64579D01*
X27366Y64635D01*
X27384Y64710D01*
X27411Y64783D01*
X27416Y64847D01*
X27431Y64909D01*
X27427Y64987D01*
X27433Y65064D01*
X27420Y65127D01*
X27416Y65191D01*
X27391Y65264D01*
X27375Y65340D01*
X27345Y65397D01*
X27324Y65458D01*
X27282Y65514D01*
X27243Y65589D01*
X27183Y65650D01*
X27142Y65707D01*
X24943Y67905D01*
X24943Y72095D01*
X27905Y75057D01*
X32095Y75057D01*
X34293Y72858D01*
X34345Y72819D01*
X34390Y72773D01*
X34457Y72735D01*
X34519Y72689D01*
X34579Y72666D01*
X34635Y72634D01*
X34710Y72616D01*
X34783Y72589D01*
X34847Y72584D01*
X34909Y72569D01*
X34987Y72573D01*
X35064Y72567D01*
X35127Y72580D01*
X35191Y72584D01*
X35264Y72609D01*
X35340Y72625D01*
X35397Y72655D01*
X35458Y72676D01*
X35514Y72718D01*
X35589Y72757D01*
X35650Y72817D01*
X35707Y72858D01*
X37905Y75057D01*
X42095Y75057D01*
X44334Y72817D01*
X44411Y72760D01*
X44482Y72695D01*
X44523Y72675D01*
X44559Y72648D01*
X44650Y72614D01*
X44736Y72572D01*
X44778Y72566D01*
X44823Y72549D01*
X44951Y72539D01*
X45040Y72525D01*
X61046Y72525D01*
X62525Y71046D01*
X62525Y69524D01*
X62534Y69460D01*
X62533Y69396D01*
X62554Y69321D01*
X62565Y69245D01*
X62591Y69186D01*
X62608Y69124D01*
X62649Y69058D01*
X62681Y68988D01*
X62723Y68939D01*
X62756Y68884D01*
X62814Y68832D01*
X62864Y68774D01*
X62918Y68738D01*
X62966Y68695D01*
X63035Y68662D01*
X63100Y68619D01*
X63162Y68600D01*
X63219Y68572D01*
X63289Y68561D01*
X63370Y68537D01*
X63455Y68536D01*
X63524Y68525D01*
X105492Y68525D01*
X105524Y68529D01*
X105556Y68527D01*
X105663Y68549D01*
X105772Y68565D01*
X105801Y68578D01*
X105833Y68584D01*
X105929Y68636D01*
X106029Y68681D01*
X106053Y68702D01*
X106081Y68717D01*
X106160Y68793D01*
X106243Y68864D01*
X106260Y68891D01*
X106284Y68914D01*
X106337Y69009D01*
X106397Y69100D01*
X106407Y69131D01*
X106423Y69159D01*
X106448Y69266D01*
X106480Y69370D01*
X106480Y69402D01*
X106488Y69433D01*
X106482Y69543D01*
X106483Y69652D01*
X106475Y69683D01*
X106473Y69715D01*
X106437Y69818D01*
X106408Y69924D01*
X106391Y69951D01*
X106381Y69982D01*
X106327Y70055D01*
X106260Y70164D01*
X106224Y70196D01*
X106199Y70231D01*
X92475Y83954D01*
X92475Y151960D01*
X92462Y152054D01*
X92457Y152151D01*
X92442Y152194D01*
X92435Y152239D01*
X92396Y152326D01*
X92364Y152417D01*
X92339Y152452D01*
X92319Y152496D01*
X92236Y152593D01*
X92183Y152666D01*
X89943Y154905D01*
X89943Y159095D01*
X92905Y162057D01*
X97095Y162057D01*
X100057Y159095D01*
X100057Y154905D01*
X97817Y152666D01*
X97760Y152589D01*
X97695Y152518D01*
X97675Y152477D01*
X97648Y152441D01*
X97614Y152350D01*
X97572Y152264D01*
X97566Y152222D01*
X97549Y152177D01*
X97539Y152049D01*
X97525Y151960D01*
X97525Y86460D01*
X97538Y86365D01*
X97543Y86269D01*
X97558Y86225D01*
X97565Y86180D01*
X97604Y86093D01*
X97636Y86002D01*
X97661Y85968D01*
X97681Y85924D01*
X97764Y85826D01*
X97817Y85753D01*
X111229Y72341D01*
X111306Y72284D01*
X111377Y72219D01*
X111418Y72199D01*
X111455Y72172D01*
X111545Y72138D01*
X111631Y72096D01*
X111673Y72090D01*
X111719Y72073D01*
X111846Y72063D01*
X111936Y72049D01*
X147424Y72049D01*
X147519Y72062D01*
X147615Y72067D01*
X147658Y72082D01*
X147703Y72089D01*
X147790Y72128D01*
X147881Y72160D01*
X147916Y72185D01*
X147960Y72205D01*
X148057Y72288D01*
X148130Y72341D01*
X185183Y109394D01*
X185197Y109414D01*
X185212Y109426D01*
X185243Y109474D01*
X185305Y109542D01*
X185325Y109583D01*
X185352Y109619D01*
X185386Y109709D01*
X185428Y109796D01*
X185434Y109838D01*
X185451Y109883D01*
X185461Y110011D01*
X185475Y110100D01*
X185475Y123960D01*
X185462Y124054D01*
X185457Y124151D01*
X185442Y124194D01*
X185435Y124239D01*
X185396Y124326D01*
X185364Y124417D01*
X185339Y124452D01*
X185319Y124496D01*
X185236Y124593D01*
X185183Y124666D01*
X182943Y126905D01*
X182943Y131095D01*
X185905Y134057D01*
X190095Y134057D01*
X193057Y131095D01*
X193057Y126905D01*
X190817Y124666D01*
X190760Y124589D01*
X190695Y124518D01*
X190675Y124477D01*
X190648Y124441D01*
X190614Y124350D01*
X190572Y124264D01*
X190566Y124222D01*
X190549Y124177D01*
X190539Y124049D01*
X190525Y123960D01*
X190525Y112164D01*
X190529Y112133D01*
X190527Y112100D01*
X190549Y111993D01*
X190565Y111885D01*
X190578Y111856D01*
X190584Y111824D01*
X190636Y111728D01*
X190681Y111628D01*
X190702Y111604D01*
X190717Y111575D01*
X190793Y111497D01*
X190864Y111414D01*
X190891Y111396D01*
X190914Y111373D01*
X191009Y111320D01*
X191100Y111260D01*
X191131Y111250D01*
X191159Y111234D01*
X191266Y111209D01*
X191370Y111177D01*
X191402Y111177D01*
X191433Y111169D01*
X191543Y111175D01*
X191652Y111173D01*
X191683Y111182D01*
X191715Y111184D01*
X191818Y111220D01*
X191924Y111249D01*
X191951Y111266D01*
X191982Y111276D01*
X192055Y111329D01*
X192164Y111397D01*
X192196Y111433D01*
X192231Y111458D01*
X198023Y117250D01*
X198080Y117327D01*
X198145Y117398D01*
X198165Y117439D01*
X198192Y117476D01*
X198226Y117566D01*
X198268Y117652D01*
X198274Y117694D01*
X198291Y117739D01*
X198301Y117867D01*
X198315Y117957D01*
X198315Y146883D01*
X198302Y146978D01*
X198297Y147075D01*
X198282Y147118D01*
X198275Y147163D01*
X198236Y147250D01*
X198204Y147341D01*
X198179Y147375D01*
X198159Y147420D01*
X198076Y147517D01*
X198023Y147590D01*
X197430Y148183D01*
X197353Y148240D01*
X197282Y148305D01*
X197241Y148325D01*
X197204Y148352D01*
X197114Y148386D01*
X197028Y148428D01*
X196986Y148434D01*
X196941Y148451D01*
X196813Y148461D01*
X196723Y148475D01*
X148702Y148475D01*
X146304Y149469D01*
X144469Y151304D01*
X143475Y153702D01*
X143475Y156298D01*
X144469Y158696D01*
X146304Y160531D01*
X148702Y161525D01*
X196723Y161525D01*
X196818Y161538D01*
X196915Y161543D01*
X196958Y161558D01*
X197003Y161565D01*
X197090Y161604D01*
X197181Y161636D01*
X197215Y161661D01*
X197260Y161681D01*
X197357Y161764D01*
X197430Y161817D01*
X198023Y162410D01*
X198080Y162487D01*
X198145Y162558D01*
X198165Y162599D01*
X198192Y162636D01*
X198226Y162726D01*
X198268Y162812D01*
X198274Y162854D01*
X198291Y162899D01*
X198301Y163027D01*
X198315Y163117D01*
X198315Y207752D01*
X198311Y207784D01*
X198313Y207816D01*
X198291Y207923D01*
X198275Y208031D01*
X198262Y208060D01*
X198256Y208092D01*
X198204Y208188D01*
X198159Y208288D01*
X198138Y208312D01*
X198123Y208341D01*
X198047Y208419D01*
X197976Y208502D01*
X197949Y208520D01*
X197926Y208543D01*
X197831Y208597D01*
X197740Y208656D01*
X197709Y208666D01*
X197681Y208682D01*
X197575Y208707D01*
X197470Y208739D01*
X197438Y208739D01*
X197407Y208747D01*
X197297Y208741D01*
X197188Y208743D01*
X197157Y208734D01*
X197125Y208732D01*
X197022Y208697D01*
X196916Y208667D01*
X196889Y208650D01*
X196858Y208640D01*
X196785Y208587D01*
X196676Y208519D01*
X196644Y208483D01*
X196609Y208458D01*
X196095Y207943D01*
X191905Y207943D01*
X188934Y210915D01*
X188919Y210986D01*
X188903Y211094D01*
X188890Y211124D01*
X188884Y211155D01*
X188832Y211252D01*
X188787Y211351D01*
X188766Y211376D01*
X188751Y211404D01*
X188675Y211482D01*
X188604Y211566D01*
X188577Y211583D01*
X188554Y211606D01*
X188459Y211660D01*
X188368Y211720D01*
X188337Y211729D01*
X188309Y211745D01*
X188203Y211770D01*
X188098Y211802D01*
X188066Y211803D01*
X188035Y211810D01*
X187925Y211805D01*
X187816Y211806D01*
X187785Y211798D01*
X187753Y211796D01*
X187650Y211760D01*
X187544Y211731D01*
X187517Y211714D01*
X187486Y211703D01*
X187413Y211650D01*
X187304Y211583D01*
X187272Y211547D01*
X187237Y211522D01*
X184603Y208887D01*
X180414Y208887D01*
X177452Y211849D01*
X177452Y215016D01*
X177443Y215079D01*
X177444Y215135D01*
X177436Y215164D01*
X177433Y215207D01*
X177418Y215251D01*
X177412Y215296D01*
X177379Y215369D01*
X177368Y215407D01*
X177359Y215422D01*
X177341Y215474D01*
X177316Y215508D01*
X177296Y215552D01*
X177233Y215625D01*
X177220Y215647D01*
X177204Y215661D01*
X177159Y215723D01*
X170699Y222183D01*
X170623Y222240D01*
X170551Y222305D01*
X170510Y222325D01*
X170474Y222352D01*
X170384Y222386D01*
X170297Y222428D01*
X170255Y222434D01*
X170210Y222451D01*
X170082Y222461D01*
X169993Y222475D01*
X160040Y222475D01*
X159946Y222462D01*
X159849Y222457D01*
X159806Y222442D01*
X159761Y222435D01*
X159674Y222396D01*
X159583Y222364D01*
X159548Y222339D01*
X159504Y222319D01*
X159407Y222236D01*
X159334Y222183D01*
X157095Y219943D01*
X152905Y219943D01*
X149943Y222905D01*
X149943Y227095D01*
X152905Y230057D01*
X157095Y230057D01*
X159334Y227817D01*
X159411Y227760D01*
X159482Y227695D01*
X159523Y227675D01*
X159559Y227648D01*
X159650Y227614D01*
X159736Y227572D01*
X159778Y227566D01*
X159823Y227549D01*
X159951Y227539D01*
X160040Y227525D01*
X172498Y227525D01*
X180730Y219293D01*
X180806Y219236D01*
X180878Y219171D01*
X180919Y219151D01*
X180955Y219124D01*
X181045Y219090D01*
X181132Y219048D01*
X181174Y219042D01*
X181219Y219025D01*
X181347Y219015D01*
X181436Y219001D01*
X182016Y219001D01*
X182048Y219005D01*
X182080Y219003D01*
X182187Y219025D01*
X182296Y219041D01*
X182325Y219054D01*
X182357Y219060D01*
X182453Y219112D01*
X182553Y219157D01*
X182577Y219178D01*
X182605Y219193D01*
X182684Y219269D01*
X182767Y219340D01*
X182784Y219367D01*
X182808Y219390D01*
X182861Y219485D01*
X182921Y219576D01*
X182931Y219607D01*
X182947Y219635D01*
X182972Y219742D01*
X183004Y219846D01*
X183004Y219878D01*
X183012Y219909D01*
X183006Y220019D01*
X183007Y220128D01*
X182999Y220159D01*
X182997Y220191D01*
X182961Y220294D01*
X182932Y220400D01*
X182915Y220427D01*
X182905Y220458D01*
X182851Y220531D01*
X182784Y220640D01*
X182781Y220642D01*
X182781Y220643D01*
X182747Y220673D01*
X182723Y220707D01*
X159191Y244239D01*
X157419Y246010D01*
X157419Y264460D01*
X157406Y264554D01*
X157401Y264651D01*
X157386Y264694D01*
X157379Y264739D01*
X157340Y264826D01*
X157308Y264917D01*
X157283Y264952D01*
X157263Y264996D01*
X157180Y265093D01*
X157127Y265166D01*
X154887Y267405D01*
X154887Y271595D01*
X157849Y274557D01*
X162039Y274557D01*
X165001Y271595D01*
X165001Y267405D01*
X162761Y265166D01*
X162704Y265089D01*
X162639Y265018D01*
X162619Y264977D01*
X162592Y264941D01*
X162558Y264850D01*
X162516Y264764D01*
X162510Y264722D01*
X162493Y264677D01*
X162483Y264549D01*
X162469Y264460D01*
X162469Y248516D01*
X162482Y248421D01*
X162487Y248325D01*
X162502Y248281D01*
X162509Y248236D01*
X162548Y248149D01*
X162580Y248058D01*
X162605Y248024D01*
X162625Y247980D01*
X162708Y247882D01*
X162761Y247809D01*
X192221Y218349D01*
X192298Y218292D01*
X192369Y218227D01*
X192410Y218207D01*
X192447Y218180D01*
X192537Y218146D01*
X192623Y218104D01*
X192665Y218098D01*
X192711Y218081D01*
X192838Y218071D01*
X192928Y218057D01*
X196095Y218057D01*
X196609Y217542D01*
X196635Y217522D01*
X196656Y217498D01*
X196748Y217438D01*
X196835Y217373D01*
X196865Y217361D01*
X196892Y217344D01*
X196997Y217312D01*
X197099Y217273D01*
X197131Y217271D01*
X197162Y217261D01*
X197271Y217260D01*
X197380Y217251D01*
X197412Y217258D01*
X197444Y217257D01*
X197549Y217287D01*
X197656Y217309D01*
X197685Y217324D01*
X197716Y217333D01*
X197809Y217390D01*
X197905Y217441D01*
X197928Y217464D01*
X197956Y217481D01*
X198029Y217562D01*
X198107Y217638D01*
X198123Y217666D01*
X198145Y217690D01*
X198192Y217788D01*
X198246Y217883D01*
X198254Y217915D01*
X198268Y217944D01*
X198282Y218033D01*
X198311Y218158D01*
X198309Y218206D01*
X198315Y218248D01*
X198315Y596883D01*
X198302Y596978D01*
X198297Y597075D01*
X198282Y597118D01*
X198275Y597163D01*
X198236Y597250D01*
X198204Y597341D01*
X198179Y597375D01*
X198159Y597420D01*
X198076Y597517D01*
X198023Y597590D01*
X144469Y651144D01*
X143475Y653542D01*
X143475Y676476D01*
X143466Y676540D01*
X143467Y676604D01*
X143446Y676679D01*
X143435Y676755D01*
X143409Y676814D01*
X143392Y676876D01*
X143351Y676942D01*
X143319Y677012D01*
X143277Y677061D01*
X143244Y677116D01*
X143186Y677168D01*
X143136Y677226D01*
X143082Y677262D01*
X143034Y677305D01*
X142965Y677338D01*
X142900Y677381D01*
X142838Y677400D01*
X142781Y677428D01*
X142711Y677439D01*
X142630Y677463D01*
X142545Y677464D01*
X142476Y677475D01*
X140454Y677475D01*
X136247Y681683D01*
X136170Y681740D01*
X136099Y681805D01*
X136058Y681825D01*
X136021Y681852D01*
X135931Y681886D01*
X135845Y681928D01*
X135803Y681934D01*
X135757Y681951D01*
X135630Y681961D01*
X135540Y681975D01*
X131401Y681975D01*
X130455Y682367D01*
X130414Y682378D01*
X130377Y682396D01*
X130359Y682398D01*
X130317Y682424D01*
X129370Y682816D01*
X127816Y684370D01*
X127424Y685317D01*
X127403Y685353D01*
X127389Y685392D01*
X127379Y685407D01*
X127367Y685455D01*
X126975Y686401D01*
X126975Y688599D01*
X127367Y689545D01*
X127378Y689586D01*
X127396Y689623D01*
X127398Y689641D01*
X127424Y689683D01*
X127816Y690630D01*
X128183Y690996D01*
X128240Y691073D01*
X128305Y691144D01*
X128325Y691185D01*
X128352Y691221D01*
X128386Y691311D01*
X128428Y691398D01*
X128434Y691440D01*
X128451Y691485D01*
X128461Y691613D01*
X128475Y691702D01*
X128475Y701089D01*
X128469Y701130D01*
X128472Y701172D01*
X128452Y701256D01*
X128435Y701368D01*
X128411Y701422D01*
X128399Y701472D01*
X127475Y703702D01*
X127475Y706298D01*
X128469Y708696D01*
X130304Y710531D01*
X132702Y711525D01*
X136540Y711525D01*
X136635Y711538D01*
X136731Y711543D01*
X136775Y711558D01*
X136820Y711565D01*
X136907Y711604D01*
X136998Y711636D01*
X137032Y711661D01*
X137076Y711681D01*
X137174Y711764D01*
X137247Y711817D01*
X137954Y712525D01*
X142476Y712525D01*
X142540Y712534D01*
X142604Y712533D01*
X142679Y712554D01*
X142755Y712565D01*
X142814Y712591D01*
X142876Y712608D01*
X142942Y712649D01*
X143012Y712681D01*
X143061Y712723D01*
X143116Y712756D01*
X143168Y712814D01*
X143226Y712864D01*
X143262Y712918D01*
X143305Y712966D01*
X143338Y713035D01*
X143381Y713100D01*
X143400Y713162D01*
X143428Y713219D01*
X143439Y713289D01*
X143463Y713370D01*
X143464Y713455D01*
X143475Y713524D01*
X143475Y906476D01*
X143466Y906540D01*
X143467Y906604D01*
X143446Y906679D01*
X143435Y906755D01*
X143409Y906814D01*
X143392Y906876D01*
X143351Y906942D01*
X143319Y907012D01*
X143277Y907061D01*
X143244Y907116D01*
X143186Y907168D01*
X143136Y907226D01*
X143082Y907262D01*
X143034Y907305D01*
X142965Y907338D01*
X142900Y907381D01*
X142838Y907400D01*
X142781Y907428D01*
X142711Y907439D01*
X142630Y907463D01*
X142545Y907464D01*
X142476Y907475D01*
X120064Y907475D01*
X120000Y907466D01*
X119936Y907467D01*
X119861Y907446D01*
X119785Y907435D01*
X119726Y907409D01*
X119664Y907392D01*
X119598Y907351D01*
X119528Y907319D01*
X119479Y907277D01*
X119424Y907244D01*
X119372Y907186D01*
X119314Y907136D01*
X119278Y907082D01*
X119235Y907034D01*
X119202Y906965D01*
X119159Y906900D01*
X119140Y906838D01*
X119112Y906781D01*
X119101Y906711D01*
X119077Y906630D01*
X119076Y906545D01*
X119065Y906476D01*
X119065Y903197D01*
X117685Y899865D01*
X115135Y897315D01*
X111803Y895935D01*
X108197Y895935D01*
X104865Y897315D01*
X102315Y899865D01*
X100935Y903197D01*
X100935Y906803D01*
X102315Y910135D01*
X103598Y911418D01*
X103637Y911469D01*
X103683Y911514D01*
X103721Y911582D01*
X103768Y911643D01*
X103790Y911704D01*
X103822Y911760D01*
X103840Y911835D01*
X103867Y911907D01*
X103872Y911971D01*
X103887Y912034D01*
X103883Y912111D01*
X103889Y912189D01*
X103876Y912251D01*
X103873Y912316D01*
X103847Y912389D01*
X103831Y912465D01*
X103801Y912521D01*
X103780Y912582D01*
X103739Y912639D01*
X103699Y912714D01*
X103640Y912774D01*
X103598Y912831D01*
X97475Y918954D01*
X97475Y927476D01*
X97466Y927539D01*
X97467Y927600D01*
X97467Y927604D01*
X97446Y927679D01*
X97435Y927755D01*
X97409Y927814D01*
X97392Y927876D01*
X97351Y927942D01*
X97319Y928012D01*
X97277Y928061D01*
X97244Y928116D01*
X97186Y928168D01*
X97136Y928226D01*
X97082Y928262D01*
X97034Y928305D01*
X96965Y928338D01*
X96900Y928381D01*
X96838Y928400D01*
X96781Y928428D01*
X96711Y928439D01*
X96630Y928463D01*
X96545Y928464D01*
X96476Y928475D01*
X95868Y928475D01*
X94975Y929368D01*
X94975Y978840D01*
X94966Y978904D01*
X94967Y978968D01*
X94946Y979043D01*
X94935Y979119D01*
X94909Y979178D01*
X94892Y979240D01*
X94851Y979306D01*
X94819Y979376D01*
X94777Y979425D01*
X94744Y979480D01*
X94686Y979532D01*
X94636Y979590D01*
X94582Y979626D01*
X94534Y979669D01*
X94465Y979702D01*
X94400Y979745D01*
X94338Y979764D01*
X94281Y979792D01*
X94211Y979803D01*
X94130Y979827D01*
X94045Y979828D01*
X93976Y979839D01*
X90432Y979839D01*
X90368Y979830D01*
X90304Y979831D01*
X90229Y979810D01*
X90153Y979799D01*
X90094Y979773D01*
X90032Y979756D01*
X89966Y979715D01*
X89896Y979683D01*
X89847Y979641D01*
X89792Y979608D01*
X89740Y979550D01*
X89682Y979500D01*
X89646Y979446D01*
X89603Y979398D01*
X89570Y979329D01*
X89527Y979264D01*
X89508Y979202D01*
X89480Y979145D01*
X89469Y979075D01*
X89445Y978994D01*
X89444Y978909D01*
X89433Y978840D01*
X89433Y956999D01*
X74900Y956999D01*
X74836Y956990D01*
X74772Y956991D01*
X74698Y956970D01*
X74621Y956959D01*
X74562Y956933D01*
X74500Y956916D01*
X74434Y956875D01*
X74364Y956843D01*
X74315Y956801D01*
X74260Y956768D01*
X74209Y956710D01*
X74150Y956660D01*
X74114Y956606D01*
X74071Y956558D01*
X74038Y956489D01*
X73995Y956424D01*
X73976Y956362D01*
X73948Y956305D01*
X73938Y956235D01*
X73913Y956154D01*
X73912Y956069D01*
X73901Y956000D01*
X73901Y954999D01*
X72900Y954999D01*
X72836Y954990D01*
X72772Y954991D01*
X72697Y954970D01*
X72621Y954959D01*
X72562Y954933D01*
X72500Y954916D01*
X72434Y954875D01*
X72364Y954843D01*
X72315Y954801D01*
X72260Y954768D01*
X72208Y954710D01*
X72150Y954660D01*
X72114Y954606D01*
X72071Y954558D01*
X72038Y954489D01*
X71995Y954424D01*
X71976Y954362D01*
X71948Y954304D01*
X71938Y954235D01*
X71913Y954154D01*
X71912Y954069D01*
X71901Y954000D01*
X71901Y927967D01*
X63660Y927967D01*
X63596Y927958D01*
X63532Y927959D01*
X63457Y927938D01*
X63381Y927927D01*
X63322Y927901D01*
X63260Y927884D01*
X63194Y927843D01*
X63124Y927811D01*
X63075Y927769D01*
X63020Y927736D01*
X62968Y927678D01*
X62910Y927628D01*
X62874Y927574D01*
X62831Y927526D01*
X62798Y927457D01*
X62755Y927392D01*
X62736Y927330D01*
X62708Y927273D01*
X62697Y927203D01*
X62673Y927122D01*
X62672Y927037D01*
X62661Y926968D01*
X62661Y800501D01*
X62668Y800454D01*
X62665Y800412D01*
X62801Y798898D01*
X62706Y798595D01*
X62661Y798317D01*
X62662Y798306D01*
X62661Y798297D01*
X62661Y797979D01*
X62079Y796575D01*
X62067Y796529D01*
X62049Y796491D01*
X61595Y795040D01*
X61392Y794796D01*
X61243Y794556D01*
X61240Y794546D01*
X61235Y794538D01*
X61114Y794244D01*
X60039Y793170D01*
X60010Y793131D01*
X59979Y793104D01*
X59005Y791937D01*
X58723Y791790D01*
X58495Y791625D01*
X58488Y791617D01*
X58480Y791611D01*
X58256Y791386D01*
X56852Y790805D01*
X56810Y790780D01*
X56770Y790767D01*
X26852Y775095D01*
X26818Y775071D01*
X26780Y775053D01*
X26704Y774988D01*
X26623Y774930D01*
X26597Y774897D01*
X26565Y774870D01*
X26511Y774786D01*
X26450Y774708D01*
X26434Y774669D01*
X26411Y774634D01*
X26382Y774539D01*
X26345Y774446D01*
X26341Y774404D01*
X26328Y774364D01*
X26327Y774265D01*
X26318Y774166D01*
X26325Y774124D01*
X26325Y774082D01*
X26351Y773986D01*
X26370Y773888D01*
X26389Y773851D01*
X26400Y773810D01*
X26452Y773726D01*
X26497Y773637D01*
X26526Y773606D01*
X26548Y773570D01*
X26622Y773504D01*
X26690Y773431D01*
X26726Y773410D01*
X26757Y773381D01*
X26847Y773338D01*
X26933Y773287D01*
X26973Y773277D01*
X27011Y773258D01*
X27096Y773245D01*
X27206Y773217D01*
X27265Y773219D01*
X27316Y773211D01*
X34398Y773211D01*
X42525Y769845D01*
X48745Y763625D01*
X52111Y755498D01*
X52111Y746702D01*
X48745Y738575D01*
X42525Y732355D01*
X34398Y728989D01*
X25602Y728989D01*
X17475Y732355D01*
X11867Y737964D01*
X11841Y737984D01*
X11820Y738008D01*
X11728Y738068D01*
X11641Y738133D01*
X11611Y738145D01*
X11584Y738162D01*
X11479Y738194D01*
X11377Y738233D01*
X11345Y738235D01*
X11314Y738245D01*
X11205Y738246D01*
X11096Y738255D01*
X11064Y738248D01*
X11032Y738249D01*
X10927Y738219D01*
X10820Y738197D01*
X10791Y738182D01*
X10760Y738173D01*
X10667Y738116D01*
X10571Y738065D01*
X10548Y738042D01*
X10520Y738025D01*
X10447Y737944D01*
X10369Y737868D01*
X10353Y737840D01*
X10331Y737816D01*
X10284Y737718D01*
X10230Y737623D01*
X10222Y737591D01*
X10208Y737562D01*
X10194Y737473D01*
X10165Y737348D01*
X10167Y737300D01*
X10161Y737258D01*
X10161Y136045D01*
X10165Y136013D01*
X10163Y135981D01*
X10169Y135950D01*
X10169Y135938D01*
X10180Y135899D01*
X10185Y135874D01*
X10201Y135766D01*
X10214Y135736D01*
X10220Y135705D01*
X10272Y135608D01*
X10317Y135509D01*
X10338Y135484D01*
X10353Y135456D01*
X10429Y135377D01*
X10500Y135294D01*
X10527Y135277D01*
X10550Y135254D01*
X10645Y135200D01*
X10736Y135140D01*
X10767Y135130D01*
X10795Y135115D01*
X10901Y135089D01*
X11006Y135058D01*
X11038Y135057D01*
X11069Y135050D01*
X11179Y135055D01*
X11288Y135054D01*
X11319Y135062D01*
X11351Y135064D01*
X11454Y135100D01*
X11560Y135129D01*
X11587Y135146D01*
X11618Y135157D01*
X11691Y135210D01*
X11697Y135214D01*
X11718Y135223D01*
X11732Y135235D01*
X11800Y135277D01*
X11832Y135313D01*
X11867Y135338D01*
X12862Y136334D01*
X19227Y140009D01*
X26325Y141911D01*
X33675Y141911D01*
X40773Y140009D01*
X47138Y136334D01*
X52334Y131138D01*
X56009Y124773D01*
X57911Y117675D01*
X57911Y110325D01*
X56009Y103227D01*
X52334Y96862D01*
X47138Y91666D01*
X40773Y87991D01*
X33675Y86089D01*
X26325Y86089D01*
X19227Y87991D01*
X12862Y91666D01*
X11867Y92662D01*
X11841Y92681D01*
X11820Y92706D01*
X11728Y92766D01*
X11641Y92831D01*
X11611Y92842D01*
X11584Y92860D01*
X11479Y92892D01*
X11377Y92931D01*
X11345Y92933D01*
X11314Y92942D01*
X11205Y92944D01*
X11096Y92952D01*
X11064Y92946D01*
X11032Y92946D01*
X10927Y92917D01*
X10820Y92895D01*
X10791Y92880D01*
X10760Y92871D01*
X10667Y92814D01*
X10571Y92762D01*
X10548Y92740D01*
X10520Y92723D01*
X10447Y92642D01*
X10369Y92566D01*
X10353Y92537D01*
X10331Y92514D01*
X10284Y92415D01*
X10230Y92320D01*
X10222Y92289D01*
X10208Y92260D01*
X10194Y92170D01*
X10165Y92046D01*
X10167Y91997D01*
X10161Y91955D01*
X10161Y11160D01*
X10170Y11096D01*
X10169Y11032D01*
X10190Y10957D01*
X10201Y10881D01*
X10227Y10822D01*
X10244Y10760D01*
X10285Y10694D01*
X10317Y10624D01*
X10359Y10575D01*
X10392Y10520D01*
X10450Y10468D01*
X10500Y10410D01*
X10554Y10374D01*
X10602Y10331D01*
X10671Y10298D01*
X10736Y10255D01*
X10798Y10236D01*
X10855Y10208D01*
X10925Y10197D01*
X11006Y10173D01*
X11091Y10172D01*
X11160Y10161D01*
X14186Y10161D01*
X14250Y10170D01*
G37*
%LPC*%
G36*
X136405Y79943D02*
X136405Y79943D01*
X133443Y82905D01*
X133443Y86072D01*
X133430Y86167D01*
X133425Y86263D01*
X133410Y86307D01*
X133403Y86352D01*
X133364Y86439D01*
X133332Y86530D01*
X133307Y86564D01*
X133287Y86608D01*
X133204Y86706D01*
X133201Y86710D01*
X133180Y86743D01*
X133169Y86753D01*
X133151Y86779D01*
X107475Y112454D01*
X107475Y451492D01*
X107471Y451524D01*
X107473Y451556D01*
X107451Y451663D01*
X107435Y451772D01*
X107422Y451801D01*
X107416Y451833D01*
X107364Y451929D01*
X107319Y452029D01*
X107298Y452053D01*
X107283Y452081D01*
X107207Y452160D01*
X107136Y452243D01*
X107109Y452260D01*
X107086Y452284D01*
X106991Y452337D01*
X106900Y452397D01*
X106869Y452407D01*
X106841Y452423D01*
X106734Y452448D01*
X106630Y452480D01*
X106598Y452480D01*
X106567Y452488D01*
X106457Y452482D01*
X106348Y452483D01*
X106317Y452475D01*
X106285Y452473D01*
X106182Y452437D01*
X106076Y452408D01*
X106049Y452391D01*
X106018Y452381D01*
X105945Y452327D01*
X105836Y452260D01*
X105804Y452224D01*
X105769Y452199D01*
X52046Y398475D01*
X46040Y398475D01*
X45946Y398462D01*
X45849Y398457D01*
X45806Y398442D01*
X45761Y398435D01*
X45674Y398396D01*
X45583Y398364D01*
X45548Y398339D01*
X45504Y398319D01*
X45407Y398236D01*
X45334Y398183D01*
X43095Y395943D01*
X38905Y395943D01*
X35943Y398905D01*
X35943Y403095D01*
X38905Y406057D01*
X43095Y406057D01*
X45334Y403817D01*
X45411Y403760D01*
X45482Y403695D01*
X45523Y403675D01*
X45559Y403648D01*
X45650Y403614D01*
X45736Y403572D01*
X45778Y403566D01*
X45823Y403549D01*
X45951Y403539D01*
X46040Y403525D01*
X49540Y403525D01*
X49635Y403538D01*
X49731Y403543D01*
X49775Y403558D01*
X49820Y403565D01*
X49907Y403604D01*
X49998Y403636D01*
X50032Y403661D01*
X50076Y403681D01*
X50174Y403764D01*
X50247Y403817D01*
X59667Y413237D01*
X59686Y413263D01*
X59711Y413284D01*
X59771Y413376D01*
X59836Y413463D01*
X59848Y413493D01*
X59865Y413520D01*
X59897Y413625D01*
X59936Y413727D01*
X59938Y413759D01*
X59948Y413790D01*
X59949Y413899D01*
X59958Y414008D01*
X59951Y414040D01*
X59951Y414072D01*
X59922Y414177D01*
X59900Y414284D01*
X59885Y414313D01*
X59876Y414344D01*
X59819Y414437D01*
X59767Y414533D01*
X59745Y414556D01*
X59728Y414584D01*
X59647Y414657D01*
X59571Y414735D01*
X59543Y414751D01*
X59519Y414773D01*
X59420Y414820D01*
X59325Y414874D01*
X59294Y414882D01*
X59265Y414896D01*
X59176Y414910D01*
X59051Y414939D01*
X59002Y414937D01*
X58960Y414943D01*
X57277Y414943D01*
X55393Y416828D01*
X55341Y416867D01*
X55296Y416913D01*
X55229Y416951D01*
X55167Y416997D01*
X55107Y417020D01*
X55051Y417052D01*
X54976Y417070D01*
X54903Y417097D01*
X54839Y417102D01*
X54777Y417117D01*
X54699Y417113D01*
X54622Y417119D01*
X54559Y417106D01*
X54495Y417102D01*
X54422Y417077D01*
X54346Y417061D01*
X54289Y417031D01*
X54228Y417010D01*
X54172Y416968D01*
X54097Y416929D01*
X54036Y416869D01*
X53979Y416828D01*
X52095Y414943D01*
X47905Y414943D01*
X44943Y417905D01*
X44943Y422095D01*
X47905Y425057D01*
X51880Y425057D01*
X51975Y425070D01*
X52071Y425075D01*
X52114Y425090D01*
X52159Y425097D01*
X52246Y425136D01*
X52337Y425168D01*
X52372Y425193D01*
X52416Y425213D01*
X52513Y425296D01*
X52586Y425349D01*
X56262Y429025D01*
X65040Y429025D01*
X65135Y429038D01*
X65231Y429043D01*
X65275Y429058D01*
X65320Y429065D01*
X65407Y429104D01*
X65498Y429136D01*
X65532Y429161D01*
X65576Y429181D01*
X65674Y429264D01*
X65747Y429317D01*
X96611Y460181D01*
X96668Y460258D01*
X96733Y460329D01*
X96753Y460370D01*
X96780Y460407D01*
X96814Y460497D01*
X96856Y460583D01*
X96862Y460625D01*
X96879Y460671D01*
X96889Y460798D01*
X96903Y460888D01*
X96903Y546476D01*
X96894Y546540D01*
X96895Y546604D01*
X96874Y546679D01*
X96863Y546755D01*
X96837Y546814D01*
X96820Y546876D01*
X96779Y546942D01*
X96747Y547012D01*
X96705Y547061D01*
X96672Y547116D01*
X96614Y547168D01*
X96564Y547226D01*
X96510Y547262D01*
X96462Y547305D01*
X96393Y547338D01*
X96328Y547381D01*
X96266Y547400D01*
X96209Y547428D01*
X96139Y547439D01*
X96058Y547463D01*
X95973Y547464D01*
X95904Y547475D01*
X78954Y547475D01*
X77475Y548954D01*
X77475Y560836D01*
X77471Y560867D01*
X77473Y560900D01*
X77451Y561007D01*
X77435Y561115D01*
X77422Y561144D01*
X77416Y561176D01*
X77364Y561272D01*
X77319Y561372D01*
X77298Y561396D01*
X77283Y561425D01*
X77207Y561503D01*
X77136Y561586D01*
X77109Y561604D01*
X77086Y561627D01*
X76991Y561680D01*
X76900Y561740D01*
X76869Y561750D01*
X76841Y561766D01*
X76734Y561791D01*
X76630Y561823D01*
X76598Y561823D01*
X76567Y561831D01*
X76457Y561825D01*
X76348Y561827D01*
X76317Y561818D01*
X76285Y561816D01*
X76182Y561780D01*
X76076Y561751D01*
X76049Y561734D01*
X76018Y561724D01*
X75945Y561671D01*
X75836Y561603D01*
X75804Y561567D01*
X75769Y561542D01*
X42817Y528590D01*
X42760Y528513D01*
X42695Y528442D01*
X42675Y528401D01*
X42648Y528364D01*
X42614Y528274D01*
X42572Y528188D01*
X42566Y528146D01*
X42549Y528101D01*
X42539Y527973D01*
X42525Y527883D01*
X42525Y518954D01*
X41817Y518247D01*
X41760Y518170D01*
X41695Y518099D01*
X41675Y518058D01*
X41648Y518021D01*
X41614Y517931D01*
X41572Y517845D01*
X41566Y517803D01*
X41549Y517757D01*
X41539Y517630D01*
X41525Y517540D01*
X41525Y468117D01*
X41538Y468022D01*
X41543Y467925D01*
X41558Y467882D01*
X41565Y467837D01*
X41604Y467750D01*
X41636Y467659D01*
X41661Y467625D01*
X41681Y467580D01*
X41764Y467483D01*
X41817Y467410D01*
X46410Y462817D01*
X46487Y462760D01*
X46558Y462695D01*
X46599Y462675D01*
X46636Y462648D01*
X46726Y462614D01*
X46812Y462572D01*
X46854Y462566D01*
X46899Y462549D01*
X47027Y462539D01*
X47117Y462525D01*
X61046Y462525D01*
X62525Y461046D01*
X62525Y438954D01*
X61046Y437475D01*
X38954Y437475D01*
X37475Y438954D01*
X37475Y452883D01*
X37467Y452942D01*
X37467Y452956D01*
X37463Y452973D01*
X37462Y452978D01*
X37457Y453075D01*
X37442Y453118D01*
X37435Y453163D01*
X37396Y453250D01*
X37364Y453341D01*
X37339Y453375D01*
X37319Y453420D01*
X37236Y453517D01*
X37183Y453590D01*
X29469Y461304D01*
X28475Y463702D01*
X28475Y483968D01*
X28471Y484000D01*
X28473Y484032D01*
X28451Y484139D01*
X28435Y484247D01*
X28422Y484276D01*
X28415Y484308D01*
X28364Y484405D01*
X28319Y484504D01*
X28298Y484528D01*
X28283Y484557D01*
X28207Y484635D01*
X28136Y484718D01*
X28109Y484736D01*
X28086Y484759D01*
X27991Y484813D01*
X27900Y484872D01*
X27869Y484882D01*
X27840Y484898D01*
X27734Y484923D01*
X27630Y484955D01*
X27598Y484955D01*
X27566Y484963D01*
X27457Y484957D01*
X27348Y484959D01*
X27317Y484950D01*
X27284Y484948D01*
X27270Y484943D01*
X22849Y484943D01*
X19887Y487905D01*
X19887Y492095D01*
X22183Y494390D01*
X22240Y494467D01*
X22305Y494538D01*
X22325Y494579D01*
X22352Y494615D01*
X22386Y494706D01*
X22428Y494792D01*
X22434Y494834D01*
X22451Y494879D01*
X22461Y495007D01*
X22475Y495096D01*
X22475Y534904D01*
X22462Y534998D01*
X22457Y535095D01*
X22442Y535138D01*
X22435Y535183D01*
X22396Y535270D01*
X22364Y535361D01*
X22339Y535396D01*
X22319Y535440D01*
X22236Y535537D01*
X22183Y535610D01*
X19887Y537905D01*
X19887Y542095D01*
X22849Y545057D01*
X27039Y545057D01*
X29278Y542817D01*
X29355Y542760D01*
X29426Y542695D01*
X29467Y542675D01*
X29503Y542648D01*
X29594Y542614D01*
X29680Y542572D01*
X29722Y542566D01*
X29767Y542549D01*
X29895Y542539D01*
X29984Y542525D01*
X37883Y542525D01*
X37978Y542538D01*
X38075Y542543D01*
X38118Y542558D01*
X38163Y542565D01*
X38250Y542604D01*
X38341Y542636D01*
X38375Y542661D01*
X38420Y542681D01*
X38517Y542764D01*
X38590Y542817D01*
X86304Y590531D01*
X87242Y590920D01*
X87278Y590941D01*
X87317Y590955D01*
X87386Y591005D01*
X87484Y591063D01*
X87525Y591106D01*
X87566Y591136D01*
X88954Y592525D01*
X95904Y592525D01*
X95968Y592534D01*
X96032Y592533D01*
X96107Y592554D01*
X96183Y592565D01*
X96242Y592591D01*
X96304Y592608D01*
X96370Y592649D01*
X96440Y592681D01*
X96489Y592723D01*
X96544Y592756D01*
X96596Y592814D01*
X96654Y592864D01*
X96690Y592918D01*
X96733Y592966D01*
X96766Y593035D01*
X96809Y593100D01*
X96828Y593162D01*
X96856Y593219D01*
X96867Y593289D01*
X96891Y593370D01*
X96892Y593455D01*
X96903Y593524D01*
X96903Y620580D01*
X96890Y620675D01*
X96885Y620771D01*
X96870Y620815D01*
X96863Y620860D01*
X96824Y620947D01*
X96792Y621038D01*
X96767Y621072D01*
X96747Y621116D01*
X96664Y621214D01*
X96611Y621287D01*
X76771Y641127D01*
X76694Y641184D01*
X76623Y641249D01*
X76610Y641255D01*
X63531Y654334D01*
X63531Y668960D01*
X63518Y669054D01*
X63513Y669151D01*
X63498Y669194D01*
X63491Y669239D01*
X63452Y669326D01*
X63420Y669417D01*
X63395Y669452D01*
X63375Y669496D01*
X63292Y669593D01*
X63239Y669666D01*
X60999Y671905D01*
X60999Y676095D01*
X63961Y679057D01*
X68151Y679057D01*
X71256Y675952D01*
X71307Y675913D01*
X71352Y675867D01*
X71381Y675851D01*
X71402Y675832D01*
X71440Y675813D01*
X71481Y675782D01*
X71541Y675760D01*
X71597Y675728D01*
X71633Y675719D01*
X71655Y675709D01*
X71691Y675703D01*
X71745Y675683D01*
X71809Y675678D01*
X71872Y675663D01*
X71930Y675666D01*
X71960Y675661D01*
X71965Y675661D01*
X71985Y675664D01*
X72026Y675661D01*
X72089Y675674D01*
X72153Y675677D01*
X72206Y675696D01*
X72244Y675701D01*
X72266Y675711D01*
X72302Y675719D01*
X72359Y675749D01*
X72420Y675770D01*
X72459Y675798D01*
X72501Y675817D01*
X72522Y675835D01*
X72551Y675851D01*
X72612Y675910D01*
X72669Y675952D01*
X72774Y676057D01*
X76963Y676057D01*
X79925Y673095D01*
X79925Y669928D01*
X79939Y669833D01*
X79944Y669737D01*
X79959Y669693D01*
X79965Y669648D01*
X80005Y669561D01*
X80036Y669470D01*
X80061Y669436D01*
X80081Y669392D01*
X80165Y669294D01*
X80218Y669221D01*
X86769Y662670D01*
X86795Y662650D01*
X86816Y662626D01*
X86908Y662566D01*
X86995Y662500D01*
X87025Y662489D01*
X87052Y662471D01*
X87157Y662439D01*
X87259Y662401D01*
X87291Y662398D01*
X87322Y662389D01*
X87431Y662387D01*
X87540Y662379D01*
X87572Y662386D01*
X87604Y662385D01*
X87709Y662414D01*
X87816Y662437D01*
X87845Y662452D01*
X87876Y662460D01*
X87969Y662518D01*
X88065Y662569D01*
X88088Y662592D01*
X88116Y662608D01*
X88189Y662690D01*
X88267Y662766D01*
X88283Y662794D01*
X88305Y662818D01*
X88352Y662916D01*
X88406Y663011D01*
X88414Y663043D01*
X88428Y663072D01*
X88442Y663161D01*
X88471Y663286D01*
X88469Y663334D01*
X88475Y663376D01*
X88475Y686476D01*
X88466Y686540D01*
X88467Y686604D01*
X88446Y686679D01*
X88435Y686755D01*
X88409Y686814D01*
X88392Y686876D01*
X88351Y686942D01*
X88319Y687012D01*
X88277Y687061D01*
X88244Y687116D01*
X88186Y687168D01*
X88136Y687226D01*
X88082Y687262D01*
X88034Y687305D01*
X87965Y687338D01*
X87900Y687381D01*
X87838Y687400D01*
X87781Y687428D01*
X87711Y687439D01*
X87630Y687463D01*
X87545Y687464D01*
X87476Y687475D01*
X83179Y687475D01*
X71359Y699295D01*
X71282Y699353D01*
X71211Y699417D01*
X71170Y699437D01*
X71133Y699464D01*
X71043Y699498D01*
X70957Y699540D01*
X70915Y699547D01*
X70869Y699564D01*
X70742Y699574D01*
X70652Y699588D01*
X67485Y699588D01*
X64523Y702550D01*
X64523Y706739D01*
X67485Y709701D01*
X71675Y709701D01*
X74637Y706739D01*
X74637Y703572D01*
X74645Y703514D01*
X74645Y703512D01*
X74646Y703510D01*
X74650Y703477D01*
X74655Y703381D01*
X74670Y703338D01*
X74677Y703293D01*
X74716Y703206D01*
X74748Y703115D01*
X74773Y703080D01*
X74793Y703036D01*
X74876Y702939D01*
X74929Y702866D01*
X84978Y692817D01*
X85054Y692760D01*
X85126Y692695D01*
X85167Y692675D01*
X85203Y692648D01*
X85293Y692614D01*
X85380Y692572D01*
X85422Y692566D01*
X85467Y692549D01*
X85595Y692539D01*
X85684Y692525D01*
X87476Y692525D01*
X87540Y692534D01*
X87604Y692533D01*
X87679Y692554D01*
X87755Y692565D01*
X87814Y692591D01*
X87876Y692608D01*
X87942Y692649D01*
X88012Y692681D01*
X88061Y692723D01*
X88116Y692756D01*
X88168Y692814D01*
X88226Y692864D01*
X88262Y692918D01*
X88305Y692966D01*
X88338Y693035D01*
X88381Y693100D01*
X88400Y693162D01*
X88428Y693219D01*
X88439Y693289D01*
X88463Y693370D01*
X88464Y693455D01*
X88475Y693524D01*
X88475Y697046D01*
X89954Y698525D01*
X105492Y698525D01*
X105524Y698529D01*
X105556Y698527D01*
X105663Y698549D01*
X105772Y698565D01*
X105801Y698578D01*
X105833Y698584D01*
X105929Y698636D01*
X106029Y698681D01*
X106053Y698702D01*
X106081Y698717D01*
X106160Y698793D01*
X106243Y698864D01*
X106260Y698891D01*
X106284Y698914D01*
X106337Y699009D01*
X106397Y699100D01*
X106407Y699131D01*
X106423Y699159D01*
X106448Y699266D01*
X106480Y699370D01*
X106480Y699402D01*
X106488Y699433D01*
X106482Y699543D01*
X106483Y699652D01*
X106475Y699683D01*
X106473Y699715D01*
X106437Y699818D01*
X106408Y699924D01*
X106391Y699951D01*
X106381Y699982D01*
X106327Y700055D01*
X106260Y700164D01*
X106224Y700196D01*
X106199Y700231D01*
X98191Y708239D01*
X96419Y710010D01*
X96419Y727554D01*
X107183Y738318D01*
X107240Y738394D01*
X107305Y738466D01*
X107325Y738507D01*
X107352Y738543D01*
X107386Y738633D01*
X107428Y738720D01*
X107434Y738762D01*
X107451Y738807D01*
X107461Y738935D01*
X107475Y739024D01*
X107475Y739112D01*
X107474Y739121D01*
X107475Y739131D01*
X107454Y739261D01*
X107435Y739391D01*
X107432Y739400D01*
X107430Y739409D01*
X107373Y739529D01*
X107319Y739648D01*
X107313Y739655D01*
X107309Y739664D01*
X107221Y739763D01*
X107136Y739862D01*
X107128Y739868D01*
X107122Y739875D01*
X107056Y739915D01*
X106900Y740017D01*
X106877Y740024D01*
X106858Y740035D01*
X103528Y741415D01*
X100315Y744628D01*
X98575Y748827D01*
X98575Y753373D01*
X100315Y757572D01*
X103528Y760785D01*
X107727Y762525D01*
X112273Y762525D01*
X116472Y760785D01*
X118193Y759064D01*
X118219Y759044D01*
X118240Y759020D01*
X118332Y758960D01*
X118419Y758894D01*
X118449Y758883D01*
X118476Y758865D01*
X118581Y758833D01*
X118683Y758795D01*
X118715Y758792D01*
X118746Y758783D01*
X118855Y758781D01*
X118964Y758773D01*
X118996Y758780D01*
X119028Y758779D01*
X119133Y758808D01*
X119240Y758831D01*
X119269Y758846D01*
X119300Y758854D01*
X119393Y758912D01*
X119489Y758963D01*
X119512Y758986D01*
X119540Y759002D01*
X119613Y759084D01*
X119691Y759160D01*
X119707Y759188D01*
X119729Y759212D01*
X119776Y759310D01*
X119830Y759405D01*
X119838Y759437D01*
X119852Y759466D01*
X119866Y759555D01*
X119895Y759680D01*
X119893Y759728D01*
X119899Y759770D01*
X119899Y835459D01*
X119886Y835554D01*
X119881Y835651D01*
X119866Y835694D01*
X119859Y835739D01*
X119820Y835826D01*
X119788Y835917D01*
X119763Y835951D01*
X119743Y835996D01*
X119660Y836093D01*
X119607Y836166D01*
X69469Y886304D01*
X68475Y888702D01*
X68475Y891298D01*
X69469Y893696D01*
X71304Y895531D01*
X73702Y896525D01*
X76298Y896525D01*
X78696Y895531D01*
X131955Y842272D01*
X132949Y839874D01*
X132949Y742999D01*
X131955Y740601D01*
X124341Y732987D01*
X124284Y732910D01*
X124219Y732839D01*
X124199Y732798D01*
X124172Y732761D01*
X124138Y732671D01*
X124096Y732585D01*
X124090Y732543D01*
X124073Y732498D01*
X124063Y732370D01*
X124049Y732280D01*
X124049Y160593D01*
X124062Y160498D01*
X124067Y160401D01*
X124082Y160358D01*
X124089Y160313D01*
X124128Y160226D01*
X124160Y160135D01*
X124185Y160101D01*
X124205Y160056D01*
X124288Y159959D01*
X124341Y159886D01*
X145531Y138696D01*
X146525Y136298D01*
X146525Y133702D01*
X145531Y131304D01*
X143696Y129469D01*
X141298Y128475D01*
X138702Y128475D01*
X136304Y129469D01*
X114231Y151542D01*
X114205Y151561D01*
X114184Y151586D01*
X114092Y151646D01*
X114005Y151711D01*
X113975Y151723D01*
X113948Y151740D01*
X113843Y151772D01*
X113741Y151811D01*
X113709Y151813D01*
X113678Y151823D01*
X113569Y151824D01*
X113460Y151833D01*
X113428Y151826D01*
X113396Y151827D01*
X113291Y151797D01*
X113184Y151775D01*
X113155Y151760D01*
X113124Y151751D01*
X113031Y151694D01*
X112935Y151643D01*
X112912Y151620D01*
X112884Y151603D01*
X112811Y151522D01*
X112733Y151446D01*
X112717Y151418D01*
X112695Y151394D01*
X112648Y151296D01*
X112594Y151200D01*
X112586Y151169D01*
X112572Y151140D01*
X112558Y151051D01*
X112529Y150926D01*
X112531Y150878D01*
X112525Y150836D01*
X112525Y114960D01*
X112538Y114865D01*
X112543Y114769D01*
X112558Y114725D01*
X112565Y114680D01*
X112604Y114593D01*
X112636Y114502D01*
X112661Y114468D01*
X112681Y114424D01*
X112764Y114326D01*
X112817Y114253D01*
X136721Y90349D01*
X136798Y90292D01*
X136869Y90227D01*
X136910Y90207D01*
X136947Y90180D01*
X137037Y90146D01*
X137123Y90104D01*
X137165Y90098D01*
X137211Y90081D01*
X137338Y90071D01*
X137428Y90057D01*
X140595Y90057D01*
X143557Y87095D01*
X143557Y82905D01*
X140595Y79943D01*
X136405Y79943D01*
G37*
%LPD*%
G36*
X166442Y648118D02*
X166442Y648118D01*
X166453Y648118D01*
X166580Y648147D01*
X166707Y648174D01*
X166717Y648179D01*
X166727Y648181D01*
X166841Y648245D01*
X166956Y648306D01*
X166964Y648314D01*
X166973Y648319D01*
X167065Y648412D01*
X167158Y648503D01*
X167164Y648512D01*
X167171Y648520D01*
X167233Y648634D01*
X167297Y648748D01*
X167300Y648759D01*
X167305Y648768D01*
X167332Y648895D01*
X167362Y649023D01*
X167362Y649034D01*
X167364Y649044D01*
X167355Y649174D01*
X167348Y649305D01*
X167344Y649315D01*
X167344Y649325D01*
X167315Y649400D01*
X167255Y649571D01*
X167241Y649590D01*
X167233Y649613D01*
X163991Y655227D01*
X162089Y662325D01*
X162089Y669675D01*
X163991Y676773D01*
X167666Y683138D01*
X172862Y688334D01*
X179227Y692009D01*
X186325Y693911D01*
X193675Y693911D01*
X200773Y692009D01*
X207138Y688334D01*
X208133Y687338D01*
X208159Y687319D01*
X208180Y687294D01*
X208272Y687234D01*
X208359Y687169D01*
X208389Y687158D01*
X208416Y687140D01*
X208521Y687108D01*
X208623Y687069D01*
X208655Y687067D01*
X208686Y687058D01*
X208795Y687056D01*
X208904Y687048D01*
X208936Y687054D01*
X208968Y687054D01*
X209073Y687083D01*
X209180Y687105D01*
X209209Y687120D01*
X209240Y687129D01*
X209333Y687186D01*
X209429Y687238D01*
X209452Y687260D01*
X209480Y687277D01*
X209553Y687358D01*
X209631Y687434D01*
X209647Y687463D01*
X209669Y687486D01*
X209716Y687585D01*
X209770Y687680D01*
X209778Y687711D01*
X209792Y687740D01*
X209806Y687830D01*
X209835Y687954D01*
X209833Y688003D01*
X209839Y688045D01*
X209839Y765747D01*
X209824Y765852D01*
X209817Y765958D01*
X209804Y765991D01*
X209799Y766027D01*
X209756Y766123D01*
X209719Y766222D01*
X209698Y766251D01*
X209683Y766284D01*
X209614Y766364D01*
X209551Y766449D01*
X209524Y766469D01*
X209500Y766498D01*
X209377Y766578D01*
X209304Y766633D01*
X163230Y790767D01*
X163184Y790783D01*
X163148Y790805D01*
X161744Y791386D01*
X161520Y791611D01*
X161294Y791780D01*
X161284Y791784D01*
X161277Y791790D01*
X160995Y791937D01*
X160764Y792214D01*
X160021Y793104D01*
X159986Y793136D01*
X159961Y793170D01*
X158886Y794244D01*
X158764Y794538D01*
X158621Y794781D01*
X158613Y794788D01*
X158608Y794796D01*
X158291Y795176D01*
X158234Y795228D01*
X158184Y795286D01*
X158130Y795322D01*
X158082Y795365D01*
X158012Y795399D01*
X157948Y795441D01*
X157886Y795460D01*
X157828Y795488D01*
X157752Y795501D01*
X157678Y795523D01*
X157613Y795524D01*
X157550Y795535D01*
X157473Y795526D01*
X157396Y795527D01*
X157334Y795510D01*
X157269Y795502D01*
X157199Y795472D01*
X157124Y795452D01*
X157069Y795418D01*
X157010Y795393D01*
X156950Y795344D01*
X156884Y795304D01*
X156841Y795255D01*
X156791Y795215D01*
X156747Y795151D01*
X156695Y795094D01*
X156667Y795036D01*
X156630Y794983D01*
X156606Y794910D01*
X156572Y794840D01*
X156563Y794782D01*
X156541Y794715D01*
X156537Y794615D01*
X156525Y794536D01*
X156525Y657957D01*
X156538Y657862D01*
X156543Y657765D01*
X156558Y657722D01*
X156565Y657677D01*
X156604Y657590D01*
X156636Y657499D01*
X156661Y657465D01*
X156681Y657420D01*
X156764Y657323D01*
X156817Y657250D01*
X165661Y648407D01*
X165669Y648400D01*
X165676Y648392D01*
X165782Y648316D01*
X165886Y648237D01*
X165896Y648234D01*
X165905Y648227D01*
X166028Y648184D01*
X166150Y648138D01*
X166161Y648137D01*
X166171Y648134D01*
X166302Y648126D01*
X166431Y648116D01*
X166442Y648118D01*
G37*
G36*
X156404Y909010D02*
X156404Y909010D01*
X156468Y909009D01*
X156543Y909030D01*
X156619Y909041D01*
X156678Y909067D01*
X156740Y909084D01*
X156806Y909125D01*
X156876Y909157D01*
X156925Y909199D01*
X156980Y909232D01*
X157032Y909290D01*
X157090Y909340D01*
X157126Y909394D01*
X157169Y909442D01*
X157202Y909511D01*
X157245Y909576D01*
X157264Y909638D01*
X157292Y909695D01*
X157303Y909765D01*
X157327Y909846D01*
X157328Y909931D01*
X157339Y910000D01*
X157339Y927476D01*
X157330Y927540D01*
X157331Y927604D01*
X157310Y927679D01*
X157299Y927755D01*
X157273Y927814D01*
X157256Y927876D01*
X157215Y927942D01*
X157183Y928012D01*
X157141Y928061D01*
X157108Y928116D01*
X157050Y928168D01*
X157000Y928226D01*
X156946Y928262D01*
X156898Y928305D01*
X156829Y928338D01*
X156764Y928381D01*
X156702Y928400D01*
X156645Y928428D01*
X156575Y928439D01*
X156494Y928463D01*
X156409Y928464D01*
X156340Y928475D01*
X131968Y928475D01*
X131075Y929368D01*
X131075Y978840D01*
X131066Y978904D01*
X131067Y978968D01*
X131046Y979043D01*
X131035Y979119D01*
X131009Y979178D01*
X130992Y979240D01*
X130951Y979306D01*
X130919Y979376D01*
X130877Y979425D01*
X130844Y979480D01*
X130786Y979532D01*
X130736Y979590D01*
X130682Y979626D01*
X130634Y979669D01*
X130565Y979702D01*
X130500Y979745D01*
X130438Y979764D01*
X130381Y979792D01*
X130311Y979803D01*
X130230Y979827D01*
X130145Y979828D01*
X130076Y979839D01*
X126532Y979839D01*
X126468Y979830D01*
X126404Y979831D01*
X126329Y979810D01*
X126253Y979799D01*
X126194Y979773D01*
X126132Y979756D01*
X126066Y979715D01*
X125996Y979683D01*
X125947Y979641D01*
X125892Y979608D01*
X125840Y979550D01*
X125782Y979500D01*
X125746Y979446D01*
X125703Y979398D01*
X125670Y979329D01*
X125627Y979264D01*
X125608Y979202D01*
X125580Y979145D01*
X125569Y979075D01*
X125545Y978994D01*
X125544Y978909D01*
X125533Y978840D01*
X125533Y956999D01*
X111000Y956999D01*
X110936Y956990D01*
X110872Y956991D01*
X110798Y956970D01*
X110721Y956959D01*
X110662Y956933D01*
X110600Y956916D01*
X110534Y956875D01*
X110464Y956843D01*
X110415Y956801D01*
X110360Y956768D01*
X110309Y956710D01*
X110250Y956660D01*
X110214Y956606D01*
X110171Y956558D01*
X110138Y956489D01*
X110095Y956424D01*
X110076Y956362D01*
X110048Y956305D01*
X110038Y956235D01*
X110013Y956154D01*
X110012Y956069D01*
X110001Y956000D01*
X110001Y954999D01*
X109000Y954999D01*
X108936Y954990D01*
X108872Y954991D01*
X108797Y954970D01*
X108721Y954959D01*
X108662Y954933D01*
X108600Y954916D01*
X108534Y954875D01*
X108464Y954843D01*
X108415Y954801D01*
X108360Y954768D01*
X108308Y954710D01*
X108250Y954660D01*
X108214Y954606D01*
X108171Y954558D01*
X108138Y954489D01*
X108095Y954424D01*
X108076Y954362D01*
X108048Y954304D01*
X108038Y954235D01*
X108013Y954154D01*
X108012Y954069D01*
X108001Y954000D01*
X108001Y927967D01*
X100000Y927967D01*
X99936Y927958D01*
X99872Y927959D01*
X99797Y927938D01*
X99721Y927927D01*
X99662Y927901D01*
X99600Y927884D01*
X99534Y927843D01*
X99464Y927811D01*
X99415Y927769D01*
X99360Y927736D01*
X99308Y927678D01*
X99250Y927628D01*
X99214Y927574D01*
X99171Y927526D01*
X99138Y927457D01*
X99095Y927392D01*
X99076Y927330D01*
X99048Y927273D01*
X99037Y927203D01*
X99013Y927122D01*
X99012Y927037D01*
X99001Y926968D01*
X99001Y920000D01*
X99014Y919905D01*
X99019Y919809D01*
X99034Y919766D01*
X99041Y919721D01*
X99080Y919633D01*
X99082Y919629D01*
X99092Y919593D01*
X99097Y919583D01*
X99112Y919542D01*
X99137Y919508D01*
X99157Y919464D01*
X99209Y919403D01*
X99240Y919353D01*
X99270Y919326D01*
X99293Y919293D01*
X105126Y913461D01*
X105134Y913455D01*
X105140Y913447D01*
X105247Y913370D01*
X105352Y913291D01*
X105361Y913288D01*
X105368Y913282D01*
X105492Y913238D01*
X105616Y913192D01*
X105625Y913191D01*
X105634Y913188D01*
X105766Y913180D01*
X105897Y913170D01*
X105906Y913172D01*
X105916Y913171D01*
X105991Y913190D01*
X106173Y913228D01*
X106194Y913239D01*
X106215Y913244D01*
X108197Y914065D01*
X111803Y914065D01*
X115135Y912685D01*
X117685Y910135D01*
X117899Y909618D01*
X117904Y909609D01*
X117906Y909600D01*
X117976Y909488D01*
X118043Y909375D01*
X118049Y909368D01*
X118054Y909360D01*
X118152Y909272D01*
X118248Y909182D01*
X118257Y909178D01*
X118264Y909171D01*
X118382Y909114D01*
X118500Y909054D01*
X118509Y909052D01*
X118518Y909048D01*
X118594Y909036D01*
X118777Y909002D01*
X118801Y909004D01*
X118822Y909001D01*
X156340Y909001D01*
X156404Y909010D01*
G37*
G36*
X106540Y634010D02*
X106540Y634010D01*
X106604Y634009D01*
X106679Y634030D01*
X106755Y634041D01*
X106814Y634067D01*
X106876Y634084D01*
X106942Y634125D01*
X107012Y634157D01*
X107061Y634199D01*
X107116Y634232D01*
X107168Y634290D01*
X107226Y634340D01*
X107262Y634394D01*
X107305Y634442D01*
X107338Y634511D01*
X107381Y634576D01*
X107400Y634638D01*
X107428Y634695D01*
X107439Y634765D01*
X107463Y634846D01*
X107464Y634931D01*
X107475Y635000D01*
X107475Y696000D01*
X107467Y696060D01*
X107467Y696082D01*
X107466Y696084D01*
X107467Y696128D01*
X107446Y696203D01*
X107435Y696279D01*
X107409Y696338D01*
X107392Y696400D01*
X107351Y696466D01*
X107319Y696536D01*
X107277Y696585D01*
X107244Y696640D01*
X107186Y696692D01*
X107136Y696750D01*
X107082Y696786D01*
X107034Y696829D01*
X106965Y696862D01*
X106900Y696905D01*
X106838Y696924D01*
X106781Y696952D01*
X106711Y696963D01*
X106630Y696987D01*
X106545Y696988D01*
X106476Y696999D01*
X91000Y696999D01*
X90936Y696990D01*
X90872Y696991D01*
X90797Y696970D01*
X90721Y696959D01*
X90662Y696933D01*
X90600Y696916D01*
X90534Y696875D01*
X90464Y696843D01*
X90415Y696801D01*
X90360Y696768D01*
X90308Y696710D01*
X90250Y696660D01*
X90214Y696606D01*
X90171Y696558D01*
X90138Y696489D01*
X90095Y696424D01*
X90076Y696362D01*
X90048Y696305D01*
X90037Y696235D01*
X90013Y696154D01*
X90012Y696069D01*
X90001Y696000D01*
X90001Y659852D01*
X90014Y659757D01*
X90019Y659661D01*
X90034Y659618D01*
X90041Y659573D01*
X90080Y659485D01*
X90112Y659395D01*
X90137Y659360D01*
X90157Y659316D01*
X90240Y659219D01*
X90293Y659146D01*
X96469Y652970D01*
X96469Y638951D01*
X96477Y638891D01*
X96477Y638869D01*
X96483Y638848D01*
X96487Y638760D01*
X96502Y638717D01*
X96509Y638672D01*
X96548Y638585D01*
X96580Y638494D01*
X96605Y638459D01*
X96625Y638415D01*
X96708Y638318D01*
X96761Y638245D01*
X100713Y634293D01*
X100789Y634236D01*
X100861Y634171D01*
X100902Y634151D01*
X100938Y634124D01*
X101028Y634090D01*
X101115Y634048D01*
X101157Y634042D01*
X101202Y634025D01*
X101330Y634015D01*
X101419Y634001D01*
X106476Y634001D01*
X106540Y634010D01*
G37*
G36*
X60064Y39010D02*
X60064Y39010D01*
X60128Y39009D01*
X60203Y39030D01*
X60279Y39041D01*
X60338Y39067D01*
X60400Y39084D01*
X60466Y39125D01*
X60536Y39157D01*
X60585Y39199D01*
X60640Y39232D01*
X60692Y39290D01*
X60750Y39340D01*
X60786Y39394D01*
X60829Y39442D01*
X60862Y39511D01*
X60905Y39576D01*
X60924Y39638D01*
X60952Y39695D01*
X60963Y39765D01*
X60987Y39846D01*
X60988Y39931D01*
X60999Y40000D01*
X60999Y70000D01*
X60990Y70062D01*
X60991Y70105D01*
X60991Y70106D01*
X60991Y70128D01*
X60970Y70203D01*
X60959Y70279D01*
X60933Y70338D01*
X60916Y70400D01*
X60875Y70466D01*
X60843Y70536D01*
X60801Y70585D01*
X60768Y70640D01*
X60710Y70692D01*
X60660Y70750D01*
X60606Y70786D01*
X60558Y70829D01*
X60489Y70862D01*
X60424Y70905D01*
X60362Y70924D01*
X60305Y70952D01*
X60235Y70963D01*
X60154Y70987D01*
X60069Y70988D01*
X60000Y70999D01*
X30000Y70999D01*
X29936Y70990D01*
X29872Y70991D01*
X29797Y70970D01*
X29721Y70959D01*
X29662Y70933D01*
X29600Y70916D01*
X29534Y70875D01*
X29464Y70843D01*
X29415Y70801D01*
X29360Y70768D01*
X29308Y70710D01*
X29250Y70660D01*
X29214Y70606D01*
X29171Y70558D01*
X29138Y70489D01*
X29095Y70424D01*
X29076Y70362D01*
X29048Y70305D01*
X29037Y70235D01*
X29013Y70154D01*
X29012Y70069D01*
X29001Y70000D01*
X29001Y46008D01*
X29005Y45976D01*
X29003Y45944D01*
X29025Y45837D01*
X29041Y45729D01*
X29054Y45699D01*
X29060Y45668D01*
X29112Y45571D01*
X29157Y45472D01*
X29178Y45447D01*
X29193Y45419D01*
X29269Y45340D01*
X29340Y45257D01*
X29367Y45240D01*
X29390Y45217D01*
X29485Y45163D01*
X29576Y45103D01*
X29607Y45093D01*
X29635Y45078D01*
X29742Y45052D01*
X29846Y45020D01*
X29878Y45020D01*
X29910Y45013D01*
X30019Y45018D01*
X30128Y45017D01*
X30159Y45025D01*
X30191Y45027D01*
X30294Y45063D01*
X30400Y45092D01*
X30427Y45109D01*
X30458Y45119D01*
X30531Y45173D01*
X30640Y45240D01*
X30672Y45276D01*
X30707Y45301D01*
X31607Y46201D01*
X34295Y47315D01*
X37205Y47315D01*
X39894Y46201D01*
X41951Y44144D01*
X43065Y41455D01*
X43065Y40000D01*
X43074Y39936D01*
X43073Y39872D01*
X43094Y39797D01*
X43105Y39721D01*
X43131Y39662D01*
X43148Y39600D01*
X43189Y39534D01*
X43221Y39464D01*
X43263Y39415D01*
X43296Y39360D01*
X43354Y39308D01*
X43404Y39250D01*
X43458Y39214D01*
X43506Y39171D01*
X43575Y39138D01*
X43640Y39095D01*
X43702Y39076D01*
X43759Y39048D01*
X43829Y39037D01*
X43910Y39013D01*
X43995Y39012D01*
X44064Y39001D01*
X60000Y39001D01*
X60064Y39010D01*
G37*
G36*
X208936Y605650D02*
X208936Y605650D01*
X208968Y605649D01*
X209073Y605679D01*
X209180Y605701D01*
X209209Y605716D01*
X209240Y605725D01*
X209333Y605782D01*
X209429Y605833D01*
X209452Y605856D01*
X209480Y605873D01*
X209553Y605954D01*
X209631Y606030D01*
X209647Y606058D01*
X209669Y606082D01*
X209716Y606180D01*
X209770Y606276D01*
X209778Y606307D01*
X209792Y606336D01*
X209806Y606425D01*
X209835Y606550D01*
X209833Y606598D01*
X209839Y606640D01*
X209839Y643955D01*
X209835Y643987D01*
X209837Y644019D01*
X209815Y644126D01*
X209799Y644234D01*
X209786Y644264D01*
X209780Y644295D01*
X209728Y644392D01*
X209683Y644491D01*
X209662Y644516D01*
X209647Y644544D01*
X209571Y644623D01*
X209500Y644706D01*
X209473Y644723D01*
X209450Y644746D01*
X209355Y644800D01*
X209264Y644860D01*
X209233Y644870D01*
X209205Y644885D01*
X209099Y644911D01*
X208994Y644942D01*
X208962Y644943D01*
X208931Y644950D01*
X208821Y644945D01*
X208712Y644946D01*
X208681Y644938D01*
X208649Y644936D01*
X208546Y644900D01*
X208440Y644871D01*
X208413Y644854D01*
X208382Y644843D01*
X208309Y644790D01*
X208200Y644723D01*
X208168Y644687D01*
X208133Y644662D01*
X207138Y643666D01*
X200773Y639991D01*
X193675Y638089D01*
X186325Y638089D01*
X179227Y639991D01*
X173613Y643233D01*
X173603Y643237D01*
X173594Y643243D01*
X173472Y643289D01*
X173351Y643338D01*
X173341Y643339D01*
X173330Y643343D01*
X173201Y643353D01*
X173071Y643365D01*
X173060Y643363D01*
X173049Y643364D01*
X172922Y643338D01*
X172793Y643314D01*
X172784Y643309D01*
X172773Y643307D01*
X172658Y643245D01*
X172542Y643187D01*
X172534Y643179D01*
X172524Y643174D01*
X172430Y643083D01*
X172335Y642994D01*
X172330Y642985D01*
X172322Y642977D01*
X172258Y642864D01*
X172191Y642752D01*
X172188Y642742D01*
X172183Y642732D01*
X172153Y642604D01*
X172120Y642479D01*
X172121Y642468D01*
X172118Y642458D01*
X172125Y642326D01*
X172129Y642197D01*
X172132Y642187D01*
X172133Y642176D01*
X172175Y642052D01*
X172215Y641929D01*
X172222Y641920D01*
X172225Y641910D01*
X172272Y641845D01*
X172374Y641695D01*
X172393Y641680D01*
X172407Y641661D01*
X208133Y605934D01*
X208159Y605915D01*
X208180Y605890D01*
X208272Y605830D01*
X208359Y605765D01*
X208389Y605753D01*
X208416Y605736D01*
X208521Y605704D01*
X208623Y605665D01*
X208655Y605663D01*
X208686Y605653D01*
X208795Y605652D01*
X208904Y605643D01*
X208936Y605650D01*
G37*
%LPC*%
G36*
X142905Y229943D02*
X142905Y229943D01*
X139943Y232905D01*
X139943Y237095D01*
X142183Y239334D01*
X142240Y239411D01*
X142305Y239482D01*
X142325Y239523D01*
X142352Y239559D01*
X142386Y239650D01*
X142428Y239736D01*
X142434Y239778D01*
X142451Y239823D01*
X142461Y239951D01*
X142475Y240040D01*
X142475Y286046D01*
X157954Y301525D01*
X173960Y301525D01*
X174054Y301538D01*
X174151Y301543D01*
X174194Y301558D01*
X174239Y301565D01*
X174326Y301604D01*
X174417Y301636D01*
X174452Y301661D01*
X174496Y301681D01*
X174593Y301764D01*
X174666Y301817D01*
X176905Y304057D01*
X181095Y304057D01*
X184057Y301095D01*
X184057Y296905D01*
X181095Y293943D01*
X176905Y293943D01*
X174666Y296183D01*
X174589Y296240D01*
X174518Y296305D01*
X174477Y296325D01*
X174441Y296352D01*
X174350Y296386D01*
X174264Y296428D01*
X174222Y296434D01*
X174177Y296451D01*
X174049Y296461D01*
X173960Y296475D01*
X160460Y296475D01*
X160365Y296462D01*
X160269Y296457D01*
X160225Y296442D01*
X160180Y296435D01*
X160093Y296396D01*
X160002Y296364D01*
X159968Y296339D01*
X159924Y296319D01*
X159826Y296236D01*
X159753Y296183D01*
X147817Y284247D01*
X147760Y284170D01*
X147695Y284099D01*
X147675Y284058D01*
X147648Y284021D01*
X147614Y283931D01*
X147572Y283845D01*
X147566Y283803D01*
X147549Y283757D01*
X147539Y283630D01*
X147525Y283540D01*
X147525Y240040D01*
X147538Y239946D01*
X147543Y239849D01*
X147558Y239806D01*
X147565Y239761D01*
X147604Y239674D01*
X147636Y239583D01*
X147661Y239548D01*
X147681Y239504D01*
X147764Y239407D01*
X147817Y239334D01*
X150057Y237095D01*
X150057Y232905D01*
X147095Y229943D01*
X142905Y229943D01*
G37*
%LPD*%
G36*
X95064Y549010D02*
X95064Y549010D01*
X95128Y549009D01*
X95203Y549030D01*
X95279Y549041D01*
X95338Y549067D01*
X95400Y549084D01*
X95466Y549125D01*
X95536Y549157D01*
X95585Y549199D01*
X95640Y549232D01*
X95692Y549290D01*
X95750Y549340D01*
X95786Y549394D01*
X95829Y549442D01*
X95862Y549511D01*
X95905Y549576D01*
X95924Y549638D01*
X95952Y549695D01*
X95963Y549765D01*
X95987Y549846D01*
X95988Y549931D01*
X95999Y550000D01*
X95999Y590000D01*
X95991Y590061D01*
X95991Y590098D01*
X95991Y590099D01*
X95991Y590128D01*
X95970Y590203D01*
X95959Y590279D01*
X95933Y590338D01*
X95916Y590400D01*
X95875Y590466D01*
X95843Y590536D01*
X95801Y590585D01*
X95768Y590640D01*
X95710Y590692D01*
X95660Y590750D01*
X95606Y590786D01*
X95558Y590829D01*
X95489Y590862D01*
X95424Y590905D01*
X95362Y590924D01*
X95305Y590952D01*
X95235Y590963D01*
X95154Y590987D01*
X95069Y590988D01*
X95000Y590999D01*
X90000Y590999D01*
X89936Y590990D01*
X89872Y590991D01*
X89797Y590970D01*
X89721Y590959D01*
X89662Y590933D01*
X89600Y590916D01*
X89534Y590875D01*
X89464Y590843D01*
X89415Y590801D01*
X89360Y590768D01*
X89308Y590710D01*
X89250Y590660D01*
X89214Y590606D01*
X89171Y590558D01*
X89138Y590489D01*
X89095Y590424D01*
X89076Y590362D01*
X89048Y590305D01*
X89037Y590235D01*
X89013Y590154D01*
X89012Y590069D01*
X89001Y590000D01*
X89001Y580414D01*
X79293Y570707D01*
X79236Y570630D01*
X79171Y570558D01*
X79151Y570517D01*
X79124Y570481D01*
X79099Y570415D01*
X79095Y570409D01*
X79089Y570388D01*
X79048Y570305D01*
X79042Y570263D01*
X79025Y570217D01*
X79021Y570165D01*
X79013Y570139D01*
X79012Y570071D01*
X79001Y570000D01*
X79001Y550000D01*
X79010Y549936D01*
X79009Y549872D01*
X79030Y549797D01*
X79041Y549721D01*
X79067Y549662D01*
X79084Y549600D01*
X79125Y549534D01*
X79157Y549464D01*
X79199Y549415D01*
X79232Y549360D01*
X79290Y549308D01*
X79340Y549250D01*
X79394Y549214D01*
X79442Y549171D01*
X79511Y549138D01*
X79576Y549095D01*
X79638Y549076D01*
X79695Y549048D01*
X79765Y549037D01*
X79846Y549013D01*
X79931Y549012D01*
X80000Y549001D01*
X95000Y549001D01*
X95064Y549010D01*
G37*
G36*
X150064Y679010D02*
X150064Y679010D01*
X150128Y679009D01*
X150203Y679030D01*
X150279Y679041D01*
X150338Y679067D01*
X150400Y679084D01*
X150466Y679125D01*
X150536Y679157D01*
X150585Y679199D01*
X150640Y679232D01*
X150692Y679290D01*
X150750Y679340D01*
X150786Y679394D01*
X150829Y679442D01*
X150862Y679511D01*
X150905Y679576D01*
X150924Y679638D01*
X150952Y679695D01*
X150963Y679765D01*
X150987Y679846D01*
X150988Y679931D01*
X150999Y680000D01*
X150999Y710000D01*
X150990Y710062D01*
X150991Y710105D01*
X150991Y710106D01*
X150991Y710128D01*
X150970Y710203D01*
X150959Y710279D01*
X150933Y710338D01*
X150916Y710400D01*
X150875Y710466D01*
X150843Y710536D01*
X150801Y710585D01*
X150768Y710640D01*
X150710Y710692D01*
X150660Y710750D01*
X150606Y710786D01*
X150558Y710829D01*
X150489Y710862D01*
X150424Y710905D01*
X150362Y710924D01*
X150305Y710952D01*
X150235Y710963D01*
X150154Y710987D01*
X150069Y710988D01*
X150000Y710999D01*
X139000Y710999D01*
X138905Y710986D01*
X138809Y710981D01*
X138766Y710966D01*
X138721Y710959D01*
X138633Y710920D01*
X138542Y710888D01*
X138508Y710863D01*
X138464Y710843D01*
X138367Y710760D01*
X138293Y710707D01*
X133293Y705707D01*
X133236Y705630D01*
X133171Y705558D01*
X133151Y705517D01*
X133124Y705481D01*
X133096Y705407D01*
X133095Y705405D01*
X133093Y705399D01*
X133090Y705391D01*
X133048Y705305D01*
X133042Y705263D01*
X133025Y705217D01*
X133020Y705160D01*
X133013Y705135D01*
X133012Y705071D01*
X133001Y705000D01*
X133001Y687500D01*
X133014Y687405D01*
X133019Y687309D01*
X133034Y687266D01*
X133041Y687221D01*
X133080Y687133D01*
X133112Y687042D01*
X133137Y687008D01*
X133157Y686964D01*
X133240Y686867D01*
X133293Y686793D01*
X140793Y679293D01*
X140870Y679236D01*
X140942Y679171D01*
X140983Y679151D01*
X141019Y679124D01*
X141109Y679090D01*
X141195Y679048D01*
X141237Y679042D01*
X141283Y679025D01*
X141411Y679015D01*
X141500Y679001D01*
X150000Y679001D01*
X150064Y679010D01*
G37*
G36*
X60064Y439010D02*
X60064Y439010D01*
X60128Y439009D01*
X60203Y439030D01*
X60279Y439041D01*
X60338Y439067D01*
X60400Y439084D01*
X60466Y439125D01*
X60536Y439157D01*
X60585Y439199D01*
X60640Y439232D01*
X60692Y439290D01*
X60750Y439340D01*
X60786Y439394D01*
X60829Y439442D01*
X60862Y439511D01*
X60905Y439576D01*
X60924Y439638D01*
X60952Y439695D01*
X60963Y439765D01*
X60987Y439846D01*
X60988Y439931D01*
X60999Y440000D01*
X60999Y460000D01*
X60990Y460062D01*
X60991Y460113D01*
X60991Y460114D01*
X60991Y460128D01*
X60970Y460203D01*
X60959Y460279D01*
X60933Y460338D01*
X60916Y460400D01*
X60875Y460466D01*
X60843Y460536D01*
X60801Y460585D01*
X60768Y460640D01*
X60710Y460692D01*
X60660Y460750D01*
X60606Y460786D01*
X60558Y460829D01*
X60489Y460862D01*
X60424Y460905D01*
X60362Y460924D01*
X60305Y460952D01*
X60235Y460963D01*
X60154Y460987D01*
X60069Y460988D01*
X60000Y460999D01*
X40000Y460999D01*
X39936Y460990D01*
X39872Y460991D01*
X39797Y460970D01*
X39721Y460959D01*
X39662Y460933D01*
X39600Y460916D01*
X39534Y460875D01*
X39464Y460843D01*
X39415Y460801D01*
X39360Y460768D01*
X39308Y460710D01*
X39250Y460660D01*
X39214Y460606D01*
X39171Y460558D01*
X39138Y460489D01*
X39095Y460424D01*
X39076Y460362D01*
X39048Y460305D01*
X39037Y460235D01*
X39013Y460154D01*
X39012Y460069D01*
X39001Y460000D01*
X39001Y440000D01*
X39010Y439936D01*
X39009Y439872D01*
X39030Y439797D01*
X39041Y439721D01*
X39067Y439662D01*
X39084Y439600D01*
X39125Y439534D01*
X39157Y439464D01*
X39199Y439415D01*
X39232Y439360D01*
X39290Y439308D01*
X39340Y439250D01*
X39394Y439214D01*
X39442Y439171D01*
X39511Y439138D01*
X39576Y439095D01*
X39638Y439076D01*
X39695Y439048D01*
X39765Y439037D01*
X39846Y439013D01*
X39931Y439012D01*
X40000Y439001D01*
X60000Y439001D01*
X60064Y439010D01*
G37*
%LPC*%
G36*
X19905Y175943D02*
X19905Y175943D01*
X16943Y178905D01*
X16943Y183095D01*
X19905Y186057D01*
X23072Y186057D01*
X23167Y186070D01*
X23263Y186075D01*
X23307Y186090D01*
X23352Y186097D01*
X23439Y186136D01*
X23530Y186168D01*
X23564Y186193D01*
X23608Y186213D01*
X23706Y186296D01*
X23779Y186349D01*
X54651Y217221D01*
X54708Y217298D01*
X54773Y217369D01*
X54793Y217410D01*
X54820Y217447D01*
X54854Y217537D01*
X54896Y217623D01*
X54902Y217665D01*
X54919Y217711D01*
X54929Y217838D01*
X54931Y217850D01*
X54931Y217851D01*
X54943Y217928D01*
X54943Y222095D01*
X57905Y225057D01*
X62095Y225057D01*
X65057Y222095D01*
X65057Y217905D01*
X62095Y214943D01*
X59928Y214943D01*
X59833Y214930D01*
X59737Y214925D01*
X59693Y214910D01*
X59648Y214903D01*
X59561Y214864D01*
X59470Y214832D01*
X59436Y214807D01*
X59392Y214787D01*
X59294Y214704D01*
X59221Y214651D01*
X27349Y182779D01*
X27292Y182702D01*
X27227Y182631D01*
X27207Y182590D01*
X27180Y182553D01*
X27146Y182463D01*
X27104Y182377D01*
X27098Y182335D01*
X27081Y182289D01*
X27074Y182203D01*
X27069Y182186D01*
X27068Y182146D01*
X27057Y182072D01*
X27057Y178905D01*
X24095Y175943D01*
X19905Y175943D01*
G37*
%LPD*%
%LPC*%
G36*
X75899Y927967D02*
X75899Y927967D01*
X75899Y953001D01*
X89433Y953001D01*
X89433Y929732D01*
X89294Y929215D01*
X89027Y928752D01*
X88648Y928373D01*
X88185Y928106D01*
X87668Y927967D01*
X75899Y927967D01*
G37*
%LPD*%
%LPC*%
G36*
X111999Y927967D02*
X111999Y927967D01*
X111999Y953001D01*
X125533Y953001D01*
X125533Y929732D01*
X125394Y929215D01*
X125127Y928752D01*
X124748Y928373D01*
X124285Y928106D01*
X123768Y927967D01*
X111999Y927967D01*
G37*
%LPD*%
G36*
X40064Y519010D02*
X40064Y519010D01*
X40128Y519009D01*
X40203Y519030D01*
X40279Y519041D01*
X40338Y519067D01*
X40400Y519084D01*
X40466Y519125D01*
X40536Y519157D01*
X40585Y519199D01*
X40640Y519232D01*
X40692Y519290D01*
X40750Y519340D01*
X40786Y519394D01*
X40829Y519442D01*
X40862Y519511D01*
X40905Y519576D01*
X40924Y519638D01*
X40952Y519695D01*
X40963Y519765D01*
X40987Y519846D01*
X40988Y519931D01*
X40999Y520000D01*
X40999Y540000D01*
X40990Y540062D01*
X40991Y540113D01*
X40991Y540114D01*
X40991Y540128D01*
X40970Y540203D01*
X40959Y540279D01*
X40933Y540338D01*
X40916Y540400D01*
X40875Y540466D01*
X40843Y540536D01*
X40801Y540585D01*
X40768Y540640D01*
X40710Y540692D01*
X40660Y540750D01*
X40606Y540786D01*
X40558Y540829D01*
X40489Y540862D01*
X40424Y540905D01*
X40362Y540924D01*
X40305Y540952D01*
X40235Y540963D01*
X40154Y540987D01*
X40069Y540988D01*
X40000Y540999D01*
X31000Y540999D01*
X30936Y540990D01*
X30872Y540991D01*
X30797Y540970D01*
X30721Y540959D01*
X30662Y540933D01*
X30600Y540916D01*
X30534Y540875D01*
X30464Y540843D01*
X30415Y540801D01*
X30360Y540768D01*
X30308Y540710D01*
X30250Y540660D01*
X30214Y540606D01*
X30171Y540558D01*
X30138Y540489D01*
X30095Y540424D01*
X30076Y540362D01*
X30048Y540305D01*
X30037Y540235D01*
X30013Y540154D01*
X30012Y540069D01*
X30001Y540000D01*
X30001Y537905D01*
X29293Y537198D01*
X29236Y537121D01*
X29171Y537050D01*
X29151Y537009D01*
X29124Y536973D01*
X29090Y536883D01*
X29048Y536796D01*
X29042Y536754D01*
X29025Y536709D01*
X29015Y536581D01*
X29001Y536492D01*
X29001Y520000D01*
X29010Y519936D01*
X29009Y519872D01*
X29030Y519797D01*
X29041Y519721D01*
X29067Y519662D01*
X29084Y519600D01*
X29125Y519534D01*
X29157Y519464D01*
X29199Y519415D01*
X29232Y519360D01*
X29290Y519308D01*
X29340Y519250D01*
X29394Y519214D01*
X29442Y519171D01*
X29511Y519138D01*
X29576Y519095D01*
X29638Y519076D01*
X29695Y519048D01*
X29765Y519037D01*
X29846Y519013D01*
X29931Y519012D01*
X30000Y519001D01*
X40000Y519001D01*
X40064Y519010D01*
G37*
G36*
X110096Y703993D02*
X110096Y703993D01*
X110128Y703993D01*
X110233Y704022D01*
X110340Y704044D01*
X110369Y704059D01*
X110400Y704068D01*
X110493Y704125D01*
X110589Y704177D01*
X110612Y704199D01*
X110640Y704216D01*
X110713Y704297D01*
X110791Y704373D01*
X110807Y704401D01*
X110829Y704425D01*
X110876Y704524D01*
X110930Y704619D01*
X110938Y704650D01*
X110952Y704679D01*
X110966Y704768D01*
X110995Y704893D01*
X110993Y704942D01*
X110999Y704984D01*
X110999Y732581D01*
X110995Y732613D01*
X110997Y732645D01*
X110975Y732752D01*
X110959Y732860D01*
X110946Y732889D01*
X110940Y732921D01*
X110888Y733017D01*
X110843Y733117D01*
X110822Y733142D01*
X110807Y733170D01*
X110731Y733248D01*
X110660Y733331D01*
X110633Y733349D01*
X110610Y733372D01*
X110515Y733426D01*
X110424Y733486D01*
X110393Y733495D01*
X110365Y733511D01*
X110258Y733536D01*
X110154Y733568D01*
X110122Y733569D01*
X110091Y733576D01*
X109981Y733570D01*
X109872Y733572D01*
X109841Y733563D01*
X109809Y733562D01*
X109706Y733526D01*
X109600Y733497D01*
X109573Y733480D01*
X109542Y733469D01*
X109469Y733416D01*
X109360Y733349D01*
X109328Y733312D01*
X109293Y733287D01*
X101761Y725755D01*
X101704Y725679D01*
X101639Y725607D01*
X101619Y725566D01*
X101592Y725530D01*
X101558Y725440D01*
X101516Y725353D01*
X101510Y725311D01*
X101493Y725266D01*
X101483Y725138D01*
X101469Y725049D01*
X101469Y712516D01*
X101482Y712421D01*
X101487Y712325D01*
X101502Y712281D01*
X101509Y712236D01*
X101548Y712149D01*
X101580Y712058D01*
X101605Y712024D01*
X101625Y711980D01*
X101708Y711882D01*
X101761Y711809D01*
X109293Y704277D01*
X109319Y704258D01*
X109340Y704233D01*
X109432Y704173D01*
X109519Y704108D01*
X109549Y704096D01*
X109576Y704079D01*
X109681Y704047D01*
X109783Y704008D01*
X109815Y704006D01*
X109846Y703996D01*
X109955Y703995D01*
X110064Y703986D01*
X110096Y703993D01*
G37*
%LPC*%
G36*
X82795Y32685D02*
X82795Y32685D01*
X80106Y33799D01*
X78049Y35856D01*
X76935Y38545D01*
X76935Y41455D01*
X78049Y44144D01*
X80106Y46201D01*
X82795Y47315D01*
X85705Y47315D01*
X88394Y46201D01*
X90451Y44144D01*
X91565Y41455D01*
X91565Y38545D01*
X90451Y35856D01*
X88394Y33799D01*
X85705Y32685D01*
X82795Y32685D01*
G37*
%LPD*%
D10*
X146100Y955000D03*
X110000Y955000D03*
X73900Y955000D03*
D11*
X110000Y905000D03*
X24250Y12700D03*
X95750Y12700D03*
D12*
X84250Y40000D03*
X35750Y40000D03*
D13*
X110000Y28900D03*
X110000Y751100D03*
D14*
X35000Y535000D03*
X35000Y525000D03*
X45000Y455000D03*
X45000Y445000D03*
X55000Y445000D03*
X55000Y455000D03*
D15*
X45000Y455000D02*
X35000Y465000D01*
X35000Y525000D01*
D14*
X88000Y553000D03*
X88000Y558000D03*
X88000Y563000D03*
X88000Y568000D03*
X90000Y585000D03*
D15*
X35000Y530000D01*
X35000Y525000D01*
D14*
X155000Y225000D03*
X182509Y213944D03*
D16*
X171453Y225000D01*
X155000Y225000D01*
D14*
X24944Y540000D03*
D16*
X25000Y539944D01*
X25000Y490000D01*
D14*
X24944Y490000D03*
X179000Y299000D03*
X145000Y235000D03*
D16*
X145000Y285000D01*
X159000Y299000D02*
X179000Y299000D01*
X159000Y299000D02*
X145000Y285000D01*
D14*
X194000Y213000D03*
X159944Y269500D03*
D16*
X159944Y247056D02*
X194000Y213000D01*
X159944Y247056D02*
X159944Y269500D01*
X110000Y113500D02*
X110000Y700000D01*
X110000Y113500D02*
X138500Y85000D01*
D14*
X138500Y85000D03*
D16*
X110000Y737565D02*
X110000Y751100D01*
X110000Y737565D02*
X98944Y726509D01*
X98944Y711056D02*
X110000Y700000D01*
X98944Y711056D02*
X98944Y726509D01*
D14*
X40000Y60000D03*
X30000Y60000D03*
X30000Y70000D03*
X40000Y70000D03*
D15*
X42000Y62000D02*
X152000Y62000D01*
X42000Y62000D02*
X40000Y60000D01*
X152000Y62000D02*
X204840Y114840D01*
X204840Y150000D01*
X204840Y160000D01*
X204840Y600000D01*
D16*
X110000Y920000D02*
X110000Y955000D01*
X110000Y920000D02*
X150000Y920000D01*
D15*
X150000Y654840D02*
X204840Y600000D01*
X150000Y710000D02*
X150000Y920000D01*
D14*
X150000Y155000D03*
D15*
X150000Y680000D02*
X150000Y710000D01*
X150000Y680000D02*
X150000Y654840D01*
X150000Y155000D02*
X199840Y155000D01*
X204840Y160000D01*
X199840Y155000D02*
X204840Y150000D01*
D14*
X134000Y705000D03*
X132500Y687500D03*
D15*
X134000Y705000D02*
X145000Y705000D01*
X150000Y710000D01*
D17*
X134000Y705000D02*
X134000Y689000D01*
X132500Y687500D01*
X142500Y687500D01*
X150000Y680000D01*
D14*
X66056Y674000D03*
D16*
X77492Y643944D02*
X77524Y643944D01*
X66056Y655380D02*
X66056Y674000D01*
X66056Y655380D02*
X77492Y643944D01*
X77524Y643944D02*
X99428Y622040D01*
X99428Y480000D01*
X99428Y477000D01*
X51500Y420000D02*
X50000Y420000D01*
D14*
X50000Y420000D03*
D16*
X53316Y421816D02*
X53316Y422509D01*
X53316Y421816D02*
X51500Y420000D01*
X57308Y426500D02*
X66500Y426500D01*
X57308Y426500D02*
X53316Y422509D01*
X99428Y459428D02*
X99428Y477000D01*
X99428Y459428D02*
X66500Y426500D01*
X106476Y624960D02*
X93944Y637492D01*
D14*
X74869Y671000D03*
X41000Y401000D03*
D16*
X106476Y456476D02*
X106476Y624960D01*
X106476Y456476D02*
X51000Y401000D01*
X41000Y401000D01*
X93944Y651925D02*
X74869Y671000D01*
X93944Y651925D02*
X93944Y637492D01*
D14*
X22000Y181000D03*
D16*
X60000Y219000D02*
X60000Y220000D01*
X60000Y219000D02*
X22000Y181000D01*
D14*
X60000Y220000D03*
X80000Y650000D03*
D16*
X80000Y646452D01*
X102952Y623500D01*
X65016Y420000D02*
X59372Y420000D01*
D14*
X59372Y420000D03*
D16*
X102952Y457936D02*
X102952Y623500D01*
X102952Y457936D02*
X65016Y420000D01*
D14*
X133000Y636000D03*
X95000Y705000D03*
X95000Y735000D03*
X129000Y901000D03*
X70000Y27000D03*
X47000Y150000D03*
X80000Y370000D03*
X85000Y370000D03*
X90000Y370000D03*
X95000Y370000D03*
X100000Y370000D03*
X100000Y375000D03*
X95000Y375000D03*
X90000Y375000D03*
X85000Y375000D03*
X80000Y375000D03*
X80000Y380000D03*
X85000Y380000D03*
X90000Y380000D03*
X95000Y380000D03*
X100000Y380000D03*
X100000Y385000D03*
X95000Y385000D03*
X90000Y385000D03*
X85000Y385000D03*
X80000Y385000D03*
X80000Y390000D03*
X85000Y390000D03*
X90000Y390000D03*
X95000Y390000D03*
X100000Y390000D03*
X100000Y395000D03*
X95000Y395000D03*
X90000Y395000D03*
X85000Y395000D03*
X80000Y395000D03*
X80000Y400000D03*
X85000Y400000D03*
X90000Y400000D03*
X95000Y400000D03*
X100000Y400000D03*
X100000Y405000D03*
X95000Y405000D03*
X90000Y405000D03*
X85000Y405000D03*
X80000Y405000D03*
X80000Y410000D03*
X85000Y410000D03*
X90000Y410000D03*
X95000Y410000D03*
X100000Y410000D03*
X20000Y475000D03*
X45000Y275000D03*
X45000Y285000D03*
X179000Y311500D03*
X179000Y363000D03*
X179000Y375500D03*
X179000Y401000D03*
X179000Y465000D03*
X41000Y375000D03*
X41000Y363000D03*
X41000Y350000D03*
X41000Y337000D03*
X65000Y95000D03*
X88500Y149000D03*
X141000Y187000D03*
X94100Y72100D03*
X110000Y85000D03*
X150000Y99000D03*
X160500Y99000D03*
X138500Y103000D03*
X102500Y110000D03*
X99800Y50300D03*
X186500Y191500D03*
X163500Y191500D03*
X163500Y168500D03*
X186500Y168500D03*
X175000Y180000D03*
X155000Y215000D03*
X15000Y495000D03*
X15000Y505000D03*
X35000Y625000D03*
X194000Y475000D03*
X179000Y248000D03*
X179000Y260500D03*
X179000Y273500D03*
X179000Y286500D03*
X131500Y209500D03*
X155000Y235000D03*
X65000Y105000D03*
X65000Y115000D03*
X65000Y125000D03*
X65000Y135000D03*
X15000Y145000D03*
X25000Y145000D03*
X35000Y145000D03*
X35000Y155000D03*
X25000Y155000D03*
X15000Y155000D03*
X80000Y940000D03*
X55000Y245000D03*
X65000Y245000D03*
X75000Y245000D03*
X85000Y245000D03*
X44000Y432500D03*
X165000Y454500D03*
X175000Y434500D03*
X92000Y168000D03*
X40700Y420000D03*
X195000Y14000D03*
X175000Y414500D03*
X205000Y65000D03*
X195000Y65000D03*
X195000Y75000D03*
X185000Y65000D03*
X205000Y85000D03*
X205000Y75000D03*
X175000Y65000D03*
X175000Y55000D03*
X165000Y55000D03*
X185000Y55000D03*
X195000Y55000D03*
X205000Y55000D03*
X80000Y51000D03*
X15000Y85000D03*
X15000Y75000D03*
X15000Y65000D03*
X15000Y55000D03*
X15000Y45000D03*
X15000Y35000D03*
X15000Y25000D03*
X35000Y25000D03*
X45000Y25000D03*
X45000Y15000D03*
X55000Y15000D03*
X109800Y50300D03*
X119800Y50300D03*
X110000Y95000D03*
X158500Y143000D03*
X133500Y103000D03*
X50000Y180000D03*
X15000Y189000D03*
X45000Y235000D03*
X55000Y235000D03*
X65000Y235000D03*
X75000Y235000D03*
X85000Y235000D03*
X95000Y235000D03*
X135000Y245000D03*
X135000Y255000D03*
X135000Y265000D03*
X135000Y275000D03*
X135000Y285000D03*
X139000Y891000D03*
X139000Y881000D03*
X90000Y926000D03*
X75000Y875000D03*
X75000Y865000D03*
X75000Y855000D03*
X85000Y855000D03*
X95000Y855000D03*
X185000Y765000D03*
X75000Y845000D03*
X75000Y835000D03*
X75000Y825000D03*
X75000Y815000D03*
X55000Y785000D03*
X55000Y765000D03*
X55000Y775000D03*
X45000Y775000D03*
X55000Y755000D03*
X55000Y745000D03*
X15000Y735000D03*
X45000Y705000D03*
X45000Y695000D03*
X45000Y685000D03*
X25000Y655000D03*
X35000Y655000D03*
X35000Y645000D03*
X25000Y645000D03*
X25000Y635000D03*
X35000Y635000D03*
X15000Y515000D03*
X15000Y525000D03*
X15000Y535000D03*
X55000Y565000D03*
X55000Y575000D03*
X55000Y585000D03*
X55000Y595000D03*
X45000Y595000D03*
X55000Y525000D03*
X55000Y535000D03*
X55000Y515000D03*
X55000Y505000D03*
X55000Y495000D03*
X55000Y485000D03*
X55000Y475000D03*
X175000Y715000D03*
X175000Y725000D03*
X175000Y735000D03*
X175000Y745000D03*
X205000Y705000D03*
X205000Y715000D03*
X205000Y725000D03*
X205000Y735000D03*
X205000Y745000D03*
X205000Y755000D03*
X205000Y695000D03*
X205000Y765000D03*
X138000Y770000D03*
X195000Y765000D03*
X129000Y652000D03*
X129000Y643000D03*
X145000Y635000D03*
X155000Y625000D03*
X145000Y625000D03*
X145000Y615000D03*
X155000Y615000D03*
X165000Y615000D03*
X135000Y605000D03*
X135000Y595000D03*
X135000Y585000D03*
X135000Y575000D03*
X145000Y605000D03*
X145000Y595000D03*
X155000Y605000D03*
X94000Y775000D03*
X94000Y765000D03*
X91000Y785000D03*
X105000Y724000D03*
X105000Y715000D03*
X53500Y735000D03*
X45000Y727500D03*
X84500Y720000D03*
X76500Y712500D03*
X85000Y735000D03*
X85000Y745000D03*
X85000Y755000D03*
X85000Y765000D03*
X85000Y775000D03*
X85000Y475000D03*
X85000Y485000D03*
X85000Y495000D03*
X85000Y505000D03*
X85000Y525000D03*
X85000Y515000D03*
X85000Y535000D03*
X85000Y465000D03*
X55000Y385000D03*
X55000Y375000D03*
X55000Y365000D03*
X55000Y355000D03*
X155000Y535000D03*
X145000Y535000D03*
X135000Y535000D03*
X135000Y525000D03*
X135000Y515000D03*
X135000Y505000D03*
X145000Y505000D03*
X155000Y505000D03*
X194500Y535000D03*
X185000Y525000D03*
X185000Y515000D03*
X194500Y505000D03*
X175000Y515000D03*
X175000Y505000D03*
X175000Y525000D03*
X175000Y535000D03*
X135000Y485000D03*
X145000Y485000D03*
X155000Y485000D03*
X165000Y485000D03*
X175000Y485000D03*
X185000Y485000D03*
X135000Y415000D03*
X135000Y405000D03*
X135000Y395000D03*
X135000Y385000D03*
X135000Y375000D03*
X135000Y365000D03*
X135000Y355000D03*
X95000Y355000D03*
X85000Y355000D03*
X85000Y425000D03*
X95000Y425000D03*
X185000Y595000D03*
X185000Y585000D03*
X185000Y575000D03*
X185000Y565000D03*
X185000Y555000D03*
X175000Y555000D03*
X165000Y555000D03*
X165000Y565000D03*
X165000Y575000D03*
X165000Y585000D03*
X165000Y595000D03*
X175000Y595000D03*
X205000Y625000D03*
X205000Y635000D03*
X195000Y635000D03*
X188000Y129000D03*
D16*
X188000Y108641D01*
X148883Y69524D01*
D14*
X95000Y157000D03*
D16*
X95000Y85000D01*
X110476Y69524D01*
X148883Y69524D01*
D14*
X150500Y934500D03*
D16*
X150500Y950600D02*
X146100Y955000D01*
X150500Y950600D02*
X150500Y934500D01*
D15*
X117524Y157476D02*
X140000Y135000D01*
D14*
X140000Y135000D03*
D15*
X117524Y735397D02*
X126424Y744297D01*
X126424Y838576D01*
X75000Y890000D01*
D14*
X75000Y890000D03*
X80000Y885000D03*
D15*
X117524Y735397D02*
X117524Y157476D01*
D14*
X100000Y690000D03*
X100000Y685000D03*
X100000Y680000D03*
X100000Y675000D03*
X100000Y670000D03*
X100000Y665000D03*
X100000Y660000D03*
X100000Y655000D03*
X100000Y650000D03*
X100000Y645000D03*
X100000Y640000D03*
X118000Y640000D03*
X118000Y645000D03*
X118000Y650000D03*
X69580Y704645D03*
D16*
X84225Y690000D01*
X100000Y690000D01*
D14*
X144500Y15500D03*
D16*
X127500Y32500D01*
X127500Y42000D01*
D14*
X127500Y42000D03*
M02*
