G04 EAGLE Gerber RS-274X export*
G75*
%MOMM*%
%FSLAX34Y34*%
%LPD*%
%IN*%
%IPPOS*%
%AMOC8*
5,1,8,0,0,1.08239X$1,22.5*%
G01*
%ADD10C,0.254000*%


D10*
X0Y0D02*
X220000Y0D01*
X220000Y772500D01*
X167500Y800000D01*
X167500Y990000D01*
X127500Y990000D01*
X127500Y1090000D01*
X92500Y1090000D01*
X92500Y990000D01*
X52500Y990000D01*
X52500Y800000D01*
X0Y772500D01*
X0Y0D01*
X29419Y131750D02*
X28259Y131674D01*
X27107Y131522D01*
X25967Y131296D01*
X24845Y130995D01*
X23744Y130621D01*
X22671Y130177D01*
X21628Y129663D01*
X20622Y129081D01*
X19655Y128436D01*
X18734Y127728D01*
X17860Y126962D01*
X17038Y126140D01*
X16272Y125267D01*
X15564Y124345D01*
X14919Y123378D01*
X14338Y122372D01*
X13824Y121329D01*
X13379Y120256D01*
X13005Y119155D01*
X12704Y118033D01*
X12478Y116893D01*
X12326Y115741D01*
X12250Y114581D01*
X12250Y113419D01*
X12326Y112259D01*
X12478Y111107D01*
X12704Y109967D01*
X13005Y108845D01*
X13379Y107744D01*
X13824Y106671D01*
X14338Y105628D01*
X14919Y104622D01*
X15564Y103655D01*
X16272Y102734D01*
X17038Y101860D01*
X17860Y101038D01*
X18734Y100272D01*
X19655Y99564D01*
X20622Y98919D01*
X21628Y98338D01*
X22671Y97824D01*
X23744Y97379D01*
X24845Y97005D01*
X25967Y96704D01*
X27107Y96478D01*
X28259Y96326D01*
X29419Y96250D01*
X30581Y96250D01*
X31741Y96326D01*
X32893Y96478D01*
X34033Y96704D01*
X35155Y97005D01*
X36256Y97379D01*
X37329Y97824D01*
X38372Y98338D01*
X39378Y98919D01*
X40345Y99564D01*
X41267Y100272D01*
X42140Y101038D01*
X42962Y101860D01*
X43728Y102734D01*
X44436Y103655D01*
X45081Y104622D01*
X45663Y105628D01*
X46177Y106671D01*
X46621Y107744D01*
X46995Y108845D01*
X47296Y109967D01*
X47522Y111107D01*
X47674Y112259D01*
X47750Y113419D01*
X47750Y114581D01*
X47674Y115741D01*
X47522Y116893D01*
X47296Y118033D01*
X46995Y119155D01*
X46621Y120256D01*
X46177Y121329D01*
X45663Y122372D01*
X45081Y123378D01*
X44436Y124345D01*
X43728Y125267D01*
X42962Y126140D01*
X42140Y126962D01*
X41267Y127728D01*
X40345Y128436D01*
X39378Y129081D01*
X38372Y129663D01*
X37329Y130177D01*
X36256Y130621D01*
X35155Y130995D01*
X34033Y131296D01*
X32893Y131522D01*
X31741Y131674D01*
X30581Y131750D01*
X29419Y131750D01*
X189419Y683750D02*
X188259Y683674D01*
X187107Y683522D01*
X185967Y683296D01*
X184845Y682995D01*
X183744Y682621D01*
X182671Y682177D01*
X181628Y681663D01*
X180622Y681081D01*
X179655Y680436D01*
X178734Y679728D01*
X177860Y678962D01*
X177038Y678140D01*
X176272Y677267D01*
X175564Y676345D01*
X174919Y675378D01*
X174338Y674372D01*
X173824Y673329D01*
X173379Y672256D01*
X173005Y671155D01*
X172704Y670033D01*
X172478Y668893D01*
X172326Y667741D01*
X172250Y666581D01*
X172250Y665419D01*
X172326Y664259D01*
X172478Y663107D01*
X172704Y661967D01*
X173005Y660845D01*
X173379Y659744D01*
X173824Y658671D01*
X174338Y657628D01*
X174919Y656622D01*
X175564Y655655D01*
X176272Y654734D01*
X177038Y653860D01*
X177860Y653038D01*
X178734Y652272D01*
X179655Y651564D01*
X180622Y650919D01*
X181628Y650338D01*
X182671Y649824D01*
X183744Y649379D01*
X184845Y649005D01*
X185967Y648704D01*
X187107Y648478D01*
X188259Y648326D01*
X189419Y648250D01*
X190581Y648250D01*
X191741Y648326D01*
X192893Y648478D01*
X194033Y648704D01*
X195155Y649005D01*
X196256Y649379D01*
X197329Y649824D01*
X198372Y650338D01*
X199378Y650919D01*
X200345Y651564D01*
X201267Y652272D01*
X202140Y653038D01*
X202962Y653860D01*
X203728Y654734D01*
X204436Y655655D01*
X205081Y656622D01*
X205663Y657628D01*
X206177Y658671D01*
X206621Y659744D01*
X206995Y660845D01*
X207296Y661967D01*
X207522Y663107D01*
X207674Y664259D01*
X207750Y665419D01*
X207750Y666581D01*
X207674Y667741D01*
X207522Y668893D01*
X207296Y670033D01*
X206995Y671155D01*
X206621Y672256D01*
X206177Y673329D01*
X205663Y674372D01*
X205081Y675378D01*
X204436Y676345D01*
X203728Y677267D01*
X202962Y678140D01*
X202140Y678962D01*
X201267Y679728D01*
X200345Y680436D01*
X199378Y681081D01*
X198372Y681663D01*
X197329Y682177D01*
X196256Y682621D01*
X195155Y682995D01*
X194033Y683296D01*
X192893Y683522D01*
X191741Y683674D01*
X190581Y683750D01*
X189419Y683750D01*
X29530Y763050D02*
X28594Y762976D01*
X27667Y762829D01*
X26754Y762610D01*
X25861Y762320D01*
X24993Y761961D01*
X24156Y761534D01*
X23356Y761044D01*
X22596Y760492D01*
X21882Y759882D01*
X21218Y759218D01*
X20608Y758504D01*
X20056Y757744D01*
X19566Y756944D01*
X19139Y756107D01*
X18780Y755239D01*
X18490Y754346D01*
X18271Y753433D01*
X18124Y752506D01*
X18050Y751570D01*
X18050Y750630D01*
X18124Y749694D01*
X18271Y748767D01*
X18490Y747854D01*
X18780Y746961D01*
X19139Y746093D01*
X19566Y745256D01*
X20056Y744456D01*
X20608Y743696D01*
X21218Y742982D01*
X21882Y742318D01*
X22596Y741708D01*
X23356Y741156D01*
X24156Y740666D01*
X24993Y740239D01*
X25861Y739880D01*
X26754Y739590D01*
X27667Y739371D01*
X28594Y739224D01*
X29530Y739150D01*
X30470Y739150D01*
X31406Y739224D01*
X32333Y739371D01*
X33246Y739590D01*
X34139Y739880D01*
X35007Y740239D01*
X35844Y740666D01*
X36644Y741156D01*
X37404Y741708D01*
X38118Y742318D01*
X38782Y742982D01*
X39392Y743696D01*
X39944Y744456D01*
X40434Y745256D01*
X40861Y746093D01*
X41220Y746961D01*
X41510Y747854D01*
X41729Y748767D01*
X41876Y749694D01*
X41950Y750630D01*
X41950Y751570D01*
X41876Y752506D01*
X41729Y753433D01*
X41510Y754346D01*
X41220Y755239D01*
X40861Y756107D01*
X40434Y756944D01*
X39944Y757744D01*
X39392Y758504D01*
X38782Y759218D01*
X38118Y759882D01*
X37404Y760492D01*
X36644Y761044D01*
X35844Y761534D01*
X35007Y761961D01*
X34139Y762320D01*
X33246Y762610D01*
X32333Y762829D01*
X31406Y762976D01*
X30470Y763050D01*
X29530Y763050D01*
M02*
