G04 EAGLE Gerber RS-274X export*
G75*
%MOMM*%
%FSLAX34Y34*%
%LPD*%
%INSolderpaste Top*%
%IPPOS*%
%AMOC8*
5,1,8,0,0,1.08239X$1,22.5*%
G01*
%ADD10R,0.979100X0.657400*%
%ADD11R,0.657400X0.979100*%
%ADD12R,1.092400X0.771800*%
%ADD13R,0.869700X0.929100*%
%ADD14R,2.000000X0.900000*%
%ADD15R,5.000000X5.000000*%
%ADD16R,0.589200X1.968500*%
%ADD17C,0.264000*%
%ADD18R,3.200000X3.200000*%
%ADD19R,2.700000X10.000000*%
%ADD20R,1.300000X1.800000*%
%ADD21R,0.933900X1.965100*%
%ADD22R,3.233900X1.965100*%
%ADD23R,0.400000X1.350000*%
%ADD24R,0.991500X1.298200*%
%ADD25R,0.589100X1.298200*%
%ADD26R,2.400000X2.210000*%
%ADD27R,0.500000X1.200000*%
%ADD28R,0.500000X0.400000*%
%ADD29R,0.929100X0.869700*%
%ADD30R,0.280000X0.800000*%
%ADD31R,0.800000X0.280000*%
%ADD32C,0.134400*%


D10*
X135000Y150037D03*
X135000Y163963D03*
D11*
X18037Y550000D03*
X31963Y550000D03*
X31963Y595000D03*
X18037Y595000D03*
D12*
X41125Y190500D03*
X41125Y209500D03*
X18875Y200000D03*
X98875Y209500D03*
X98875Y190500D03*
X121125Y200000D03*
D13*
X17203Y610000D03*
X32797Y610000D03*
X77797Y190000D03*
X62203Y190000D03*
X62203Y210000D03*
X77797Y210000D03*
D14*
X25000Y464300D03*
X25000Y451600D03*
X25000Y438900D03*
X25000Y426200D03*
X25000Y413500D03*
X25000Y400800D03*
X25000Y388100D03*
X25000Y375400D03*
X25000Y362700D03*
X25000Y350000D03*
X25000Y337300D03*
X25000Y324600D03*
X25000Y311900D03*
X25000Y299200D03*
X25000Y286500D03*
X25000Y273800D03*
X25000Y261100D03*
X25000Y248400D03*
X25000Y235700D03*
X195000Y235700D03*
X195000Y248400D03*
X195000Y261100D03*
X195000Y273800D03*
X195000Y286500D03*
X195000Y299200D03*
X195000Y311900D03*
X195000Y324600D03*
X195000Y337300D03*
X195000Y350000D03*
X195000Y362700D03*
X195000Y375400D03*
X195000Y388100D03*
X195000Y400800D03*
X195000Y413500D03*
X195000Y426200D03*
X195000Y438900D03*
X195000Y451600D03*
X195000Y464300D03*
D15*
X100000Y389300D03*
D16*
X90950Y835266D03*
X103650Y835266D03*
X116350Y835266D03*
X129050Y835266D03*
X129050Y884734D03*
X116350Y884734D03*
X103650Y884734D03*
X90950Y884734D03*
D17*
X147761Y195000D02*
X154813Y195000D01*
X154813Y190000D02*
X147761Y190000D01*
X147761Y185000D02*
X154813Y185000D01*
X154813Y180000D02*
X147761Y180000D01*
X147761Y175000D02*
X154813Y175000D01*
X154813Y170000D02*
X147761Y170000D01*
X147761Y165000D02*
X154813Y165000D01*
X160000Y159813D02*
X160000Y152761D01*
X165000Y152761D02*
X165000Y159813D01*
X170000Y159813D02*
X170000Y152761D01*
X175000Y152761D02*
X175000Y159813D01*
X180000Y159813D02*
X180000Y152761D01*
X185000Y152761D02*
X185000Y159813D01*
X190000Y159813D02*
X190000Y152761D01*
X195187Y165000D02*
X202239Y165000D01*
X202239Y170000D02*
X195187Y170000D01*
X195187Y175000D02*
X202239Y175000D01*
X202239Y180000D02*
X195187Y180000D01*
X195187Y185000D02*
X202239Y185000D01*
X202239Y190000D02*
X195187Y190000D01*
X195187Y195000D02*
X202239Y195000D01*
X190000Y200187D02*
X190000Y207239D01*
X185000Y207239D02*
X185000Y200187D01*
X180000Y200187D02*
X180000Y207239D01*
X175000Y207239D02*
X175000Y200187D01*
X170000Y200187D02*
X170000Y207239D01*
X165000Y207239D02*
X165000Y200187D01*
X160000Y200187D02*
X160000Y207239D01*
D18*
X175000Y180000D03*
D19*
X110000Y1030000D03*
D13*
X187797Y140000D03*
X172203Y140000D03*
D10*
X120000Y150037D03*
X120000Y163963D03*
X90000Y903037D03*
X90000Y916963D03*
D20*
X94000Y87000D03*
X126000Y87000D03*
X126000Y133000D03*
X94000Y133000D03*
D10*
X150000Y108037D03*
X150000Y121963D03*
D12*
X58875Y169500D03*
X58875Y150500D03*
X81125Y160000D03*
D13*
X37797Y170000D03*
X22203Y170000D03*
D11*
X18037Y580000D03*
X31963Y580000D03*
X73037Y640000D03*
X86963Y640000D03*
X18037Y565000D03*
X31963Y565000D03*
D21*
X133000Y620226D03*
X110000Y620226D03*
X87000Y620226D03*
D22*
X110000Y559774D03*
D10*
X105000Y150037D03*
X105000Y163963D03*
D23*
X47000Y40000D03*
X53500Y40000D03*
X60000Y40000D03*
X66500Y40000D03*
X73000Y40000D03*
D24*
X67588Y80266D03*
D25*
X50400Y80266D03*
X50400Y59734D03*
X69600Y59734D03*
D13*
X32797Y690000D03*
X17203Y690000D03*
D11*
X18037Y675000D03*
X31963Y675000D03*
D13*
X17203Y705000D03*
X32797Y705000D03*
X17203Y720000D03*
X32797Y720000D03*
D26*
X170000Y30000D03*
D27*
X152500Y36100D03*
D28*
X152500Y26000D03*
X152500Y19900D03*
D27*
X187500Y36100D03*
D28*
X187500Y26000D03*
X187500Y19900D03*
D10*
X138500Y28037D03*
X138500Y41963D03*
D29*
X138500Y52203D03*
X138500Y67797D03*
X204500Y37797D03*
X204500Y22203D03*
D10*
X170000Y107537D03*
X170000Y121463D03*
D30*
X117500Y735000D03*
X112500Y735000D03*
X107500Y735000D03*
X102500Y735000D03*
D31*
X95000Y727500D03*
X95000Y722500D03*
X95000Y717500D03*
X95000Y712500D03*
D30*
X102500Y705000D03*
X107500Y705000D03*
X112500Y705000D03*
X117500Y705000D03*
D31*
X125000Y712500D03*
X125000Y717500D03*
X125000Y722500D03*
X125000Y727500D03*
D32*
X102272Y727728D02*
X102272Y712272D01*
X102272Y727728D02*
X117728Y727728D01*
X117728Y712272D01*
X102272Y712272D01*
X102272Y713549D02*
X117728Y713549D01*
X117728Y714826D02*
X102272Y714826D01*
X102272Y716103D02*
X117728Y716103D01*
X117728Y717380D02*
X102272Y717380D01*
X102272Y718657D02*
X117728Y718657D01*
X117728Y719934D02*
X102272Y719934D01*
X102272Y721211D02*
X117728Y721211D01*
X117728Y722488D02*
X102272Y722488D01*
X102272Y723765D02*
X117728Y723765D01*
X117728Y725042D02*
X102272Y725042D01*
X102272Y726319D02*
X117728Y726319D01*
X117728Y727596D02*
X102272Y727596D01*
D11*
X116963Y770000D03*
X103037Y770000D03*
D13*
X142203Y725000D03*
X157797Y725000D03*
X142203Y740000D03*
X157797Y740000D03*
D11*
X143037Y710000D03*
X156963Y710000D03*
D13*
X72203Y660000D03*
X87797Y660000D03*
X72203Y685000D03*
X87797Y685000D03*
X142203Y650000D03*
X157797Y650000D03*
X157797Y680000D03*
X142203Y680000D03*
X157797Y695000D03*
X142203Y695000D03*
D29*
X120000Y662203D03*
X120000Y677797D03*
D13*
X157797Y665000D03*
X142203Y665000D03*
D10*
X75000Y903037D03*
X75000Y916963D03*
D13*
X117797Y785000D03*
X102203Y785000D03*
X167797Y770000D03*
X152203Y770000D03*
M02*
