M48
;GenerationSoftware,Autodesk,EAGLE,9.3.1*%
;CreationDate,2019-03-21T16:23:13Z*%
FMAT,2
ICI,OFF
METRIC,TZ,000.000
T7C0.300
T6C0.350
T5C0.650
T4C1.000
T3C1.320
T2C2.390
T1C3.600
%
G90
M71
T1
X3000Y11400
X19000Y66600
T2
X3000Y75110
T3
X11000Y2890
X11000Y75110
T4
X11000Y90500
X2425Y1270
X9575Y1270
T5
X8425Y4000
X3575Y4000
T6
X18000Y54793
X16146Y56646
X16646Y56646
X17500Y54793
X17000Y54793
X16500Y54793
X16400Y55293
X11400Y71590
X11440Y72440
X17500Y55893
X18254Y56646
X16000Y54793
X18000Y56193
X17146Y58975
X16293Y59121
X16293Y58621
X18146Y59975
X18650Y19150
X16293Y58121
X18146Y58975
X18146Y58475
X18146Y57975
X17646Y58475
X16646Y59475
X16293Y59828
X17500Y18000
X11000Y72000
X17500Y5500
X18000Y6000
X17500Y6500
X18500Y6500
X18500Y5500
X16350Y19150
X18500Y6000
X18000Y6500
X18000Y5500
X16350Y16850
X18650Y16850
X18146Y59475
X10570Y72430
X10585Y71575
X16900Y55693
X17646Y56646
X17146Y56646
X17500Y6000
T7
X8000Y37000
X8500Y37000
X9000Y37000
X9500Y37000
X10000Y37000
X10000Y37500
X9500Y37500
X3500Y53500
X8500Y37500
X8000Y37500
X8000Y38000
X8500Y38000
X9000Y38000
X9500Y38000
X10000Y38000
X10000Y38500
X9500Y38500
X9000Y38500
X8500Y38500
X8000Y38500
X8000Y39000
X8500Y39000
X9000Y39000
X9500Y39000
X10000Y39000
X10000Y39500
X9500Y39500
X9000Y39500
X8500Y39500
X8000Y39500
X8000Y40000
X8500Y40000
X9000Y40000
X9500Y40000
X10000Y40000
X10000Y40500
X9500Y40500
X9000Y40500
X8500Y40500
X8000Y40500
X8000Y41000
X8500Y41000
X9000Y41000
X9500Y41000
X10000Y41000
X2245Y47725
X4380Y28615
X17900Y31150
X17965Y40120
X17500Y46500
X4100Y38250
X5850Y39550
X5850Y34750
X4100Y33200
X6500Y9500
X8850Y14900
X13990Y18540
X9910Y7210
X9980Y5030
X9000Y37500
X15500Y21500
X1500Y49500
X1500Y50500
X3500Y63000
X17900Y24050
X17900Y28650
X13150Y20950
X15500Y23500
X6500Y10500
X6500Y11500
X6500Y12500
X6500Y13500
X1500Y14500
X2500Y14500
X3500Y14500
X3500Y15500
X2500Y15500
X1500Y15500
X4400Y43250
X17955Y43975
X9200Y16800
X4070Y42000
X18000Y41950
X8000Y5090
X1500Y8500
X1500Y7500
X1500Y6500
X1500Y5500
X1500Y4500
X1500Y3500
X1500Y2500
X3500Y2250
X4500Y2250
X4000Y1500
X5000Y1500
X10980Y5030
X11980Y5030
X15850Y14300
X5000Y18000
X1500Y18900
X4500Y23500
X5500Y23500
X6500Y23500
X7500Y23500
X8500Y23500
X9500Y23500
X13900Y90100
X12900Y88600
X9000Y92000
X13750Y83500
X7500Y92000
X7500Y85500
X18500Y77000
X7500Y84500
X7500Y83500
X7500Y82500
X7500Y81500
X5500Y78500
X5500Y76500
X5500Y77500
X4500Y77500
X5500Y75500
X5500Y74500
X2000Y66000
X3500Y66000
X3500Y65000
X2000Y65000
X2000Y64000
X3500Y64000
X1500Y51500
X1500Y52500
X1500Y53500
X5500Y56500
X5500Y57500
X5500Y58500
X5500Y59500
X4500Y59500
X5500Y52500
X5500Y53500
X5500Y51500
X5500Y50500
X5500Y49500
X5500Y48500
X5500Y47500
X17500Y71500
X17500Y72500
X17500Y73500
X17500Y74500
X20500Y70500
X20500Y71500
X20500Y72500
X20500Y73500
X20500Y74500
X20500Y75500
X20500Y69500
X19500Y76500
X9400Y77500
X9400Y76500
X9100Y78500
X5350Y73500
X4500Y72750
X8360Y72000
X7650Y71250
X8500Y73500
X8500Y74500
X8500Y75500
X8500Y76500
X8500Y77500
X8500Y47500
X8500Y48500
X8500Y49500
X8500Y50500
X8500Y52500
X8500Y51500
X8500Y53500
X15500Y51250
X14500Y51250
X13500Y51250
X13500Y50250
X13500Y49250
X13500Y48250
X14500Y48250
X15500Y48250
X19450Y51250
X18500Y50250
X18500Y49250
X19450Y48250
X17500Y49250
X17500Y48250
X17500Y50250
X17500Y51250
X13500Y41500
X13500Y40500
X13500Y39500
X13500Y38500
X13500Y37500
X13500Y36500
X9500Y35500
X8500Y35500
X8500Y42500
X9500Y42500
X3500Y52500
X4500Y45500
X4500Y44500
X5500Y44500
X5500Y45500
X8800Y55300
X8800Y55800
X8800Y56300
X8800Y56800
X9000Y58500
X20500Y62500
X20500Y63500
X19500Y63500
X20500Y1500
X20000Y2000
X20500Y2500
X20000Y3000
X20500Y3500
X20000Y4000
X20500Y4500
X20000Y5000
X20500Y9500
X20000Y9000
X15500Y5000
X16000Y5500
X13000Y5000
X12480Y11030
X16500Y10000
X18000Y11500
X17000Y10500
X17500Y11000
X14000Y8500
X15000Y8500
X10280Y10260
X10300Y11810
X15500Y10000
X14500Y10000
X17500Y12500
X18000Y72000
X18000Y73000
X18000Y74000
X15500Y22500
X18481Y21600
X9130Y70525
X7750Y2700
X12700Y77000
X12700Y76000
X12700Y79500
X12400Y73430
X17900Y35150
X6240Y69945
X1390Y61990
X13290Y59880
X2494Y54000
X2494Y49000
X17900Y29900
X14500Y23500
X13900Y87600
X8250Y93500
X7750Y93500
X8250Y94000
X6750Y97500
X19350Y21600
X15994Y27450
X11000Y11000
X14500Y2500
X14500Y4500
X3750Y5500
X2750Y5500
X2750Y6500
X3750Y6500
X14750Y15500
X13400Y70500
X13250Y68750
X8120Y7120
X14000Y8000
X14500Y8000
X14500Y8500
X15000Y8000
X14500Y7500
X14000Y7500
X19500Y8500
X12880Y69670
X20000Y9500
X20500Y9000
X12480Y10530
X12480Y11530
X15500Y8500
X10480Y5030
X11480Y5030
X12480Y5030
X13500Y5000
X16000Y5000
X15850Y13800
X19430Y11980
X10000Y26500
X10000Y27000
X10000Y27500
X10000Y28000
X10000Y28500
X10000Y29000
X10000Y29500
X10000Y30000
X10000Y30500
X10000Y31000
X10000Y31500
X10000Y32000
X10000Y32500
X10000Y33000
X10000Y33500
X10000Y34000
X13000Y34000
X13000Y33500
X13000Y33000
X13000Y32500
X13000Y32000
X13000Y31500
X13000Y31000
X13000Y30500
X13000Y30000
X13000Y29500
X13000Y29000
X13000Y28000
X13000Y28500
X13000Y27500
X13000Y27000
X13000Y26500
X9000Y35500
X8000Y35500
X10000Y35500
X10000Y42500
X9000Y42500
X13500Y37000
X13500Y38000
X13500Y39000
X13500Y40000
X13500Y41000
X5260Y20000
X19500Y9000
X8775Y18645
X15500Y24500
X4500Y60500
X11000Y103000
X5500Y2250
X6000Y1500
X3250Y6000
X3500Y62000
X18800Y12900
X9500Y15700
X14800Y93450
X14000Y13600
X8000Y87500
X7500Y88250
X10000Y67500
X10000Y67000
X10000Y66500
X10000Y66000
X10000Y65500
X10000Y65000
X10000Y64500
X10000Y64000
X11800Y64000
X11800Y64500
X11800Y65000
X6818Y70794
X11800Y65500
X11800Y66000
X11800Y66500
X11800Y67000
X11800Y67500
X3250Y6750
X2500Y6000
X4000Y6000
X3250Y5250
X6116Y64280
X5000Y42000
X4100Y40100
X6483Y66310
X2200Y18100
X14000Y53500
X15000Y53500
X16000Y53500
X17000Y53500
X18000Y53500
X19000Y53500
X6000Y22000
X8000Y64300
X5937Y42000
X13300Y63100
X7500Y69050
X9500Y73500
X12900Y90100
X7000Y2700
X4700Y15000
X8785Y21385
M30