G04 EAGLE Gerber RS-274X export*
G75*
%MOMM*%
%FSLAX34Y34*%
%LPD*%
%INBottom Copper*%
%IPPOS*%
%AMOC8*
5,1,8,0,0,1.08239X$1,22.5*%
G01*
%ADD10R,2.700000X5.000000*%
%ADD11C,1.508000*%
%ADD12C,1.158000*%
%ADD13C,1.980000*%
%ADD14C,0.706400*%
%ADD15C,1.000000*%
%ADD16C,0.200000*%
%ADD17C,0.800000*%
%ADD18C,0.756400*%

G36*
X14250Y10170D02*
X14250Y10170D01*
X14314Y10169D01*
X14389Y10190D01*
X14465Y10201D01*
X14524Y10227D01*
X14586Y10244D01*
X14652Y10285D01*
X14722Y10317D01*
X14771Y10359D01*
X14826Y10392D01*
X14878Y10450D01*
X14936Y10500D01*
X14972Y10554D01*
X15015Y10602D01*
X15048Y10671D01*
X15091Y10736D01*
X15110Y10798D01*
X15138Y10855D01*
X15149Y10925D01*
X15173Y11006D01*
X15174Y11091D01*
X15185Y11160D01*
X15185Y14503D01*
X16565Y17835D01*
X19115Y20385D01*
X22447Y21765D01*
X26053Y21765D01*
X29385Y20385D01*
X31935Y17835D01*
X33315Y14503D01*
X33315Y11160D01*
X33324Y11096D01*
X33323Y11032D01*
X33344Y10957D01*
X33355Y10881D01*
X33381Y10822D01*
X33398Y10760D01*
X33439Y10694D01*
X33471Y10624D01*
X33513Y10575D01*
X33546Y10520D01*
X33604Y10468D01*
X33654Y10410D01*
X33708Y10374D01*
X33756Y10331D01*
X33825Y10298D01*
X33890Y10255D01*
X33952Y10236D01*
X34009Y10208D01*
X34079Y10197D01*
X34160Y10173D01*
X34245Y10172D01*
X34314Y10161D01*
X85686Y10161D01*
X85750Y10170D01*
X85814Y10169D01*
X85889Y10190D01*
X85965Y10201D01*
X86024Y10227D01*
X86086Y10244D01*
X86152Y10285D01*
X86222Y10317D01*
X86271Y10359D01*
X86326Y10392D01*
X86378Y10450D01*
X86436Y10500D01*
X86472Y10554D01*
X86515Y10602D01*
X86548Y10671D01*
X86591Y10736D01*
X86610Y10798D01*
X86638Y10855D01*
X86649Y10925D01*
X86673Y11006D01*
X86674Y11091D01*
X86685Y11160D01*
X86685Y14503D01*
X88065Y17835D01*
X90615Y20385D01*
X93947Y21765D01*
X97553Y21765D01*
X98990Y21170D01*
X99021Y21162D01*
X99050Y21147D01*
X99157Y21127D01*
X99263Y21100D01*
X99295Y21101D01*
X99327Y21095D01*
X99435Y21105D01*
X99545Y21109D01*
X99575Y21119D01*
X99607Y21122D01*
X99709Y21162D01*
X99813Y21196D01*
X99839Y21214D01*
X99869Y21226D01*
X99955Y21293D01*
X100046Y21355D01*
X100066Y21380D01*
X100092Y21400D01*
X100156Y21488D01*
X100225Y21573D01*
X100238Y21602D01*
X100257Y21628D01*
X100293Y21731D01*
X100337Y21832D01*
X100340Y21864D01*
X100351Y21894D01*
X100358Y22003D01*
X100371Y22112D01*
X100366Y22143D01*
X100368Y22176D01*
X100346Y22264D01*
X100326Y22390D01*
X100305Y22434D01*
X100295Y22475D01*
X98575Y26627D01*
X98575Y31173D01*
X100315Y35372D01*
X103528Y38585D01*
X107727Y40325D01*
X112273Y40325D01*
X116472Y38585D01*
X119685Y35372D01*
X121425Y31173D01*
X121425Y26627D01*
X119685Y22428D01*
X116472Y19215D01*
X112273Y17475D01*
X107727Y17475D01*
X104954Y18624D01*
X104923Y18632D01*
X104894Y18647D01*
X104787Y18667D01*
X104681Y18694D01*
X104649Y18693D01*
X104617Y18699D01*
X104508Y18689D01*
X104399Y18685D01*
X104368Y18675D01*
X104336Y18672D01*
X104235Y18631D01*
X104131Y18598D01*
X104104Y18579D01*
X104074Y18567D01*
X103988Y18500D01*
X103898Y18439D01*
X103877Y18414D01*
X103852Y18394D01*
X103788Y18305D01*
X103719Y18221D01*
X103706Y18191D01*
X103687Y18165D01*
X103650Y18063D01*
X103607Y17962D01*
X103603Y17930D01*
X103592Y17900D01*
X103586Y17790D01*
X103573Y17682D01*
X103578Y17650D01*
X103576Y17618D01*
X103597Y17530D01*
X103618Y17404D01*
X103639Y17360D01*
X103649Y17318D01*
X104815Y14503D01*
X104815Y11160D01*
X104824Y11096D01*
X104823Y11032D01*
X104844Y10957D01*
X104855Y10881D01*
X104881Y10822D01*
X104898Y10760D01*
X104939Y10694D01*
X104971Y10624D01*
X105013Y10575D01*
X105046Y10520D01*
X105104Y10468D01*
X105154Y10410D01*
X105208Y10374D01*
X105256Y10331D01*
X105325Y10298D01*
X105390Y10255D01*
X105452Y10236D01*
X105509Y10208D01*
X105579Y10197D01*
X105660Y10173D01*
X105745Y10172D01*
X105814Y10161D01*
X208840Y10161D01*
X208904Y10170D01*
X208968Y10169D01*
X209043Y10190D01*
X209119Y10201D01*
X209178Y10227D01*
X209240Y10244D01*
X209306Y10285D01*
X209376Y10317D01*
X209425Y10359D01*
X209480Y10392D01*
X209532Y10450D01*
X209590Y10500D01*
X209626Y10554D01*
X209669Y10602D01*
X209702Y10671D01*
X209745Y10736D01*
X209764Y10798D01*
X209792Y10855D01*
X209803Y10925D01*
X209827Y11006D01*
X209828Y11091D01*
X209839Y11160D01*
X209839Y108200D01*
X209835Y108231D01*
X209837Y108264D01*
X209815Y108371D01*
X209799Y108479D01*
X209786Y108508D01*
X209780Y108540D01*
X209728Y108636D01*
X209683Y108736D01*
X209662Y108760D01*
X209647Y108789D01*
X209571Y108867D01*
X209500Y108950D01*
X209473Y108968D01*
X209450Y108991D01*
X209355Y109044D01*
X209264Y109104D01*
X209233Y109114D01*
X209205Y109130D01*
X209098Y109155D01*
X208994Y109187D01*
X208962Y109187D01*
X208931Y109195D01*
X208821Y109189D01*
X208712Y109191D01*
X208681Y109182D01*
X208649Y109180D01*
X208546Y109144D01*
X208440Y109115D01*
X208413Y109098D01*
X208382Y109088D01*
X208309Y109035D01*
X208200Y108967D01*
X208168Y108931D01*
X208133Y108906D01*
X173458Y74231D01*
X173439Y74205D01*
X173414Y74184D01*
X173354Y74092D01*
X173289Y74005D01*
X173277Y73975D01*
X173260Y73948D01*
X173228Y73843D01*
X173189Y73741D01*
X173187Y73709D01*
X173177Y73678D01*
X173176Y73569D01*
X173167Y73460D01*
X173174Y73428D01*
X173173Y73396D01*
X173203Y73291D01*
X173225Y73184D01*
X173240Y73155D01*
X173249Y73124D01*
X173306Y73031D01*
X173357Y72935D01*
X173380Y72912D01*
X173397Y72884D01*
X173478Y72811D01*
X173554Y72733D01*
X173582Y72717D01*
X173606Y72695D01*
X173704Y72648D01*
X173800Y72594D01*
X173831Y72586D01*
X173860Y72572D01*
X173949Y72558D01*
X174074Y72529D01*
X174122Y72531D01*
X174164Y72525D01*
X191046Y72525D01*
X192525Y71046D01*
X192525Y48954D01*
X191046Y47475D01*
X168954Y47475D01*
X167475Y48954D01*
X167475Y65836D01*
X167471Y65867D01*
X167473Y65900D01*
X167451Y66007D01*
X167435Y66115D01*
X167422Y66144D01*
X167416Y66176D01*
X167364Y66272D01*
X167319Y66372D01*
X167298Y66396D01*
X167283Y66425D01*
X167207Y66503D01*
X167136Y66586D01*
X167109Y66604D01*
X167086Y66627D01*
X166991Y66680D01*
X166900Y66740D01*
X166869Y66750D01*
X166841Y66766D01*
X166734Y66791D01*
X166630Y66823D01*
X166598Y66823D01*
X166567Y66831D01*
X166457Y66825D01*
X166348Y66827D01*
X166317Y66818D01*
X166285Y66816D01*
X166182Y66780D01*
X166076Y66751D01*
X166049Y66734D01*
X166018Y66724D01*
X165945Y66671D01*
X165836Y66603D01*
X165804Y66567D01*
X165769Y66542D01*
X154696Y55469D01*
X152298Y54475D01*
X48524Y54475D01*
X48460Y54466D01*
X48396Y54467D01*
X48321Y54446D01*
X48245Y54435D01*
X48186Y54409D01*
X48124Y54392D01*
X48058Y54351D01*
X47988Y54319D01*
X47939Y54277D01*
X47884Y54244D01*
X47832Y54186D01*
X47774Y54136D01*
X47738Y54082D01*
X47695Y54034D01*
X47662Y53965D01*
X47619Y53900D01*
X47600Y53838D01*
X47572Y53781D01*
X47561Y53711D01*
X47537Y53630D01*
X47536Y53545D01*
X47525Y53476D01*
X47525Y28954D01*
X46046Y27475D01*
X20954Y27475D01*
X19475Y28954D01*
X19475Y71046D01*
X20954Y72525D01*
X29960Y72525D01*
X30054Y72538D01*
X30151Y72543D01*
X30190Y72557D01*
X34802Y72557D01*
X34823Y72549D01*
X34951Y72539D01*
X35040Y72525D01*
X46046Y72525D01*
X47525Y71046D01*
X47525Y68524D01*
X47534Y68460D01*
X47533Y68396D01*
X47554Y68321D01*
X47565Y68245D01*
X47591Y68186D01*
X47608Y68124D01*
X47649Y68058D01*
X47681Y67988D01*
X47723Y67939D01*
X47756Y67884D01*
X47814Y67832D01*
X47864Y67774D01*
X47918Y67738D01*
X47966Y67695D01*
X48035Y67662D01*
X48100Y67619D01*
X48162Y67600D01*
X48219Y67572D01*
X48289Y67561D01*
X48370Y67537D01*
X48455Y67536D01*
X48524Y67525D01*
X106492Y67525D01*
X106524Y67529D01*
X106556Y67527D01*
X106663Y67549D01*
X106772Y67565D01*
X106801Y67578D01*
X106833Y67584D01*
X106929Y67636D01*
X107029Y67681D01*
X107053Y67702D01*
X107081Y67717D01*
X107160Y67793D01*
X107243Y67864D01*
X107260Y67891D01*
X107284Y67914D01*
X107337Y68009D01*
X107397Y68100D01*
X107407Y68131D01*
X107423Y68159D01*
X107448Y68266D01*
X107480Y68370D01*
X107480Y68402D01*
X107488Y68433D01*
X107482Y68543D01*
X107483Y68652D01*
X107475Y68683D01*
X107473Y68715D01*
X107437Y68818D01*
X107408Y68924D01*
X107391Y68951D01*
X107381Y68982D01*
X107327Y69055D01*
X107260Y69164D01*
X107224Y69196D01*
X107199Y69231D01*
X92475Y83954D01*
X92475Y151960D01*
X92462Y152054D01*
X92457Y152151D01*
X92442Y152194D01*
X92435Y152239D01*
X92396Y152326D01*
X92364Y152417D01*
X92339Y152452D01*
X92319Y152496D01*
X92236Y152593D01*
X92183Y152666D01*
X89943Y154905D01*
X89943Y159095D01*
X92905Y162057D01*
X97095Y162057D01*
X100057Y159095D01*
X100057Y154905D01*
X97817Y152666D01*
X97760Y152589D01*
X97695Y152518D01*
X97675Y152477D01*
X97648Y152441D01*
X97614Y152350D01*
X97572Y152264D01*
X97566Y152222D01*
X97549Y152177D01*
X97539Y152049D01*
X97525Y151960D01*
X97525Y86460D01*
X97538Y86365D01*
X97543Y86269D01*
X97558Y86225D01*
X97565Y86180D01*
X97604Y86093D01*
X97636Y86002D01*
X97661Y85968D01*
X97681Y85924D01*
X97764Y85826D01*
X97817Y85753D01*
X112229Y71341D01*
X112306Y71284D01*
X112377Y71219D01*
X112418Y71199D01*
X112455Y71172D01*
X112545Y71138D01*
X112631Y71096D01*
X112673Y71090D01*
X112719Y71073D01*
X112846Y71063D01*
X112936Y71049D01*
X146424Y71049D01*
X146519Y71062D01*
X146615Y71067D01*
X146658Y71082D01*
X146703Y71089D01*
X146790Y71128D01*
X146881Y71160D01*
X146916Y71185D01*
X146960Y71205D01*
X147057Y71288D01*
X147130Y71341D01*
X185183Y109394D01*
X185197Y109414D01*
X185212Y109426D01*
X185243Y109474D01*
X185305Y109542D01*
X185325Y109583D01*
X185352Y109619D01*
X185386Y109709D01*
X185428Y109796D01*
X185434Y109838D01*
X185451Y109883D01*
X185461Y110011D01*
X185475Y110100D01*
X185475Y123960D01*
X185462Y124054D01*
X185457Y124151D01*
X185442Y124194D01*
X185435Y124239D01*
X185396Y124326D01*
X185364Y124417D01*
X185339Y124452D01*
X185319Y124496D01*
X185236Y124593D01*
X185183Y124666D01*
X182943Y126905D01*
X182943Y131095D01*
X185905Y134057D01*
X190095Y134057D01*
X193057Y131095D01*
X193057Y126905D01*
X190817Y124666D01*
X190760Y124589D01*
X190695Y124518D01*
X190675Y124477D01*
X190648Y124441D01*
X190614Y124350D01*
X190572Y124264D01*
X190566Y124222D01*
X190549Y124177D01*
X190539Y124049D01*
X190525Y123960D01*
X190525Y112164D01*
X190529Y112133D01*
X190527Y112100D01*
X190549Y111993D01*
X190565Y111885D01*
X190578Y111856D01*
X190584Y111824D01*
X190636Y111728D01*
X190681Y111628D01*
X190702Y111604D01*
X190717Y111575D01*
X190793Y111497D01*
X190864Y111414D01*
X190891Y111396D01*
X190914Y111373D01*
X191009Y111320D01*
X191100Y111260D01*
X191131Y111250D01*
X191159Y111234D01*
X191266Y111209D01*
X191370Y111177D01*
X191402Y111177D01*
X191433Y111169D01*
X191543Y111175D01*
X191652Y111173D01*
X191683Y111182D01*
X191715Y111184D01*
X191818Y111220D01*
X191924Y111249D01*
X191951Y111266D01*
X191982Y111276D01*
X192055Y111329D01*
X192164Y111397D01*
X192196Y111433D01*
X192231Y111458D01*
X198023Y117250D01*
X198080Y117327D01*
X198145Y117398D01*
X198165Y117439D01*
X198192Y117476D01*
X198226Y117566D01*
X198268Y117652D01*
X198274Y117694D01*
X198291Y117739D01*
X198301Y117867D01*
X198315Y117957D01*
X198315Y146883D01*
X198302Y146979D01*
X198297Y147075D01*
X198282Y147118D01*
X198275Y147163D01*
X198236Y147250D01*
X198204Y147341D01*
X198179Y147376D01*
X198159Y147420D01*
X198076Y147517D01*
X198023Y147590D01*
X197430Y148183D01*
X197353Y148240D01*
X197282Y148305D01*
X197241Y148325D01*
X197204Y148352D01*
X197115Y148386D01*
X197028Y148428D01*
X196986Y148434D01*
X196941Y148451D01*
X196813Y148461D01*
X196723Y148475D01*
X146202Y148475D01*
X143804Y149469D01*
X141969Y151304D01*
X140975Y153702D01*
X140975Y156298D01*
X141969Y158696D01*
X143804Y160531D01*
X146202Y161525D01*
X196723Y161525D01*
X196819Y161538D01*
X196915Y161543D01*
X196958Y161558D01*
X197003Y161565D01*
X197090Y161604D01*
X197181Y161636D01*
X197216Y161661D01*
X197260Y161681D01*
X197357Y161764D01*
X197430Y161817D01*
X198023Y162410D01*
X198080Y162487D01*
X198145Y162558D01*
X198165Y162599D01*
X198192Y162635D01*
X198226Y162725D01*
X198268Y162812D01*
X198274Y162854D01*
X198291Y162899D01*
X198301Y163027D01*
X198315Y163117D01*
X198315Y211252D01*
X198311Y211284D01*
X198313Y211316D01*
X198291Y211423D01*
X198275Y211531D01*
X198262Y211560D01*
X198256Y211592D01*
X198204Y211688D01*
X198159Y211788D01*
X198138Y211812D01*
X198123Y211841D01*
X198047Y211919D01*
X197976Y212002D01*
X197949Y212020D01*
X197926Y212043D01*
X197831Y212097D01*
X197740Y212156D01*
X197709Y212166D01*
X197681Y212182D01*
X197575Y212207D01*
X197470Y212239D01*
X197438Y212239D01*
X197407Y212247D01*
X197297Y212241D01*
X197188Y212243D01*
X197157Y212234D01*
X197125Y212232D01*
X197022Y212197D01*
X196916Y212167D01*
X196889Y212150D01*
X196858Y212140D01*
X196785Y212087D01*
X196676Y212019D01*
X196644Y211983D01*
X196609Y211958D01*
X195595Y210943D01*
X191405Y210943D01*
X189861Y212488D01*
X189809Y212526D01*
X189765Y212572D01*
X189697Y212611D01*
X189635Y212657D01*
X189575Y212680D01*
X189519Y212712D01*
X189444Y212729D01*
X189371Y212757D01*
X189307Y212762D01*
X189245Y212776D01*
X189167Y212773D01*
X189090Y212778D01*
X189027Y212765D01*
X188963Y212762D01*
X188890Y212737D01*
X188814Y212721D01*
X188757Y212691D01*
X188697Y212670D01*
X188640Y212628D01*
X188565Y212588D01*
X188504Y212529D01*
X188448Y212488D01*
X186903Y210943D01*
X182714Y210943D01*
X179752Y213905D01*
X179752Y217516D01*
X179738Y217611D01*
X179733Y217707D01*
X179718Y217751D01*
X179712Y217796D01*
X179672Y217883D01*
X179641Y217974D01*
X179616Y218008D01*
X179596Y218052D01*
X179512Y218150D01*
X179459Y218223D01*
X175499Y222183D01*
X175423Y222240D01*
X175351Y222305D01*
X175310Y222325D01*
X175274Y222352D01*
X175184Y222386D01*
X175097Y222428D01*
X175055Y222434D01*
X175010Y222451D01*
X174882Y222461D01*
X174793Y222475D01*
X160040Y222475D01*
X159946Y222462D01*
X159849Y222457D01*
X159806Y222442D01*
X159761Y222435D01*
X159674Y222396D01*
X159583Y222364D01*
X159548Y222339D01*
X159504Y222319D01*
X159407Y222236D01*
X159334Y222183D01*
X157095Y219943D01*
X152905Y219943D01*
X149943Y222905D01*
X149943Y227095D01*
X152905Y230057D01*
X157095Y230057D01*
X159334Y227817D01*
X159411Y227760D01*
X159482Y227695D01*
X159523Y227675D01*
X159559Y227648D01*
X159650Y227614D01*
X159736Y227572D01*
X159778Y227566D01*
X159823Y227549D01*
X159951Y227539D01*
X160040Y227525D01*
X175992Y227525D01*
X176024Y227529D01*
X176056Y227527D01*
X176163Y227549D01*
X176272Y227565D01*
X176301Y227578D01*
X176333Y227584D01*
X176429Y227636D01*
X176529Y227681D01*
X176553Y227702D01*
X176581Y227717D01*
X176660Y227793D01*
X176743Y227864D01*
X176760Y227891D01*
X176784Y227914D01*
X176837Y228009D01*
X176897Y228100D01*
X176907Y228131D01*
X176923Y228159D01*
X176948Y228266D01*
X176980Y228370D01*
X176980Y228402D01*
X176988Y228433D01*
X176982Y228543D01*
X176983Y228652D01*
X176975Y228683D01*
X176973Y228715D01*
X176937Y228818D01*
X176908Y228924D01*
X176891Y228951D01*
X176881Y228982D01*
X176827Y229055D01*
X176760Y229164D01*
X176724Y229196D01*
X176699Y229231D01*
X157419Y248510D01*
X157419Y269460D01*
X157406Y269555D01*
X157401Y269651D01*
X157386Y269694D01*
X157379Y269739D01*
X157340Y269826D01*
X157308Y269917D01*
X157283Y269952D01*
X157263Y269996D01*
X157180Y270093D01*
X157127Y270166D01*
X154887Y272405D01*
X154887Y276595D01*
X157849Y279557D01*
X162039Y279557D01*
X165001Y276595D01*
X165001Y272405D01*
X162761Y270166D01*
X162704Y270089D01*
X162639Y270018D01*
X162619Y269977D01*
X162592Y269941D01*
X162558Y269851D01*
X162516Y269764D01*
X162510Y269722D01*
X162493Y269677D01*
X162483Y269549D01*
X162469Y269460D01*
X162469Y251016D01*
X162482Y250921D01*
X162487Y250825D01*
X162502Y250781D01*
X162509Y250736D01*
X162548Y250649D01*
X162580Y250558D01*
X162605Y250524D01*
X162625Y250480D01*
X162708Y250382D01*
X162722Y250364D01*
X162736Y250340D01*
X162744Y250333D01*
X162761Y250309D01*
X191721Y221349D01*
X191798Y221292D01*
X191869Y221227D01*
X191910Y221207D01*
X191947Y221180D01*
X192037Y221146D01*
X192123Y221104D01*
X192165Y221098D01*
X192211Y221081D01*
X192338Y221071D01*
X192428Y221057D01*
X195595Y221057D01*
X196609Y220042D01*
X196635Y220022D01*
X196656Y219998D01*
X196748Y219938D01*
X196835Y219873D01*
X196865Y219861D01*
X196892Y219844D01*
X196997Y219812D01*
X197099Y219773D01*
X197131Y219771D01*
X197162Y219761D01*
X197271Y219760D01*
X197380Y219751D01*
X197412Y219758D01*
X197444Y219757D01*
X197549Y219787D01*
X197656Y219809D01*
X197685Y219824D01*
X197716Y219833D01*
X197809Y219890D01*
X197905Y219941D01*
X197928Y219964D01*
X197956Y219981D01*
X198029Y220062D01*
X198107Y220138D01*
X198123Y220166D01*
X198145Y220190D01*
X198192Y220288D01*
X198246Y220383D01*
X198254Y220415D01*
X198268Y220444D01*
X198282Y220533D01*
X198311Y220658D01*
X198309Y220706D01*
X198315Y220748D01*
X198315Y596883D01*
X198302Y596978D01*
X198297Y597075D01*
X198282Y597118D01*
X198275Y597163D01*
X198236Y597250D01*
X198204Y597341D01*
X198179Y597375D01*
X198159Y597420D01*
X198076Y597517D01*
X198023Y597590D01*
X144469Y651144D01*
X143475Y653542D01*
X143475Y672476D01*
X143466Y672540D01*
X143467Y672604D01*
X143446Y672679D01*
X143435Y672755D01*
X143409Y672814D01*
X143392Y672876D01*
X143351Y672942D01*
X143319Y673012D01*
X143277Y673061D01*
X143244Y673116D01*
X143186Y673168D01*
X143136Y673226D01*
X143082Y673262D01*
X143034Y673305D01*
X142965Y673338D01*
X142900Y673381D01*
X142838Y673400D01*
X142781Y673428D01*
X142711Y673439D01*
X142630Y673463D01*
X142545Y673464D01*
X142476Y673475D01*
X138702Y673475D01*
X136304Y674469D01*
X126828Y683944D01*
X126828Y683945D01*
X125755Y685018D01*
X125729Y685037D01*
X125708Y685062D01*
X125616Y685122D01*
X125529Y685187D01*
X125499Y685199D01*
X125472Y685216D01*
X125367Y685248D01*
X125265Y685287D01*
X125233Y685289D01*
X125202Y685299D01*
X125093Y685300D01*
X124984Y685309D01*
X124952Y685302D01*
X124920Y685303D01*
X124815Y685273D01*
X124708Y685251D01*
X124679Y685236D01*
X124648Y685227D01*
X124555Y685170D01*
X124459Y685119D01*
X124436Y685096D01*
X124408Y685079D01*
X124335Y684998D01*
X124257Y684922D01*
X124241Y684894D01*
X124219Y684870D01*
X124172Y684772D01*
X124118Y684677D01*
X124110Y684645D01*
X124096Y684616D01*
X124082Y684527D01*
X124053Y684402D01*
X124055Y684354D01*
X124049Y684312D01*
X124049Y161593D01*
X124062Y161498D01*
X124067Y161401D01*
X124082Y161358D01*
X124089Y161313D01*
X124128Y161226D01*
X124160Y161135D01*
X124185Y161101D01*
X124205Y161056D01*
X124288Y160959D01*
X124341Y160886D01*
X145531Y139696D01*
X146525Y137298D01*
X146525Y134702D01*
X145531Y132304D01*
X143696Y130469D01*
X141298Y129475D01*
X138702Y129475D01*
X136304Y130469D01*
X114231Y152542D01*
X114205Y152561D01*
X114184Y152586D01*
X114092Y152646D01*
X114005Y152711D01*
X113975Y152723D01*
X113948Y152740D01*
X113843Y152772D01*
X113741Y152811D01*
X113709Y152813D01*
X113678Y152823D01*
X113569Y152824D01*
X113460Y152833D01*
X113428Y152826D01*
X113396Y152827D01*
X113291Y152797D01*
X113184Y152775D01*
X113155Y152760D01*
X113124Y152751D01*
X113031Y152694D01*
X112935Y152643D01*
X112912Y152620D01*
X112884Y152603D01*
X112811Y152522D01*
X112733Y152446D01*
X112717Y152418D01*
X112695Y152394D01*
X112648Y152296D01*
X112594Y152200D01*
X112586Y152169D01*
X112572Y152140D01*
X112558Y152051D01*
X112529Y151926D01*
X112531Y151878D01*
X112525Y151836D01*
X112525Y115040D01*
X112533Y114980D01*
X112533Y114954D01*
X112539Y114932D01*
X112543Y114849D01*
X112558Y114806D01*
X112565Y114761D01*
X112604Y114674D01*
X112636Y114583D01*
X112661Y114548D01*
X112681Y114504D01*
X112764Y114407D01*
X112817Y114334D01*
X115057Y112095D01*
X115057Y107905D01*
X112095Y104943D01*
X107905Y104943D01*
X104943Y107905D01*
X104943Y112095D01*
X107183Y114334D01*
X107240Y114411D01*
X107305Y114482D01*
X107325Y114523D01*
X107352Y114559D01*
X107386Y114650D01*
X107428Y114736D01*
X107434Y114778D01*
X107451Y114823D01*
X107458Y114911D01*
X107463Y114928D01*
X107464Y114967D01*
X107475Y115040D01*
X107475Y451492D01*
X107471Y451524D01*
X107473Y451556D01*
X107451Y451663D01*
X107435Y451772D01*
X107422Y451801D01*
X107416Y451833D01*
X107364Y451929D01*
X107319Y452029D01*
X107298Y452053D01*
X107283Y452081D01*
X107207Y452160D01*
X107136Y452243D01*
X107109Y452260D01*
X107086Y452284D01*
X106991Y452337D01*
X106900Y452397D01*
X106869Y452407D01*
X106841Y452423D01*
X106734Y452448D01*
X106630Y452480D01*
X106598Y452480D01*
X106567Y452488D01*
X106457Y452482D01*
X106348Y452483D01*
X106317Y452475D01*
X106285Y452473D01*
X106182Y452437D01*
X106076Y452408D01*
X106049Y452391D01*
X106018Y452381D01*
X105945Y452327D01*
X105836Y452260D01*
X105804Y452224D01*
X105769Y452199D01*
X53817Y400247D01*
X52046Y398475D01*
X46040Y398475D01*
X45946Y398462D01*
X45849Y398457D01*
X45806Y398442D01*
X45761Y398435D01*
X45674Y398396D01*
X45583Y398364D01*
X45548Y398339D01*
X45504Y398319D01*
X45407Y398236D01*
X45334Y398183D01*
X43095Y395943D01*
X38905Y395943D01*
X35943Y398905D01*
X35943Y403095D01*
X38905Y406057D01*
X43095Y406057D01*
X45334Y403817D01*
X45411Y403760D01*
X45482Y403695D01*
X45523Y403675D01*
X45559Y403648D01*
X45650Y403614D01*
X45736Y403572D01*
X45778Y403566D01*
X45823Y403549D01*
X45951Y403539D01*
X46040Y403525D01*
X49540Y403525D01*
X49635Y403538D01*
X49731Y403543D01*
X49775Y403558D01*
X49820Y403565D01*
X49907Y403604D01*
X49998Y403636D01*
X50032Y403661D01*
X50076Y403681D01*
X50174Y403764D01*
X50247Y403817D01*
X59667Y413237D01*
X59686Y413263D01*
X59711Y413284D01*
X59771Y413376D01*
X59836Y413463D01*
X59848Y413493D01*
X59865Y413520D01*
X59897Y413625D01*
X59936Y413727D01*
X59938Y413759D01*
X59948Y413790D01*
X59949Y413899D01*
X59958Y414008D01*
X59951Y414040D01*
X59951Y414072D01*
X59922Y414177D01*
X59900Y414284D01*
X59885Y414313D01*
X59876Y414344D01*
X59819Y414437D01*
X59767Y414533D01*
X59745Y414556D01*
X59728Y414584D01*
X59647Y414657D01*
X59571Y414735D01*
X59543Y414751D01*
X59519Y414773D01*
X59420Y414820D01*
X59325Y414874D01*
X59294Y414882D01*
X59265Y414896D01*
X59176Y414910D01*
X59051Y414939D01*
X59002Y414937D01*
X58960Y414943D01*
X57277Y414943D01*
X55393Y416828D01*
X55341Y416867D01*
X55296Y416913D01*
X55229Y416951D01*
X55167Y416997D01*
X55107Y417020D01*
X55051Y417052D01*
X54976Y417070D01*
X54903Y417097D01*
X54839Y417102D01*
X54776Y417117D01*
X54699Y417113D01*
X54622Y417119D01*
X54559Y417106D01*
X54495Y417102D01*
X54422Y417077D01*
X54346Y417061D01*
X54289Y417031D01*
X54228Y417010D01*
X54172Y416968D01*
X54097Y416929D01*
X54036Y416870D01*
X53979Y416828D01*
X52095Y414943D01*
X47905Y414943D01*
X44943Y417905D01*
X44943Y422095D01*
X47905Y425057D01*
X51072Y425057D01*
X51167Y425070D01*
X51263Y425075D01*
X51307Y425090D01*
X51352Y425097D01*
X51439Y425136D01*
X51530Y425168D01*
X51564Y425193D01*
X51608Y425213D01*
X51706Y425296D01*
X51779Y425349D01*
X55454Y429025D01*
X65040Y429025D01*
X65135Y429038D01*
X65231Y429043D01*
X65275Y429058D01*
X65320Y429065D01*
X65407Y429104D01*
X65498Y429136D01*
X65532Y429161D01*
X65576Y429181D01*
X65674Y429264D01*
X65747Y429317D01*
X96611Y460181D01*
X96668Y460258D01*
X96733Y460329D01*
X96753Y460370D01*
X96780Y460407D01*
X96814Y460497D01*
X96856Y460583D01*
X96862Y460625D01*
X96879Y460671D01*
X96889Y460798D01*
X96903Y460888D01*
X96903Y546476D01*
X96894Y546540D01*
X96895Y546604D01*
X96874Y546679D01*
X96863Y546755D01*
X96837Y546814D01*
X96820Y546876D01*
X96779Y546942D01*
X96747Y547012D01*
X96705Y547061D01*
X96672Y547116D01*
X96614Y547168D01*
X96564Y547226D01*
X96510Y547262D01*
X96462Y547305D01*
X96393Y547338D01*
X96328Y547381D01*
X96266Y547400D01*
X96209Y547428D01*
X96139Y547439D01*
X96058Y547463D01*
X95973Y547464D01*
X95904Y547475D01*
X78954Y547475D01*
X77475Y548954D01*
X77475Y560836D01*
X77471Y560867D01*
X77473Y560900D01*
X77451Y561007D01*
X77435Y561115D01*
X77422Y561144D01*
X77416Y561176D01*
X77364Y561272D01*
X77319Y561372D01*
X77298Y561396D01*
X77283Y561425D01*
X77207Y561503D01*
X77136Y561586D01*
X77109Y561604D01*
X77086Y561627D01*
X76991Y561680D01*
X76900Y561740D01*
X76869Y561750D01*
X76841Y561766D01*
X76734Y561791D01*
X76630Y561823D01*
X76598Y561823D01*
X76567Y561831D01*
X76457Y561825D01*
X76348Y561827D01*
X76317Y561818D01*
X76285Y561816D01*
X76182Y561780D01*
X76076Y561751D01*
X76049Y561734D01*
X76018Y561724D01*
X75945Y561671D01*
X75836Y561603D01*
X75804Y561567D01*
X75769Y561542D01*
X42817Y528590D01*
X42760Y528513D01*
X42695Y528442D01*
X42675Y528401D01*
X42648Y528364D01*
X42614Y528274D01*
X42572Y528188D01*
X42566Y528146D01*
X42549Y528101D01*
X42539Y527973D01*
X42525Y527883D01*
X42525Y518954D01*
X41817Y518247D01*
X41760Y518170D01*
X41695Y518099D01*
X41675Y518058D01*
X41648Y518021D01*
X41614Y517931D01*
X41572Y517845D01*
X41566Y517803D01*
X41549Y517757D01*
X41539Y517630D01*
X41525Y517540D01*
X41525Y468117D01*
X41538Y468022D01*
X41543Y467925D01*
X41558Y467882D01*
X41565Y467837D01*
X41604Y467750D01*
X41636Y467659D01*
X41661Y467625D01*
X41681Y467580D01*
X41764Y467483D01*
X41817Y467410D01*
X46410Y462817D01*
X46487Y462760D01*
X46558Y462695D01*
X46599Y462675D01*
X46636Y462648D01*
X46726Y462614D01*
X46812Y462572D01*
X46854Y462566D01*
X46899Y462549D01*
X47027Y462539D01*
X47117Y462525D01*
X61046Y462525D01*
X62525Y461046D01*
X62525Y438954D01*
X61046Y437475D01*
X38954Y437475D01*
X37475Y438954D01*
X37475Y452883D01*
X37467Y452942D01*
X37467Y452956D01*
X37463Y452973D01*
X37462Y452978D01*
X37457Y453075D01*
X37442Y453118D01*
X37435Y453163D01*
X37396Y453250D01*
X37364Y453341D01*
X37339Y453375D01*
X37319Y453420D01*
X37236Y453517D01*
X37183Y453590D01*
X29469Y461304D01*
X28475Y463702D01*
X28475Y483968D01*
X28471Y484000D01*
X28473Y484032D01*
X28451Y484139D01*
X28435Y484247D01*
X28422Y484276D01*
X28415Y484308D01*
X28364Y484405D01*
X28319Y484504D01*
X28298Y484528D01*
X28283Y484557D01*
X28207Y484635D01*
X28136Y484718D01*
X28109Y484736D01*
X28086Y484759D01*
X27991Y484813D01*
X27900Y484872D01*
X27869Y484882D01*
X27840Y484898D01*
X27734Y484923D01*
X27630Y484955D01*
X27598Y484955D01*
X27566Y484963D01*
X27457Y484957D01*
X27348Y484959D01*
X27317Y484950D01*
X27284Y484948D01*
X27270Y484943D01*
X22849Y484943D01*
X19887Y487905D01*
X19887Y492095D01*
X22183Y494390D01*
X22240Y494467D01*
X22305Y494538D01*
X22325Y494579D01*
X22352Y494615D01*
X22386Y494706D01*
X22428Y494792D01*
X22434Y494834D01*
X22451Y494879D01*
X22461Y495007D01*
X22475Y495096D01*
X22475Y534904D01*
X22462Y534998D01*
X22457Y535095D01*
X22442Y535138D01*
X22435Y535183D01*
X22396Y535270D01*
X22364Y535361D01*
X22339Y535396D01*
X22319Y535440D01*
X22236Y535537D01*
X22183Y535610D01*
X19887Y537905D01*
X19887Y542095D01*
X22849Y545057D01*
X27039Y545057D01*
X29278Y542817D01*
X29355Y542760D01*
X29426Y542695D01*
X29467Y542675D01*
X29503Y542648D01*
X29594Y542614D01*
X29680Y542572D01*
X29722Y542566D01*
X29767Y542549D01*
X29895Y542539D01*
X29984Y542525D01*
X37883Y542525D01*
X37978Y542538D01*
X38075Y542543D01*
X38118Y542558D01*
X38163Y542565D01*
X38250Y542604D01*
X38341Y542636D01*
X38375Y542661D01*
X38420Y542681D01*
X38517Y542764D01*
X38590Y542817D01*
X86304Y590531D01*
X87242Y590920D01*
X87278Y590941D01*
X87317Y590955D01*
X87386Y591005D01*
X87484Y591063D01*
X87525Y591106D01*
X87566Y591136D01*
X88954Y592525D01*
X95904Y592525D01*
X95968Y592534D01*
X96032Y592533D01*
X96107Y592554D01*
X96183Y592565D01*
X96242Y592591D01*
X96304Y592608D01*
X96370Y592649D01*
X96440Y592681D01*
X96489Y592723D01*
X96544Y592756D01*
X96596Y592814D01*
X96654Y592864D01*
X96690Y592918D01*
X96733Y592966D01*
X96766Y593035D01*
X96809Y593100D01*
X96828Y593162D01*
X96856Y593219D01*
X96867Y593289D01*
X96891Y593370D01*
X96892Y593455D01*
X96903Y593524D01*
X96903Y603068D01*
X96890Y603163D01*
X96885Y603259D01*
X96870Y603303D01*
X96863Y603348D01*
X96824Y603435D01*
X96792Y603526D01*
X96767Y603560D01*
X96747Y603604D01*
X96664Y603702D01*
X96611Y603775D01*
X62935Y637451D01*
X62858Y637508D01*
X62787Y637573D01*
X62746Y637593D01*
X62709Y637620D01*
X62619Y637654D01*
X62533Y637696D01*
X62491Y637702D01*
X62445Y637719D01*
X62318Y637729D01*
X62228Y637743D01*
X59061Y637743D01*
X56099Y640705D01*
X56099Y644895D01*
X59061Y647857D01*
X63251Y647857D01*
X66213Y644895D01*
X66213Y641728D01*
X66226Y641633D01*
X66231Y641537D01*
X66246Y641493D01*
X66253Y641448D01*
X66292Y641361D01*
X66324Y641270D01*
X66349Y641236D01*
X66369Y641192D01*
X66452Y641094D01*
X66479Y641058D01*
X66485Y641047D01*
X66489Y641044D01*
X66505Y641021D01*
X98721Y608805D01*
X98747Y608786D01*
X98768Y608761D01*
X98860Y608701D01*
X98947Y608636D01*
X98977Y608624D01*
X99004Y608607D01*
X99109Y608575D01*
X99211Y608536D01*
X99243Y608534D01*
X99274Y608524D01*
X99383Y608523D01*
X99492Y608514D01*
X99524Y608521D01*
X99556Y608521D01*
X99661Y608550D01*
X99768Y608572D01*
X99797Y608587D01*
X99828Y608596D01*
X99921Y608653D01*
X100017Y608705D01*
X100040Y608727D01*
X100068Y608744D01*
X100141Y608825D01*
X100219Y608901D01*
X100235Y608929D01*
X100257Y608953D01*
X100304Y609052D01*
X100358Y609147D01*
X100366Y609178D01*
X100380Y609207D01*
X100394Y609296D01*
X100423Y609421D01*
X100421Y609470D01*
X100427Y609512D01*
X100427Y617040D01*
X100414Y617135D01*
X100409Y617231D01*
X100394Y617274D01*
X100387Y617319D01*
X100348Y617407D01*
X100316Y617498D01*
X100291Y617532D01*
X100271Y617576D01*
X100188Y617674D01*
X100135Y617747D01*
X90699Y627183D01*
X90622Y627240D01*
X90550Y627305D01*
X90509Y627325D01*
X90473Y627352D01*
X90383Y627386D01*
X90297Y627428D01*
X90255Y627434D01*
X90209Y627451D01*
X90082Y627461D01*
X89992Y627475D01*
X89954Y627475D01*
X88475Y628954D01*
X88475Y628992D01*
X88462Y629087D01*
X88457Y629183D01*
X88442Y629226D01*
X88435Y629271D01*
X88396Y629359D01*
X88364Y629450D01*
X88339Y629484D01*
X88319Y629528D01*
X88236Y629626D01*
X88183Y629699D01*
X80231Y637651D01*
X80154Y637708D01*
X80082Y637773D01*
X80041Y637793D01*
X80005Y637820D01*
X79915Y637854D01*
X79829Y637896D01*
X79787Y637902D01*
X79741Y637919D01*
X79614Y637929D01*
X79524Y637943D01*
X77905Y637943D01*
X74943Y640905D01*
X74943Y645095D01*
X75618Y645769D01*
X75638Y645795D01*
X75662Y645816D01*
X75722Y645908D01*
X75787Y645995D01*
X75799Y646025D01*
X75816Y646052D01*
X75848Y646157D01*
X75887Y646259D01*
X75889Y646291D01*
X75899Y646322D01*
X75900Y646431D01*
X75909Y646540D01*
X75902Y646572D01*
X75903Y646604D01*
X75873Y646709D01*
X75851Y646816D01*
X75836Y646845D01*
X75827Y646876D01*
X75770Y646969D01*
X75719Y647065D01*
X75696Y647088D01*
X75679Y647116D01*
X75598Y647189D01*
X75522Y647267D01*
X75494Y647283D01*
X75470Y647305D01*
X75372Y647352D01*
X75277Y647406D01*
X75245Y647414D01*
X75216Y647428D01*
X75127Y647442D01*
X75002Y647471D01*
X74954Y647469D01*
X74912Y647475D01*
X73954Y647475D01*
X63679Y657751D01*
X63602Y657808D01*
X63531Y657873D01*
X63490Y657893D01*
X63453Y657920D01*
X63363Y657954D01*
X63277Y657996D01*
X63235Y658002D01*
X63189Y658019D01*
X63062Y658029D01*
X62972Y658043D01*
X62735Y658043D01*
X59773Y661005D01*
X59773Y665195D01*
X62735Y668157D01*
X66925Y668157D01*
X69887Y665195D01*
X69887Y661005D01*
X69432Y660551D01*
X69394Y660500D01*
X69348Y660455D01*
X69310Y660388D01*
X69263Y660326D01*
X69241Y660266D01*
X69209Y660210D01*
X69191Y660134D01*
X69164Y660062D01*
X69159Y659998D01*
X69144Y659935D01*
X69148Y659858D01*
X69142Y659781D01*
X69155Y659718D01*
X69158Y659653D01*
X69184Y659580D01*
X69199Y659504D01*
X69230Y659448D01*
X69251Y659387D01*
X69292Y659330D01*
X69332Y659255D01*
X69391Y659195D01*
X69432Y659138D01*
X75753Y652817D01*
X75830Y652760D01*
X75901Y652695D01*
X75942Y652675D01*
X75979Y652648D01*
X76069Y652614D01*
X76155Y652572D01*
X76197Y652566D01*
X76243Y652549D01*
X76370Y652539D01*
X76460Y652525D01*
X86046Y652525D01*
X86769Y651801D01*
X86795Y651782D01*
X86816Y651757D01*
X86908Y651697D01*
X86995Y651632D01*
X87025Y651620D01*
X87052Y651603D01*
X87157Y651571D01*
X87259Y651532D01*
X87291Y651530D01*
X87322Y651520D01*
X87431Y651519D01*
X87540Y651510D01*
X87572Y651517D01*
X87604Y651517D01*
X87709Y651546D01*
X87816Y651568D01*
X87845Y651583D01*
X87876Y651592D01*
X87969Y651649D01*
X88065Y651701D01*
X88088Y651723D01*
X88116Y651740D01*
X88189Y651821D01*
X88267Y651897D01*
X88283Y651925D01*
X88305Y651949D01*
X88352Y652047D01*
X88406Y652143D01*
X88414Y652174D01*
X88428Y652203D01*
X88442Y652292D01*
X88471Y652417D01*
X88469Y652465D01*
X88475Y652508D01*
X88475Y692740D01*
X88462Y692835D01*
X88457Y692931D01*
X88442Y692975D01*
X88435Y693020D01*
X88396Y693107D01*
X88364Y693198D01*
X88339Y693232D01*
X88319Y693276D01*
X88236Y693374D01*
X88183Y693447D01*
X86447Y695183D01*
X86370Y695240D01*
X86299Y695305D01*
X86258Y695325D01*
X86221Y695352D01*
X86131Y695386D01*
X86045Y695428D01*
X86003Y695434D01*
X85957Y695451D01*
X85830Y695461D01*
X85740Y695475D01*
X72654Y695475D01*
X65655Y702474D01*
X65655Y702904D01*
X65642Y702999D01*
X65637Y703095D01*
X65622Y703138D01*
X65615Y703183D01*
X65576Y703271D01*
X65544Y703362D01*
X65519Y703396D01*
X65499Y703440D01*
X65416Y703538D01*
X65363Y703611D01*
X63123Y705850D01*
X63123Y710039D01*
X66085Y713001D01*
X70275Y713001D01*
X73237Y710039D01*
X73237Y705850D01*
X72035Y704648D01*
X71997Y704597D01*
X71951Y704552D01*
X71912Y704485D01*
X71866Y704423D01*
X71843Y704363D01*
X71812Y704307D01*
X71794Y704231D01*
X71766Y704159D01*
X71761Y704095D01*
X71747Y704032D01*
X71751Y703955D01*
X71745Y703878D01*
X71758Y703815D01*
X71761Y703751D01*
X71786Y703678D01*
X71802Y703602D01*
X71832Y703545D01*
X71853Y703484D01*
X71895Y703428D01*
X71935Y703353D01*
X71994Y703292D01*
X72035Y703235D01*
X74453Y700817D01*
X74530Y700760D01*
X74601Y700695D01*
X74642Y700675D01*
X74679Y700648D01*
X74769Y700614D01*
X74855Y700572D01*
X74897Y700566D01*
X74943Y700549D01*
X75070Y700539D01*
X75160Y700525D01*
X88246Y700525D01*
X89953Y698817D01*
X90030Y698760D01*
X90101Y698695D01*
X90142Y698675D01*
X90179Y698648D01*
X90269Y698614D01*
X90355Y698572D01*
X90397Y698566D01*
X90443Y698549D01*
X90570Y698539D01*
X90660Y698525D01*
X106476Y698525D01*
X106540Y698534D01*
X106604Y698533D01*
X106679Y698554D01*
X106755Y698565D01*
X106814Y698591D01*
X106876Y698608D01*
X106942Y698649D01*
X107012Y698681D01*
X107061Y698723D01*
X107116Y698756D01*
X107168Y698814D01*
X107226Y698864D01*
X107262Y698918D01*
X107305Y698966D01*
X107338Y699035D01*
X107381Y699100D01*
X107400Y699162D01*
X107428Y699219D01*
X107439Y699289D01*
X107463Y699370D01*
X107464Y699455D01*
X107475Y699524D01*
X107475Y699940D01*
X107462Y700035D01*
X107457Y700131D01*
X107442Y700175D01*
X107435Y700220D01*
X107396Y700307D01*
X107364Y700398D01*
X107339Y700432D01*
X107319Y700476D01*
X107236Y700574D01*
X107183Y700647D01*
X96419Y711410D01*
X96419Y727554D01*
X107183Y738318D01*
X107240Y738394D01*
X107305Y738466D01*
X107325Y738507D01*
X107352Y738543D01*
X107386Y738633D01*
X107428Y738720D01*
X107434Y738762D01*
X107451Y738807D01*
X107461Y738935D01*
X107475Y739024D01*
X107475Y739112D01*
X107474Y739121D01*
X107475Y739131D01*
X107454Y739261D01*
X107435Y739391D01*
X107432Y739400D01*
X107430Y739409D01*
X107373Y739529D01*
X107319Y739648D01*
X107313Y739655D01*
X107309Y739664D01*
X107221Y739763D01*
X107136Y739862D01*
X107128Y739868D01*
X107122Y739875D01*
X107056Y739915D01*
X106900Y740017D01*
X106877Y740024D01*
X106858Y740035D01*
X103528Y741415D01*
X100315Y744628D01*
X98575Y748827D01*
X98575Y753373D01*
X100315Y757572D01*
X103528Y760785D01*
X107727Y762525D01*
X112273Y762525D01*
X116472Y760785D01*
X119685Y757572D01*
X121425Y753373D01*
X121425Y748827D01*
X119685Y744628D01*
X116472Y741415D01*
X113142Y740035D01*
X113133Y740030D01*
X113124Y740028D01*
X113012Y739959D01*
X112899Y739892D01*
X112892Y739885D01*
X112884Y739880D01*
X112796Y739782D01*
X112706Y739686D01*
X112702Y739677D01*
X112695Y739670D01*
X112638Y739552D01*
X112578Y739434D01*
X112576Y739425D01*
X112572Y739417D01*
X112560Y739341D01*
X112526Y739157D01*
X112528Y739133D01*
X112525Y739112D01*
X112525Y736519D01*
X101761Y725755D01*
X101704Y725679D01*
X101639Y725607D01*
X101619Y725566D01*
X101592Y725530D01*
X101558Y725440D01*
X101516Y725353D01*
X101510Y725311D01*
X101493Y725266D01*
X101483Y725138D01*
X101469Y725049D01*
X101469Y713916D01*
X101482Y713821D01*
X101487Y713725D01*
X101502Y713681D01*
X101509Y713636D01*
X101548Y713549D01*
X101580Y713458D01*
X101605Y713424D01*
X101625Y713380D01*
X101708Y713282D01*
X101761Y713209D01*
X109313Y705658D01*
X109407Y705587D01*
X109499Y705511D01*
X109520Y705502D01*
X109538Y705489D01*
X109649Y705447D01*
X109758Y705400D01*
X109781Y705397D01*
X109802Y705389D01*
X109920Y705380D01*
X110038Y705365D01*
X110061Y705369D01*
X110083Y705367D01*
X110199Y705391D01*
X110316Y705410D01*
X110337Y705420D01*
X110359Y705425D01*
X110464Y705480D01*
X110571Y705531D01*
X110588Y705547D01*
X110608Y705557D01*
X110693Y705640D01*
X110782Y705719D01*
X110793Y705737D01*
X110810Y705754D01*
X110902Y705916D01*
X110942Y705982D01*
X111993Y708517D01*
X131607Y728131D01*
X131664Y728208D01*
X131729Y728280D01*
X131749Y728321D01*
X131776Y728357D01*
X131810Y728447D01*
X131852Y728533D01*
X131858Y728575D01*
X131875Y728621D01*
X131885Y728748D01*
X131899Y728838D01*
X131899Y813459D01*
X131886Y813554D01*
X131881Y813651D01*
X131866Y813694D01*
X131859Y813739D01*
X131820Y813826D01*
X131788Y813917D01*
X131763Y813951D01*
X131743Y813996D01*
X131660Y814093D01*
X131607Y814166D01*
X71445Y874328D01*
X69469Y876304D01*
X68475Y878702D01*
X68475Y883798D01*
X69469Y886196D01*
X71304Y888031D01*
X73702Y889025D01*
X76298Y889025D01*
X78696Y888031D01*
X80531Y886196D01*
X81525Y883798D01*
X81525Y883117D01*
X81538Y883022D01*
X81543Y882925D01*
X81558Y882882D01*
X81565Y882837D01*
X81604Y882750D01*
X81636Y882659D01*
X81661Y882625D01*
X81681Y882580D01*
X81764Y882483D01*
X81817Y882410D01*
X141769Y822458D01*
X141795Y822439D01*
X141816Y822414D01*
X141908Y822354D01*
X141995Y822289D01*
X142025Y822277D01*
X142052Y822260D01*
X142157Y822228D01*
X142259Y822189D01*
X142291Y822187D01*
X142322Y822177D01*
X142431Y822176D01*
X142540Y822167D01*
X142572Y822174D01*
X142604Y822173D01*
X142709Y822203D01*
X142816Y822225D01*
X142845Y822240D01*
X142876Y822249D01*
X142969Y822306D01*
X143065Y822357D01*
X143088Y822380D01*
X143116Y822397D01*
X143189Y822478D01*
X143267Y822554D01*
X143283Y822582D01*
X143305Y822606D01*
X143352Y822704D01*
X143406Y822800D01*
X143414Y822831D01*
X143428Y822860D01*
X143442Y822949D01*
X143471Y823074D01*
X143469Y823122D01*
X143475Y823164D01*
X143475Y906476D01*
X143466Y906540D01*
X143467Y906604D01*
X143446Y906679D01*
X143435Y906755D01*
X143409Y906814D01*
X143392Y906876D01*
X143351Y906942D01*
X143319Y907012D01*
X143277Y907061D01*
X143244Y907116D01*
X143186Y907168D01*
X143136Y907226D01*
X143082Y907262D01*
X143034Y907305D01*
X142965Y907338D01*
X142900Y907381D01*
X142838Y907400D01*
X142781Y907428D01*
X142711Y907439D01*
X142630Y907463D01*
X142545Y907464D01*
X142476Y907475D01*
X120064Y907475D01*
X120000Y907466D01*
X119936Y907467D01*
X119861Y907446D01*
X119785Y907435D01*
X119726Y907409D01*
X119664Y907392D01*
X119598Y907351D01*
X119528Y907319D01*
X119479Y907277D01*
X119424Y907244D01*
X119372Y907186D01*
X119314Y907136D01*
X119278Y907082D01*
X119235Y907034D01*
X119202Y906965D01*
X119159Y906900D01*
X119140Y906838D01*
X119112Y906781D01*
X119101Y906711D01*
X119077Y906630D01*
X119076Y906545D01*
X119065Y906476D01*
X119065Y903197D01*
X117685Y899865D01*
X115135Y897315D01*
X111803Y895935D01*
X108197Y895935D01*
X104865Y897315D01*
X102315Y899865D01*
X100935Y903197D01*
X100935Y906803D01*
X102315Y910135D01*
X103598Y911418D01*
X103637Y911469D01*
X103683Y911514D01*
X103721Y911582D01*
X103768Y911643D01*
X103790Y911704D01*
X103822Y911760D01*
X103840Y911835D01*
X103867Y911907D01*
X103872Y911971D01*
X103887Y912034D01*
X103883Y912111D01*
X103889Y912189D01*
X103876Y912251D01*
X103873Y912316D01*
X103847Y912389D01*
X103831Y912465D01*
X103801Y912521D01*
X103780Y912582D01*
X103739Y912639D01*
X103699Y912714D01*
X103640Y912774D01*
X103598Y912831D01*
X97475Y918954D01*
X97475Y927476D01*
X97466Y927539D01*
X97467Y927600D01*
X97467Y927604D01*
X97446Y927679D01*
X97435Y927755D01*
X97409Y927814D01*
X97392Y927876D01*
X97351Y927942D01*
X97319Y928012D01*
X97277Y928061D01*
X97244Y928116D01*
X97186Y928168D01*
X97136Y928226D01*
X97082Y928262D01*
X97034Y928305D01*
X96965Y928338D01*
X96900Y928381D01*
X96838Y928400D01*
X96781Y928428D01*
X96711Y928439D01*
X96630Y928463D01*
X96545Y928464D01*
X96476Y928475D01*
X95868Y928475D01*
X94975Y929368D01*
X94975Y978840D01*
X94966Y978904D01*
X94967Y978968D01*
X94946Y979043D01*
X94935Y979119D01*
X94909Y979178D01*
X94892Y979240D01*
X94851Y979306D01*
X94819Y979376D01*
X94777Y979425D01*
X94744Y979480D01*
X94686Y979532D01*
X94636Y979590D01*
X94582Y979626D01*
X94534Y979669D01*
X94465Y979702D01*
X94400Y979745D01*
X94338Y979764D01*
X94281Y979792D01*
X94211Y979803D01*
X94130Y979827D01*
X94045Y979828D01*
X93976Y979839D01*
X90432Y979839D01*
X90368Y979830D01*
X90304Y979831D01*
X90229Y979810D01*
X90153Y979799D01*
X90094Y979773D01*
X90032Y979756D01*
X89966Y979715D01*
X89896Y979683D01*
X89847Y979641D01*
X89792Y979608D01*
X89740Y979550D01*
X89682Y979500D01*
X89646Y979446D01*
X89603Y979398D01*
X89570Y979329D01*
X89527Y979264D01*
X89508Y979202D01*
X89480Y979145D01*
X89469Y979075D01*
X89445Y978994D01*
X89444Y978909D01*
X89433Y978840D01*
X89433Y956999D01*
X74900Y956999D01*
X74836Y956990D01*
X74772Y956991D01*
X74698Y956970D01*
X74621Y956959D01*
X74562Y956933D01*
X74500Y956916D01*
X74434Y956875D01*
X74364Y956843D01*
X74315Y956801D01*
X74260Y956768D01*
X74209Y956710D01*
X74150Y956660D01*
X74114Y956606D01*
X74071Y956558D01*
X74038Y956489D01*
X73995Y956424D01*
X73976Y956362D01*
X73948Y956305D01*
X73938Y956235D01*
X73913Y956154D01*
X73912Y956069D01*
X73901Y956000D01*
X73901Y954999D01*
X72900Y954999D01*
X72836Y954990D01*
X72772Y954991D01*
X72697Y954970D01*
X72621Y954959D01*
X72562Y954933D01*
X72500Y954916D01*
X72434Y954875D01*
X72364Y954843D01*
X72315Y954801D01*
X72260Y954768D01*
X72208Y954710D01*
X72150Y954660D01*
X72114Y954606D01*
X72071Y954558D01*
X72038Y954489D01*
X71995Y954424D01*
X71976Y954362D01*
X71948Y954304D01*
X71938Y954235D01*
X71913Y954154D01*
X71912Y954069D01*
X71901Y954000D01*
X71901Y927967D01*
X63660Y927967D01*
X63596Y927958D01*
X63532Y927959D01*
X63457Y927938D01*
X63381Y927927D01*
X63322Y927901D01*
X63260Y927884D01*
X63194Y927843D01*
X63124Y927811D01*
X63075Y927769D01*
X63020Y927736D01*
X62968Y927678D01*
X62910Y927628D01*
X62874Y927574D01*
X62831Y927526D01*
X62798Y927457D01*
X62755Y927392D01*
X62736Y927330D01*
X62708Y927273D01*
X62697Y927203D01*
X62673Y927122D01*
X62672Y927037D01*
X62661Y926968D01*
X62661Y800501D01*
X62668Y800454D01*
X62665Y800412D01*
X62801Y798898D01*
X62706Y798595D01*
X62661Y798317D01*
X62662Y798306D01*
X62661Y798297D01*
X62661Y797979D01*
X62079Y796575D01*
X62067Y796529D01*
X62049Y796491D01*
X61595Y795040D01*
X61392Y794796D01*
X61243Y794556D01*
X61240Y794546D01*
X61235Y794538D01*
X61114Y794244D01*
X60039Y793170D01*
X60010Y793131D01*
X59979Y793104D01*
X59005Y791937D01*
X58723Y791790D01*
X58495Y791625D01*
X58488Y791617D01*
X58480Y791611D01*
X58256Y791386D01*
X56852Y790805D01*
X56810Y790780D01*
X56770Y790767D01*
X26852Y775095D01*
X26818Y775071D01*
X26780Y775053D01*
X26704Y774988D01*
X26623Y774930D01*
X26597Y774897D01*
X26565Y774870D01*
X26511Y774786D01*
X26450Y774708D01*
X26434Y774669D01*
X26411Y774634D01*
X26382Y774539D01*
X26345Y774446D01*
X26341Y774404D01*
X26328Y774364D01*
X26327Y774265D01*
X26318Y774166D01*
X26325Y774124D01*
X26325Y774082D01*
X26351Y773986D01*
X26370Y773888D01*
X26389Y773851D01*
X26400Y773810D01*
X26452Y773726D01*
X26497Y773637D01*
X26526Y773606D01*
X26548Y773570D01*
X26622Y773504D01*
X26690Y773431D01*
X26726Y773410D01*
X26757Y773381D01*
X26847Y773338D01*
X26933Y773287D01*
X26973Y773277D01*
X27011Y773258D01*
X27096Y773245D01*
X27206Y773217D01*
X27265Y773219D01*
X27316Y773211D01*
X34398Y773211D01*
X42525Y769845D01*
X48745Y763625D01*
X52111Y755498D01*
X52111Y746702D01*
X48745Y738575D01*
X42525Y732355D01*
X34398Y728989D01*
X25602Y728989D01*
X17475Y732355D01*
X11867Y737964D01*
X11841Y737984D01*
X11820Y738008D01*
X11728Y738068D01*
X11641Y738133D01*
X11611Y738145D01*
X11584Y738162D01*
X11479Y738194D01*
X11377Y738233D01*
X11345Y738235D01*
X11314Y738245D01*
X11205Y738246D01*
X11096Y738255D01*
X11064Y738248D01*
X11032Y738249D01*
X10927Y738219D01*
X10820Y738197D01*
X10791Y738182D01*
X10760Y738173D01*
X10667Y738116D01*
X10571Y738065D01*
X10548Y738042D01*
X10520Y738025D01*
X10447Y737944D01*
X10369Y737868D01*
X10353Y737840D01*
X10331Y737816D01*
X10284Y737718D01*
X10230Y737623D01*
X10222Y737591D01*
X10208Y737562D01*
X10194Y737473D01*
X10165Y737348D01*
X10167Y737300D01*
X10161Y737258D01*
X10161Y136398D01*
X10165Y136366D01*
X10163Y136334D01*
X10185Y136227D01*
X10201Y136119D01*
X10214Y136090D01*
X10220Y136058D01*
X10272Y135962D01*
X10317Y135862D01*
X10338Y135838D01*
X10353Y135809D01*
X10429Y135731D01*
X10500Y135648D01*
X10527Y135630D01*
X10550Y135607D01*
X10645Y135553D01*
X10736Y135494D01*
X10767Y135484D01*
X10795Y135468D01*
X10901Y135443D01*
X11006Y135411D01*
X11038Y135411D01*
X11069Y135403D01*
X11179Y135409D01*
X11288Y135407D01*
X11319Y135416D01*
X11351Y135418D01*
X11454Y135453D01*
X11560Y135483D01*
X11587Y135500D01*
X11618Y135510D01*
X11691Y135563D01*
X11800Y135631D01*
X11832Y135667D01*
X11867Y135692D01*
X12709Y136534D01*
X19130Y140242D01*
X26293Y142161D01*
X33707Y142161D01*
X40870Y140242D01*
X47291Y136534D01*
X52534Y131291D01*
X56242Y124870D01*
X58161Y117707D01*
X58161Y110293D01*
X56242Y103130D01*
X52534Y96709D01*
X47291Y91466D01*
X40870Y87758D01*
X33707Y85839D01*
X26293Y85839D01*
X19130Y87758D01*
X12709Y91466D01*
X11867Y92308D01*
X11841Y92328D01*
X11820Y92352D01*
X11728Y92412D01*
X11641Y92477D01*
X11611Y92489D01*
X11584Y92506D01*
X11479Y92538D01*
X11377Y92577D01*
X11345Y92579D01*
X11314Y92589D01*
X11205Y92590D01*
X11096Y92599D01*
X11064Y92592D01*
X11032Y92593D01*
X10927Y92563D01*
X10820Y92541D01*
X10791Y92526D01*
X10760Y92517D01*
X10667Y92460D01*
X10571Y92409D01*
X10548Y92386D01*
X10520Y92369D01*
X10447Y92288D01*
X10369Y92212D01*
X10353Y92184D01*
X10331Y92160D01*
X10284Y92062D01*
X10230Y91967D01*
X10222Y91935D01*
X10208Y91906D01*
X10194Y91817D01*
X10165Y91692D01*
X10167Y91644D01*
X10161Y91602D01*
X10161Y11160D01*
X10170Y11096D01*
X10169Y11032D01*
X10190Y10957D01*
X10201Y10881D01*
X10227Y10822D01*
X10244Y10760D01*
X10285Y10694D01*
X10317Y10624D01*
X10359Y10575D01*
X10392Y10520D01*
X10450Y10468D01*
X10500Y10410D01*
X10554Y10374D01*
X10602Y10331D01*
X10671Y10298D01*
X10736Y10255D01*
X10798Y10236D01*
X10855Y10208D01*
X10925Y10197D01*
X11006Y10173D01*
X11091Y10172D01*
X11160Y10161D01*
X14186Y10161D01*
X14250Y10170D01*
G37*
G36*
X165759Y648801D02*
X165759Y648801D01*
X165769Y648801D01*
X165897Y648830D01*
X166024Y648857D01*
X166034Y648862D01*
X166044Y648864D01*
X166158Y648928D01*
X166273Y648989D01*
X166281Y648997D01*
X166290Y649002D01*
X166381Y649095D01*
X166475Y649186D01*
X166481Y649195D01*
X166488Y649203D01*
X166550Y649318D01*
X166614Y649431D01*
X166617Y649442D01*
X166622Y649451D01*
X166649Y649579D01*
X166679Y649706D01*
X166679Y649717D01*
X166681Y649727D01*
X166672Y649857D01*
X166665Y649988D01*
X166661Y649998D01*
X166661Y650008D01*
X166632Y650084D01*
X166572Y650254D01*
X166558Y650274D01*
X166549Y650296D01*
X163758Y655130D01*
X161839Y662293D01*
X161839Y669707D01*
X163758Y676870D01*
X167466Y683291D01*
X172709Y688534D01*
X179130Y692242D01*
X186293Y694161D01*
X193707Y694161D01*
X200870Y692242D01*
X207291Y688534D01*
X208133Y687692D01*
X208159Y687672D01*
X208180Y687648D01*
X208272Y687588D01*
X208359Y687523D01*
X208389Y687511D01*
X208416Y687494D01*
X208521Y687462D01*
X208623Y687423D01*
X208655Y687421D01*
X208686Y687411D01*
X208795Y687410D01*
X208904Y687401D01*
X208936Y687408D01*
X208968Y687407D01*
X209073Y687437D01*
X209180Y687459D01*
X209209Y687474D01*
X209240Y687483D01*
X209333Y687540D01*
X209429Y687591D01*
X209452Y687614D01*
X209480Y687631D01*
X209553Y687712D01*
X209631Y687788D01*
X209647Y687816D01*
X209669Y687840D01*
X209716Y687938D01*
X209770Y688033D01*
X209778Y688065D01*
X209792Y688094D01*
X209806Y688183D01*
X209835Y688308D01*
X209833Y688356D01*
X209839Y688398D01*
X209839Y765747D01*
X209824Y765852D01*
X209817Y765958D01*
X209804Y765991D01*
X209799Y766027D01*
X209756Y766123D01*
X209719Y766222D01*
X209698Y766251D01*
X209683Y766284D01*
X209614Y766364D01*
X209551Y766449D01*
X209524Y766469D01*
X209500Y766498D01*
X209377Y766578D01*
X209304Y766633D01*
X163230Y790767D01*
X163184Y790783D01*
X163148Y790805D01*
X161744Y791386D01*
X161520Y791611D01*
X161294Y791780D01*
X161284Y791784D01*
X161277Y791790D01*
X160995Y791937D01*
X160764Y792214D01*
X160021Y793104D01*
X159986Y793136D01*
X159961Y793170D01*
X158886Y794244D01*
X158764Y794538D01*
X158621Y794781D01*
X158613Y794788D01*
X158608Y794796D01*
X158291Y795176D01*
X158234Y795228D01*
X158184Y795286D01*
X158130Y795322D01*
X158082Y795365D01*
X158012Y795399D01*
X157948Y795441D01*
X157886Y795460D01*
X157828Y795488D01*
X157752Y795501D01*
X157678Y795523D01*
X157613Y795524D01*
X157550Y795535D01*
X157473Y795526D01*
X157396Y795527D01*
X157334Y795510D01*
X157269Y795502D01*
X157199Y795472D01*
X157124Y795452D01*
X157069Y795418D01*
X157010Y795393D01*
X156950Y795344D01*
X156884Y795304D01*
X156841Y795255D01*
X156791Y795215D01*
X156747Y795151D01*
X156695Y795094D01*
X156667Y795036D01*
X156630Y794983D01*
X156606Y794910D01*
X156572Y794840D01*
X156563Y794782D01*
X156541Y794715D01*
X156537Y794615D01*
X156525Y794536D01*
X156525Y657957D01*
X156538Y657862D01*
X156543Y657765D01*
X156558Y657722D01*
X156565Y657677D01*
X156604Y657590D01*
X156636Y657499D01*
X156661Y657465D01*
X156681Y657420D01*
X156764Y657323D01*
X156817Y657250D01*
X164978Y649090D01*
X164986Y649083D01*
X164993Y649075D01*
X165099Y648999D01*
X165203Y648921D01*
X165213Y648917D01*
X165222Y648910D01*
X165345Y648867D01*
X165467Y648821D01*
X165478Y648820D01*
X165488Y648817D01*
X165619Y648809D01*
X165748Y648799D01*
X165759Y648801D01*
G37*
G36*
X118225Y982529D02*
X118225Y982529D01*
X118258Y982527D01*
X118365Y982549D01*
X118473Y982565D01*
X118502Y982578D01*
X118534Y982584D01*
X118630Y982636D01*
X118730Y982681D01*
X118754Y982702D01*
X118783Y982717D01*
X118861Y982793D01*
X118944Y982864D01*
X118962Y982891D01*
X118985Y982914D01*
X119038Y983009D01*
X119098Y983100D01*
X119108Y983131D01*
X119124Y983159D01*
X119149Y983265D01*
X119181Y983370D01*
X119181Y983402D01*
X119189Y983434D01*
X119183Y983543D01*
X119184Y983652D01*
X119176Y983683D01*
X119174Y983715D01*
X119138Y983818D01*
X119109Y983924D01*
X119092Y983951D01*
X119082Y983982D01*
X119028Y984055D01*
X118961Y984164D01*
X118925Y984196D01*
X118900Y984231D01*
X118886Y984244D01*
X117339Y987979D01*
X117339Y1108840D01*
X117330Y1108904D01*
X117331Y1108968D01*
X117310Y1109043D01*
X117299Y1109119D01*
X117273Y1109178D01*
X117256Y1109240D01*
X117215Y1109306D01*
X117183Y1109376D01*
X117141Y1109425D01*
X117108Y1109480D01*
X117050Y1109532D01*
X117000Y1109590D01*
X116946Y1109626D01*
X116898Y1109669D01*
X116829Y1109702D01*
X116764Y1109745D01*
X116702Y1109764D01*
X116645Y1109792D01*
X116575Y1109803D01*
X116494Y1109827D01*
X116409Y1109828D01*
X116340Y1109839D01*
X103660Y1109839D01*
X103596Y1109830D01*
X103532Y1109831D01*
X103457Y1109810D01*
X103381Y1109799D01*
X103322Y1109773D01*
X103260Y1109756D01*
X103194Y1109715D01*
X103124Y1109683D01*
X103075Y1109641D01*
X103020Y1109608D01*
X102968Y1109550D01*
X102910Y1109500D01*
X102874Y1109446D01*
X102831Y1109398D01*
X102798Y1109329D01*
X102755Y1109264D01*
X102736Y1109202D01*
X102708Y1109145D01*
X102697Y1109075D01*
X102673Y1108994D01*
X102672Y1108909D01*
X102661Y1108840D01*
X102661Y987979D01*
X101114Y984244D01*
X101100Y984231D01*
X101081Y984205D01*
X101056Y984184D01*
X100996Y984092D01*
X100931Y984005D01*
X100919Y983975D01*
X100902Y983948D01*
X100870Y983843D01*
X100831Y983741D01*
X100829Y983709D01*
X100819Y983678D01*
X100818Y983569D01*
X100809Y983460D01*
X100816Y983428D01*
X100816Y983396D01*
X100845Y983291D01*
X100867Y983184D01*
X100882Y983155D01*
X100891Y983124D01*
X100948Y983031D01*
X100999Y982935D01*
X101022Y982912D01*
X101039Y982884D01*
X101120Y982811D01*
X101196Y982733D01*
X101224Y982717D01*
X101248Y982695D01*
X101346Y982648D01*
X101442Y982594D01*
X101473Y982586D01*
X101502Y982572D01*
X101591Y982558D01*
X101716Y982529D01*
X101764Y982531D01*
X101807Y982525D01*
X118193Y982525D01*
X118225Y982529D01*
G37*
G36*
X156404Y909010D02*
X156404Y909010D01*
X156468Y909009D01*
X156543Y909030D01*
X156619Y909041D01*
X156678Y909067D01*
X156740Y909084D01*
X156806Y909125D01*
X156876Y909157D01*
X156925Y909199D01*
X156980Y909232D01*
X157032Y909290D01*
X157090Y909340D01*
X157126Y909394D01*
X157169Y909442D01*
X157202Y909511D01*
X157245Y909576D01*
X157264Y909638D01*
X157292Y909695D01*
X157303Y909765D01*
X157327Y909846D01*
X157328Y909931D01*
X157339Y910000D01*
X157339Y927476D01*
X157330Y927540D01*
X157331Y927604D01*
X157310Y927679D01*
X157299Y927755D01*
X157273Y927814D01*
X157256Y927876D01*
X157215Y927942D01*
X157183Y928012D01*
X157141Y928061D01*
X157108Y928116D01*
X157050Y928168D01*
X157000Y928226D01*
X156946Y928262D01*
X156898Y928305D01*
X156829Y928338D01*
X156764Y928381D01*
X156702Y928400D01*
X156645Y928428D01*
X156575Y928439D01*
X156494Y928463D01*
X156409Y928464D01*
X156340Y928475D01*
X131968Y928475D01*
X131075Y929368D01*
X131075Y978840D01*
X131066Y978904D01*
X131067Y978968D01*
X131046Y979043D01*
X131035Y979119D01*
X131009Y979178D01*
X130992Y979240D01*
X130951Y979306D01*
X130919Y979376D01*
X130877Y979425D01*
X130844Y979480D01*
X130786Y979532D01*
X130736Y979590D01*
X130682Y979626D01*
X130634Y979669D01*
X130565Y979702D01*
X130500Y979745D01*
X130438Y979764D01*
X130381Y979792D01*
X130311Y979803D01*
X130230Y979827D01*
X130145Y979828D01*
X130076Y979839D01*
X126532Y979839D01*
X126468Y979830D01*
X126404Y979831D01*
X126329Y979810D01*
X126253Y979799D01*
X126194Y979773D01*
X126132Y979756D01*
X126066Y979715D01*
X125996Y979683D01*
X125947Y979641D01*
X125892Y979608D01*
X125840Y979550D01*
X125782Y979500D01*
X125746Y979446D01*
X125703Y979398D01*
X125670Y979329D01*
X125627Y979264D01*
X125608Y979202D01*
X125580Y979145D01*
X125569Y979075D01*
X125545Y978994D01*
X125544Y978909D01*
X125533Y978840D01*
X125533Y956999D01*
X111000Y956999D01*
X110936Y956990D01*
X110872Y956991D01*
X110798Y956970D01*
X110721Y956959D01*
X110662Y956933D01*
X110600Y956916D01*
X110534Y956875D01*
X110464Y956843D01*
X110415Y956801D01*
X110360Y956768D01*
X110309Y956710D01*
X110250Y956660D01*
X110214Y956606D01*
X110171Y956558D01*
X110138Y956489D01*
X110095Y956424D01*
X110076Y956362D01*
X110048Y956305D01*
X110038Y956235D01*
X110013Y956154D01*
X110012Y956069D01*
X110001Y956000D01*
X110001Y954999D01*
X109000Y954999D01*
X108936Y954990D01*
X108872Y954991D01*
X108797Y954970D01*
X108721Y954959D01*
X108662Y954933D01*
X108600Y954916D01*
X108534Y954875D01*
X108464Y954843D01*
X108415Y954801D01*
X108360Y954768D01*
X108308Y954710D01*
X108250Y954660D01*
X108214Y954606D01*
X108171Y954558D01*
X108138Y954489D01*
X108095Y954424D01*
X108076Y954362D01*
X108048Y954304D01*
X108038Y954235D01*
X108013Y954154D01*
X108012Y954069D01*
X108001Y954000D01*
X108001Y927967D01*
X100000Y927967D01*
X99936Y927958D01*
X99872Y927959D01*
X99797Y927938D01*
X99721Y927927D01*
X99662Y927901D01*
X99600Y927884D01*
X99534Y927843D01*
X99464Y927811D01*
X99415Y927769D01*
X99360Y927736D01*
X99308Y927678D01*
X99250Y927628D01*
X99214Y927574D01*
X99171Y927526D01*
X99138Y927457D01*
X99095Y927392D01*
X99076Y927330D01*
X99048Y927273D01*
X99037Y927203D01*
X99013Y927122D01*
X99012Y927037D01*
X99001Y926968D01*
X99001Y920000D01*
X99014Y919905D01*
X99019Y919809D01*
X99034Y919766D01*
X99041Y919721D01*
X99080Y919633D01*
X99082Y919629D01*
X99092Y919593D01*
X99097Y919583D01*
X99112Y919542D01*
X99137Y919508D01*
X99157Y919464D01*
X99209Y919403D01*
X99240Y919353D01*
X99270Y919326D01*
X99293Y919293D01*
X105126Y913461D01*
X105134Y913455D01*
X105140Y913447D01*
X105247Y913370D01*
X105352Y913291D01*
X105361Y913288D01*
X105368Y913282D01*
X105492Y913238D01*
X105616Y913192D01*
X105625Y913191D01*
X105634Y913188D01*
X105766Y913180D01*
X105897Y913170D01*
X105906Y913172D01*
X105916Y913171D01*
X105991Y913190D01*
X106173Y913228D01*
X106194Y913239D01*
X106215Y913244D01*
X108197Y914065D01*
X111803Y914065D01*
X115135Y912685D01*
X117685Y910135D01*
X117899Y909618D01*
X117904Y909609D01*
X117906Y909600D01*
X117976Y909488D01*
X118043Y909375D01*
X118049Y909368D01*
X118054Y909360D01*
X118152Y909272D01*
X118248Y909182D01*
X118257Y909178D01*
X118264Y909171D01*
X118382Y909114D01*
X118500Y909054D01*
X118509Y909052D01*
X118518Y909048D01*
X118594Y909036D01*
X118777Y909002D01*
X118801Y909004D01*
X118822Y909001D01*
X156340Y909001D01*
X156404Y909010D01*
G37*
G36*
X106540Y629010D02*
X106540Y629010D01*
X106604Y629009D01*
X106679Y629030D01*
X106755Y629041D01*
X106814Y629067D01*
X106876Y629084D01*
X106942Y629125D01*
X107012Y629157D01*
X107061Y629199D01*
X107116Y629232D01*
X107168Y629290D01*
X107226Y629340D01*
X107262Y629394D01*
X107305Y629442D01*
X107338Y629511D01*
X107381Y629576D01*
X107400Y629638D01*
X107428Y629695D01*
X107439Y629765D01*
X107463Y629846D01*
X107464Y629931D01*
X107475Y630000D01*
X107475Y696000D01*
X107467Y696059D01*
X107467Y696078D01*
X107466Y696081D01*
X107467Y696128D01*
X107446Y696203D01*
X107435Y696279D01*
X107409Y696338D01*
X107392Y696400D01*
X107351Y696466D01*
X107319Y696536D01*
X107277Y696585D01*
X107244Y696640D01*
X107186Y696692D01*
X107136Y696750D01*
X107082Y696786D01*
X107034Y696829D01*
X106965Y696862D01*
X106900Y696905D01*
X106838Y696924D01*
X106781Y696952D01*
X106711Y696963D01*
X106630Y696987D01*
X106545Y696988D01*
X106476Y696999D01*
X91000Y696999D01*
X90936Y696990D01*
X90872Y696991D01*
X90797Y696970D01*
X90721Y696959D01*
X90662Y696933D01*
X90600Y696916D01*
X90534Y696875D01*
X90464Y696843D01*
X90415Y696801D01*
X90360Y696768D01*
X90308Y696710D01*
X90250Y696660D01*
X90214Y696606D01*
X90171Y696558D01*
X90138Y696489D01*
X90095Y696424D01*
X90076Y696362D01*
X90048Y696305D01*
X90037Y696235D01*
X90013Y696154D01*
X90012Y696069D01*
X90001Y696000D01*
X90001Y648984D01*
X90010Y648920D01*
X90009Y648858D01*
X90017Y648827D01*
X90019Y648793D01*
X90034Y648749D01*
X90041Y648704D01*
X90069Y648643D01*
X90084Y648586D01*
X90099Y648561D01*
X90112Y648526D01*
X90137Y648492D01*
X90157Y648448D01*
X90203Y648393D01*
X90232Y648346D01*
X90264Y648318D01*
X90293Y648277D01*
X92525Y646046D01*
X92525Y637895D01*
X92538Y637800D01*
X92543Y637704D01*
X92558Y637661D01*
X92565Y637616D01*
X92604Y637529D01*
X92636Y637438D01*
X92661Y637403D01*
X92681Y637359D01*
X92764Y637262D01*
X92817Y637189D01*
X100713Y629293D01*
X100789Y629236D01*
X100861Y629171D01*
X100902Y629151D01*
X100938Y629124D01*
X101028Y629090D01*
X101115Y629048D01*
X101157Y629042D01*
X101202Y629025D01*
X101330Y629015D01*
X101419Y629001D01*
X106476Y629001D01*
X106540Y629010D01*
G37*
G36*
X45064Y29010D02*
X45064Y29010D01*
X45128Y29009D01*
X45203Y29030D01*
X45279Y29041D01*
X45338Y29067D01*
X45400Y29084D01*
X45466Y29125D01*
X45536Y29157D01*
X45585Y29199D01*
X45640Y29232D01*
X45692Y29290D01*
X45750Y29340D01*
X45786Y29394D01*
X45829Y29442D01*
X45862Y29511D01*
X45905Y29576D01*
X45924Y29638D01*
X45952Y29695D01*
X45963Y29765D01*
X45987Y29846D01*
X45988Y29931D01*
X45999Y30000D01*
X45999Y70000D01*
X45991Y70061D01*
X45991Y70098D01*
X45991Y70099D01*
X45991Y70128D01*
X45970Y70203D01*
X45959Y70279D01*
X45933Y70338D01*
X45916Y70400D01*
X45875Y70466D01*
X45843Y70536D01*
X45801Y70585D01*
X45768Y70640D01*
X45710Y70692D01*
X45660Y70750D01*
X45606Y70786D01*
X45558Y70829D01*
X45489Y70862D01*
X45424Y70905D01*
X45362Y70924D01*
X45305Y70952D01*
X45235Y70963D01*
X45154Y70987D01*
X45069Y70988D01*
X45000Y70999D01*
X22000Y70999D01*
X21936Y70990D01*
X21872Y70991D01*
X21797Y70970D01*
X21721Y70959D01*
X21662Y70933D01*
X21600Y70916D01*
X21534Y70875D01*
X21464Y70843D01*
X21415Y70801D01*
X21360Y70768D01*
X21308Y70710D01*
X21250Y70660D01*
X21214Y70606D01*
X21171Y70558D01*
X21138Y70489D01*
X21095Y70424D01*
X21076Y70362D01*
X21048Y70305D01*
X21037Y70235D01*
X21013Y70154D01*
X21012Y70069D01*
X21001Y70000D01*
X21001Y30000D01*
X21010Y29936D01*
X21009Y29872D01*
X21030Y29797D01*
X21041Y29721D01*
X21067Y29662D01*
X21084Y29600D01*
X21125Y29534D01*
X21157Y29464D01*
X21199Y29415D01*
X21232Y29360D01*
X21290Y29308D01*
X21340Y29250D01*
X21394Y29214D01*
X21442Y29171D01*
X21511Y29138D01*
X21576Y29095D01*
X21638Y29076D01*
X21695Y29048D01*
X21765Y29037D01*
X21846Y29013D01*
X21931Y29012D01*
X22000Y29001D01*
X45000Y29001D01*
X45064Y29010D01*
G37*
G36*
X208936Y605650D02*
X208936Y605650D01*
X208968Y605649D01*
X209073Y605679D01*
X209180Y605701D01*
X209209Y605716D01*
X209240Y605725D01*
X209333Y605782D01*
X209429Y605833D01*
X209452Y605856D01*
X209480Y605873D01*
X209553Y605954D01*
X209631Y606030D01*
X209647Y606058D01*
X209669Y606082D01*
X209716Y606180D01*
X209770Y606276D01*
X209778Y606307D01*
X209792Y606336D01*
X209806Y606425D01*
X209835Y606550D01*
X209833Y606598D01*
X209839Y606640D01*
X209839Y643602D01*
X209835Y643634D01*
X209837Y643666D01*
X209815Y643773D01*
X209799Y643881D01*
X209786Y643910D01*
X209780Y643942D01*
X209728Y644038D01*
X209683Y644138D01*
X209662Y644162D01*
X209647Y644191D01*
X209571Y644269D01*
X209500Y644352D01*
X209473Y644370D01*
X209450Y644393D01*
X209355Y644447D01*
X209264Y644506D01*
X209233Y644516D01*
X209205Y644532D01*
X209099Y644557D01*
X208994Y644589D01*
X208962Y644589D01*
X208931Y644597D01*
X208821Y644591D01*
X208712Y644593D01*
X208681Y644584D01*
X208649Y644582D01*
X208546Y644547D01*
X208440Y644517D01*
X208413Y644500D01*
X208382Y644490D01*
X208309Y644437D01*
X208200Y644369D01*
X208168Y644333D01*
X208133Y644308D01*
X207291Y643466D01*
X200870Y639758D01*
X193707Y637839D01*
X186293Y637839D01*
X179130Y639758D01*
X174296Y642549D01*
X174286Y642553D01*
X174277Y642560D01*
X174155Y642606D01*
X174034Y642655D01*
X174024Y642656D01*
X174014Y642659D01*
X173884Y642670D01*
X173754Y642682D01*
X173743Y642680D01*
X173732Y642681D01*
X173605Y642655D01*
X173476Y642631D01*
X173467Y642626D01*
X173456Y642624D01*
X173341Y642562D01*
X173225Y642504D01*
X173217Y642496D01*
X173207Y642491D01*
X173114Y642400D01*
X173018Y642311D01*
X173013Y642302D01*
X173005Y642294D01*
X172941Y642181D01*
X172874Y642069D01*
X172872Y642058D01*
X172866Y642049D01*
X172836Y641921D01*
X172803Y641796D01*
X172804Y641785D01*
X172801Y641775D01*
X172808Y641643D01*
X172812Y641514D01*
X172815Y641504D01*
X172816Y641493D01*
X172859Y641369D01*
X172899Y641246D01*
X172905Y641237D01*
X172908Y641227D01*
X172956Y641162D01*
X173057Y641012D01*
X173076Y640997D01*
X173090Y640978D01*
X208133Y605934D01*
X208159Y605915D01*
X208180Y605890D01*
X208272Y605830D01*
X208359Y605765D01*
X208389Y605753D01*
X208416Y605736D01*
X208521Y605704D01*
X208623Y605665D01*
X208655Y605663D01*
X208686Y605653D01*
X208795Y605652D01*
X208904Y605643D01*
X208936Y605650D01*
G37*
%LPC*%
G36*
X142905Y229943D02*
X142905Y229943D01*
X139943Y232905D01*
X139943Y237095D01*
X142183Y239334D01*
X142240Y239411D01*
X142305Y239482D01*
X142325Y239523D01*
X142352Y239559D01*
X142386Y239650D01*
X142428Y239736D01*
X142434Y239778D01*
X142451Y239823D01*
X142461Y239951D01*
X142475Y240040D01*
X142475Y286046D01*
X157954Y301525D01*
X173960Y301525D01*
X174054Y301538D01*
X174151Y301543D01*
X174194Y301558D01*
X174239Y301565D01*
X174326Y301604D01*
X174417Y301636D01*
X174452Y301661D01*
X174496Y301681D01*
X174593Y301764D01*
X174666Y301817D01*
X176905Y304057D01*
X181095Y304057D01*
X184057Y301095D01*
X184057Y296905D01*
X181095Y293943D01*
X176905Y293943D01*
X174666Y296183D01*
X174589Y296240D01*
X174518Y296305D01*
X174477Y296325D01*
X174441Y296352D01*
X174350Y296386D01*
X174264Y296428D01*
X174222Y296434D01*
X174177Y296451D01*
X174049Y296461D01*
X173960Y296475D01*
X160460Y296475D01*
X160365Y296462D01*
X160269Y296457D01*
X160225Y296442D01*
X160180Y296435D01*
X160093Y296396D01*
X160002Y296364D01*
X159968Y296339D01*
X159924Y296319D01*
X159826Y296236D01*
X159753Y296183D01*
X147817Y284247D01*
X147760Y284170D01*
X147695Y284099D01*
X147675Y284058D01*
X147648Y284021D01*
X147614Y283931D01*
X147572Y283845D01*
X147566Y283803D01*
X147549Y283757D01*
X147539Y283630D01*
X147525Y283540D01*
X147525Y240040D01*
X147538Y239946D01*
X147543Y239849D01*
X147558Y239806D01*
X147565Y239761D01*
X147604Y239674D01*
X147636Y239583D01*
X147661Y239548D01*
X147681Y239504D01*
X147764Y239407D01*
X147817Y239334D01*
X150057Y237095D01*
X150057Y232905D01*
X147095Y229943D01*
X142905Y229943D01*
G37*
%LPD*%
G36*
X95064Y549010D02*
X95064Y549010D01*
X95128Y549009D01*
X95203Y549030D01*
X95279Y549041D01*
X95338Y549067D01*
X95400Y549084D01*
X95466Y549125D01*
X95536Y549157D01*
X95585Y549199D01*
X95640Y549232D01*
X95692Y549290D01*
X95750Y549340D01*
X95786Y549394D01*
X95829Y549442D01*
X95862Y549511D01*
X95905Y549576D01*
X95924Y549638D01*
X95952Y549695D01*
X95963Y549765D01*
X95987Y549846D01*
X95988Y549931D01*
X95999Y550000D01*
X95999Y590000D01*
X95991Y590061D01*
X95991Y590098D01*
X95991Y590099D01*
X95991Y590128D01*
X95970Y590203D01*
X95959Y590279D01*
X95933Y590338D01*
X95916Y590400D01*
X95875Y590466D01*
X95843Y590536D01*
X95801Y590585D01*
X95768Y590640D01*
X95710Y590692D01*
X95660Y590750D01*
X95606Y590786D01*
X95558Y590829D01*
X95489Y590862D01*
X95424Y590905D01*
X95362Y590924D01*
X95305Y590952D01*
X95235Y590963D01*
X95154Y590987D01*
X95069Y590988D01*
X95000Y590999D01*
X90000Y590999D01*
X89936Y590990D01*
X89872Y590991D01*
X89797Y590970D01*
X89721Y590959D01*
X89662Y590933D01*
X89600Y590916D01*
X89534Y590875D01*
X89464Y590843D01*
X89415Y590801D01*
X89360Y590768D01*
X89308Y590710D01*
X89250Y590660D01*
X89214Y590606D01*
X89171Y590558D01*
X89138Y590489D01*
X89095Y590424D01*
X89076Y590362D01*
X89048Y590305D01*
X89037Y590235D01*
X89013Y590154D01*
X89012Y590069D01*
X89001Y590000D01*
X89001Y580414D01*
X79293Y570707D01*
X79236Y570630D01*
X79171Y570558D01*
X79151Y570517D01*
X79124Y570481D01*
X79099Y570415D01*
X79095Y570409D01*
X79089Y570388D01*
X79048Y570305D01*
X79042Y570263D01*
X79025Y570217D01*
X79021Y570165D01*
X79013Y570139D01*
X79012Y570071D01*
X79001Y570000D01*
X79001Y550000D01*
X79010Y549936D01*
X79009Y549872D01*
X79030Y549797D01*
X79041Y549721D01*
X79067Y549662D01*
X79084Y549600D01*
X79125Y549534D01*
X79157Y549464D01*
X79199Y549415D01*
X79232Y549360D01*
X79290Y549308D01*
X79340Y549250D01*
X79394Y549214D01*
X79442Y549171D01*
X79511Y549138D01*
X79576Y549095D01*
X79638Y549076D01*
X79695Y549048D01*
X79765Y549037D01*
X79846Y549013D01*
X79931Y549012D01*
X80000Y549001D01*
X95000Y549001D01*
X95064Y549010D01*
G37*
G36*
X150064Y679010D02*
X150064Y679010D01*
X150128Y679009D01*
X150203Y679030D01*
X150279Y679041D01*
X150338Y679067D01*
X150400Y679084D01*
X150466Y679125D01*
X150536Y679157D01*
X150585Y679199D01*
X150640Y679232D01*
X150692Y679290D01*
X150750Y679340D01*
X150786Y679394D01*
X150829Y679442D01*
X150862Y679511D01*
X150905Y679576D01*
X150924Y679638D01*
X150952Y679695D01*
X150963Y679765D01*
X150987Y679846D01*
X150988Y679931D01*
X150999Y680000D01*
X150999Y710000D01*
X150990Y710062D01*
X150991Y710105D01*
X150991Y710106D01*
X150991Y710128D01*
X150970Y710203D01*
X150959Y710279D01*
X150933Y710338D01*
X150916Y710400D01*
X150875Y710466D01*
X150843Y710536D01*
X150801Y710585D01*
X150768Y710640D01*
X150710Y710692D01*
X150660Y710750D01*
X150606Y710786D01*
X150558Y710829D01*
X150489Y710862D01*
X150424Y710905D01*
X150362Y710924D01*
X150305Y710952D01*
X150235Y710963D01*
X150154Y710987D01*
X150069Y710988D01*
X150000Y710999D01*
X139000Y710999D01*
X138905Y710986D01*
X138809Y710981D01*
X138766Y710966D01*
X138721Y710959D01*
X138633Y710920D01*
X138542Y710888D01*
X138508Y710863D01*
X138464Y710843D01*
X138367Y710760D01*
X138293Y710707D01*
X133293Y705707D01*
X133236Y705630D01*
X133171Y705558D01*
X133151Y705517D01*
X133124Y705481D01*
X133096Y705407D01*
X133095Y705405D01*
X133093Y705399D01*
X133090Y705391D01*
X133048Y705305D01*
X133042Y705263D01*
X133025Y705217D01*
X133020Y705160D01*
X133013Y705135D01*
X133012Y705071D01*
X133001Y705000D01*
X133001Y687500D01*
X133014Y687405D01*
X133019Y687309D01*
X133034Y687266D01*
X133041Y687221D01*
X133080Y687133D01*
X133112Y687042D01*
X133137Y687008D01*
X133157Y686964D01*
X133240Y686867D01*
X133293Y686793D01*
X140793Y679293D01*
X140870Y679236D01*
X140942Y679171D01*
X140983Y679151D01*
X141019Y679124D01*
X141109Y679090D01*
X141195Y679048D01*
X141237Y679042D01*
X141283Y679025D01*
X141411Y679015D01*
X141500Y679001D01*
X150000Y679001D01*
X150064Y679010D01*
G37*
%LPC*%
G36*
X137905Y529943D02*
X137905Y529943D01*
X134943Y532905D01*
X134943Y537095D01*
X137905Y540057D01*
X142095Y540057D01*
X144293Y537858D01*
X144345Y537819D01*
X144390Y537773D01*
X144457Y537735D01*
X144519Y537689D01*
X144579Y537666D01*
X144635Y537634D01*
X144710Y537616D01*
X144783Y537589D01*
X144847Y537584D01*
X144909Y537569D01*
X144987Y537573D01*
X145064Y537567D01*
X145127Y537580D01*
X145191Y537584D01*
X145264Y537609D01*
X145340Y537625D01*
X145397Y537655D01*
X145458Y537676D01*
X145514Y537718D01*
X145589Y537757D01*
X145650Y537817D01*
X145707Y537858D01*
X147905Y540057D01*
X152095Y540057D01*
X154293Y537858D01*
X154345Y537819D01*
X154390Y537773D01*
X154457Y537735D01*
X154519Y537689D01*
X154579Y537666D01*
X154635Y537634D01*
X154710Y537616D01*
X154783Y537589D01*
X154847Y537584D01*
X154909Y537569D01*
X154987Y537573D01*
X155064Y537567D01*
X155127Y537580D01*
X155191Y537584D01*
X155264Y537609D01*
X155340Y537625D01*
X155397Y537655D01*
X155458Y537676D01*
X155514Y537718D01*
X155589Y537757D01*
X155650Y537817D01*
X155707Y537858D01*
X157905Y540057D01*
X162095Y540057D01*
X164293Y537858D01*
X164345Y537819D01*
X164390Y537773D01*
X164457Y537735D01*
X164519Y537689D01*
X164579Y537666D01*
X164635Y537634D01*
X164710Y537616D01*
X164783Y537589D01*
X164847Y537584D01*
X164909Y537569D01*
X164987Y537573D01*
X165064Y537567D01*
X165127Y537580D01*
X165191Y537584D01*
X165264Y537609D01*
X165340Y537625D01*
X165397Y537655D01*
X165458Y537676D01*
X165514Y537718D01*
X165589Y537757D01*
X165650Y537817D01*
X165707Y537858D01*
X167905Y540057D01*
X172095Y540057D01*
X174293Y537858D01*
X174345Y537819D01*
X174390Y537773D01*
X174457Y537735D01*
X174519Y537689D01*
X174579Y537666D01*
X174635Y537634D01*
X174710Y537616D01*
X174783Y537589D01*
X174847Y537584D01*
X174909Y537569D01*
X174987Y537573D01*
X175064Y537567D01*
X175127Y537580D01*
X175191Y537584D01*
X175264Y537609D01*
X175340Y537625D01*
X175397Y537655D01*
X175458Y537676D01*
X175514Y537718D01*
X175589Y537757D01*
X175650Y537817D01*
X175707Y537858D01*
X177905Y540057D01*
X182095Y540057D01*
X184293Y537858D01*
X184345Y537819D01*
X184390Y537773D01*
X184457Y537735D01*
X184519Y537689D01*
X184579Y537666D01*
X184635Y537634D01*
X184710Y537616D01*
X184783Y537589D01*
X184847Y537584D01*
X184909Y537569D01*
X184987Y537573D01*
X185064Y537567D01*
X185127Y537580D01*
X185191Y537584D01*
X185264Y537609D01*
X185340Y537625D01*
X185397Y537655D01*
X185458Y537676D01*
X185514Y537718D01*
X185589Y537757D01*
X185650Y537817D01*
X185707Y537858D01*
X187905Y540057D01*
X192095Y540057D01*
X195057Y537095D01*
X195057Y532905D01*
X192095Y529943D01*
X187905Y529943D01*
X185707Y532142D01*
X185655Y532181D01*
X185610Y532227D01*
X185543Y532265D01*
X185481Y532311D01*
X185421Y532334D01*
X185365Y532366D01*
X185290Y532384D01*
X185217Y532411D01*
X185153Y532416D01*
X185090Y532431D01*
X185013Y532427D01*
X184936Y532433D01*
X184873Y532420D01*
X184809Y532416D01*
X184736Y532391D01*
X184660Y532375D01*
X184603Y532345D01*
X184542Y532324D01*
X184486Y532282D01*
X184411Y532243D01*
X184350Y532184D01*
X184293Y532142D01*
X182095Y529943D01*
X177905Y529943D01*
X175707Y532142D01*
X175655Y532181D01*
X175610Y532227D01*
X175543Y532265D01*
X175481Y532311D01*
X175421Y532334D01*
X175365Y532366D01*
X175290Y532384D01*
X175217Y532411D01*
X175153Y532416D01*
X175090Y532431D01*
X175013Y532427D01*
X174936Y532433D01*
X174873Y532420D01*
X174809Y532416D01*
X174736Y532391D01*
X174660Y532375D01*
X174603Y532345D01*
X174542Y532324D01*
X174486Y532282D01*
X174411Y532243D01*
X174350Y532184D01*
X174293Y532142D01*
X172095Y529943D01*
X167905Y529943D01*
X165707Y532142D01*
X165655Y532181D01*
X165610Y532227D01*
X165543Y532265D01*
X165481Y532311D01*
X165421Y532334D01*
X165365Y532366D01*
X165290Y532384D01*
X165217Y532411D01*
X165153Y532416D01*
X165090Y532431D01*
X165013Y532427D01*
X164936Y532433D01*
X164873Y532420D01*
X164809Y532416D01*
X164736Y532391D01*
X164660Y532375D01*
X164603Y532345D01*
X164542Y532324D01*
X164486Y532282D01*
X164411Y532243D01*
X164350Y532184D01*
X164293Y532142D01*
X162095Y529943D01*
X157905Y529943D01*
X155707Y532142D01*
X155655Y532181D01*
X155610Y532227D01*
X155543Y532265D01*
X155481Y532311D01*
X155421Y532334D01*
X155365Y532366D01*
X155290Y532384D01*
X155217Y532411D01*
X155153Y532416D01*
X155090Y532431D01*
X155013Y532427D01*
X154936Y532433D01*
X154873Y532420D01*
X154809Y532416D01*
X154736Y532391D01*
X154660Y532375D01*
X154603Y532345D01*
X154542Y532324D01*
X154486Y532282D01*
X154411Y532243D01*
X154350Y532184D01*
X154293Y532142D01*
X152095Y529943D01*
X147905Y529943D01*
X145707Y532142D01*
X145655Y532181D01*
X145610Y532227D01*
X145543Y532265D01*
X145481Y532311D01*
X145421Y532334D01*
X145365Y532366D01*
X145290Y532384D01*
X145217Y532411D01*
X145153Y532416D01*
X145090Y532431D01*
X145013Y532427D01*
X144936Y532433D01*
X144873Y532420D01*
X144809Y532416D01*
X144736Y532391D01*
X144660Y532375D01*
X144603Y532345D01*
X144542Y532324D01*
X144486Y532282D01*
X144411Y532243D01*
X144350Y532184D01*
X144293Y532142D01*
X142095Y529943D01*
X137905Y529943D01*
G37*
%LPD*%
G36*
X60064Y439010D02*
X60064Y439010D01*
X60128Y439009D01*
X60203Y439030D01*
X60279Y439041D01*
X60338Y439067D01*
X60400Y439084D01*
X60466Y439125D01*
X60536Y439157D01*
X60585Y439199D01*
X60640Y439232D01*
X60692Y439290D01*
X60750Y439340D01*
X60786Y439394D01*
X60829Y439442D01*
X60862Y439511D01*
X60905Y439576D01*
X60924Y439638D01*
X60952Y439695D01*
X60963Y439765D01*
X60987Y439846D01*
X60988Y439931D01*
X60999Y440000D01*
X60999Y460000D01*
X60990Y460062D01*
X60991Y460113D01*
X60991Y460114D01*
X60991Y460128D01*
X60970Y460203D01*
X60959Y460279D01*
X60933Y460338D01*
X60916Y460400D01*
X60875Y460466D01*
X60843Y460536D01*
X60801Y460585D01*
X60768Y460640D01*
X60710Y460692D01*
X60660Y460750D01*
X60606Y460786D01*
X60558Y460829D01*
X60489Y460862D01*
X60424Y460905D01*
X60362Y460924D01*
X60305Y460952D01*
X60235Y460963D01*
X60154Y460987D01*
X60069Y460988D01*
X60000Y460999D01*
X40000Y460999D01*
X39936Y460990D01*
X39872Y460991D01*
X39797Y460970D01*
X39721Y460959D01*
X39662Y460933D01*
X39600Y460916D01*
X39534Y460875D01*
X39464Y460843D01*
X39415Y460801D01*
X39360Y460768D01*
X39308Y460710D01*
X39250Y460660D01*
X39214Y460606D01*
X39171Y460558D01*
X39138Y460489D01*
X39095Y460424D01*
X39076Y460362D01*
X39048Y460305D01*
X39037Y460235D01*
X39013Y460154D01*
X39012Y460069D01*
X39001Y460000D01*
X39001Y440000D01*
X39010Y439936D01*
X39009Y439872D01*
X39030Y439797D01*
X39041Y439721D01*
X39067Y439662D01*
X39084Y439600D01*
X39125Y439534D01*
X39157Y439464D01*
X39199Y439415D01*
X39232Y439360D01*
X39290Y439308D01*
X39340Y439250D01*
X39394Y439214D01*
X39442Y439171D01*
X39511Y439138D01*
X39576Y439095D01*
X39638Y439076D01*
X39695Y439048D01*
X39765Y439037D01*
X39846Y439013D01*
X39931Y439012D01*
X40000Y439001D01*
X60000Y439001D01*
X60064Y439010D01*
G37*
G36*
X190064Y49010D02*
X190064Y49010D01*
X190128Y49009D01*
X190203Y49030D01*
X190279Y49041D01*
X190338Y49067D01*
X190400Y49084D01*
X190466Y49125D01*
X190536Y49157D01*
X190585Y49199D01*
X190640Y49232D01*
X190692Y49290D01*
X190750Y49340D01*
X190786Y49394D01*
X190829Y49442D01*
X190862Y49511D01*
X190905Y49576D01*
X190924Y49638D01*
X190952Y49695D01*
X190963Y49765D01*
X190987Y49846D01*
X190988Y49931D01*
X190999Y50000D01*
X190999Y70000D01*
X190990Y70062D01*
X190991Y70113D01*
X190991Y70114D01*
X190991Y70128D01*
X190970Y70203D01*
X190959Y70279D01*
X190933Y70338D01*
X190916Y70400D01*
X190875Y70466D01*
X190843Y70536D01*
X190801Y70585D01*
X190768Y70640D01*
X190710Y70692D01*
X190660Y70750D01*
X190606Y70786D01*
X190558Y70829D01*
X190489Y70862D01*
X190424Y70905D01*
X190362Y70924D01*
X190305Y70952D01*
X190235Y70963D01*
X190154Y70987D01*
X190069Y70988D01*
X190000Y70999D01*
X175624Y70999D01*
X175529Y70986D01*
X175433Y70981D01*
X175390Y70966D01*
X175345Y70959D01*
X175258Y70920D01*
X175167Y70888D01*
X175132Y70863D01*
X175088Y70843D01*
X174991Y70760D01*
X174918Y70707D01*
X169293Y65082D01*
X169236Y65005D01*
X169171Y64934D01*
X169151Y64893D01*
X169124Y64857D01*
X169090Y64767D01*
X169048Y64680D01*
X169042Y64638D01*
X169025Y64593D01*
X169015Y64465D01*
X169001Y64376D01*
X169001Y50000D01*
X169010Y49936D01*
X169009Y49872D01*
X169030Y49797D01*
X169041Y49721D01*
X169067Y49662D01*
X169084Y49600D01*
X169125Y49534D01*
X169157Y49464D01*
X169199Y49415D01*
X169232Y49360D01*
X169290Y49308D01*
X169340Y49250D01*
X169394Y49214D01*
X169442Y49171D01*
X169511Y49138D01*
X169576Y49095D01*
X169638Y49076D01*
X169695Y49048D01*
X169765Y49037D01*
X169846Y49013D01*
X169931Y49012D01*
X170000Y49001D01*
X190000Y49001D01*
X190064Y49010D01*
G37*
%LPC*%
G36*
X19905Y175943D02*
X19905Y175943D01*
X16943Y178905D01*
X16943Y183095D01*
X19905Y186057D01*
X23072Y186057D01*
X23167Y186070D01*
X23263Y186075D01*
X23307Y186090D01*
X23352Y186097D01*
X23439Y186136D01*
X23530Y186168D01*
X23564Y186193D01*
X23608Y186213D01*
X23706Y186296D01*
X23779Y186349D01*
X54651Y217221D01*
X54708Y217298D01*
X54773Y217369D01*
X54793Y217410D01*
X54820Y217447D01*
X54854Y217537D01*
X54896Y217623D01*
X54902Y217665D01*
X54919Y217711D01*
X54929Y217838D01*
X54931Y217850D01*
X54931Y217851D01*
X54943Y217928D01*
X54943Y222095D01*
X57905Y225057D01*
X62095Y225057D01*
X65057Y222095D01*
X65057Y217905D01*
X62095Y214943D01*
X59928Y214943D01*
X59833Y214930D01*
X59737Y214925D01*
X59693Y214910D01*
X59648Y214903D01*
X59561Y214864D01*
X59470Y214832D01*
X59436Y214807D01*
X59392Y214787D01*
X59294Y214704D01*
X59221Y214651D01*
X27349Y182779D01*
X27292Y182702D01*
X27227Y182631D01*
X27207Y182590D01*
X27180Y182553D01*
X27146Y182463D01*
X27104Y182377D01*
X27098Y182335D01*
X27081Y182289D01*
X27074Y182203D01*
X27069Y182186D01*
X27068Y182146D01*
X27057Y182072D01*
X27057Y178905D01*
X24095Y175943D01*
X19905Y175943D01*
G37*
%LPD*%
%LPC*%
G36*
X111999Y927967D02*
X111999Y927967D01*
X111999Y953001D01*
X125533Y953001D01*
X125533Y929732D01*
X125394Y929215D01*
X125127Y928752D01*
X124748Y928373D01*
X124285Y928106D01*
X123768Y927967D01*
X111999Y927967D01*
G37*
%LPD*%
%LPC*%
G36*
X75899Y927967D02*
X75899Y927967D01*
X75899Y953001D01*
X89433Y953001D01*
X89433Y929732D01*
X89294Y929215D01*
X89027Y928752D01*
X88648Y928373D01*
X88185Y928106D01*
X87668Y927967D01*
X75899Y927967D01*
G37*
%LPD*%
G36*
X40064Y519010D02*
X40064Y519010D01*
X40128Y519009D01*
X40203Y519030D01*
X40279Y519041D01*
X40338Y519067D01*
X40400Y519084D01*
X40466Y519125D01*
X40536Y519157D01*
X40585Y519199D01*
X40640Y519232D01*
X40692Y519290D01*
X40750Y519340D01*
X40786Y519394D01*
X40829Y519442D01*
X40862Y519511D01*
X40905Y519576D01*
X40924Y519638D01*
X40952Y519695D01*
X40963Y519765D01*
X40987Y519846D01*
X40988Y519931D01*
X40999Y520000D01*
X40999Y540000D01*
X40990Y540062D01*
X40991Y540113D01*
X40991Y540114D01*
X40991Y540128D01*
X40970Y540203D01*
X40959Y540279D01*
X40933Y540338D01*
X40916Y540400D01*
X40875Y540466D01*
X40843Y540536D01*
X40801Y540585D01*
X40768Y540640D01*
X40710Y540692D01*
X40660Y540750D01*
X40606Y540786D01*
X40558Y540829D01*
X40489Y540862D01*
X40424Y540905D01*
X40362Y540924D01*
X40305Y540952D01*
X40235Y540963D01*
X40154Y540987D01*
X40069Y540988D01*
X40000Y540999D01*
X31000Y540999D01*
X30936Y540990D01*
X30872Y540991D01*
X30797Y540970D01*
X30721Y540959D01*
X30662Y540933D01*
X30600Y540916D01*
X30534Y540875D01*
X30464Y540843D01*
X30415Y540801D01*
X30360Y540768D01*
X30308Y540710D01*
X30250Y540660D01*
X30214Y540606D01*
X30171Y540558D01*
X30138Y540489D01*
X30095Y540424D01*
X30076Y540362D01*
X30048Y540305D01*
X30037Y540235D01*
X30013Y540154D01*
X30012Y540069D01*
X30001Y540000D01*
X30001Y537905D01*
X29293Y537198D01*
X29236Y537121D01*
X29171Y537050D01*
X29151Y537009D01*
X29124Y536973D01*
X29090Y536883D01*
X29048Y536796D01*
X29042Y536754D01*
X29025Y536709D01*
X29015Y536581D01*
X29001Y536492D01*
X29001Y520000D01*
X29010Y519936D01*
X29009Y519872D01*
X29030Y519797D01*
X29041Y519721D01*
X29067Y519662D01*
X29084Y519600D01*
X29125Y519534D01*
X29157Y519464D01*
X29199Y519415D01*
X29232Y519360D01*
X29290Y519308D01*
X29340Y519250D01*
X29394Y519214D01*
X29442Y519171D01*
X29511Y519138D01*
X29576Y519095D01*
X29638Y519076D01*
X29695Y519048D01*
X29765Y519037D01*
X29846Y519013D01*
X29931Y519012D01*
X30000Y519001D01*
X40000Y519001D01*
X40064Y519010D01*
G37*
%LPC*%
G36*
X142905Y19943D02*
X142905Y19943D01*
X139943Y22905D01*
X139943Y27095D01*
X142183Y29334D01*
X142240Y29411D01*
X142305Y29482D01*
X142325Y29523D01*
X142352Y29559D01*
X142386Y29650D01*
X142428Y29736D01*
X142434Y29778D01*
X142451Y29823D01*
X142461Y29951D01*
X142475Y30040D01*
X142475Y39960D01*
X142462Y40054D01*
X142457Y40151D01*
X142442Y40194D01*
X142435Y40239D01*
X142396Y40326D01*
X142364Y40417D01*
X142339Y40452D01*
X142319Y40496D01*
X142236Y40593D01*
X142183Y40666D01*
X139943Y42905D01*
X139943Y47095D01*
X142905Y50057D01*
X147095Y50057D01*
X150057Y47095D01*
X150057Y42905D01*
X147817Y40666D01*
X147760Y40589D01*
X147695Y40518D01*
X147675Y40477D01*
X147648Y40441D01*
X147614Y40350D01*
X147572Y40264D01*
X147566Y40222D01*
X147549Y40177D01*
X147539Y40049D01*
X147525Y39960D01*
X147525Y30040D01*
X147538Y29946D01*
X147543Y29849D01*
X147558Y29806D01*
X147565Y29761D01*
X147604Y29674D01*
X147636Y29583D01*
X147661Y29548D01*
X147681Y29504D01*
X147764Y29407D01*
X147817Y29334D01*
X150057Y27095D01*
X150057Y22905D01*
X147095Y19943D01*
X142905Y19943D01*
G37*
%LPD*%
%LPC*%
G36*
X34295Y32685D02*
X34295Y32685D01*
X31606Y33799D01*
X29549Y35856D01*
X28435Y38545D01*
X28435Y41455D01*
X29549Y44144D01*
X31606Y46201D01*
X34295Y47315D01*
X37205Y47315D01*
X39894Y46201D01*
X41951Y44144D01*
X43065Y41455D01*
X43065Y38545D01*
X41951Y35856D01*
X39894Y33799D01*
X37205Y32685D01*
X34295Y32685D01*
G37*
%LPD*%
%LPC*%
G36*
X82795Y32685D02*
X82795Y32685D01*
X80106Y33799D01*
X78049Y35856D01*
X76935Y38545D01*
X76935Y41455D01*
X78049Y44144D01*
X80106Y46201D01*
X82795Y47315D01*
X85705Y47315D01*
X88394Y46201D01*
X90451Y44144D01*
X91565Y41455D01*
X91565Y38545D01*
X90451Y35856D01*
X88394Y33799D01*
X85705Y32685D01*
X82795Y32685D01*
G37*
%LPD*%
D10*
X146100Y955000D03*
X110000Y955000D03*
X73900Y955000D03*
D11*
X110000Y905000D03*
X24250Y12700D03*
X95750Y12700D03*
D12*
X84250Y40000D03*
X35750Y40000D03*
D13*
X110000Y28900D03*
X110000Y751100D03*
D14*
X35000Y535000D03*
X35000Y525000D03*
X45000Y455000D03*
X45000Y445000D03*
X55000Y445000D03*
X55000Y455000D03*
D15*
X45000Y455000D02*
X35000Y465000D01*
X35000Y525000D01*
D14*
X88000Y553000D03*
X88000Y558000D03*
X88000Y563000D03*
X88000Y568000D03*
X90000Y585000D03*
D15*
X35000Y530000D01*
X35000Y525000D01*
D14*
X155000Y225000D03*
X184809Y216000D03*
D16*
X176253Y225000D02*
X155000Y225000D01*
X176253Y225000D02*
X184809Y216444D01*
X184809Y216000D01*
D14*
X24944Y540000D03*
D16*
X25000Y539944D01*
X25000Y490000D01*
D14*
X24944Y490000D03*
X179000Y299000D03*
X145000Y235000D03*
D16*
X145000Y285000D01*
X159000Y299000D02*
X179000Y299000D01*
X159000Y299000D02*
X145000Y285000D01*
D14*
X193500Y216000D03*
X159944Y274500D03*
D16*
X159944Y249556D01*
X193500Y216000D01*
X110000Y110000D02*
X110000Y701400D01*
D14*
X110000Y110000D03*
D16*
X110000Y737565D02*
X110000Y751100D01*
X110000Y737565D02*
X98944Y726509D01*
X98944Y712456D02*
X110000Y701400D01*
X98944Y712456D02*
X98944Y726509D01*
D14*
X145000Y25000D03*
X145000Y45000D03*
D16*
X145000Y25000D01*
D14*
X37500Y55000D03*
X27500Y55000D03*
X27500Y65000D03*
X37500Y65000D03*
D15*
X43500Y61000D02*
X151000Y61000D01*
X43500Y61000D02*
X37500Y55000D01*
X151000Y61000D02*
X204840Y114840D01*
X204840Y150000D01*
X204840Y160000D01*
X204840Y600000D01*
D16*
X110000Y920000D02*
X110000Y955000D01*
X110000Y920000D02*
X150000Y920000D01*
D15*
X150000Y654840D02*
X204840Y600000D01*
X150000Y720000D02*
X150000Y920000D01*
D14*
X147500Y155000D03*
D15*
X150000Y710000D02*
X150000Y720000D01*
X150000Y710000D02*
X150000Y680000D01*
X150000Y654840D01*
X147500Y155000D02*
X199840Y155000D01*
X204840Y160000D01*
X199840Y155000D02*
X204840Y150000D01*
D14*
X134000Y705000D03*
X132500Y687500D03*
D15*
X134000Y705000D02*
X145000Y705000D01*
X150000Y710000D01*
D17*
X134000Y705000D02*
X134000Y700000D01*
D14*
X128800Y696700D03*
D15*
X132500Y693000D02*
X132500Y687500D01*
X132500Y693000D02*
X129048Y696452D01*
X129048Y696700D01*
X132348Y700000D01*
X134000Y700000D01*
X129048Y700048D02*
X134000Y705000D01*
X129048Y700048D02*
X129048Y696700D01*
X129048Y690952D02*
X132500Y687500D01*
X129048Y690952D02*
X129048Y696452D01*
X132500Y687500D02*
X140000Y680000D01*
X150000Y680000D01*
X135000Y705000D02*
X134000Y705000D01*
X135000Y705000D02*
X150000Y720000D01*
D14*
X32500Y60000D03*
X32500Y67500D03*
X25000Y60000D03*
X40000Y60000D03*
X32500Y52500D03*
X61156Y642800D03*
X50000Y420000D03*
D16*
X56500Y426500D02*
X66500Y426500D01*
X99428Y459428D01*
X99428Y604528D02*
X61156Y642800D01*
X99428Y604528D02*
X99428Y459428D01*
X56500Y426500D02*
X50000Y420000D01*
D14*
X41000Y401000D03*
D16*
X106476Y456476D02*
X106476Y619960D01*
X106476Y456476D02*
X51000Y401000D01*
X41000Y401000D01*
D14*
X64830Y663100D03*
D16*
X64830Y660170D01*
X75000Y650000D02*
X85000Y650000D01*
X90000Y645000D01*
X90000Y636436D01*
X75000Y650000D02*
X64830Y660170D01*
X90000Y636436D02*
X106476Y619960D01*
D14*
X22000Y181000D03*
D16*
X60000Y219000D02*
X60000Y220000D01*
X60000Y219000D02*
X22000Y181000D01*
D14*
X60000Y220000D03*
X80000Y643000D03*
D16*
X80000Y641452D01*
X102952Y618500D01*
X65016Y420000D02*
X59372Y420000D01*
D14*
X59372Y420000D03*
D16*
X102952Y457936D02*
X102952Y618500D01*
X102952Y457936D02*
X65016Y420000D01*
D14*
X133000Y631000D03*
X75000Y690500D03*
X95000Y735000D03*
X129000Y901000D03*
X70000Y27000D03*
X47000Y150000D03*
X80000Y370000D03*
X85000Y370000D03*
X90000Y370000D03*
X95000Y370000D03*
X100000Y370000D03*
X100000Y375000D03*
X95000Y375000D03*
X90000Y375000D03*
X85000Y375000D03*
X80000Y375000D03*
X80000Y380000D03*
X85000Y380000D03*
X90000Y380000D03*
X95000Y380000D03*
X100000Y380000D03*
X100000Y385000D03*
X95000Y385000D03*
X90000Y385000D03*
X85000Y385000D03*
X80000Y385000D03*
X80000Y390000D03*
X85000Y390000D03*
X90000Y390000D03*
X95000Y390000D03*
X100000Y390000D03*
X100000Y395000D03*
X95000Y395000D03*
X90000Y395000D03*
X85000Y395000D03*
X80000Y395000D03*
X80000Y400000D03*
X85000Y400000D03*
X90000Y400000D03*
X95000Y400000D03*
X100000Y400000D03*
X100000Y405000D03*
X95000Y405000D03*
X90000Y405000D03*
X85000Y405000D03*
X80000Y405000D03*
X80000Y410000D03*
X85000Y410000D03*
X90000Y410000D03*
X95000Y410000D03*
X100000Y410000D03*
X22450Y477250D03*
X43800Y286150D03*
X179000Y311500D03*
X179650Y401200D03*
X175000Y465000D03*
X41000Y382500D03*
X58500Y395500D03*
X58500Y347500D03*
X41000Y332000D03*
X65000Y95000D03*
X88500Y149000D03*
X139900Y185400D03*
X99100Y72100D03*
X99800Y50300D03*
D18*
X186500Y191500D03*
X163500Y191500D03*
X163500Y168500D03*
X186500Y168500D03*
X175000Y180000D03*
D14*
X155000Y215000D03*
X15000Y495000D03*
X15000Y505000D03*
X35000Y630000D03*
X179000Y240500D03*
X179000Y286500D03*
X131500Y209500D03*
X155000Y235000D03*
X65000Y105000D03*
X65000Y115000D03*
X65000Y125000D03*
X65000Y135000D03*
X15000Y145000D03*
X25000Y145000D03*
X35000Y145000D03*
X35000Y155000D03*
X25000Y155000D03*
X15000Y155000D03*
X44000Y432500D03*
X179550Y439750D03*
X92000Y168000D03*
X40700Y420000D03*
X180000Y419500D03*
X80000Y50900D03*
X15000Y85000D03*
X15000Y75000D03*
X15000Y65000D03*
X15000Y55000D03*
X15000Y45000D03*
X15000Y35000D03*
X15000Y25000D03*
X35000Y22500D03*
X45000Y22500D03*
X40000Y15000D03*
X50000Y15000D03*
X109800Y50300D03*
X119800Y50300D03*
X158500Y143000D03*
X50000Y180000D03*
X15000Y189000D03*
X45000Y235000D03*
X55000Y235000D03*
X65000Y235000D03*
X75000Y235000D03*
X85000Y235000D03*
X95000Y235000D03*
X139000Y901000D03*
X129000Y886000D03*
X90000Y920000D03*
X137500Y835000D03*
X75000Y920000D03*
X75000Y855000D03*
X185000Y770000D03*
X75000Y845000D03*
X75000Y835000D03*
X75000Y825000D03*
X75000Y815000D03*
X55000Y785000D03*
X55000Y765000D03*
X55000Y775000D03*
X45000Y775000D03*
X55000Y755000D03*
X55000Y745000D03*
X20000Y660000D03*
X35000Y660000D03*
X35000Y650000D03*
X20000Y650000D03*
X20000Y640000D03*
X35000Y640000D03*
X15000Y515000D03*
X15000Y525000D03*
X15000Y535000D03*
X55000Y565000D03*
X55000Y575000D03*
X55000Y585000D03*
X55000Y595000D03*
X45000Y595000D03*
X55000Y525000D03*
X55000Y535000D03*
X55000Y515000D03*
X55000Y505000D03*
X55000Y495000D03*
X55000Y485000D03*
X55000Y475000D03*
X175000Y715000D03*
X175000Y725000D03*
X175000Y735000D03*
X175000Y745000D03*
X205000Y705000D03*
X205000Y715000D03*
X205000Y725000D03*
X205000Y735000D03*
X205000Y745000D03*
X205000Y755000D03*
X205000Y695000D03*
X195000Y765000D03*
X94000Y775000D03*
X94000Y765000D03*
X91000Y785000D03*
D18*
X105700Y724300D03*
X105850Y715750D03*
D14*
X53500Y735000D03*
X45000Y727500D03*
X83600Y720000D03*
X76500Y712500D03*
X85000Y735000D03*
X85000Y745000D03*
X85000Y755000D03*
X85000Y765000D03*
X85000Y775000D03*
X85000Y475000D03*
X85000Y485000D03*
X85000Y495000D03*
X85000Y505000D03*
X85000Y525000D03*
X85000Y515000D03*
X85000Y535000D03*
X155000Y512500D03*
X145000Y512500D03*
X135000Y512500D03*
X135000Y502500D03*
X135000Y492500D03*
X135000Y482500D03*
X145000Y482500D03*
X155000Y482500D03*
X194500Y512500D03*
X185000Y502500D03*
X185000Y492500D03*
X194500Y482500D03*
X175000Y492500D03*
X175000Y482500D03*
X175000Y502500D03*
X175000Y512500D03*
X135000Y415000D03*
X135000Y405000D03*
X135000Y395000D03*
X135000Y385000D03*
X135000Y375000D03*
X135000Y365000D03*
X95000Y355000D03*
X85000Y355000D03*
X85000Y425000D03*
X95000Y425000D03*
D18*
X169000Y556929D03*
X176464Y566464D03*
X171464Y566464D03*
X180000Y547929D03*
X161464Y566464D03*
X166464Y566464D03*
X175000Y547929D03*
X170000Y547929D03*
X165000Y547929D03*
X164000Y552929D03*
D14*
X205000Y625000D03*
X205000Y635000D03*
X195000Y635000D03*
X205000Y15000D03*
X200000Y20000D03*
X205000Y25000D03*
X200000Y30000D03*
X205000Y35000D03*
X200000Y40000D03*
X205000Y45000D03*
X200000Y50000D03*
X205000Y95000D03*
X200000Y90000D03*
X155000Y50000D03*
X160000Y55000D03*
X130000Y50000D03*
X124800Y110300D03*
X165000Y100000D03*
X180000Y115000D03*
X170000Y105000D03*
X175000Y110000D03*
X140000Y85000D03*
X150000Y85000D03*
X102800Y102600D03*
X103000Y118100D03*
X155000Y100000D03*
X145000Y100000D03*
X175000Y125000D03*
X180000Y720000D03*
X180000Y730000D03*
X180000Y740000D03*
D18*
X114000Y715900D03*
X114400Y724400D03*
D14*
X91300Y705250D03*
X77500Y27000D03*
D16*
X160000Y55000D02*
X165000Y60000D01*
X165000Y64359D01*
X175641Y75000D02*
X180000Y75000D01*
X175641Y75000D02*
X165000Y64359D01*
D14*
X127000Y770000D03*
X127000Y760000D03*
X127000Y795000D03*
X124000Y734300D03*
X179000Y351500D03*
X62400Y699450D03*
X13900Y619900D03*
X132900Y598800D03*
D18*
X175000Y558929D03*
X182536Y566464D03*
X160000Y547929D03*
X180000Y561929D03*
D14*
X139000Y876000D03*
X82500Y935000D03*
X77500Y935000D03*
X82500Y940000D03*
X67500Y975000D03*
D18*
X171464Y589749D03*
X162929Y591213D03*
X162929Y586213D03*
X181464Y599749D03*
X181464Y594749D03*
X162929Y581213D03*
X181464Y589749D03*
X181464Y584749D03*
X181464Y579749D03*
X176464Y584749D03*
X166464Y594749D03*
X162929Y598284D03*
D14*
X81200Y71200D03*
X140000Y80000D03*
X145000Y80000D03*
X145000Y85000D03*
X150000Y80000D03*
X145000Y75000D03*
X140000Y75000D03*
X195000Y85000D03*
X195000Y90000D03*
X200000Y95000D03*
X205000Y90000D03*
X124800Y105300D03*
X124800Y115300D03*
X155000Y85000D03*
X104800Y50300D03*
X114800Y50300D03*
X124800Y50300D03*
X135000Y50000D03*
X160000Y50000D03*
X158500Y138000D03*
X194300Y119800D03*
X100000Y265000D03*
X100000Y270000D03*
X100000Y275000D03*
X100000Y280000D03*
X100000Y285000D03*
X100000Y290000D03*
X100000Y295000D03*
X100000Y300000D03*
X100000Y305000D03*
X100000Y310000D03*
X100000Y315000D03*
X100000Y320000D03*
X100000Y325000D03*
X100000Y330000D03*
X100000Y335000D03*
X100000Y340000D03*
X130000Y340000D03*
X130000Y335000D03*
X130000Y330000D03*
X130000Y325000D03*
X130000Y320000D03*
X130000Y315000D03*
X130000Y310000D03*
X130000Y305000D03*
X130000Y300000D03*
X130000Y295000D03*
X130000Y290000D03*
X130000Y280000D03*
X130000Y285000D03*
X130000Y275000D03*
X130000Y270000D03*
X130000Y265000D03*
X90000Y355000D03*
X80000Y355000D03*
X100000Y355000D03*
X100000Y425000D03*
X90000Y425000D03*
X135000Y370000D03*
X135000Y380000D03*
X135000Y390000D03*
X135000Y400000D03*
X135000Y410000D03*
X52600Y200000D03*
X87850Y213850D03*
X87750Y186450D03*
X155000Y245000D03*
X45000Y605000D03*
X110000Y1030000D03*
X55000Y22500D03*
X60000Y15000D03*
D18*
X110000Y720000D03*
D14*
X35000Y620000D03*
X188000Y129000D03*
D16*
X188000Y108641D01*
X147883Y68524D01*
D14*
X95000Y157000D03*
D16*
X95000Y85000D01*
X111476Y68524D01*
X147883Y68524D01*
D14*
X148000Y934500D03*
D16*
X148000Y953100D02*
X146100Y955000D01*
X148000Y953100D02*
X148000Y934500D01*
D14*
X140000Y136000D03*
D15*
X138424Y816576D02*
X75000Y880000D01*
X75000Y882500D01*
D14*
X80000Y875000D03*
X75000Y882500D03*
X100000Y675000D03*
X100000Y670000D03*
X100000Y665000D03*
X100000Y660000D03*
X100000Y655000D03*
X100000Y650000D03*
X100000Y645000D03*
X100000Y640000D03*
X118000Y640000D03*
X118000Y645000D03*
X118000Y650000D03*
X68180Y707945D03*
D16*
X68180Y703520D01*
X73700Y698000D01*
X87200Y698000D01*
X94900Y690300D01*
D15*
X117524Y704821D02*
X138424Y725721D01*
X138424Y816576D01*
X117524Y704821D02*
X117524Y158476D01*
D14*
X118000Y655000D03*
X118000Y660000D03*
X118000Y665000D03*
X118000Y670000D03*
X118000Y675000D03*
D15*
X117524Y158476D02*
X140000Y136000D01*
D18*
X175000Y55000D03*
X180000Y60000D03*
X175000Y65000D03*
X185000Y65000D03*
X185000Y55000D03*
X175000Y60000D03*
X185000Y60000D03*
X180000Y65000D03*
X180000Y55000D03*
D14*
X140000Y535000D03*
X150000Y535000D03*
X160000Y535000D03*
X170000Y535000D03*
X180000Y535000D03*
X190000Y535000D03*
M02*
