G04 EAGLE Gerber RS-274X export*
G75*
%MOMM*%
%FSLAX34Y34*%
%LPD*%
%INSoldermask Bottom*%
%IPPOS*%
%AMOC8*
5,1,8,0,0,1.08239X$1,22.5*%
G01*
%ADD10R,2.903200X5.203200*%
%ADD11C,1.711200*%
%ADD12C,1.361200*%
%ADD13C,2.183200*%
%ADD14C,3.803200*%
%ADD15C,2.593200*%
%ADD16C,0.959600*%


D10*
X146100Y955000D03*
X110000Y955000D03*
X73900Y955000D03*
D11*
X110000Y905000D03*
X24250Y12700D03*
X95750Y12700D03*
D12*
X84250Y40000D03*
X35750Y40000D03*
D13*
X110000Y28900D03*
X110000Y751100D03*
D14*
X30000Y114000D03*
X190000Y666000D03*
D15*
X30000Y751100D03*
D16*
X186500Y191500D03*
X163500Y191500D03*
X163500Y168500D03*
X186500Y168500D03*
X175000Y180000D03*
X105700Y724300D03*
X105850Y715750D03*
X169000Y556929D03*
X176464Y566464D03*
X171464Y566464D03*
X180000Y547929D03*
X161464Y566464D03*
X166464Y566464D03*
X175000Y547929D03*
X170000Y547929D03*
X165000Y547929D03*
X164000Y552929D03*
X114000Y715900D03*
X114400Y724400D03*
X175000Y558929D03*
X182536Y566464D03*
X160000Y547929D03*
X180000Y561929D03*
X171464Y589749D03*
X162929Y591213D03*
X162929Y586213D03*
X181464Y599749D03*
X181464Y594749D03*
X162929Y581213D03*
X181464Y589749D03*
X181464Y584749D03*
X181464Y579749D03*
X176464Y584749D03*
X166464Y594749D03*
X162929Y598284D03*
X110000Y720000D03*
X175000Y55000D03*
X180000Y60000D03*
X175000Y65000D03*
X185000Y65000D03*
X185000Y55000D03*
X175000Y60000D03*
X185000Y60000D03*
X180000Y65000D03*
X180000Y55000D03*
M02*
