M48
;GenerationSoftware,Autodesk,EAGLE,9.5.2*%
;CreationDate,2020-05-12T19:06:51Z*%
FMAT,2
ICI,OFF
METRIC,TZ,000.000
T7C0.300
T6C0.350
T5C0.650
T4C1.000
T3C1.320
T2C2.390
T1C3.600
%
G90
M71
T1
X18750Y66600
X2750Y11400
T2
X2750Y75110
T3
X10750Y75110
X10750Y2890
T4
X9325Y1270
X2175Y1270
X10750Y90500
T5
X3325Y4000
X8175Y4000
T6
X17396Y56646
X16750Y54793
X8100Y72200
X16043Y59828
X16396Y59475
X17396Y58475
X17896Y57975
X17896Y58475
X17896Y58975
X16043Y58121
X17896Y59475
X17896Y59975
X16043Y58621
X16043Y59121
X16896Y58975
X17750Y56193
X15750Y54793
X18004Y56646
X17250Y55893
X16150Y55293
X16250Y54793
X17250Y54793
X16396Y56646
X12900Y69800
X12600Y69200
X12900Y68700
X15896Y56646
X17750Y54793
X16896Y56646
X16650Y55693
T7
X1950Y18100
X5750Y22000
X7750Y64300
X5687Y42000
X13050Y63100
X7250Y69050
X9250Y73500
X12650Y90100
X6750Y2700
X4450Y15000
X1995Y47725
X4130Y28615
X17650Y31150
X17715Y40120
X17250Y46500
X3850Y38250
X5600Y39550
X5600Y34750
X3850Y33200
X6250Y9500
X8600Y14900
X13740Y18790
X9660Y7210
X9730Y5030
X15250Y21500
X1250Y49500
X1250Y50500
X3250Y63000
X17650Y24050
X17650Y28650
X12900Y20950
X15250Y23500
X6250Y10500
X6250Y11500
X6250Y12500
X6250Y13500
X1250Y14500
X2250Y14500
X3250Y14500
X3250Y15500
X2250Y15500
X1250Y15500
X4150Y43250
X17705Y43975
X8950Y16800
X3820Y42000
X17750Y41950
X7750Y5090
X1250Y8500
X1250Y7500
X1250Y6500
X1250Y5500
X1250Y4500
X1250Y3500
X1250Y2500
X3250Y2250
X4250Y2250
X3750Y1500
X4750Y1500
X10730Y5030
X11730Y5030
X15600Y14300
X4750Y18000
X1250Y18900
X4250Y23500
X5250Y23500
X6250Y23500
X7250Y23500
X8250Y23500
X9250Y23500
X13650Y90100
X12650Y88600
X8750Y92000
X13500Y83500
X7250Y92000
X7250Y85500
X18250Y77000
X7250Y84500
X7250Y83500
X7250Y82500
X7250Y81500
X5250Y78500
X5250Y76500
X5250Y77500
X4250Y77500
X5250Y75500
X5250Y74500
X2000Y66000
X3250Y66000
X3250Y65000
X2000Y65000
X2000Y64000
X3250Y64000
X1250Y51500
X1250Y52500
X1250Y53500
X5250Y56500
X5250Y57500
X5250Y58500
X5250Y59500
X4250Y59500
X5250Y52500
X5250Y53500
X5250Y51500
X5250Y50500
X5250Y49500
X5250Y48500
X5250Y47500
X17250Y71500
X17250Y72500
X17250Y73500
X17250Y74500
X20250Y70500
X20250Y71500
X20250Y72500
X20250Y73500
X20250Y74500
X20250Y75500
X20250Y69500
X19250Y76500
X9150Y77500
X9150Y76500
X8850Y78500
X5100Y73500
X4250Y72750
X7400Y71250
X8250Y73500
X8250Y74500
X8250Y75500
X8250Y76500
X8250Y77500
X8250Y47500
X8250Y48500
X8250Y49500
X8250Y50500
X8250Y52500
X8250Y51500
X8250Y53500
X15250Y51250
X14250Y51250
X13250Y51250
X13250Y50250
X13250Y49250
X13250Y48250
X14250Y48250
X15250Y48250
X19200Y51250
X18250Y50250
X18250Y49250
X19200Y48250
X17250Y49250
X17250Y48250
X17250Y50250
X17250Y51250
X13250Y41500
X13250Y40500
X13250Y39500
X13250Y38500
X13250Y37500
X13250Y36500
X9250Y35500
X8250Y35500
X8250Y42500
X9250Y42500
X6233Y66310
X8750Y58500
X3850Y40100
X4750Y42000
X5866Y64280
X3000Y5250
X3750Y6000
X4750Y45000
X2250Y6000
X3000Y6750
X20250Y62500
X20250Y63500
X19250Y63500
X20250Y1500
X19750Y2000
X20250Y2500
X19750Y3000
X20250Y3500
X19750Y4000
X20250Y4500
X19750Y5000
X20250Y9500
X19750Y9000
X15250Y5000
X15750Y5500
X12750Y5000
X12230Y11030
X16250Y10000
X17750Y11500
X16750Y10500
X17250Y11000
X13750Y8500
X14750Y8500
X10030Y10260
X10050Y11810
X15250Y10000
X14250Y10000
X17250Y12500
X17750Y72000
X17750Y73000
X17750Y74000
X7500Y2700
X12450Y77000
X12450Y76000
X12450Y79500
X12150Y73530
X17650Y35150
X5990Y69945
X1140Y61990
X13040Y59880
X3000Y6000
X14500Y15500
X3500Y6500
X2500Y6500
X13650Y87600
X8000Y93500
X7500Y93500
X8000Y94000
X6500Y97500
X2500Y5500
X3500Y5500
X14250Y4500
X14250Y2500
X10750Y11000
X15744Y27450
X19100Y21600
X14250Y23500
X17650Y29900
X2244Y49000
X2244Y54000
X18231Y21600
X7870Y7120
X13750Y8000
X14250Y8000
X14250Y8500
X14750Y8000
X14250Y7500
X13750Y7500
X19250Y8500
X19250Y9000
X19750Y9500
X20250Y9000
X12230Y10530
X12230Y11530
X15250Y8500
X10230Y5030
X11230Y5030
X12230Y5030
X13250Y5000
X15750Y5000
X15600Y13800
X19180Y11980
X9750Y26500
X9750Y27000
X9750Y27500
X9750Y28000
X9750Y28500
X9750Y29000
X9750Y29500
X9750Y30000
X9750Y30500
X9750Y31000
X9750Y31500
X9750Y32000
X9750Y32500
X9750Y33000
X9750Y33500
X9750Y34000
X12750Y34000
X12750Y33500
X12750Y33000
X12750Y32500
X12750Y32000
X12750Y31500
X12750Y31000
X12750Y30500
X12750Y30000
X12750Y29500
X12750Y29000
X12750Y28000
X12750Y28500
X12750Y27500
X12750Y27000
X12750Y26500
X8750Y35500
X7750Y35500
X9750Y35500
X9750Y42500
X8750Y42500
X13250Y37000
X13250Y38000
X13250Y39000
X13250Y40000
X13250Y41000
X5010Y20000
X8535Y21385
X8525Y18645
X15250Y24500
X4250Y60500
X5250Y2250
X5750Y1500
X3250Y62000
X13750Y53500
X14750Y53500
X15750Y53500
X16750Y53500
X17750Y53500
X18750Y53500
X8650Y36900
X9250Y37500
X8050Y37500
X8550Y38100
X8150Y40000
X8650Y39400
X8850Y40600
X9250Y40000
X10150Y40700
X10150Y36900
X16040Y17540
X16040Y18440
X16740Y19140
X17740Y19140
X18340Y18440
X18340Y17540
X17640Y16940
X16840Y16940
X10750Y72000
X11250Y71500
X10750Y71000
X10250Y71500
X18550Y12900
X9250Y15700
X14550Y93450
X13750Y13600
X7750Y87500
X7250Y88250
X9750Y67500
X9750Y67000
X9750Y66500
X9750Y66000
X9750Y65500
X9750Y65000
X9750Y64500
X9750Y64000
X11550Y64000
X11550Y64500
X11550Y65000
X11550Y65500
X11550Y66000
X11550Y66500
X11550Y67000
X11550Y67500
X15250Y22500
X17050Y6000
X18450Y6000
X17750Y5400
X17750Y6600
X8550Y56800
X8550Y56300
X8550Y55800
X8550Y55300
X5250Y45500
X5250Y44500
X4250Y44500
X4250Y45500
X3250Y52500
X3250Y53500
M30