G04 EAGLE Gerber RS-274X export*
G75*
%MOMM*%
%FSLAX34Y34*%
%LPD*%
%IN*%
%IPPOS*%
%AMOC8*
5,1,8,0,0,1.08239X$1,22.5*%
G01*
%ADD10C,0.254000*%


D10*
X0Y0D02*
X215000Y0D01*
X215000Y772500D01*
X165000Y800000D01*
X165000Y990000D01*
X125000Y990000D01*
X125000Y1120000D01*
X90000Y1120000D01*
X90000Y990000D01*
X50000Y990000D01*
X50000Y800000D01*
X0Y772500D01*
X0Y0D01*
X26911Y132000D02*
X25735Y131923D01*
X24566Y131769D01*
X23410Y131539D01*
X22272Y131234D01*
X21156Y130855D01*
X20067Y130404D01*
X19010Y129883D01*
X17990Y129294D01*
X17010Y128639D01*
X16075Y127922D01*
X15189Y127145D01*
X14355Y126311D01*
X13578Y125425D01*
X12861Y124490D01*
X12206Y123510D01*
X11617Y122490D01*
X11096Y121433D01*
X10645Y120344D01*
X10266Y119228D01*
X9961Y118090D01*
X9731Y116934D01*
X9577Y115765D01*
X9500Y114589D01*
X9500Y113411D01*
X9577Y112235D01*
X9731Y111066D01*
X9961Y109910D01*
X10266Y108772D01*
X10645Y107656D01*
X11096Y106567D01*
X11617Y105510D01*
X12206Y104490D01*
X12861Y103510D01*
X13578Y102575D01*
X14355Y101689D01*
X15189Y100855D01*
X16075Y100078D01*
X17010Y99361D01*
X17990Y98706D01*
X19010Y98117D01*
X20067Y97596D01*
X21156Y97145D01*
X22272Y96766D01*
X23410Y96461D01*
X24566Y96231D01*
X25735Y96077D01*
X26911Y96000D01*
X28089Y96000D01*
X29265Y96077D01*
X30434Y96231D01*
X31590Y96461D01*
X32728Y96766D01*
X33844Y97145D01*
X34933Y97596D01*
X35990Y98117D01*
X37010Y98706D01*
X37990Y99361D01*
X38925Y100078D01*
X39811Y100855D01*
X40645Y101689D01*
X41422Y102575D01*
X42139Y103510D01*
X42794Y104490D01*
X43383Y105510D01*
X43904Y106567D01*
X44355Y107656D01*
X44734Y108772D01*
X45039Y109910D01*
X45269Y111066D01*
X45423Y112235D01*
X45500Y113411D01*
X45500Y114589D01*
X45423Y115765D01*
X45269Y116934D01*
X45039Y118090D01*
X44734Y119228D01*
X44355Y120344D01*
X43904Y121433D01*
X43383Y122490D01*
X42794Y123510D01*
X42139Y124490D01*
X41422Y125425D01*
X40645Y126311D01*
X39811Y127145D01*
X38925Y127922D01*
X37990Y128639D01*
X37010Y129294D01*
X35990Y129883D01*
X34933Y130404D01*
X33844Y130855D01*
X32728Y131234D01*
X31590Y131539D01*
X30434Y131769D01*
X29265Y131923D01*
X28089Y132000D01*
X26911Y132000D01*
X186911Y684000D02*
X185735Y683923D01*
X184566Y683769D01*
X183410Y683539D01*
X182272Y683234D01*
X181156Y682855D01*
X180067Y682404D01*
X179010Y681883D01*
X177990Y681294D01*
X177010Y680639D01*
X176075Y679922D01*
X175189Y679145D01*
X174355Y678311D01*
X173578Y677425D01*
X172861Y676490D01*
X172206Y675510D01*
X171617Y674490D01*
X171096Y673433D01*
X170645Y672344D01*
X170266Y671228D01*
X169961Y670090D01*
X169731Y668934D01*
X169577Y667765D01*
X169500Y666589D01*
X169500Y665411D01*
X169577Y664235D01*
X169731Y663066D01*
X169961Y661910D01*
X170266Y660772D01*
X170645Y659656D01*
X171096Y658567D01*
X171617Y657510D01*
X172206Y656490D01*
X172861Y655510D01*
X173578Y654575D01*
X174355Y653689D01*
X175189Y652855D01*
X176075Y652078D01*
X177010Y651361D01*
X177990Y650706D01*
X179010Y650117D01*
X180067Y649596D01*
X181156Y649145D01*
X182272Y648766D01*
X183410Y648461D01*
X184566Y648231D01*
X185735Y648077D01*
X186911Y648000D01*
X188089Y648000D01*
X189265Y648077D01*
X190434Y648231D01*
X191590Y648461D01*
X192728Y648766D01*
X193844Y649145D01*
X194933Y649596D01*
X195990Y650117D01*
X197010Y650706D01*
X197990Y651361D01*
X198925Y652078D01*
X199811Y652855D01*
X200645Y653689D01*
X201422Y654575D01*
X202139Y655510D01*
X202794Y656490D01*
X203383Y657510D01*
X203904Y658567D01*
X204355Y659656D01*
X204734Y660772D01*
X205039Y661910D01*
X205269Y663066D01*
X205423Y664235D01*
X205500Y665411D01*
X205500Y666589D01*
X205423Y667765D01*
X205269Y668934D01*
X205039Y670090D01*
X204734Y671228D01*
X204355Y672344D01*
X203904Y673433D01*
X203383Y674490D01*
X202794Y675510D01*
X202139Y676490D01*
X201422Y677425D01*
X200645Y678311D01*
X199811Y679145D01*
X198925Y679922D01*
X197990Y680639D01*
X197010Y681294D01*
X195990Y681883D01*
X194933Y682404D01*
X193844Y682855D01*
X192728Y683234D01*
X191590Y683539D01*
X190434Y683769D01*
X189265Y683923D01*
X188089Y684000D01*
X186911Y684000D01*
X27030Y763050D02*
X26094Y762976D01*
X25167Y762829D01*
X24254Y762610D01*
X23361Y762320D01*
X22493Y761961D01*
X21656Y761534D01*
X20856Y761044D01*
X20096Y760492D01*
X19382Y759882D01*
X18718Y759218D01*
X18108Y758504D01*
X17556Y757744D01*
X17066Y756944D01*
X16639Y756107D01*
X16280Y755239D01*
X15990Y754346D01*
X15771Y753433D01*
X15624Y752506D01*
X15550Y751570D01*
X15550Y750630D01*
X15624Y749694D01*
X15771Y748767D01*
X15990Y747854D01*
X16280Y746961D01*
X16639Y746093D01*
X17066Y745256D01*
X17556Y744456D01*
X18108Y743696D01*
X18718Y742982D01*
X19382Y742318D01*
X20096Y741708D01*
X20856Y741156D01*
X21656Y740666D01*
X22493Y740239D01*
X23361Y739880D01*
X24254Y739590D01*
X25167Y739371D01*
X26094Y739224D01*
X27030Y739150D01*
X27970Y739150D01*
X28906Y739224D01*
X29833Y739371D01*
X30746Y739590D01*
X31639Y739880D01*
X32507Y740239D01*
X33344Y740666D01*
X34144Y741156D01*
X34904Y741708D01*
X35618Y742318D01*
X36282Y742982D01*
X36892Y743696D01*
X37444Y744456D01*
X37934Y745256D01*
X38361Y746093D01*
X38720Y746961D01*
X39010Y747854D01*
X39229Y748767D01*
X39376Y749694D01*
X39450Y750630D01*
X39450Y751570D01*
X39376Y752506D01*
X39229Y753433D01*
X39010Y754346D01*
X38720Y755239D01*
X38361Y756107D01*
X37934Y756944D01*
X37444Y757744D01*
X36892Y758504D01*
X36282Y759218D01*
X35618Y759882D01*
X34904Y760492D01*
X34144Y761044D01*
X33344Y761534D01*
X32507Y761961D01*
X31639Y762320D01*
X30746Y762610D01*
X29833Y762829D01*
X28906Y762976D01*
X27970Y763050D01*
X27030Y763050D01*
M02*
