G04 EAGLE Gerber RS-274X export*
G75*
%MOMM*%
%FSLAX34Y34*%
%LPD*%
%INSolderpaste Top*%
%IPPOS*%
%AMOC8*
5,1,8,0,0,1.08239X$1,22.5*%
G01*
%ADD10C,0.164350*%
%ADD11C,0.532541*%
%ADD12C,0.217425*%
%ADD13C,0.225000*%
%ADD14C,0.406547*%
%ADD15C,0.270000*%
%ADD16R,3.500000X8.000000*%
%ADD17C,0.897000*%
%ADD18C,0.233475*%
%ADD19C,0.491275*%
%ADD20C,0.350000*%
%ADD21C,0.330000*%
%ADD22C,0.684134*%
%ADD23C,0.406478*%
%ADD24C,0.476100*%
%ADD25C,0.320000*%
%ADD26R,0.100000X0.100000*%
%ADD27C,0.280000*%
%ADD28C,0.413447*%

G36*
X84507Y373376D02*
X84507Y373376D01*
X84609Y373375D01*
X84620Y373379D01*
X84631Y373379D01*
X84724Y373417D01*
X84820Y373452D01*
X84829Y373460D01*
X84838Y373464D01*
X84871Y373494D01*
X84966Y373570D01*
X96966Y386570D01*
X97007Y386634D01*
X97055Y386694D01*
X97067Y386728D01*
X97087Y386759D01*
X97103Y386834D01*
X97127Y386906D01*
X97126Y386943D01*
X97134Y386978D01*
X97123Y387054D01*
X97121Y387131D01*
X97107Y387164D01*
X97102Y387200D01*
X97065Y387268D01*
X97036Y387338D01*
X97012Y387365D01*
X96994Y387397D01*
X96937Y387448D01*
X96885Y387504D01*
X96853Y387521D01*
X96825Y387545D01*
X96753Y387572D01*
X96685Y387607D01*
X96644Y387613D01*
X96615Y387624D01*
X96569Y387624D01*
X96500Y387634D01*
X84500Y387634D01*
X84435Y387623D01*
X84369Y387621D01*
X84326Y387603D01*
X84279Y387595D01*
X84222Y387561D01*
X84162Y387536D01*
X84127Y387505D01*
X84086Y387480D01*
X84045Y387429D01*
X83996Y387385D01*
X83974Y387343D01*
X83945Y387306D01*
X83924Y387244D01*
X83893Y387185D01*
X83885Y387131D01*
X83873Y387094D01*
X83874Y387054D01*
X83866Y387000D01*
X83866Y374000D01*
X83884Y373900D01*
X83898Y373800D01*
X83904Y373790D01*
X83905Y373779D01*
X83957Y373692D01*
X84006Y373603D01*
X84014Y373595D01*
X84020Y373586D01*
X84098Y373522D01*
X84175Y373455D01*
X84185Y373452D01*
X84194Y373445D01*
X84290Y373412D01*
X84385Y373376D01*
X84396Y373376D01*
X84406Y373373D01*
X84507Y373376D01*
G37*
G36*
X110565Y388377D02*
X110565Y388377D01*
X110631Y388379D01*
X110674Y388397D01*
X110721Y388405D01*
X110778Y388439D01*
X110838Y388464D01*
X110873Y388495D01*
X110914Y388520D01*
X110956Y388571D01*
X111004Y388615D01*
X111026Y388657D01*
X111055Y388694D01*
X111076Y388756D01*
X111107Y388815D01*
X111115Y388869D01*
X111127Y388906D01*
X111126Y388946D01*
X111134Y389000D01*
X111134Y402000D01*
X111116Y402100D01*
X111102Y402200D01*
X111097Y402210D01*
X111095Y402221D01*
X111043Y402308D01*
X110994Y402397D01*
X110986Y402405D01*
X110980Y402414D01*
X110902Y402478D01*
X110825Y402545D01*
X110815Y402549D01*
X110806Y402555D01*
X110710Y402588D01*
X110615Y402624D01*
X110604Y402624D01*
X110594Y402627D01*
X110493Y402624D01*
X110391Y402625D01*
X110380Y402621D01*
X110369Y402621D01*
X110276Y402583D01*
X110180Y402548D01*
X110171Y402540D01*
X110162Y402536D01*
X110129Y402506D01*
X110034Y402430D01*
X98034Y389430D01*
X97993Y389366D01*
X97945Y389306D01*
X97933Y389272D01*
X97913Y389241D01*
X97897Y389166D01*
X97873Y389094D01*
X97874Y389057D01*
X97866Y389022D01*
X97877Y388946D01*
X97879Y388869D01*
X97893Y388836D01*
X97898Y388800D01*
X97935Y388732D01*
X97964Y388662D01*
X97988Y388635D01*
X98006Y388603D01*
X98063Y388552D01*
X98115Y388496D01*
X98147Y388479D01*
X98175Y388455D01*
X98247Y388428D01*
X98315Y388393D01*
X98356Y388387D01*
X98385Y388376D01*
X98431Y388376D01*
X98500Y388366D01*
X110500Y388366D01*
X110565Y388377D01*
G37*
G36*
X110529Y373376D02*
X110529Y373376D01*
X110631Y373379D01*
X110641Y373383D01*
X110652Y373384D01*
X110745Y373426D01*
X110838Y373464D01*
X110847Y373471D01*
X110857Y373476D01*
X110929Y373546D01*
X111004Y373615D01*
X111009Y373625D01*
X111017Y373632D01*
X111060Y373724D01*
X111107Y373815D01*
X111108Y373827D01*
X111113Y373835D01*
X111116Y373880D01*
X111134Y374000D01*
X111134Y387000D01*
X111123Y387065D01*
X111121Y387131D01*
X111103Y387174D01*
X111095Y387221D01*
X111061Y387278D01*
X111036Y387338D01*
X111005Y387373D01*
X110980Y387414D01*
X110929Y387456D01*
X110885Y387504D01*
X110843Y387526D01*
X110806Y387555D01*
X110744Y387576D01*
X110685Y387607D01*
X110631Y387615D01*
X110594Y387627D01*
X110554Y387626D01*
X110500Y387634D01*
X98500Y387634D01*
X98425Y387621D01*
X98348Y387616D01*
X98315Y387601D01*
X98279Y387595D01*
X98213Y387556D01*
X98143Y387525D01*
X98117Y387499D01*
X98086Y387480D01*
X98038Y387421D01*
X97983Y387368D01*
X97968Y387335D01*
X97945Y387306D01*
X97920Y387234D01*
X97887Y387165D01*
X97884Y387128D01*
X97873Y387094D01*
X97875Y387017D01*
X97869Y386941D01*
X97878Y386906D01*
X97879Y386869D01*
X97908Y386799D01*
X97929Y386725D01*
X97952Y386691D01*
X97964Y386662D01*
X97995Y386628D01*
X98034Y386570D01*
X110034Y373570D01*
X110115Y373508D01*
X110194Y373445D01*
X110204Y373441D01*
X110213Y373434D01*
X110310Y373405D01*
X110406Y373373D01*
X110417Y373373D01*
X110428Y373370D01*
X110529Y373376D01*
G37*
G36*
X96575Y388379D02*
X96575Y388379D01*
X96652Y388384D01*
X96685Y388399D01*
X96721Y388405D01*
X96787Y388444D01*
X96857Y388476D01*
X96883Y388501D01*
X96914Y388520D01*
X96962Y388579D01*
X97017Y388632D01*
X97032Y388665D01*
X97055Y388694D01*
X97080Y388766D01*
X97113Y388835D01*
X97116Y388872D01*
X97127Y388906D01*
X97125Y388983D01*
X97132Y389059D01*
X97122Y389094D01*
X97121Y389131D01*
X97092Y389201D01*
X97071Y389275D01*
X97048Y389309D01*
X97036Y389338D01*
X97005Y389372D01*
X96966Y389430D01*
X84966Y402430D01*
X84885Y402492D01*
X84806Y402555D01*
X84796Y402559D01*
X84787Y402566D01*
X84690Y402595D01*
X84594Y402627D01*
X84583Y402627D01*
X84572Y402630D01*
X84471Y402624D01*
X84369Y402621D01*
X84359Y402617D01*
X84348Y402616D01*
X84255Y402574D01*
X84162Y402536D01*
X84153Y402529D01*
X84143Y402525D01*
X84071Y402454D01*
X83996Y402385D01*
X83991Y402375D01*
X83983Y402368D01*
X83940Y402276D01*
X83893Y402185D01*
X83892Y402173D01*
X83887Y402165D01*
X83884Y402120D01*
X83866Y402000D01*
X83866Y389000D01*
X83877Y388935D01*
X83879Y388869D01*
X83897Y388826D01*
X83905Y388779D01*
X83939Y388722D01*
X83964Y388662D01*
X83995Y388627D01*
X84020Y388586D01*
X84071Y388545D01*
X84115Y388496D01*
X84157Y388474D01*
X84194Y388445D01*
X84256Y388424D01*
X84315Y388393D01*
X84369Y388385D01*
X84406Y388373D01*
X84446Y388374D01*
X84500Y388366D01*
X96500Y388366D01*
X96575Y388379D01*
G37*
G36*
X108588Y370382D02*
X108588Y370382D01*
X108676Y370391D01*
X108697Y370401D01*
X108721Y370405D01*
X108798Y370451D01*
X108877Y370490D01*
X108894Y370507D01*
X108914Y370520D01*
X108970Y370589D01*
X109031Y370653D01*
X109040Y370675D01*
X109055Y370694D01*
X109084Y370778D01*
X109119Y370860D01*
X109120Y370884D01*
X109127Y370906D01*
X109125Y370995D01*
X109129Y371084D01*
X109121Y371107D01*
X109121Y371131D01*
X109087Y371213D01*
X109060Y371298D01*
X109044Y371319D01*
X109036Y371338D01*
X109002Y371376D01*
X108948Y371448D01*
X99948Y380448D01*
X99875Y380499D01*
X99806Y380555D01*
X99784Y380563D01*
X99764Y380577D01*
X99678Y380599D01*
X99594Y380627D01*
X99570Y380627D01*
X99547Y380633D01*
X99458Y380623D01*
X99369Y380621D01*
X99347Y380612D01*
X99324Y380609D01*
X99244Y380570D01*
X99162Y380536D01*
X99144Y380520D01*
X99123Y380510D01*
X99062Y380445D01*
X98996Y380385D01*
X98985Y380364D01*
X98969Y380347D01*
X98934Y380265D01*
X98893Y380185D01*
X98890Y380159D01*
X98881Y380140D01*
X98879Y380090D01*
X98866Y380000D01*
X98866Y371000D01*
X98877Y370935D01*
X98879Y370869D01*
X98897Y370826D01*
X98905Y370779D01*
X98939Y370722D01*
X98964Y370662D01*
X98995Y370627D01*
X99020Y370586D01*
X99071Y370545D01*
X99115Y370496D01*
X99157Y370474D01*
X99194Y370445D01*
X99256Y370424D01*
X99315Y370393D01*
X99369Y370385D01*
X99406Y370373D01*
X99446Y370374D01*
X99500Y370366D01*
X108500Y370366D01*
X108588Y370382D01*
G37*
G36*
X95565Y370377D02*
X95565Y370377D01*
X95631Y370379D01*
X95674Y370397D01*
X95721Y370405D01*
X95778Y370439D01*
X95838Y370464D01*
X95873Y370495D01*
X95914Y370520D01*
X95956Y370571D01*
X96004Y370615D01*
X96026Y370657D01*
X96055Y370694D01*
X96076Y370756D01*
X96107Y370815D01*
X96115Y370869D01*
X96127Y370906D01*
X96126Y370946D01*
X96134Y371000D01*
X96134Y380000D01*
X96118Y380088D01*
X96109Y380176D01*
X96099Y380197D01*
X96095Y380221D01*
X96049Y380298D01*
X96010Y380377D01*
X95993Y380394D01*
X95980Y380414D01*
X95911Y380470D01*
X95847Y380531D01*
X95825Y380540D01*
X95806Y380555D01*
X95722Y380584D01*
X95640Y380619D01*
X95616Y380620D01*
X95594Y380627D01*
X95505Y380625D01*
X95416Y380629D01*
X95393Y380621D01*
X95369Y380621D01*
X95287Y380587D01*
X95202Y380560D01*
X95181Y380544D01*
X95162Y380536D01*
X95124Y380502D01*
X95052Y380448D01*
X86052Y371448D01*
X86001Y371375D01*
X85945Y371306D01*
X85937Y371284D01*
X85923Y371264D01*
X85901Y371178D01*
X85873Y371094D01*
X85873Y371070D01*
X85868Y371047D01*
X85877Y370958D01*
X85879Y370869D01*
X85888Y370847D01*
X85891Y370824D01*
X85930Y370744D01*
X85964Y370662D01*
X85980Y370644D01*
X85990Y370623D01*
X86055Y370562D01*
X86115Y370496D01*
X86136Y370485D01*
X86153Y370469D01*
X86235Y370434D01*
X86315Y370393D01*
X86341Y370390D01*
X86360Y370381D01*
X86410Y370379D01*
X86500Y370366D01*
X95500Y370366D01*
X95565Y370377D01*
G37*
G36*
X95542Y394377D02*
X95542Y394377D01*
X95631Y394379D01*
X95653Y394388D01*
X95676Y394391D01*
X95756Y394430D01*
X95838Y394464D01*
X95856Y394480D01*
X95877Y394490D01*
X95938Y394555D01*
X96004Y394615D01*
X96015Y394636D01*
X96031Y394653D01*
X96066Y394735D01*
X96107Y394815D01*
X96110Y394841D01*
X96119Y394860D01*
X96121Y394910D01*
X96134Y395000D01*
X96134Y404000D01*
X96123Y404065D01*
X96121Y404131D01*
X96103Y404174D01*
X96095Y404221D01*
X96061Y404278D01*
X96036Y404338D01*
X96005Y404373D01*
X95980Y404414D01*
X95929Y404456D01*
X95885Y404504D01*
X95843Y404526D01*
X95806Y404555D01*
X95744Y404576D01*
X95685Y404607D01*
X95631Y404615D01*
X95594Y404627D01*
X95554Y404626D01*
X95500Y404634D01*
X86500Y404634D01*
X86412Y404618D01*
X86324Y404609D01*
X86303Y404599D01*
X86279Y404595D01*
X86202Y404549D01*
X86123Y404510D01*
X86106Y404493D01*
X86086Y404480D01*
X86030Y404411D01*
X85969Y404347D01*
X85960Y404325D01*
X85945Y404306D01*
X85916Y404222D01*
X85881Y404140D01*
X85880Y404116D01*
X85873Y404094D01*
X85875Y404005D01*
X85871Y403916D01*
X85879Y403893D01*
X85879Y403869D01*
X85913Y403787D01*
X85940Y403702D01*
X85956Y403681D01*
X85964Y403662D01*
X85998Y403624D01*
X86052Y403552D01*
X95052Y394552D01*
X95125Y394501D01*
X95194Y394445D01*
X95216Y394437D01*
X95236Y394423D01*
X95322Y394401D01*
X95406Y394373D01*
X95430Y394373D01*
X95453Y394368D01*
X95542Y394377D01*
G37*
G36*
X99607Y394379D02*
X99607Y394379D01*
X99631Y394379D01*
X99713Y394413D01*
X99798Y394440D01*
X99819Y394456D01*
X99838Y394464D01*
X99876Y394498D01*
X99948Y394552D01*
X108948Y403552D01*
X108999Y403625D01*
X109055Y403694D01*
X109063Y403716D01*
X109077Y403736D01*
X109099Y403822D01*
X109127Y403906D01*
X109127Y403930D01*
X109133Y403953D01*
X109123Y404042D01*
X109121Y404131D01*
X109112Y404153D01*
X109109Y404176D01*
X109070Y404256D01*
X109036Y404338D01*
X109020Y404356D01*
X109010Y404377D01*
X108945Y404438D01*
X108885Y404504D01*
X108864Y404515D01*
X108847Y404531D01*
X108765Y404566D01*
X108685Y404607D01*
X108659Y404610D01*
X108640Y404619D01*
X108590Y404621D01*
X108500Y404634D01*
X99500Y404634D01*
X99435Y404623D01*
X99369Y404621D01*
X99326Y404603D01*
X99279Y404595D01*
X99222Y404561D01*
X99162Y404536D01*
X99127Y404505D01*
X99086Y404480D01*
X99045Y404429D01*
X98996Y404385D01*
X98974Y404343D01*
X98945Y404306D01*
X98924Y404244D01*
X98893Y404185D01*
X98885Y404131D01*
X98873Y404094D01*
X98874Y404054D01*
X98866Y404000D01*
X98866Y395000D01*
X98882Y394912D01*
X98891Y394824D01*
X98901Y394803D01*
X98905Y394779D01*
X98951Y394702D01*
X98990Y394623D01*
X99007Y394606D01*
X99020Y394586D01*
X99089Y394530D01*
X99153Y394469D01*
X99175Y394460D01*
X99194Y394445D01*
X99278Y394416D01*
X99360Y394381D01*
X99384Y394380D01*
X99406Y394373D01*
X99495Y394375D01*
X99584Y394371D01*
X99607Y394379D01*
G37*
G36*
X183505Y52367D02*
X183505Y52367D01*
X183510Y52366D01*
X183615Y52387D01*
X183721Y52405D01*
X183725Y52408D01*
X183731Y52409D01*
X183823Y52466D01*
X183914Y52520D01*
X183917Y52524D01*
X183922Y52526D01*
X183988Y52611D01*
X184055Y52694D01*
X184057Y52699D01*
X184060Y52703D01*
X184093Y52805D01*
X184127Y52906D01*
X184127Y52912D01*
X184129Y52917D01*
X184124Y53024D01*
X184121Y53131D01*
X184119Y53135D01*
X184118Y53141D01*
X184076Y53240D01*
X184036Y53338D01*
X184033Y53342D01*
X184031Y53347D01*
X183906Y53487D01*
X177906Y58487D01*
X177899Y58491D01*
X177893Y58498D01*
X177802Y58547D01*
X177711Y58598D01*
X177703Y58599D01*
X177695Y58603D01*
X177592Y58618D01*
X177490Y58634D01*
X177481Y58633D01*
X177473Y58634D01*
X177371Y58611D01*
X177269Y58591D01*
X177262Y58586D01*
X177254Y58585D01*
X177094Y58487D01*
X171094Y53487D01*
X171091Y53483D01*
X171086Y53480D01*
X171019Y53397D01*
X170950Y53315D01*
X170948Y53310D01*
X170945Y53306D01*
X170910Y53205D01*
X170874Y53104D01*
X170874Y53099D01*
X170873Y53094D01*
X170876Y52988D01*
X170877Y52880D01*
X170879Y52875D01*
X170879Y52869D01*
X170919Y52772D01*
X170958Y52670D01*
X170962Y52666D01*
X170964Y52662D01*
X171035Y52583D01*
X171107Y52502D01*
X171111Y52500D01*
X171115Y52496D01*
X171211Y52447D01*
X171305Y52397D01*
X171310Y52396D01*
X171315Y52393D01*
X171500Y52366D01*
X183500Y52366D01*
X183505Y52367D01*
G37*
G36*
X177519Y61367D02*
X177519Y61367D01*
X177527Y61366D01*
X177629Y61389D01*
X177731Y61409D01*
X177738Y61414D01*
X177746Y61415D01*
X177906Y61513D01*
X183906Y66513D01*
X183909Y66517D01*
X183914Y66520D01*
X183981Y66603D01*
X184050Y66685D01*
X184052Y66690D01*
X184055Y66694D01*
X184090Y66795D01*
X184126Y66896D01*
X184126Y66901D01*
X184127Y66906D01*
X184124Y67012D01*
X184123Y67120D01*
X184121Y67125D01*
X184121Y67131D01*
X184081Y67228D01*
X184042Y67330D01*
X184038Y67334D01*
X184036Y67338D01*
X183965Y67417D01*
X183893Y67498D01*
X183889Y67500D01*
X183885Y67504D01*
X183789Y67553D01*
X183695Y67603D01*
X183690Y67604D01*
X183685Y67607D01*
X183500Y67634D01*
X171500Y67634D01*
X171495Y67633D01*
X171490Y67634D01*
X171385Y67614D01*
X171279Y67595D01*
X171275Y67592D01*
X171269Y67591D01*
X171177Y67535D01*
X171086Y67480D01*
X171083Y67476D01*
X171078Y67474D01*
X171012Y67389D01*
X170945Y67306D01*
X170943Y67301D01*
X170940Y67297D01*
X170907Y67195D01*
X170873Y67094D01*
X170873Y67088D01*
X170871Y67083D01*
X170876Y66976D01*
X170879Y66869D01*
X170881Y66865D01*
X170882Y66859D01*
X170924Y66760D01*
X170964Y66662D01*
X170967Y66658D01*
X170969Y66653D01*
X171094Y66513D01*
X177094Y61513D01*
X177101Y61509D01*
X177107Y61502D01*
X177198Y61453D01*
X177289Y61402D01*
X177297Y61401D01*
X177305Y61397D01*
X177408Y61383D01*
X177510Y61366D01*
X177519Y61367D01*
G37*
G36*
X185510Y55011D02*
X185510Y55011D01*
X185628Y55009D01*
X185650Y55015D01*
X185674Y55016D01*
X185786Y55053D01*
X185900Y55084D01*
X185920Y55096D01*
X185942Y55104D01*
X186039Y55170D01*
X186140Y55232D01*
X186155Y55250D01*
X186175Y55263D01*
X186250Y55354D01*
X186329Y55442D01*
X186339Y55463D01*
X186354Y55481D01*
X186400Y55589D01*
X186452Y55695D01*
X186455Y55717D01*
X186465Y55740D01*
X186487Y55922D01*
X186499Y56000D01*
X186499Y64000D01*
X186490Y64063D01*
X186491Y64122D01*
X186477Y64171D01*
X186471Y64234D01*
X186463Y64256D01*
X186459Y64279D01*
X186429Y64347D01*
X186416Y64394D01*
X186394Y64429D01*
X186367Y64496D01*
X186353Y64515D01*
X186343Y64536D01*
X186288Y64600D01*
X186268Y64634D01*
X186243Y64656D01*
X186194Y64719D01*
X186175Y64733D01*
X186160Y64750D01*
X186082Y64801D01*
X186058Y64823D01*
X186035Y64834D01*
X185965Y64884D01*
X185943Y64892D01*
X185924Y64905D01*
X185829Y64934D01*
X185805Y64946D01*
X185785Y64949D01*
X185700Y64979D01*
X185676Y64980D01*
X185654Y64987D01*
X185536Y64989D01*
X185523Y64990D01*
X185500Y64993D01*
X185493Y64993D01*
X185484Y64992D01*
X185418Y64996D01*
X185396Y64991D01*
X185372Y64991D01*
X185261Y64960D01*
X185213Y64953D01*
X185195Y64945D01*
X185143Y64933D01*
X185124Y64922D01*
X185100Y64916D01*
X185019Y64865D01*
X184956Y64837D01*
X184918Y64805D01*
X184876Y64780D01*
X179876Y60780D01*
X179853Y60756D01*
X179825Y60737D01*
X179774Y60674D01*
X179753Y60657D01*
X179739Y60634D01*
X179683Y60575D01*
X179668Y60545D01*
X179646Y60519D01*
X179614Y60444D01*
X179599Y60421D01*
X179591Y60395D01*
X179555Y60324D01*
X179548Y60291D01*
X179535Y60260D01*
X179525Y60181D01*
X179516Y60151D01*
X179516Y60121D01*
X179502Y60046D01*
X179505Y60013D01*
X179501Y59980D01*
X179513Y59905D01*
X179513Y59869D01*
X179522Y59836D01*
X179529Y59766D01*
X179541Y59735D01*
X179546Y59702D01*
X179577Y59638D01*
X179588Y59597D01*
X179609Y59563D01*
X179633Y59504D01*
X179653Y59477D01*
X179668Y59447D01*
X179708Y59403D01*
X179736Y59357D01*
X179772Y59325D01*
X179806Y59281D01*
X179846Y59252D01*
X179876Y59220D01*
X184876Y55220D01*
X184977Y55160D01*
X185076Y55095D01*
X185099Y55088D01*
X185119Y55076D01*
X185233Y55047D01*
X185346Y55013D01*
X185369Y55012D01*
X185392Y55007D01*
X185510Y55011D01*
G37*
G36*
X169605Y55009D02*
X169605Y55009D01*
X169628Y55009D01*
X169742Y55040D01*
X169857Y55067D01*
X169876Y55078D01*
X169900Y55084D01*
X170056Y55181D01*
X170124Y55220D01*
X175124Y59220D01*
X175147Y59244D01*
X175175Y59263D01*
X175210Y59306D01*
X175247Y59337D01*
X175274Y59379D01*
X175317Y59425D01*
X175333Y59455D01*
X175354Y59481D01*
X175379Y59539D01*
X175401Y59573D01*
X175414Y59614D01*
X175445Y59677D01*
X175452Y59709D01*
X175465Y59740D01*
X175473Y59809D01*
X175484Y59843D01*
X175484Y59879D01*
X175498Y59954D01*
X175495Y59987D01*
X175499Y60020D01*
X175487Y60095D01*
X175487Y60125D01*
X175479Y60155D01*
X175471Y60234D01*
X175459Y60265D01*
X175454Y60298D01*
X175419Y60370D01*
X175412Y60397D01*
X175397Y60421D01*
X175367Y60496D01*
X175347Y60523D01*
X175332Y60553D01*
X175281Y60609D01*
X175264Y60637D01*
X175244Y60655D01*
X175194Y60719D01*
X175154Y60748D01*
X175124Y60780D01*
X170124Y64780D01*
X170091Y64800D01*
X170066Y64823D01*
X170003Y64853D01*
X169924Y64905D01*
X169901Y64912D01*
X169881Y64924D01*
X169831Y64936D01*
X169812Y64946D01*
X169768Y64953D01*
X169767Y64953D01*
X169654Y64987D01*
X169631Y64988D01*
X169608Y64993D01*
X169524Y64991D01*
X169508Y64993D01*
X169500Y64993D01*
X169475Y64990D01*
X169372Y64991D01*
X169350Y64985D01*
X169326Y64984D01*
X169242Y64956D01*
X169221Y64953D01*
X169196Y64942D01*
X169100Y64916D01*
X169080Y64904D01*
X169058Y64896D01*
X168987Y64848D01*
X168964Y64837D01*
X168940Y64817D01*
X168860Y64768D01*
X168845Y64750D01*
X168825Y64737D01*
X168774Y64675D01*
X168750Y64654D01*
X168729Y64622D01*
X168671Y64558D01*
X168661Y64537D01*
X168646Y64519D01*
X168617Y64452D01*
X168595Y64418D01*
X168581Y64373D01*
X168548Y64305D01*
X168545Y64283D01*
X168535Y64260D01*
X168527Y64196D01*
X168513Y64148D01*
X168512Y64070D01*
X168501Y64000D01*
X168501Y56000D01*
X168517Y55883D01*
X168529Y55766D01*
X168537Y55744D01*
X168541Y55721D01*
X168589Y55613D01*
X168633Y55504D01*
X168647Y55485D01*
X168657Y55464D01*
X168733Y55374D01*
X168806Y55281D01*
X168825Y55267D01*
X168840Y55250D01*
X168939Y55185D01*
X169035Y55116D01*
X169057Y55108D01*
X169076Y55095D01*
X169189Y55061D01*
X169300Y55021D01*
X169324Y55020D01*
X169346Y55013D01*
X169464Y55011D01*
X169582Y55004D01*
X169605Y55009D01*
G37*
G36*
X167588Y181382D02*
X167588Y181382D01*
X167676Y181391D01*
X167697Y181401D01*
X167721Y181405D01*
X167798Y181451D01*
X167877Y181490D01*
X167894Y181507D01*
X167914Y181520D01*
X167970Y181589D01*
X168031Y181653D01*
X168040Y181675D01*
X168055Y181694D01*
X168084Y181778D01*
X168119Y181860D01*
X168120Y181884D01*
X168127Y181906D01*
X168125Y181995D01*
X168129Y182084D01*
X168121Y182107D01*
X168121Y182131D01*
X168087Y182213D01*
X168060Y182298D01*
X168044Y182319D01*
X168036Y182338D01*
X168002Y182376D01*
X167948Y182448D01*
X160948Y189448D01*
X160919Y189469D01*
X160908Y189481D01*
X160884Y189493D01*
X160875Y189499D01*
X160806Y189555D01*
X160784Y189563D01*
X160764Y189577D01*
X160678Y189599D01*
X160594Y189627D01*
X160570Y189627D01*
X160547Y189633D01*
X160458Y189623D01*
X160369Y189621D01*
X160347Y189612D01*
X160324Y189609D01*
X160244Y189570D01*
X160162Y189536D01*
X160144Y189520D01*
X160123Y189510D01*
X160062Y189445D01*
X159996Y189385D01*
X159985Y189364D01*
X159969Y189347D01*
X159934Y189265D01*
X159893Y189185D01*
X159890Y189159D01*
X159881Y189140D01*
X159879Y189090D01*
X159879Y189089D01*
X159873Y189070D01*
X159873Y189051D01*
X159866Y189000D01*
X159866Y182000D01*
X159877Y181935D01*
X159879Y181869D01*
X159897Y181826D01*
X159905Y181779D01*
X159939Y181722D01*
X159964Y181662D01*
X159995Y181627D01*
X160020Y181586D01*
X160071Y181545D01*
X160115Y181496D01*
X160157Y181474D01*
X160194Y181445D01*
X160256Y181424D01*
X160315Y181393D01*
X160369Y181385D01*
X160406Y181373D01*
X160446Y181374D01*
X160500Y181366D01*
X167500Y181366D01*
X167588Y181382D01*
G37*
G36*
X181588Y167382D02*
X181588Y167382D01*
X181676Y167391D01*
X181697Y167401D01*
X181721Y167405D01*
X181798Y167451D01*
X181877Y167490D01*
X181894Y167507D01*
X181914Y167520D01*
X181970Y167589D01*
X182031Y167653D01*
X182040Y167675D01*
X182055Y167694D01*
X182084Y167778D01*
X182119Y167860D01*
X182120Y167884D01*
X182127Y167906D01*
X182125Y167995D01*
X182129Y168084D01*
X182121Y168107D01*
X182121Y168131D01*
X182087Y168213D01*
X182060Y168298D01*
X182044Y168319D01*
X182036Y168338D01*
X182002Y168376D01*
X181948Y168448D01*
X174948Y175448D01*
X174919Y175469D01*
X174908Y175481D01*
X174884Y175493D01*
X174875Y175499D01*
X174806Y175555D01*
X174784Y175563D01*
X174764Y175577D01*
X174678Y175599D01*
X174594Y175627D01*
X174570Y175627D01*
X174547Y175633D01*
X174458Y175623D01*
X174369Y175621D01*
X174347Y175612D01*
X174324Y175609D01*
X174244Y175570D01*
X174162Y175536D01*
X174144Y175520D01*
X174123Y175510D01*
X174062Y175445D01*
X173996Y175385D01*
X173985Y175364D01*
X173969Y175347D01*
X173934Y175265D01*
X173893Y175185D01*
X173890Y175159D01*
X173881Y175140D01*
X173879Y175090D01*
X173879Y175089D01*
X173873Y175070D01*
X173873Y175051D01*
X173866Y175000D01*
X173866Y168000D01*
X173877Y167935D01*
X173879Y167869D01*
X173897Y167826D01*
X173905Y167779D01*
X173939Y167722D01*
X173964Y167662D01*
X173995Y167627D01*
X174020Y167586D01*
X174071Y167545D01*
X174115Y167496D01*
X174157Y167474D01*
X174194Y167445D01*
X174256Y167424D01*
X174315Y167393D01*
X174369Y167385D01*
X174406Y167373D01*
X174446Y167374D01*
X174500Y167366D01*
X181500Y167366D01*
X181588Y167382D01*
G37*
G36*
X170565Y167377D02*
X170565Y167377D01*
X170631Y167379D01*
X170674Y167397D01*
X170721Y167405D01*
X170778Y167439D01*
X170838Y167464D01*
X170873Y167495D01*
X170914Y167520D01*
X170956Y167571D01*
X171004Y167615D01*
X171026Y167657D01*
X171055Y167694D01*
X171076Y167756D01*
X171107Y167815D01*
X171115Y167869D01*
X171127Y167906D01*
X171126Y167946D01*
X171134Y168000D01*
X171134Y175000D01*
X171122Y175069D01*
X171121Y175107D01*
X171115Y175121D01*
X171109Y175176D01*
X171099Y175197D01*
X171095Y175221D01*
X171049Y175298D01*
X171010Y175377D01*
X170993Y175394D01*
X170980Y175414D01*
X170911Y175470D01*
X170847Y175531D01*
X170825Y175540D01*
X170806Y175555D01*
X170722Y175584D01*
X170640Y175619D01*
X170616Y175620D01*
X170594Y175627D01*
X170505Y175625D01*
X170416Y175629D01*
X170393Y175621D01*
X170369Y175621D01*
X170287Y175587D01*
X170202Y175560D01*
X170181Y175544D01*
X170162Y175536D01*
X170124Y175502D01*
X170066Y175459D01*
X170063Y175457D01*
X170062Y175456D01*
X170052Y175448D01*
X163052Y168448D01*
X163001Y168375D01*
X162945Y168306D01*
X162937Y168284D01*
X162923Y168264D01*
X162901Y168178D01*
X162873Y168094D01*
X162873Y168070D01*
X162868Y168047D01*
X162877Y167958D01*
X162879Y167869D01*
X162888Y167847D01*
X162891Y167824D01*
X162930Y167744D01*
X162964Y167662D01*
X162980Y167644D01*
X162990Y167623D01*
X163055Y167562D01*
X163115Y167496D01*
X163136Y167485D01*
X163153Y167469D01*
X163235Y167434D01*
X163315Y167393D01*
X163341Y167390D01*
X163360Y167381D01*
X163410Y167379D01*
X163500Y167366D01*
X170500Y167366D01*
X170565Y167377D01*
G37*
G36*
X184565Y181377D02*
X184565Y181377D01*
X184631Y181379D01*
X184674Y181397D01*
X184721Y181405D01*
X184778Y181439D01*
X184838Y181464D01*
X184873Y181495D01*
X184914Y181520D01*
X184956Y181571D01*
X185004Y181615D01*
X185026Y181657D01*
X185055Y181694D01*
X185076Y181756D01*
X185107Y181815D01*
X185115Y181869D01*
X185127Y181906D01*
X185126Y181946D01*
X185134Y182000D01*
X185134Y189000D01*
X185122Y189069D01*
X185121Y189107D01*
X185115Y189121D01*
X185109Y189176D01*
X185099Y189197D01*
X185095Y189221D01*
X185049Y189298D01*
X185010Y189377D01*
X184993Y189394D01*
X184980Y189414D01*
X184911Y189470D01*
X184847Y189531D01*
X184825Y189540D01*
X184806Y189555D01*
X184722Y189584D01*
X184640Y189619D01*
X184616Y189620D01*
X184594Y189627D01*
X184505Y189625D01*
X184416Y189629D01*
X184393Y189621D01*
X184369Y189621D01*
X184287Y189587D01*
X184202Y189560D01*
X184181Y189544D01*
X184162Y189536D01*
X184124Y189502D01*
X184066Y189459D01*
X184063Y189457D01*
X184062Y189456D01*
X184052Y189448D01*
X177052Y182448D01*
X177001Y182375D01*
X176945Y182306D01*
X176937Y182284D01*
X176923Y182264D01*
X176901Y182178D01*
X176873Y182094D01*
X176873Y182070D01*
X176868Y182047D01*
X176877Y181958D01*
X176879Y181869D01*
X176888Y181847D01*
X176891Y181824D01*
X176930Y181744D01*
X176964Y181662D01*
X176980Y181644D01*
X176990Y181623D01*
X177055Y181562D01*
X177115Y181496D01*
X177136Y181485D01*
X177153Y181469D01*
X177235Y181434D01*
X177315Y181393D01*
X177341Y181390D01*
X177360Y181381D01*
X177410Y181379D01*
X177500Y181366D01*
X184500Y181366D01*
X184565Y181377D01*
G37*
G36*
X174607Y184379D02*
X174607Y184379D01*
X174631Y184379D01*
X174713Y184413D01*
X174798Y184440D01*
X174819Y184456D01*
X174838Y184464D01*
X174876Y184498D01*
X174948Y184552D01*
X181948Y191552D01*
X181999Y191625D01*
X182055Y191694D01*
X182063Y191716D01*
X182077Y191736D01*
X182099Y191822D01*
X182127Y191906D01*
X182127Y191930D01*
X182133Y191953D01*
X182123Y192042D01*
X182121Y192131D01*
X182112Y192153D01*
X182109Y192176D01*
X182070Y192256D01*
X182036Y192338D01*
X182020Y192356D01*
X182010Y192377D01*
X181945Y192438D01*
X181885Y192504D01*
X181864Y192515D01*
X181847Y192531D01*
X181765Y192566D01*
X181685Y192607D01*
X181659Y192610D01*
X181640Y192619D01*
X181590Y192621D01*
X181500Y192634D01*
X174500Y192634D01*
X174435Y192623D01*
X174369Y192621D01*
X174326Y192603D01*
X174279Y192595D01*
X174222Y192561D01*
X174162Y192536D01*
X174127Y192505D01*
X174086Y192480D01*
X174045Y192429D01*
X173996Y192385D01*
X173974Y192343D01*
X173945Y192306D01*
X173924Y192244D01*
X173893Y192185D01*
X173885Y192131D01*
X173873Y192094D01*
X173873Y192072D01*
X173873Y192070D01*
X173873Y192051D01*
X173866Y192000D01*
X173866Y185000D01*
X173882Y184912D01*
X173891Y184824D01*
X173901Y184803D01*
X173905Y184779D01*
X173951Y184702D01*
X173990Y184623D01*
X174007Y184606D01*
X174020Y184586D01*
X174089Y184530D01*
X174153Y184469D01*
X174175Y184460D01*
X174194Y184445D01*
X174278Y184416D01*
X174360Y184381D01*
X174384Y184380D01*
X174406Y184373D01*
X174495Y184375D01*
X174584Y184371D01*
X174607Y184379D01*
G37*
G36*
X160607Y170379D02*
X160607Y170379D01*
X160631Y170379D01*
X160713Y170413D01*
X160798Y170440D01*
X160819Y170456D01*
X160838Y170464D01*
X160876Y170498D01*
X160948Y170552D01*
X167948Y177552D01*
X167999Y177625D01*
X168055Y177694D01*
X168063Y177716D01*
X168077Y177736D01*
X168099Y177822D01*
X168127Y177906D01*
X168127Y177930D01*
X168133Y177953D01*
X168123Y178042D01*
X168121Y178131D01*
X168112Y178153D01*
X168109Y178176D01*
X168070Y178256D01*
X168036Y178338D01*
X168020Y178356D01*
X168010Y178377D01*
X167945Y178438D01*
X167885Y178504D01*
X167864Y178515D01*
X167847Y178531D01*
X167765Y178566D01*
X167685Y178607D01*
X167659Y178610D01*
X167640Y178619D01*
X167590Y178621D01*
X167500Y178634D01*
X160500Y178634D01*
X160435Y178623D01*
X160369Y178621D01*
X160326Y178603D01*
X160279Y178595D01*
X160222Y178561D01*
X160162Y178536D01*
X160127Y178505D01*
X160086Y178480D01*
X160045Y178429D01*
X159996Y178385D01*
X159974Y178343D01*
X159945Y178306D01*
X159924Y178244D01*
X159893Y178185D01*
X159885Y178131D01*
X159873Y178094D01*
X159873Y178072D01*
X159873Y178070D01*
X159873Y178051D01*
X159866Y178000D01*
X159866Y171000D01*
X159882Y170912D01*
X159891Y170824D01*
X159901Y170803D01*
X159905Y170779D01*
X159951Y170702D01*
X159990Y170623D01*
X160007Y170606D01*
X160020Y170586D01*
X160089Y170530D01*
X160153Y170469D01*
X160175Y170460D01*
X160194Y170445D01*
X160278Y170416D01*
X160360Y170381D01*
X160384Y170380D01*
X160406Y170373D01*
X160495Y170375D01*
X160584Y170371D01*
X160607Y170379D01*
G37*
G36*
X170542Y184377D02*
X170542Y184377D01*
X170631Y184379D01*
X170653Y184388D01*
X170676Y184391D01*
X170756Y184430D01*
X170838Y184464D01*
X170856Y184480D01*
X170877Y184490D01*
X170938Y184555D01*
X171004Y184615D01*
X171015Y184636D01*
X171031Y184653D01*
X171066Y184735D01*
X171107Y184815D01*
X171110Y184841D01*
X171119Y184860D01*
X171121Y184910D01*
X171134Y185000D01*
X171134Y192000D01*
X171123Y192065D01*
X171121Y192131D01*
X171103Y192174D01*
X171095Y192221D01*
X171061Y192278D01*
X171036Y192338D01*
X171005Y192373D01*
X170980Y192414D01*
X170929Y192456D01*
X170885Y192504D01*
X170843Y192526D01*
X170806Y192555D01*
X170744Y192576D01*
X170685Y192607D01*
X170631Y192615D01*
X170594Y192627D01*
X170554Y192626D01*
X170500Y192634D01*
X163500Y192634D01*
X163412Y192618D01*
X163324Y192609D01*
X163303Y192599D01*
X163279Y192595D01*
X163202Y192549D01*
X163123Y192510D01*
X163106Y192493D01*
X163086Y192480D01*
X163030Y192411D01*
X162969Y192347D01*
X162960Y192325D01*
X162945Y192306D01*
X162916Y192222D01*
X162881Y192140D01*
X162880Y192116D01*
X162873Y192094D01*
X162875Y192005D01*
X162871Y191916D01*
X162879Y191893D01*
X162879Y191869D01*
X162913Y191787D01*
X162940Y191702D01*
X162956Y191681D01*
X162964Y191662D01*
X162998Y191624D01*
X163052Y191552D01*
X170052Y184552D01*
X170125Y184501D01*
X170194Y184445D01*
X170216Y184437D01*
X170236Y184423D01*
X170322Y184401D01*
X170406Y184373D01*
X170430Y184373D01*
X170453Y184368D01*
X170542Y184377D01*
G37*
G36*
X184542Y170377D02*
X184542Y170377D01*
X184631Y170379D01*
X184653Y170388D01*
X184676Y170391D01*
X184756Y170430D01*
X184838Y170464D01*
X184856Y170480D01*
X184877Y170490D01*
X184938Y170555D01*
X185004Y170615D01*
X185015Y170636D01*
X185031Y170653D01*
X185066Y170735D01*
X185107Y170815D01*
X185110Y170841D01*
X185119Y170860D01*
X185121Y170910D01*
X185134Y171000D01*
X185134Y178000D01*
X185123Y178065D01*
X185121Y178131D01*
X185103Y178174D01*
X185095Y178221D01*
X185061Y178278D01*
X185036Y178338D01*
X185005Y178373D01*
X184980Y178414D01*
X184929Y178456D01*
X184885Y178504D01*
X184843Y178526D01*
X184806Y178555D01*
X184744Y178576D01*
X184685Y178607D01*
X184631Y178615D01*
X184594Y178627D01*
X184554Y178626D01*
X184500Y178634D01*
X177500Y178634D01*
X177412Y178618D01*
X177324Y178609D01*
X177303Y178599D01*
X177279Y178595D01*
X177202Y178549D01*
X177123Y178510D01*
X177106Y178493D01*
X177086Y178480D01*
X177030Y178411D01*
X176969Y178347D01*
X176960Y178325D01*
X176945Y178306D01*
X176916Y178222D01*
X176881Y178140D01*
X176880Y178116D01*
X176873Y178094D01*
X176875Y178005D01*
X176871Y177916D01*
X176879Y177893D01*
X176879Y177869D01*
X176913Y177787D01*
X176940Y177702D01*
X176956Y177681D01*
X176964Y177662D01*
X176998Y177624D01*
X177052Y177552D01*
X184052Y170552D01*
X184125Y170501D01*
X184194Y170445D01*
X184216Y170437D01*
X184236Y170423D01*
X184322Y170401D01*
X184406Y170373D01*
X184430Y170373D01*
X184453Y170368D01*
X184542Y170377D01*
G37*
G36*
X111588Y712382D02*
X111588Y712382D01*
X111676Y712391D01*
X111697Y712401D01*
X111721Y712405D01*
X111798Y712451D01*
X111877Y712490D01*
X111894Y712507D01*
X111914Y712520D01*
X111970Y712589D01*
X112031Y712653D01*
X112040Y712675D01*
X112055Y712694D01*
X112084Y712778D01*
X112119Y712860D01*
X112120Y712884D01*
X112127Y712906D01*
X112125Y712995D01*
X112129Y713084D01*
X112121Y713107D01*
X112121Y713131D01*
X112087Y713213D01*
X112060Y713298D01*
X112044Y713319D01*
X112036Y713338D01*
X112002Y713376D01*
X111948Y713448D01*
X107948Y717448D01*
X107895Y717486D01*
X107847Y717531D01*
X107803Y717550D01*
X107764Y717577D01*
X107701Y717593D01*
X107640Y717619D01*
X107593Y717621D01*
X107547Y717633D01*
X107482Y717626D01*
X107416Y717629D01*
X107371Y717614D01*
X107324Y717609D01*
X107265Y717580D01*
X107202Y717560D01*
X107158Y717527D01*
X107123Y717510D01*
X107096Y717481D01*
X107052Y717448D01*
X103052Y713448D01*
X103001Y713375D01*
X102945Y713306D01*
X102937Y713284D01*
X102923Y713264D01*
X102901Y713178D01*
X102873Y713094D01*
X102873Y713070D01*
X102868Y713047D01*
X102877Y712958D01*
X102879Y712869D01*
X102888Y712847D01*
X102891Y712824D01*
X102930Y712744D01*
X102964Y712662D01*
X102980Y712644D01*
X102990Y712623D01*
X103055Y712562D01*
X103115Y712496D01*
X103136Y712485D01*
X103153Y712469D01*
X103235Y712434D01*
X103315Y712393D01*
X103341Y712390D01*
X103360Y712381D01*
X103410Y712379D01*
X103500Y712366D01*
X111500Y712366D01*
X111588Y712382D01*
G37*
G36*
X114542Y715377D02*
X114542Y715377D01*
X114631Y715379D01*
X114653Y715388D01*
X114676Y715391D01*
X114756Y715430D01*
X114838Y715464D01*
X114856Y715480D01*
X114877Y715490D01*
X114938Y715555D01*
X115004Y715615D01*
X115015Y715636D01*
X115031Y715653D01*
X115066Y715735D01*
X115107Y715815D01*
X115110Y715841D01*
X115119Y715860D01*
X115121Y715910D01*
X115134Y716000D01*
X115134Y724000D01*
X115118Y724088D01*
X115109Y724176D01*
X115099Y724197D01*
X115095Y724221D01*
X115049Y724298D01*
X115010Y724377D01*
X114993Y724394D01*
X114980Y724414D01*
X114911Y724470D01*
X114847Y724531D01*
X114825Y724540D01*
X114806Y724555D01*
X114722Y724584D01*
X114640Y724619D01*
X114616Y724620D01*
X114594Y724627D01*
X114505Y724625D01*
X114416Y724629D01*
X114393Y724621D01*
X114369Y724621D01*
X114287Y724587D01*
X114202Y724560D01*
X114181Y724544D01*
X114162Y724536D01*
X114124Y724502D01*
X114052Y724448D01*
X110052Y720448D01*
X110014Y720395D01*
X109969Y720347D01*
X109950Y720303D01*
X109923Y720264D01*
X109907Y720201D01*
X109881Y720140D01*
X109879Y720093D01*
X109868Y720047D01*
X109874Y719982D01*
X109871Y719916D01*
X109886Y719871D01*
X109891Y719824D01*
X109920Y719765D01*
X109940Y719702D01*
X109973Y719658D01*
X109990Y719623D01*
X110019Y719596D01*
X110052Y719552D01*
X114052Y715552D01*
X114125Y715501D01*
X114194Y715445D01*
X114216Y715437D01*
X114236Y715423D01*
X114322Y715401D01*
X114406Y715373D01*
X114430Y715373D01*
X114453Y715368D01*
X114542Y715377D01*
G37*
G36*
X100607Y715379D02*
X100607Y715379D01*
X100631Y715379D01*
X100713Y715413D01*
X100798Y715440D01*
X100819Y715456D01*
X100838Y715464D01*
X100876Y715498D01*
X100948Y715552D01*
X104948Y719552D01*
X104986Y719606D01*
X105031Y719653D01*
X105050Y719697D01*
X105077Y719736D01*
X105093Y719799D01*
X105119Y719860D01*
X105121Y719907D01*
X105133Y719953D01*
X105126Y720018D01*
X105129Y720084D01*
X105114Y720129D01*
X105109Y720176D01*
X105080Y720235D01*
X105060Y720298D01*
X105027Y720342D01*
X105010Y720377D01*
X104981Y720404D01*
X104948Y720448D01*
X100948Y724448D01*
X100875Y724499D01*
X100806Y724555D01*
X100784Y724563D01*
X100764Y724577D01*
X100678Y724599D01*
X100594Y724627D01*
X100570Y724627D01*
X100547Y724633D01*
X100458Y724623D01*
X100369Y724621D01*
X100347Y724612D01*
X100324Y724609D01*
X100244Y724570D01*
X100162Y724536D01*
X100144Y724520D01*
X100123Y724510D01*
X100062Y724445D01*
X99996Y724385D01*
X99985Y724364D01*
X99969Y724347D01*
X99934Y724265D01*
X99893Y724185D01*
X99890Y724159D01*
X99881Y724140D01*
X99879Y724090D01*
X99866Y724000D01*
X99866Y716000D01*
X99882Y715912D01*
X99891Y715824D01*
X99901Y715803D01*
X99905Y715779D01*
X99951Y715702D01*
X99990Y715623D01*
X100007Y715606D01*
X100020Y715586D01*
X100089Y715530D01*
X100153Y715469D01*
X100175Y715460D01*
X100194Y715445D01*
X100278Y715416D01*
X100360Y715381D01*
X100384Y715380D01*
X100406Y715373D01*
X100495Y715375D01*
X100584Y715371D01*
X100607Y715379D01*
G37*
G36*
X107518Y722374D02*
X107518Y722374D01*
X107584Y722371D01*
X107629Y722386D01*
X107676Y722391D01*
X107735Y722420D01*
X107798Y722440D01*
X107842Y722473D01*
X107877Y722490D01*
X107904Y722519D01*
X107948Y722552D01*
X111948Y726552D01*
X111999Y726625D01*
X112055Y726694D01*
X112063Y726716D01*
X112077Y726736D01*
X112099Y726822D01*
X112127Y726906D01*
X112127Y726930D01*
X112133Y726953D01*
X112123Y727042D01*
X112121Y727131D01*
X112112Y727153D01*
X112109Y727176D01*
X112070Y727256D01*
X112036Y727338D01*
X112020Y727356D01*
X112010Y727377D01*
X111945Y727438D01*
X111885Y727504D01*
X111864Y727515D01*
X111847Y727531D01*
X111765Y727566D01*
X111685Y727607D01*
X111659Y727610D01*
X111640Y727619D01*
X111590Y727621D01*
X111500Y727634D01*
X103500Y727634D01*
X103412Y727618D01*
X103324Y727609D01*
X103303Y727599D01*
X103279Y727595D01*
X103202Y727549D01*
X103123Y727510D01*
X103106Y727493D01*
X103086Y727480D01*
X103030Y727411D01*
X102969Y727347D01*
X102960Y727325D01*
X102945Y727306D01*
X102916Y727222D01*
X102881Y727140D01*
X102880Y727116D01*
X102873Y727094D01*
X102875Y727005D01*
X102871Y726916D01*
X102879Y726893D01*
X102879Y726869D01*
X102913Y726787D01*
X102940Y726702D01*
X102956Y726681D01*
X102964Y726662D01*
X102998Y726624D01*
X103052Y726552D01*
X107052Y722552D01*
X107106Y722514D01*
X107153Y722469D01*
X107197Y722450D01*
X107236Y722423D01*
X107299Y722407D01*
X107360Y722381D01*
X107407Y722379D01*
X107453Y722368D01*
X107518Y722374D01*
G37*
D10*
X136573Y152502D02*
X136573Y147572D01*
X128427Y147572D01*
X128427Y152502D01*
X136573Y152502D01*
X136573Y149134D02*
X128427Y149134D01*
X128427Y150696D02*
X136573Y150696D01*
X136573Y152258D02*
X128427Y152258D01*
X136573Y161498D02*
X136573Y166428D01*
X136573Y161498D02*
X128427Y161498D01*
X128427Y166428D01*
X136573Y166428D01*
X136573Y163060D02*
X128427Y163060D01*
X128427Y164622D02*
X136573Y164622D01*
X136573Y166184D02*
X128427Y166184D01*
X18002Y545927D02*
X13072Y545927D01*
X13072Y554073D01*
X18002Y554073D01*
X18002Y545927D01*
X18002Y547489D02*
X13072Y547489D01*
X13072Y549051D02*
X18002Y549051D01*
X18002Y550613D02*
X13072Y550613D01*
X13072Y552175D02*
X18002Y552175D01*
X18002Y553737D02*
X13072Y553737D01*
X26998Y545927D02*
X31928Y545927D01*
X26998Y545927D02*
X26998Y554073D01*
X31928Y554073D01*
X31928Y545927D01*
X31928Y547489D02*
X26998Y547489D01*
X26998Y549051D02*
X31928Y549051D01*
X31928Y550613D02*
X26998Y550613D01*
X26998Y552175D02*
X31928Y552175D01*
X31928Y553737D02*
X26998Y553737D01*
X26998Y599073D02*
X31928Y599073D01*
X31928Y590927D01*
X26998Y590927D01*
X26998Y599073D01*
X26998Y592489D02*
X31928Y592489D01*
X31928Y594051D02*
X26998Y594051D01*
X26998Y595613D02*
X31928Y595613D01*
X31928Y597175D02*
X26998Y597175D01*
X26998Y598737D02*
X31928Y598737D01*
X18002Y599073D02*
X13072Y599073D01*
X18002Y599073D02*
X18002Y590927D01*
X13072Y590927D01*
X13072Y599073D01*
X13072Y592489D02*
X18002Y592489D01*
X18002Y594051D02*
X13072Y594051D01*
X13072Y595613D02*
X18002Y595613D01*
X18002Y597175D02*
X13072Y597175D01*
X13072Y598737D02*
X18002Y598737D01*
D11*
X35825Y191697D02*
X41425Y191697D01*
X41425Y189303D01*
X35825Y189303D01*
X35825Y191697D01*
X35825Y210697D02*
X41425Y210697D01*
X41425Y208303D01*
X35825Y208303D01*
X35825Y210697D01*
X19175Y201197D02*
X13575Y201197D01*
X19175Y201197D02*
X19175Y198803D01*
X13575Y198803D01*
X13575Y201197D01*
X93575Y208303D02*
X99175Y208303D01*
X93575Y208303D02*
X93575Y210697D01*
X99175Y210697D01*
X99175Y208303D01*
X99175Y189303D02*
X93575Y189303D01*
X93575Y191697D01*
X99175Y191697D01*
X99175Y189303D01*
X115825Y198803D02*
X121425Y198803D01*
X115825Y198803D02*
X115825Y201197D01*
X121425Y201197D01*
X121425Y198803D01*
D12*
X17964Y606442D02*
X11442Y606442D01*
X11442Y613558D01*
X17964Y613558D01*
X17964Y606442D01*
X17964Y608507D02*
X11442Y608507D01*
X11442Y610572D02*
X17964Y610572D01*
X17964Y612637D02*
X11442Y612637D01*
X27036Y606442D02*
X33558Y606442D01*
X27036Y606442D02*
X27036Y613558D01*
X33558Y613558D01*
X33558Y606442D01*
X33558Y608507D02*
X27036Y608507D01*
X27036Y610572D02*
X33558Y610572D01*
X33558Y612637D02*
X27036Y612637D01*
X72036Y193558D02*
X78558Y193558D01*
X78558Y186442D01*
X72036Y186442D01*
X72036Y193558D01*
X72036Y188507D02*
X78558Y188507D01*
X78558Y190572D02*
X72036Y190572D01*
X72036Y192637D02*
X78558Y192637D01*
X62964Y193558D02*
X56442Y193558D01*
X62964Y193558D02*
X62964Y186442D01*
X56442Y186442D01*
X56442Y193558D01*
X56442Y188507D02*
X62964Y188507D01*
X62964Y190572D02*
X56442Y190572D01*
X56442Y192637D02*
X62964Y192637D01*
X62964Y206442D02*
X56442Y206442D01*
X56442Y213558D01*
X62964Y213558D01*
X62964Y206442D01*
X62964Y208507D02*
X56442Y208507D01*
X56442Y210572D02*
X62964Y210572D01*
X62964Y212637D02*
X56442Y212637D01*
X72036Y206442D02*
X78558Y206442D01*
X72036Y206442D02*
X72036Y213558D01*
X78558Y213558D01*
X78558Y206442D01*
X78558Y208507D02*
X72036Y208507D01*
X72036Y210572D02*
X78558Y210572D01*
X78558Y212637D02*
X72036Y212637D01*
D13*
X29375Y460925D02*
X13625Y460925D01*
X13625Y467675D01*
X29375Y467675D01*
X29375Y460925D01*
X29375Y463062D02*
X13625Y463062D01*
X13625Y465199D02*
X29375Y465199D01*
X29375Y467336D02*
X13625Y467336D01*
X13625Y448225D02*
X29375Y448225D01*
X13625Y448225D02*
X13625Y454975D01*
X29375Y454975D01*
X29375Y448225D01*
X29375Y450362D02*
X13625Y450362D01*
X13625Y452499D02*
X29375Y452499D01*
X29375Y454636D02*
X13625Y454636D01*
X13625Y435525D02*
X29375Y435525D01*
X13625Y435525D02*
X13625Y442275D01*
X29375Y442275D01*
X29375Y435525D01*
X29375Y437662D02*
X13625Y437662D01*
X13625Y439799D02*
X29375Y439799D01*
X29375Y441936D02*
X13625Y441936D01*
X13625Y422825D02*
X29375Y422825D01*
X13625Y422825D02*
X13625Y429575D01*
X29375Y429575D01*
X29375Y422825D01*
X29375Y424962D02*
X13625Y424962D01*
X13625Y427099D02*
X29375Y427099D01*
X29375Y429236D02*
X13625Y429236D01*
X13625Y410125D02*
X29375Y410125D01*
X13625Y410125D02*
X13625Y416875D01*
X29375Y416875D01*
X29375Y410125D01*
X29375Y412262D02*
X13625Y412262D01*
X13625Y414399D02*
X29375Y414399D01*
X29375Y416536D02*
X13625Y416536D01*
X13625Y397425D02*
X29375Y397425D01*
X13625Y397425D02*
X13625Y404175D01*
X29375Y404175D01*
X29375Y397425D01*
X29375Y399562D02*
X13625Y399562D01*
X13625Y401699D02*
X29375Y401699D01*
X29375Y403836D02*
X13625Y403836D01*
X13625Y384725D02*
X29375Y384725D01*
X13625Y384725D02*
X13625Y391475D01*
X29375Y391475D01*
X29375Y384725D01*
X29375Y386862D02*
X13625Y386862D01*
X13625Y388999D02*
X29375Y388999D01*
X29375Y391136D02*
X13625Y391136D01*
X13625Y372025D02*
X29375Y372025D01*
X13625Y372025D02*
X13625Y378775D01*
X29375Y378775D01*
X29375Y372025D01*
X29375Y374162D02*
X13625Y374162D01*
X13625Y376299D02*
X29375Y376299D01*
X29375Y378436D02*
X13625Y378436D01*
X13625Y359325D02*
X29375Y359325D01*
X13625Y359325D02*
X13625Y366075D01*
X29375Y366075D01*
X29375Y359325D01*
X29375Y361462D02*
X13625Y361462D01*
X13625Y363599D02*
X29375Y363599D01*
X29375Y365736D02*
X13625Y365736D01*
X13625Y346625D02*
X29375Y346625D01*
X13625Y346625D02*
X13625Y353375D01*
X29375Y353375D01*
X29375Y346625D01*
X29375Y348762D02*
X13625Y348762D01*
X13625Y350899D02*
X29375Y350899D01*
X29375Y353036D02*
X13625Y353036D01*
X13625Y333925D02*
X29375Y333925D01*
X13625Y333925D02*
X13625Y340675D01*
X29375Y340675D01*
X29375Y333925D01*
X29375Y336062D02*
X13625Y336062D01*
X13625Y338199D02*
X29375Y338199D01*
X29375Y340336D02*
X13625Y340336D01*
X13625Y321225D02*
X29375Y321225D01*
X13625Y321225D02*
X13625Y327975D01*
X29375Y327975D01*
X29375Y321225D01*
X29375Y323362D02*
X13625Y323362D01*
X13625Y325499D02*
X29375Y325499D01*
X29375Y327636D02*
X13625Y327636D01*
X13625Y308525D02*
X29375Y308525D01*
X13625Y308525D02*
X13625Y315275D01*
X29375Y315275D01*
X29375Y308525D01*
X29375Y310662D02*
X13625Y310662D01*
X13625Y312799D02*
X29375Y312799D01*
X29375Y314936D02*
X13625Y314936D01*
X13625Y295825D02*
X29375Y295825D01*
X13625Y295825D02*
X13625Y302575D01*
X29375Y302575D01*
X29375Y295825D01*
X29375Y297962D02*
X13625Y297962D01*
X13625Y300099D02*
X29375Y300099D01*
X29375Y302236D02*
X13625Y302236D01*
X13625Y283125D02*
X29375Y283125D01*
X13625Y283125D02*
X13625Y289875D01*
X29375Y289875D01*
X29375Y283125D01*
X29375Y285262D02*
X13625Y285262D01*
X13625Y287399D02*
X29375Y287399D01*
X29375Y289536D02*
X13625Y289536D01*
X13625Y270425D02*
X29375Y270425D01*
X13625Y270425D02*
X13625Y277175D01*
X29375Y277175D01*
X29375Y270425D01*
X29375Y272562D02*
X13625Y272562D01*
X13625Y274699D02*
X29375Y274699D01*
X29375Y276836D02*
X13625Y276836D01*
X13625Y257725D02*
X29375Y257725D01*
X13625Y257725D02*
X13625Y264475D01*
X29375Y264475D01*
X29375Y257725D01*
X29375Y259862D02*
X13625Y259862D01*
X13625Y261999D02*
X29375Y261999D01*
X29375Y264136D02*
X13625Y264136D01*
X13625Y245025D02*
X29375Y245025D01*
X13625Y245025D02*
X13625Y251775D01*
X29375Y251775D01*
X29375Y245025D01*
X29375Y247162D02*
X13625Y247162D01*
X13625Y249299D02*
X29375Y249299D01*
X29375Y251436D02*
X13625Y251436D01*
X13625Y232325D02*
X29375Y232325D01*
X13625Y232325D02*
X13625Y239075D01*
X29375Y239075D01*
X29375Y232325D01*
X29375Y234462D02*
X13625Y234462D01*
X13625Y236599D02*
X29375Y236599D01*
X29375Y238736D02*
X13625Y238736D01*
X185625Y232325D02*
X201375Y232325D01*
X185625Y232325D02*
X185625Y239075D01*
X201375Y239075D01*
X201375Y232325D01*
X201375Y234462D02*
X185625Y234462D01*
X185625Y236599D02*
X201375Y236599D01*
X201375Y238736D02*
X185625Y238736D01*
X185625Y245025D02*
X201375Y245025D01*
X185625Y245025D02*
X185625Y251775D01*
X201375Y251775D01*
X201375Y245025D01*
X201375Y247162D02*
X185625Y247162D01*
X185625Y249299D02*
X201375Y249299D01*
X201375Y251436D02*
X185625Y251436D01*
X185625Y257725D02*
X201375Y257725D01*
X185625Y257725D02*
X185625Y264475D01*
X201375Y264475D01*
X201375Y257725D01*
X201375Y259862D02*
X185625Y259862D01*
X185625Y261999D02*
X201375Y261999D01*
X201375Y264136D02*
X185625Y264136D01*
X185625Y270425D02*
X201375Y270425D01*
X185625Y270425D02*
X185625Y277175D01*
X201375Y277175D01*
X201375Y270425D01*
X201375Y272562D02*
X185625Y272562D01*
X185625Y274699D02*
X201375Y274699D01*
X201375Y276836D02*
X185625Y276836D01*
X185625Y283125D02*
X201375Y283125D01*
X185625Y283125D02*
X185625Y289875D01*
X201375Y289875D01*
X201375Y283125D01*
X201375Y285262D02*
X185625Y285262D01*
X185625Y287399D02*
X201375Y287399D01*
X201375Y289536D02*
X185625Y289536D01*
X185625Y295825D02*
X201375Y295825D01*
X185625Y295825D02*
X185625Y302575D01*
X201375Y302575D01*
X201375Y295825D01*
X201375Y297962D02*
X185625Y297962D01*
X185625Y300099D02*
X201375Y300099D01*
X201375Y302236D02*
X185625Y302236D01*
X185625Y308525D02*
X201375Y308525D01*
X185625Y308525D02*
X185625Y315275D01*
X201375Y315275D01*
X201375Y308525D01*
X201375Y310662D02*
X185625Y310662D01*
X185625Y312799D02*
X201375Y312799D01*
X201375Y314936D02*
X185625Y314936D01*
X185625Y321225D02*
X201375Y321225D01*
X185625Y321225D02*
X185625Y327975D01*
X201375Y327975D01*
X201375Y321225D01*
X201375Y323362D02*
X185625Y323362D01*
X185625Y325499D02*
X201375Y325499D01*
X201375Y327636D02*
X185625Y327636D01*
X185625Y333925D02*
X201375Y333925D01*
X185625Y333925D02*
X185625Y340675D01*
X201375Y340675D01*
X201375Y333925D01*
X201375Y336062D02*
X185625Y336062D01*
X185625Y338199D02*
X201375Y338199D01*
X201375Y340336D02*
X185625Y340336D01*
X185625Y346625D02*
X201375Y346625D01*
X185625Y346625D02*
X185625Y353375D01*
X201375Y353375D01*
X201375Y346625D01*
X201375Y348762D02*
X185625Y348762D01*
X185625Y350899D02*
X201375Y350899D01*
X201375Y353036D02*
X185625Y353036D01*
X185625Y359325D02*
X201375Y359325D01*
X185625Y359325D02*
X185625Y366075D01*
X201375Y366075D01*
X201375Y359325D01*
X201375Y361462D02*
X185625Y361462D01*
X185625Y363599D02*
X201375Y363599D01*
X201375Y365736D02*
X185625Y365736D01*
X185625Y372025D02*
X201375Y372025D01*
X185625Y372025D02*
X185625Y378775D01*
X201375Y378775D01*
X201375Y372025D01*
X201375Y374162D02*
X185625Y374162D01*
X185625Y376299D02*
X201375Y376299D01*
X201375Y378436D02*
X185625Y378436D01*
X185625Y384725D02*
X201375Y384725D01*
X185625Y384725D02*
X185625Y391475D01*
X201375Y391475D01*
X201375Y384725D01*
X201375Y386862D02*
X185625Y386862D01*
X185625Y388999D02*
X201375Y388999D01*
X201375Y391136D02*
X185625Y391136D01*
X185625Y397425D02*
X201375Y397425D01*
X185625Y397425D02*
X185625Y404175D01*
X201375Y404175D01*
X201375Y397425D01*
X201375Y399562D02*
X185625Y399562D01*
X185625Y401699D02*
X201375Y401699D01*
X201375Y403836D02*
X185625Y403836D01*
X185625Y410125D02*
X201375Y410125D01*
X185625Y410125D02*
X185625Y416875D01*
X201375Y416875D01*
X201375Y410125D01*
X201375Y412262D02*
X185625Y412262D01*
X185625Y414399D02*
X201375Y414399D01*
X201375Y416536D02*
X185625Y416536D01*
X185625Y422825D02*
X201375Y422825D01*
X185625Y422825D02*
X185625Y429575D01*
X201375Y429575D01*
X201375Y422825D01*
X201375Y424962D02*
X185625Y424962D01*
X185625Y427099D02*
X201375Y427099D01*
X201375Y429236D02*
X185625Y429236D01*
X185625Y435525D02*
X201375Y435525D01*
X185625Y435525D02*
X185625Y442275D01*
X201375Y442275D01*
X201375Y435525D01*
X201375Y437662D02*
X185625Y437662D01*
X185625Y439799D02*
X201375Y439799D01*
X201375Y441936D02*
X185625Y441936D01*
X185625Y448225D02*
X201375Y448225D01*
X185625Y448225D02*
X185625Y454975D01*
X201375Y454975D01*
X201375Y448225D01*
X201375Y450362D02*
X185625Y450362D01*
X185625Y452499D02*
X201375Y452499D01*
X201375Y454636D02*
X185625Y454636D01*
X185625Y460925D02*
X201375Y460925D01*
X185625Y460925D02*
X185625Y467675D01*
X201375Y467675D01*
X201375Y460925D01*
X201375Y463062D02*
X185625Y463062D01*
X185625Y465199D02*
X201375Y465199D01*
X201375Y467336D02*
X185625Y467336D01*
D14*
X89364Y812456D02*
X89364Y828076D01*
X89364Y812456D02*
X87536Y812456D01*
X87536Y828076D01*
X89364Y828076D01*
X89364Y816318D02*
X87536Y816318D01*
X87536Y820180D02*
X89364Y820180D01*
X89364Y824042D02*
X87536Y824042D01*
X87536Y827904D02*
X89364Y827904D01*
X102064Y828076D02*
X102064Y812456D01*
X100236Y812456D01*
X100236Y828076D01*
X102064Y828076D01*
X102064Y816318D02*
X100236Y816318D01*
X100236Y820180D02*
X102064Y820180D01*
X102064Y824042D02*
X100236Y824042D01*
X100236Y827904D02*
X102064Y827904D01*
X114764Y828076D02*
X114764Y812456D01*
X112936Y812456D01*
X112936Y828076D01*
X114764Y828076D01*
X114764Y816318D02*
X112936Y816318D01*
X112936Y820180D02*
X114764Y820180D01*
X114764Y824042D02*
X112936Y824042D01*
X112936Y827904D02*
X114764Y827904D01*
X127464Y828076D02*
X127464Y812456D01*
X125636Y812456D01*
X125636Y828076D01*
X127464Y828076D01*
X127464Y816318D02*
X125636Y816318D01*
X125636Y820180D02*
X127464Y820180D01*
X127464Y824042D02*
X125636Y824042D01*
X125636Y827904D02*
X127464Y827904D01*
X127464Y861924D02*
X127464Y877544D01*
X127464Y861924D02*
X125636Y861924D01*
X125636Y877544D01*
X127464Y877544D01*
X127464Y865786D02*
X125636Y865786D01*
X125636Y869648D02*
X127464Y869648D01*
X127464Y873510D02*
X125636Y873510D01*
X125636Y877372D02*
X127464Y877372D01*
X114764Y877544D02*
X114764Y861924D01*
X112936Y861924D01*
X112936Y877544D01*
X114764Y877544D01*
X114764Y865786D02*
X112936Y865786D01*
X112936Y869648D02*
X114764Y869648D01*
X114764Y873510D02*
X112936Y873510D01*
X112936Y877372D02*
X114764Y877372D01*
X102064Y877544D02*
X102064Y861924D01*
X100236Y861924D01*
X100236Y877544D01*
X102064Y877544D01*
X102064Y865786D02*
X100236Y865786D01*
X100236Y869648D02*
X102064Y869648D01*
X102064Y873510D02*
X100236Y873510D01*
X100236Y877372D02*
X102064Y877372D01*
X89364Y877544D02*
X89364Y861924D01*
X87536Y861924D01*
X87536Y877544D01*
X89364Y877544D01*
X89364Y865786D02*
X87536Y865786D01*
X87536Y869648D02*
X89364Y869648D01*
X89364Y873510D02*
X87536Y873510D01*
X87536Y877372D02*
X89364Y877372D01*
D15*
X144850Y195000D02*
X150150Y195000D01*
X150150Y190000D02*
X144850Y190000D01*
X144850Y185000D02*
X150150Y185000D01*
X150150Y180000D02*
X144850Y180000D01*
X144850Y175000D02*
X150150Y175000D01*
X150150Y170000D02*
X144850Y170000D01*
X144850Y165000D02*
X150150Y165000D01*
X157500Y157650D02*
X157500Y152350D01*
X162500Y152350D02*
X162500Y157650D01*
X167500Y157650D02*
X167500Y152350D01*
X172500Y152350D02*
X172500Y157650D01*
X177500Y157650D02*
X177500Y152350D01*
X182500Y152350D02*
X182500Y157650D01*
X187500Y157650D02*
X187500Y152350D01*
X194850Y165000D02*
X200150Y165000D01*
X200150Y170000D02*
X194850Y170000D01*
X194850Y175000D02*
X200150Y175000D01*
X200150Y180000D02*
X194850Y180000D01*
X194850Y185000D02*
X200150Y185000D01*
X200150Y190000D02*
X194850Y190000D01*
X194850Y195000D02*
X200150Y195000D01*
X187500Y202350D02*
X187500Y207650D01*
X182500Y207650D02*
X182500Y202350D01*
X177500Y202350D02*
X177500Y207650D01*
X172500Y207650D02*
X172500Y202350D01*
X167500Y202350D02*
X167500Y207650D01*
X162500Y207650D02*
X162500Y202350D01*
X157500Y202350D02*
X157500Y207650D01*
D16*
X107500Y1080000D03*
D12*
X182036Y143558D02*
X188558Y143558D01*
X188558Y136442D01*
X182036Y136442D01*
X182036Y143558D01*
X182036Y138507D02*
X188558Y138507D01*
X188558Y140572D02*
X182036Y140572D01*
X182036Y142637D02*
X188558Y142637D01*
X172964Y143558D02*
X166442Y143558D01*
X172964Y143558D02*
X172964Y136442D01*
X166442Y136442D01*
X166442Y143558D01*
X166442Y138507D02*
X172964Y138507D01*
X172964Y140572D02*
X166442Y140572D01*
X166442Y142637D02*
X172964Y142637D01*
D10*
X121573Y147572D02*
X121573Y152502D01*
X121573Y147572D02*
X113427Y147572D01*
X113427Y152502D01*
X121573Y152502D01*
X121573Y149134D02*
X113427Y149134D01*
X113427Y150696D02*
X121573Y150696D01*
X121573Y152258D02*
X113427Y152258D01*
X121573Y161498D02*
X121573Y166428D01*
X121573Y161498D02*
X113427Y161498D01*
X113427Y166428D01*
X121573Y166428D01*
X121573Y163060D02*
X113427Y163060D01*
X113427Y164622D02*
X121573Y164622D01*
X121573Y166184D02*
X113427Y166184D01*
X91573Y890572D02*
X91573Y895502D01*
X91573Y890572D02*
X83427Y890572D01*
X83427Y895502D01*
X91573Y895502D01*
X91573Y892134D02*
X83427Y892134D01*
X83427Y893696D02*
X91573Y893696D01*
X91573Y895258D02*
X83427Y895258D01*
X91573Y904498D02*
X91573Y909428D01*
X91573Y904498D02*
X83427Y904498D01*
X83427Y909428D01*
X91573Y909428D01*
X91573Y906060D02*
X83427Y906060D01*
X83427Y907622D02*
X91573Y907622D01*
X91573Y909184D02*
X83427Y909184D01*
D17*
X89485Y91515D02*
X89485Y82485D01*
X89485Y91515D02*
X93515Y91515D01*
X93515Y82485D01*
X89485Y82485D01*
X89485Y91006D02*
X93515Y91006D01*
X121485Y91515D02*
X121485Y82485D01*
X121485Y91515D02*
X125515Y91515D01*
X125515Y82485D01*
X121485Y82485D01*
X121485Y91006D02*
X125515Y91006D01*
X121485Y128485D02*
X121485Y137515D01*
X125515Y137515D01*
X125515Y128485D01*
X121485Y128485D01*
X121485Y137006D02*
X125515Y137006D01*
X89485Y137515D02*
X89485Y128485D01*
X89485Y137515D02*
X93515Y137515D01*
X93515Y128485D01*
X89485Y128485D01*
X89485Y137006D02*
X93515Y137006D01*
D11*
X59175Y168303D02*
X53575Y168303D01*
X53575Y170697D01*
X59175Y170697D01*
X59175Y168303D01*
X59175Y149303D02*
X53575Y149303D01*
X53575Y151697D01*
X59175Y151697D01*
X59175Y149303D01*
X75825Y158803D02*
X81425Y158803D01*
X75825Y158803D02*
X75825Y161197D01*
X81425Y161197D01*
X81425Y158803D01*
D12*
X38558Y173558D02*
X32036Y173558D01*
X38558Y173558D02*
X38558Y166442D01*
X32036Y166442D01*
X32036Y173558D01*
X32036Y168507D02*
X38558Y168507D01*
X38558Y170572D02*
X32036Y170572D01*
X32036Y172637D02*
X38558Y172637D01*
X22964Y173558D02*
X16442Y173558D01*
X22964Y173558D02*
X22964Y166442D01*
X16442Y166442D01*
X16442Y173558D01*
X16442Y168507D02*
X22964Y168507D01*
X22964Y170572D02*
X16442Y170572D01*
X16442Y172637D02*
X22964Y172637D01*
D10*
X18002Y575927D02*
X13072Y575927D01*
X13072Y584073D01*
X18002Y584073D01*
X18002Y575927D01*
X18002Y577489D02*
X13072Y577489D01*
X13072Y579051D02*
X18002Y579051D01*
X18002Y580613D02*
X13072Y580613D01*
X13072Y582175D02*
X18002Y582175D01*
X18002Y583737D02*
X13072Y583737D01*
X26998Y575927D02*
X31928Y575927D01*
X26998Y575927D02*
X26998Y584073D01*
X31928Y584073D01*
X31928Y575927D01*
X31928Y577489D02*
X26998Y577489D01*
X26998Y579051D02*
X31928Y579051D01*
X31928Y580613D02*
X26998Y580613D01*
X26998Y582175D02*
X31928Y582175D01*
X31928Y583737D02*
X26998Y583737D01*
X68072Y628927D02*
X73002Y628927D01*
X68072Y628927D02*
X68072Y637073D01*
X73002Y637073D01*
X73002Y628927D01*
X73002Y630489D02*
X68072Y630489D01*
X68072Y632051D02*
X73002Y632051D01*
X73002Y633613D02*
X68072Y633613D01*
X68072Y635175D02*
X73002Y635175D01*
X73002Y636737D02*
X68072Y636737D01*
X81998Y628927D02*
X86928Y628927D01*
X81998Y628927D02*
X81998Y637073D01*
X86928Y637073D01*
X86928Y628927D01*
X86928Y630489D02*
X81998Y630489D01*
X81998Y632051D02*
X86928Y632051D01*
X86928Y633613D02*
X81998Y633613D01*
X81998Y635175D02*
X86928Y635175D01*
X86928Y636737D02*
X81998Y636737D01*
X18002Y560927D02*
X13072Y560927D01*
X13072Y569073D01*
X18002Y569073D01*
X18002Y560927D01*
X18002Y562489D02*
X13072Y562489D01*
X13072Y564051D02*
X18002Y564051D01*
X18002Y565613D02*
X13072Y565613D01*
X13072Y567175D02*
X18002Y567175D01*
X18002Y568737D02*
X13072Y568737D01*
X26998Y560927D02*
X31928Y560927D01*
X26998Y560927D02*
X26998Y569073D01*
X31928Y569073D01*
X31928Y560927D01*
X31928Y562489D02*
X26998Y562489D01*
X26998Y564051D02*
X31928Y564051D01*
X31928Y565613D02*
X26998Y565613D01*
X26998Y567175D02*
X31928Y567175D01*
X31928Y568737D02*
X26998Y568737D01*
D18*
X126998Y606568D02*
X126998Y623884D01*
X134002Y623884D01*
X134002Y606568D01*
X126998Y606568D01*
X126998Y608786D02*
X134002Y608786D01*
X134002Y611004D02*
X126998Y611004D01*
X126998Y613222D02*
X134002Y613222D01*
X134002Y615440D02*
X126998Y615440D01*
X126998Y617658D02*
X134002Y617658D01*
X134002Y619876D02*
X126998Y619876D01*
X126998Y622094D02*
X134002Y622094D01*
X103998Y623884D02*
X103998Y606568D01*
X103998Y623884D02*
X111002Y623884D01*
X111002Y606568D01*
X103998Y606568D01*
X103998Y608786D02*
X111002Y608786D01*
X111002Y611004D02*
X103998Y611004D01*
X103998Y613222D02*
X111002Y613222D01*
X111002Y615440D02*
X103998Y615440D01*
X103998Y617658D02*
X111002Y617658D01*
X111002Y619876D02*
X103998Y619876D01*
X103998Y622094D02*
X111002Y622094D01*
X80998Y623884D02*
X80998Y606568D01*
X80998Y623884D02*
X88002Y623884D01*
X88002Y606568D01*
X80998Y606568D01*
X80998Y608786D02*
X88002Y608786D01*
X88002Y611004D02*
X80998Y611004D01*
X80998Y613222D02*
X88002Y613222D01*
X88002Y615440D02*
X80998Y615440D01*
X80998Y617658D02*
X88002Y617658D01*
X88002Y619876D02*
X80998Y619876D01*
X80998Y622094D02*
X88002Y622094D01*
D19*
X93787Y562143D02*
X93787Y547405D01*
X93787Y562143D02*
X121213Y562143D01*
X121213Y547405D01*
X93787Y547405D01*
X93787Y552072D02*
X121213Y552072D01*
X121213Y556739D02*
X93787Y556739D01*
X93787Y561406D02*
X121213Y561406D01*
D10*
X106573Y152502D02*
X106573Y147572D01*
X98427Y147572D01*
X98427Y152502D01*
X106573Y152502D01*
X106573Y149134D02*
X98427Y149134D01*
X98427Y150696D02*
X106573Y150696D01*
X106573Y152258D02*
X98427Y152258D01*
X106573Y161498D02*
X106573Y166428D01*
X106573Y161498D02*
X98427Y161498D01*
X98427Y166428D01*
X106573Y166428D01*
X106573Y163060D02*
X98427Y163060D01*
X98427Y164622D02*
X106573Y164622D01*
X106573Y166184D02*
X98427Y166184D01*
D20*
X44000Y47250D02*
X44000Y35750D01*
D21*
X51000Y35650D02*
X51000Y47350D01*
X57500Y47350D02*
X57500Y35650D01*
D20*
X64500Y35750D02*
X64500Y47250D01*
X70500Y47250D02*
X70500Y35750D01*
D22*
X63551Y77195D02*
X63551Y83337D01*
X66625Y83337D01*
X66625Y77195D01*
X63551Y77195D01*
D23*
X46987Y75807D02*
X46987Y84725D01*
X48813Y84725D01*
X48813Y75807D01*
X46987Y75807D01*
X46987Y79669D02*
X48813Y79669D01*
X48813Y83531D02*
X46987Y83531D01*
X46987Y64193D02*
X46987Y55275D01*
X46987Y64193D02*
X48813Y64193D01*
X48813Y55275D01*
X46987Y55275D01*
X46987Y59137D02*
X48813Y59137D01*
X48813Y62999D02*
X46987Y62999D01*
X66187Y64193D02*
X66187Y55275D01*
X66187Y64193D02*
X68013Y64193D01*
X68013Y55275D01*
X66187Y55275D01*
X66187Y59137D02*
X68013Y59137D01*
X68013Y62999D02*
X66187Y62999D01*
D12*
X33558Y693558D02*
X27036Y693558D01*
X33558Y693558D02*
X33558Y686442D01*
X27036Y686442D01*
X27036Y693558D01*
X27036Y688507D02*
X33558Y688507D01*
X33558Y690572D02*
X27036Y690572D01*
X27036Y692637D02*
X33558Y692637D01*
X17964Y693558D02*
X11442Y693558D01*
X17964Y693558D02*
X17964Y686442D01*
X11442Y686442D01*
X11442Y693558D01*
X11442Y688507D02*
X17964Y688507D01*
X17964Y690572D02*
X11442Y690572D01*
X11442Y692637D02*
X17964Y692637D01*
D10*
X18002Y670927D02*
X13072Y670927D01*
X13072Y679073D01*
X18002Y679073D01*
X18002Y670927D01*
X18002Y672489D02*
X13072Y672489D01*
X13072Y674051D02*
X18002Y674051D01*
X18002Y675613D02*
X13072Y675613D01*
X13072Y677175D02*
X18002Y677175D01*
X18002Y678737D02*
X13072Y678737D01*
X26998Y670927D02*
X31928Y670927D01*
X26998Y670927D02*
X26998Y679073D01*
X31928Y679073D01*
X31928Y670927D01*
X31928Y672489D02*
X26998Y672489D01*
X26998Y674051D02*
X31928Y674051D01*
X31928Y675613D02*
X26998Y675613D01*
X26998Y677175D02*
X31928Y677175D01*
X31928Y678737D02*
X26998Y678737D01*
D12*
X17964Y701442D02*
X11442Y701442D01*
X11442Y708558D01*
X17964Y708558D01*
X17964Y701442D01*
X17964Y703507D02*
X11442Y703507D01*
X11442Y705572D02*
X17964Y705572D01*
X17964Y707637D02*
X11442Y707637D01*
X27036Y701442D02*
X33558Y701442D01*
X27036Y701442D02*
X27036Y708558D01*
X33558Y708558D01*
X33558Y701442D01*
X33558Y703507D02*
X27036Y703507D01*
X27036Y705572D02*
X33558Y705572D01*
X33558Y707637D02*
X27036Y707637D01*
X17964Y716442D02*
X11442Y716442D01*
X11442Y723558D01*
X17964Y723558D01*
X17964Y716442D01*
X17964Y718507D02*
X11442Y718507D01*
X11442Y720572D02*
X17964Y720572D01*
X17964Y722637D02*
X11442Y722637D01*
X27036Y716442D02*
X33558Y716442D01*
X27036Y716442D02*
X27036Y723558D01*
X33558Y723558D01*
X33558Y716442D01*
X33558Y718507D02*
X27036Y718507D01*
X27036Y720572D02*
X33558Y720572D01*
X33558Y722637D02*
X27036Y722637D01*
D24*
X168880Y43370D02*
X175120Y43370D01*
X175120Y41230D01*
X168880Y41230D01*
X168880Y43370D01*
D25*
X181300Y44350D02*
X181300Y40650D01*
X187200Y40650D02*
X187200Y44350D01*
D24*
X175120Y78570D02*
X168880Y78570D01*
X175120Y78570D02*
X175120Y76430D01*
X168880Y76430D01*
X168880Y78570D01*
D25*
X187000Y79350D02*
X187000Y75650D01*
D26*
X184500Y60000D03*
D10*
X173002Y25927D02*
X168072Y25927D01*
X168072Y34073D01*
X173002Y34073D01*
X173002Y25927D01*
X173002Y27489D02*
X168072Y27489D01*
X168072Y29051D02*
X173002Y29051D01*
X173002Y30613D02*
X168072Y30613D01*
X168072Y32175D02*
X173002Y32175D01*
X173002Y33737D02*
X168072Y33737D01*
X181998Y25927D02*
X186928Y25927D01*
X181998Y25927D02*
X181998Y34073D01*
X186928Y34073D01*
X186928Y25927D01*
X186928Y27489D02*
X181998Y27489D01*
X181998Y29051D02*
X186928Y29051D01*
X186928Y30613D02*
X181998Y30613D01*
X181998Y32175D02*
X186928Y32175D01*
X186928Y33737D02*
X181998Y33737D01*
D12*
X182036Y18558D02*
X188558Y18558D01*
X188558Y11442D01*
X182036Y11442D01*
X182036Y18558D01*
X182036Y13507D02*
X188558Y13507D01*
X188558Y15572D02*
X182036Y15572D01*
X182036Y17637D02*
X188558Y17637D01*
X172964Y18558D02*
X166442Y18558D01*
X172964Y18558D02*
X172964Y11442D01*
X166442Y11442D01*
X166442Y18558D01*
X166442Y13507D02*
X172964Y13507D01*
X172964Y15572D02*
X166442Y15572D01*
X166442Y17637D02*
X172964Y17637D01*
X206558Y58942D02*
X206558Y65464D01*
X206558Y58942D02*
X199442Y58942D01*
X199442Y65464D01*
X206558Y65464D01*
X206558Y61007D02*
X199442Y61007D01*
X199442Y63072D02*
X206558Y63072D01*
X206558Y65137D02*
X199442Y65137D01*
X206558Y74536D02*
X206558Y81058D01*
X206558Y74536D02*
X199442Y74536D01*
X199442Y81058D01*
X206558Y81058D01*
X206558Y76601D02*
X199442Y76601D01*
X199442Y78666D02*
X206558Y78666D01*
X206558Y80731D02*
X199442Y80731D01*
D10*
X146573Y110072D02*
X146573Y115002D01*
X146573Y110072D02*
X138427Y110072D01*
X138427Y115002D01*
X146573Y115002D01*
X146573Y111634D02*
X138427Y111634D01*
X138427Y113196D02*
X146573Y113196D01*
X146573Y114758D02*
X138427Y114758D01*
X146573Y123998D02*
X146573Y128928D01*
X146573Y123998D02*
X138427Y123998D01*
X138427Y128928D01*
X146573Y128928D01*
X146573Y125560D02*
X138427Y125560D01*
X138427Y127122D02*
X146573Y127122D01*
X146573Y128684D02*
X138427Y128684D01*
D27*
X115000Y733950D02*
X115000Y738050D01*
X110000Y738050D02*
X110000Y733950D01*
X105000Y733950D02*
X105000Y738050D01*
X100000Y738050D02*
X100000Y733950D01*
X93550Y727500D02*
X89450Y727500D01*
X89450Y722500D02*
X93550Y722500D01*
X93550Y717500D02*
X89450Y717500D01*
X89450Y712500D02*
X93550Y712500D01*
X100000Y706050D02*
X100000Y701950D01*
X105000Y701950D02*
X105000Y706050D01*
X110000Y706050D02*
X110000Y701950D01*
X115000Y701950D02*
X115000Y706050D01*
X121450Y712500D02*
X125550Y712500D01*
X125550Y717500D02*
X121450Y717500D01*
X121450Y722500D02*
X125550Y722500D01*
X125550Y727500D02*
X121450Y727500D01*
D10*
X116928Y774073D02*
X111998Y774073D01*
X116928Y774073D02*
X116928Y765927D01*
X111998Y765927D01*
X111998Y774073D01*
X111998Y767489D02*
X116928Y767489D01*
X116928Y769051D02*
X111998Y769051D01*
X111998Y770613D02*
X116928Y770613D01*
X116928Y772175D02*
X111998Y772175D01*
X111998Y773737D02*
X116928Y773737D01*
X103002Y774073D02*
X98072Y774073D01*
X103002Y774073D02*
X103002Y765927D01*
X98072Y765927D01*
X98072Y774073D01*
X98072Y767489D02*
X103002Y767489D01*
X103002Y769051D02*
X98072Y769051D01*
X98072Y770613D02*
X103002Y770613D01*
X103002Y772175D02*
X98072Y772175D01*
X98072Y773737D02*
X103002Y773737D01*
D12*
X136442Y721442D02*
X142964Y721442D01*
X136442Y721442D02*
X136442Y728558D01*
X142964Y728558D01*
X142964Y721442D01*
X142964Y723507D02*
X136442Y723507D01*
X136442Y725572D02*
X142964Y725572D01*
X142964Y727637D02*
X136442Y727637D01*
X152036Y721442D02*
X158558Y721442D01*
X152036Y721442D02*
X152036Y728558D01*
X158558Y728558D01*
X158558Y721442D01*
X158558Y723507D02*
X152036Y723507D01*
X152036Y725572D02*
X158558Y725572D01*
X158558Y727637D02*
X152036Y727637D01*
X142964Y736442D02*
X136442Y736442D01*
X136442Y743558D01*
X142964Y743558D01*
X142964Y736442D01*
X142964Y738507D02*
X136442Y738507D01*
X136442Y740572D02*
X142964Y740572D01*
X142964Y742637D02*
X136442Y742637D01*
X152036Y736442D02*
X158558Y736442D01*
X152036Y736442D02*
X152036Y743558D01*
X158558Y743558D01*
X158558Y736442D01*
X158558Y738507D02*
X152036Y738507D01*
X152036Y740572D02*
X158558Y740572D01*
X158558Y742637D02*
X152036Y742637D01*
D10*
X143002Y705927D02*
X138072Y705927D01*
X138072Y714073D01*
X143002Y714073D01*
X143002Y705927D01*
X143002Y707489D02*
X138072Y707489D01*
X138072Y709051D02*
X143002Y709051D01*
X143002Y710613D02*
X138072Y710613D01*
X138072Y712175D02*
X143002Y712175D01*
X143002Y713737D02*
X138072Y713737D01*
X151998Y705927D02*
X156928Y705927D01*
X151998Y705927D02*
X151998Y714073D01*
X156928Y714073D01*
X156928Y705927D01*
X156928Y707489D02*
X151998Y707489D01*
X151998Y709051D02*
X156928Y709051D01*
X156928Y710613D02*
X151998Y710613D01*
X151998Y712175D02*
X156928Y712175D01*
X156928Y713737D02*
X151998Y713737D01*
D12*
X72964Y649442D02*
X66442Y649442D01*
X66442Y656558D01*
X72964Y656558D01*
X72964Y649442D01*
X72964Y651507D02*
X66442Y651507D01*
X66442Y653572D02*
X72964Y653572D01*
X72964Y655637D02*
X66442Y655637D01*
X82036Y649442D02*
X88558Y649442D01*
X82036Y649442D02*
X82036Y656558D01*
X88558Y656558D01*
X88558Y649442D01*
X88558Y651507D02*
X82036Y651507D01*
X82036Y653572D02*
X88558Y653572D01*
X88558Y655637D02*
X82036Y655637D01*
X73264Y669542D02*
X66742Y669542D01*
X66742Y676658D01*
X73264Y676658D01*
X73264Y669542D01*
X73264Y671607D02*
X66742Y671607D01*
X66742Y673672D02*
X73264Y673672D01*
X73264Y675737D02*
X66742Y675737D01*
X82336Y669542D02*
X88858Y669542D01*
X82336Y669542D02*
X82336Y676658D01*
X88858Y676658D01*
X88858Y669542D01*
X88858Y671607D02*
X82336Y671607D01*
X82336Y673672D02*
X88858Y673672D01*
X88858Y675737D02*
X82336Y675737D01*
X136442Y661442D02*
X142964Y661442D01*
X136442Y661442D02*
X136442Y668558D01*
X142964Y668558D01*
X142964Y661442D01*
X142964Y663507D02*
X136442Y663507D01*
X136442Y665572D02*
X142964Y665572D01*
X142964Y667637D02*
X136442Y667637D01*
X152036Y661442D02*
X158558Y661442D01*
X152036Y661442D02*
X152036Y668558D01*
X158558Y668558D01*
X158558Y661442D01*
X158558Y663507D02*
X152036Y663507D01*
X152036Y665572D02*
X158558Y665572D01*
X158558Y667637D02*
X152036Y667637D01*
X152036Y698558D02*
X158558Y698558D01*
X158558Y691442D01*
X152036Y691442D01*
X152036Y698558D01*
X152036Y693507D02*
X158558Y693507D01*
X158558Y695572D02*
X152036Y695572D01*
X152036Y697637D02*
X158558Y697637D01*
X142964Y698558D02*
X136442Y698558D01*
X142964Y698558D02*
X142964Y691442D01*
X136442Y691442D01*
X136442Y698558D01*
X136442Y693507D02*
X142964Y693507D01*
X142964Y695572D02*
X136442Y695572D01*
X136442Y697637D02*
X142964Y697637D01*
X152036Y683558D02*
X158558Y683558D01*
X158558Y676442D01*
X152036Y676442D01*
X152036Y683558D01*
X152036Y678507D02*
X158558Y678507D01*
X158558Y680572D02*
X152036Y680572D01*
X152036Y682637D02*
X158558Y682637D01*
X142964Y683558D02*
X136442Y683558D01*
X142964Y683558D02*
X142964Y676442D01*
X136442Y676442D01*
X136442Y683558D01*
X136442Y678507D02*
X142964Y678507D01*
X142964Y680572D02*
X136442Y680572D01*
X136442Y682637D02*
X142964Y682637D01*
D10*
X76573Y890572D02*
X76573Y895502D01*
X76573Y890572D02*
X68427Y890572D01*
X68427Y895502D01*
X76573Y895502D01*
X76573Y892134D02*
X68427Y892134D01*
X68427Y893696D02*
X76573Y893696D01*
X76573Y895258D02*
X68427Y895258D01*
X76573Y904498D02*
X76573Y909428D01*
X76573Y904498D02*
X68427Y904498D01*
X68427Y909428D01*
X76573Y909428D01*
X76573Y906060D02*
X68427Y906060D01*
X68427Y907622D02*
X76573Y907622D01*
X76573Y909184D02*
X68427Y909184D01*
D12*
X112036Y788558D02*
X118558Y788558D01*
X118558Y781442D01*
X112036Y781442D01*
X112036Y788558D01*
X112036Y783507D02*
X118558Y783507D01*
X118558Y785572D02*
X112036Y785572D01*
X112036Y787637D02*
X118558Y787637D01*
X102964Y788558D02*
X96442Y788558D01*
X102964Y788558D02*
X102964Y781442D01*
X96442Y781442D01*
X96442Y788558D01*
X96442Y783507D02*
X102964Y783507D01*
X102964Y785572D02*
X96442Y785572D01*
X96442Y787637D02*
X102964Y787637D01*
X162036Y773558D02*
X168558Y773558D01*
X168558Y766442D01*
X162036Y766442D01*
X162036Y773558D01*
X162036Y768507D02*
X168558Y768507D01*
X168558Y770572D02*
X162036Y770572D01*
X162036Y772637D02*
X168558Y772637D01*
X152964Y773558D02*
X146442Y773558D01*
X152964Y773558D02*
X152964Y766442D01*
X146442Y766442D01*
X146442Y773558D01*
X146442Y768507D02*
X152964Y768507D01*
X152964Y770572D02*
X146442Y770572D01*
X146442Y772637D02*
X152964Y772637D01*
D28*
X133066Y38571D02*
X125990Y38571D01*
X125990Y40429D01*
X133066Y40429D01*
X133066Y38571D01*
X133066Y29071D02*
X125990Y29071D01*
X125990Y30929D01*
X133066Y30929D01*
X133066Y29071D01*
X133066Y19571D02*
X125990Y19571D01*
X125990Y21429D01*
X133066Y21429D01*
X133066Y19571D01*
X151934Y19571D02*
X159010Y19571D01*
X151934Y19571D02*
X151934Y21429D01*
X159010Y21429D01*
X159010Y19571D01*
X159010Y29071D02*
X151934Y29071D01*
X151934Y30929D01*
X159010Y30929D01*
X159010Y29071D01*
X159010Y38571D02*
X151934Y38571D01*
X151934Y40429D01*
X159010Y40429D01*
X159010Y38571D01*
D10*
X78939Y694101D02*
X75453Y697587D01*
X81213Y703347D01*
X84699Y699861D01*
X78939Y694101D01*
X80501Y695663D02*
X77377Y695663D01*
X75815Y697225D02*
X82063Y697225D01*
X83625Y698787D02*
X76653Y698787D01*
X78215Y700349D02*
X84211Y700349D01*
X82649Y701911D02*
X79777Y701911D01*
X85301Y687739D02*
X88787Y684253D01*
X85301Y687739D02*
X91061Y693499D01*
X94547Y690013D01*
X88787Y684253D01*
X90349Y685815D02*
X87225Y685815D01*
X85663Y687377D02*
X91911Y687377D01*
X93473Y688939D02*
X86501Y688939D01*
X88063Y690501D02*
X94059Y690501D01*
X92497Y692063D02*
X89625Y692063D01*
X161573Y115502D02*
X161573Y110572D01*
X153427Y110572D01*
X153427Y115502D01*
X161573Y115502D01*
X161573Y112134D02*
X153427Y112134D01*
X153427Y113696D02*
X161573Y113696D01*
X161573Y115258D02*
X153427Y115258D01*
X161573Y124498D02*
X161573Y129428D01*
X161573Y124498D02*
X153427Y124498D01*
X153427Y129428D01*
X161573Y129428D01*
X161573Y126060D02*
X153427Y126060D01*
X153427Y127622D02*
X161573Y127622D01*
X161573Y129184D02*
X153427Y129184D01*
M02*
