M48
;GenerationSoftware,Autodesk,EAGLE,9.3.0*%
;CreationDate,2019-02-15T20:53:16Z*%
FMAT,2
ICI,OFF
METRIC,TZ,000.000
T6C0.300
T5C0.650
T4C1.000
T3C1.320
T2C2.390
T1C3.550
%
G90
M71
T1
X3000Y11400
X19000Y66600
T2
X3000Y75110
T3
X11000Y75110
X11000Y2890
T4
X11000Y90500
X2425Y1270
X9575Y1270
T5
X8425Y4000
X3575Y4000
T6
X9000Y58500
X15500Y22500
X18251Y21394
X2494Y54000
X2494Y49000
X17900Y29900
X14500Y23500
X19400Y21300
X15994Y26950
X13850Y8500
X4000Y6000
X3000Y6000
X3000Y7000
X4000Y7000
X15000Y15500
X13400Y70500
X13250Y68750
X6606Y67400
X5000Y42000
X7487Y67100
X4100Y40100
X2200Y18100
X6000Y22000
X8000Y65000
X5937Y42000
X13300Y63600
X9500Y70500
X9500Y73500
X12900Y90100
X7000Y2700
X4700Y15000
X8000Y37000
X8500Y37000
X9000Y37000
X9500Y37000
X10000Y37000
X10000Y37500
X9500Y37500
X9000Y37500
X8500Y37500
X8000Y37500
X8000Y38000
X8500Y38000
X9000Y38000
X9500Y38000
X10000Y38000
X10000Y38500
X9500Y38500
X9000Y38500
X8500Y38500
X8000Y38500
X8000Y39000
X8500Y39000
X9000Y39000
X9500Y39000
X10000Y39000
X10000Y39500
X9500Y39500
X9000Y39500
X8500Y39500
X8000Y39500
X8000Y40000
X8500Y40000
X9000Y40000
X9500Y40000
X10000Y40000
X10000Y40500
X9500Y40500
X9000Y40500
X8500Y40500
X8000Y40500
X8000Y41000
X8500Y41000
X9000Y41000
X9500Y41000
X10000Y41000
X2000Y47500
X4500Y27500
X4500Y28500
X17900Y31150
X17900Y36300
X17900Y37550
X17900Y40100
X17900Y46500
X4100Y37500
X4100Y36300
X4100Y35000
X4100Y33700
X6500Y9500
X8850Y14900
X14100Y18700
X9410Y7210
X11000Y8500
X15000Y9900
X16050Y9900
X13850Y10300
X10250Y11000
X9980Y5030
X18650Y19150
X16350Y19150
X16350Y16850
X18650Y16850
X17500Y18000
X15500Y21500
X1500Y49500
X1500Y50500
X3500Y62500
X19400Y47500
X17900Y24800
X17900Y26050
X17900Y27350
X17900Y28650
X13150Y20950
X15500Y23500
X6500Y10500
X6500Y11500
X6500Y12500
X6500Y13500
X1500Y14500
X2500Y14500
X3500Y14500
X3500Y15500
X2500Y15500
X1500Y15500
X8000Y94000
X5500Y24500
X6500Y24500
X7500Y24500
X8500Y24500
X4400Y43250
X16500Y45450
X17500Y43450
X9200Y16800
X4070Y42000
X19500Y1400
X17500Y41450
X20500Y6500
X19500Y6500
X19500Y7500
X18500Y6500
X20500Y8500
X20500Y7500
X17500Y6500
X17500Y5500
X16500Y5500
X18500Y5500
X19500Y5500
X20500Y5500
X8000Y5100
X1500Y8500
X1500Y7500
X1500Y6500
X1500Y5500
X1500Y4500
X1500Y3500
X1500Y2500
X3500Y2500
X4500Y2500
X4500Y1500
X5500Y1500
X10980Y5030
X11980Y5030
X11000Y9500
X15850Y14300
X13350Y10300
X5000Y18000
X1500Y18900
X4500Y23500
X5500Y23500
X6500Y23500
X7500Y23500
X8500Y23500
X9500Y23500
X13500Y24500
X13500Y25500
X13500Y26500
X13500Y27500
X13500Y28500
X13900Y89100
X13900Y88100
X9000Y92600
X7500Y87500
X7500Y86500
X7500Y85500
X8500Y85500
X9500Y85500
X18500Y76500
X7500Y84500
X7500Y83500
X7500Y82500
X7500Y81500
X5500Y78500
X5500Y76500
X5500Y77500
X4500Y77500
X5500Y75500
X5500Y74500
X1500Y73500
X4500Y70500
X4500Y69500
X4500Y68500
X2500Y65500
X3500Y65500
X3500Y64500
X2500Y64500
X2500Y63500
X3500Y63500
X1500Y51500
X1500Y52500
X1500Y53500
X5500Y56500
X5500Y57500
X5500Y58500
X5500Y59500
X4500Y59500
X5500Y52500
X5500Y53500
X5500Y51500
X5500Y50500
X5500Y49500
X5500Y48500
X5500Y47500
X17500Y71500
X17500Y72500
X17500Y73500
X17500Y74500
X20500Y70500
X20500Y71500
X20500Y72500
X20500Y73500
X20500Y74500
X20500Y75500
X20500Y69500
X20500Y76500
X13800Y77000
X19500Y76500
X12900Y65200
X12900Y64300
X14500Y63500
X15500Y62500
X14500Y62500
X14500Y61500
X15500Y61500
X16500Y61500
X13500Y60500
X13500Y59500
X13500Y58500
X13500Y57500
X14500Y60500
X14500Y59500
X15500Y60500
X9400Y77500
X9400Y76500
X9100Y78500
X10500Y72400
X10500Y71500
X5350Y73500
X4500Y72750
X8450Y72000
X7650Y71250
X8500Y73500
X8500Y74500
X8500Y75500
X8500Y76500
X8500Y77500
X3500Y53500
X8500Y48500
X8500Y49500
X8500Y50500
X8500Y52500
X8500Y51500
X8500Y53500
X8500Y46500
X5500Y38500
X5500Y37500
X5500Y36500
X5500Y35500
X15500Y53500
X14500Y53500
X13500Y53500
X13500Y52500
X13500Y51500
X13500Y50500
X14500Y50500
X15500Y50500
X19450Y53500
X18500Y52500
X18500Y51500
X19450Y50500
X17500Y51500
X17500Y50500
X17500Y52500
X17500Y53500
X13500Y48500
X14500Y48500
X15500Y48500
X16500Y48500
X17500Y48500
X18500Y48500
X13500Y41500
X13500Y40500
X13500Y39500
X13500Y38500
X13500Y37500
X13500Y36500
X13500Y35500
X9500Y35500
X8500Y35500
X8500Y42500
X9500Y42500
X18500Y59500
X8500Y47500
X18500Y57500
X18500Y56500
X18500Y55500
X17500Y55500
X16500Y55500
X16500Y56500
X16500Y57500
X16500Y58500
X16500Y59500
X17500Y59500
X20500Y62500
X20500Y63500
X19500Y63500
X18800Y12900
X9500Y15700
X15050Y93450
X14000Y13500
X7500Y89000
X8000Y88500
X10000Y69000
X10000Y68500
X10000Y68000
X10000Y67500
X10000Y67000
X10000Y66500
X10000Y66000
X10000Y65500
X10000Y65000
X10000Y64500
X10000Y64000
X11800Y64000
X11800Y64500
X11800Y65000
X6958Y70464
X14450Y1550
X12750Y4200
X3500Y52500
X4500Y45500
X4500Y44500
X5500Y44500
X5500Y45500
X8800Y55300
X8800Y55800
X8800Y56300
X8800Y56800
X18500Y58500
M30