G04 EAGLE Gerber RS-274X export*
G75*
%MOMM*%
%FSLAX34Y34*%
%LPD*%
%INBottom Copper*%
%IPPOS*%
%AMOC8*
5,1,8,0,0,1.08239X$1,22.5*%
G01*
%ADD10C,1.863000*%
%ADD11C,1.508000*%
%ADD12C,1.158000*%
%ADD13C,1.980000*%
%ADD14C,0.706400*%
%ADD15C,1.000000*%
%ADD16C,0.200000*%
%ADD17C,0.756400*%

G36*
X83250Y11440D02*
X83250Y11440D01*
X83314Y11439D01*
X83389Y11460D01*
X83465Y11471D01*
X83524Y11497D01*
X83586Y11514D01*
X83652Y11555D01*
X83722Y11587D01*
X83771Y11629D01*
X83826Y11662D01*
X83878Y11720D01*
X83936Y11770D01*
X83972Y11824D01*
X84015Y11872D01*
X84048Y11941D01*
X84091Y12006D01*
X84110Y12068D01*
X84138Y12125D01*
X84149Y12195D01*
X84173Y12276D01*
X84174Y12361D01*
X84185Y12430D01*
X84185Y14503D01*
X85565Y17835D01*
X88115Y20385D01*
X91447Y21765D01*
X95053Y21765D01*
X96490Y21170D01*
X96521Y21162D01*
X96550Y21147D01*
X96657Y21127D01*
X96763Y21100D01*
X96795Y21101D01*
X96827Y21095D01*
X96935Y21105D01*
X97045Y21109D01*
X97075Y21119D01*
X97107Y21122D01*
X97209Y21162D01*
X97313Y21196D01*
X97339Y21214D01*
X97369Y21226D01*
X97455Y21293D01*
X97546Y21355D01*
X97566Y21380D01*
X97592Y21400D01*
X97656Y21488D01*
X97725Y21573D01*
X97738Y21602D01*
X97757Y21628D01*
X97793Y21731D01*
X97837Y21832D01*
X97840Y21864D01*
X97851Y21894D01*
X97858Y22003D01*
X97871Y22112D01*
X97866Y22143D01*
X97868Y22176D01*
X97846Y22264D01*
X97826Y22390D01*
X97805Y22434D01*
X97795Y22475D01*
X96075Y26627D01*
X96075Y31173D01*
X97815Y35372D01*
X101028Y38585D01*
X105227Y40325D01*
X109773Y40325D01*
X113972Y38585D01*
X117185Y35372D01*
X118925Y31173D01*
X118925Y26627D01*
X117185Y22428D01*
X113972Y19215D01*
X109773Y17475D01*
X105227Y17475D01*
X102454Y18624D01*
X102423Y18632D01*
X102394Y18647D01*
X102287Y18667D01*
X102181Y18694D01*
X102149Y18693D01*
X102117Y18699D01*
X102008Y18689D01*
X101899Y18685D01*
X101868Y18675D01*
X101836Y18672D01*
X101735Y18631D01*
X101631Y18598D01*
X101604Y18579D01*
X101574Y18567D01*
X101488Y18500D01*
X101398Y18439D01*
X101377Y18414D01*
X101352Y18394D01*
X101288Y18305D01*
X101219Y18221D01*
X101206Y18191D01*
X101187Y18165D01*
X101150Y18063D01*
X101107Y17962D01*
X101103Y17930D01*
X101092Y17900D01*
X101086Y17790D01*
X101073Y17682D01*
X101078Y17650D01*
X101076Y17618D01*
X101097Y17530D01*
X101118Y17404D01*
X101139Y17360D01*
X101149Y17318D01*
X102315Y14503D01*
X102315Y12430D01*
X102324Y12366D01*
X102323Y12302D01*
X102344Y12227D01*
X102355Y12151D01*
X102381Y12092D01*
X102398Y12030D01*
X102439Y11964D01*
X102471Y11894D01*
X102513Y11845D01*
X102546Y11790D01*
X102604Y11738D01*
X102654Y11680D01*
X102708Y11644D01*
X102756Y11601D01*
X102825Y11568D01*
X102890Y11525D01*
X102952Y11506D01*
X103009Y11478D01*
X103079Y11467D01*
X103160Y11443D01*
X103245Y11442D01*
X103314Y11431D01*
X202570Y11431D01*
X202634Y11440D01*
X202698Y11439D01*
X202773Y11460D01*
X202849Y11471D01*
X202908Y11497D01*
X202970Y11514D01*
X203036Y11555D01*
X203106Y11587D01*
X203155Y11629D01*
X203210Y11662D01*
X203262Y11720D01*
X203320Y11770D01*
X203356Y11824D01*
X203399Y11872D01*
X203432Y11941D01*
X203475Y12006D01*
X203494Y12068D01*
X203522Y12125D01*
X203533Y12195D01*
X203557Y12276D01*
X203558Y12361D01*
X203569Y12430D01*
X203569Y104430D01*
X203565Y104461D01*
X203567Y104494D01*
X203545Y104601D01*
X203529Y104709D01*
X203516Y104738D01*
X203510Y104770D01*
X203458Y104866D01*
X203413Y104966D01*
X203392Y104990D01*
X203377Y105019D01*
X203301Y105097D01*
X203230Y105180D01*
X203203Y105198D01*
X203180Y105221D01*
X203085Y105274D01*
X202994Y105334D01*
X202963Y105344D01*
X202935Y105360D01*
X202828Y105385D01*
X202724Y105417D01*
X202692Y105417D01*
X202661Y105425D01*
X202551Y105419D01*
X202442Y105421D01*
X202411Y105412D01*
X202379Y105410D01*
X202276Y105374D01*
X202170Y105345D01*
X202143Y105328D01*
X202112Y105318D01*
X202039Y105265D01*
X201930Y105197D01*
X201898Y105161D01*
X201863Y105136D01*
X170958Y74231D01*
X170939Y74205D01*
X170914Y74184D01*
X170854Y74092D01*
X170789Y74005D01*
X170777Y73975D01*
X170760Y73948D01*
X170728Y73843D01*
X170689Y73741D01*
X170687Y73709D01*
X170677Y73678D01*
X170676Y73569D01*
X170667Y73460D01*
X170674Y73428D01*
X170673Y73396D01*
X170703Y73291D01*
X170725Y73184D01*
X170740Y73155D01*
X170749Y73124D01*
X170806Y73031D01*
X170857Y72935D01*
X170880Y72912D01*
X170897Y72884D01*
X170978Y72811D01*
X171054Y72733D01*
X171082Y72717D01*
X171106Y72695D01*
X171204Y72648D01*
X171300Y72594D01*
X171331Y72586D01*
X171360Y72572D01*
X171449Y72558D01*
X171574Y72529D01*
X171622Y72531D01*
X171664Y72525D01*
X188546Y72525D01*
X190025Y71046D01*
X190025Y48954D01*
X188546Y47475D01*
X166454Y47475D01*
X164975Y48954D01*
X164975Y65836D01*
X164971Y65867D01*
X164973Y65900D01*
X164951Y66007D01*
X164935Y66115D01*
X164922Y66144D01*
X164916Y66176D01*
X164864Y66272D01*
X164819Y66372D01*
X164798Y66396D01*
X164783Y66425D01*
X164707Y66503D01*
X164636Y66586D01*
X164609Y66604D01*
X164586Y66627D01*
X164491Y66680D01*
X164400Y66740D01*
X164369Y66750D01*
X164341Y66766D01*
X164234Y66791D01*
X164130Y66823D01*
X164098Y66823D01*
X164067Y66831D01*
X163957Y66825D01*
X163848Y66827D01*
X163817Y66818D01*
X163785Y66816D01*
X163682Y66780D01*
X163576Y66751D01*
X163549Y66734D01*
X163518Y66724D01*
X163445Y66671D01*
X163336Y66603D01*
X163304Y66567D01*
X163269Y66542D01*
X152196Y55469D01*
X149798Y54475D01*
X46024Y54475D01*
X45960Y54466D01*
X45896Y54467D01*
X45821Y54446D01*
X45745Y54435D01*
X45686Y54409D01*
X45624Y54392D01*
X45558Y54351D01*
X45488Y54319D01*
X45439Y54277D01*
X45384Y54244D01*
X45332Y54186D01*
X45274Y54136D01*
X45238Y54082D01*
X45195Y54034D01*
X45162Y53965D01*
X45119Y53900D01*
X45100Y53838D01*
X45072Y53781D01*
X45061Y53711D01*
X45037Y53630D01*
X45036Y53545D01*
X45025Y53476D01*
X45025Y28954D01*
X43546Y27475D01*
X18454Y27475D01*
X16975Y28954D01*
X16975Y71046D01*
X18454Y72525D01*
X27460Y72525D01*
X27555Y72538D01*
X27651Y72543D01*
X27690Y72557D01*
X32302Y72557D01*
X32323Y72549D01*
X32451Y72539D01*
X32540Y72525D01*
X43546Y72525D01*
X45025Y71046D01*
X45025Y68524D01*
X45034Y68460D01*
X45033Y68396D01*
X45054Y68321D01*
X45065Y68245D01*
X45091Y68186D01*
X45108Y68124D01*
X45149Y68058D01*
X45181Y67988D01*
X45223Y67939D01*
X45256Y67884D01*
X45314Y67832D01*
X45364Y67774D01*
X45418Y67738D01*
X45466Y67695D01*
X45535Y67662D01*
X45600Y67619D01*
X45662Y67600D01*
X45719Y67572D01*
X45789Y67561D01*
X45870Y67537D01*
X45955Y67536D01*
X46024Y67525D01*
X103992Y67525D01*
X104024Y67529D01*
X104056Y67527D01*
X104163Y67549D01*
X104272Y67565D01*
X104301Y67578D01*
X104333Y67584D01*
X104429Y67636D01*
X104529Y67681D01*
X104553Y67702D01*
X104581Y67717D01*
X104660Y67793D01*
X104743Y67864D01*
X104760Y67891D01*
X104784Y67914D01*
X104837Y68009D01*
X104897Y68100D01*
X104907Y68131D01*
X104923Y68159D01*
X104948Y68266D01*
X104980Y68370D01*
X104980Y68402D01*
X104988Y68433D01*
X104982Y68543D01*
X104983Y68652D01*
X104975Y68683D01*
X104973Y68715D01*
X104937Y68818D01*
X104908Y68924D01*
X104891Y68951D01*
X104881Y68982D01*
X104827Y69055D01*
X104760Y69164D01*
X104724Y69196D01*
X104699Y69231D01*
X89975Y83954D01*
X89975Y151960D01*
X89962Y152054D01*
X89957Y152151D01*
X89942Y152194D01*
X89935Y152239D01*
X89896Y152326D01*
X89864Y152417D01*
X89839Y152452D01*
X89819Y152496D01*
X89736Y152593D01*
X89683Y152666D01*
X87443Y154905D01*
X87443Y159095D01*
X90405Y162057D01*
X94595Y162057D01*
X97557Y159095D01*
X97557Y154905D01*
X95317Y152666D01*
X95260Y152589D01*
X95195Y152518D01*
X95175Y152477D01*
X95148Y152441D01*
X95114Y152350D01*
X95072Y152264D01*
X95066Y152222D01*
X95049Y152177D01*
X95039Y152049D01*
X95025Y151960D01*
X95025Y86460D01*
X95038Y86365D01*
X95043Y86269D01*
X95058Y86225D01*
X95065Y86180D01*
X95104Y86093D01*
X95136Y86002D01*
X95161Y85968D01*
X95181Y85924D01*
X95264Y85826D01*
X95317Y85753D01*
X109729Y71341D01*
X109806Y71284D01*
X109877Y71219D01*
X109918Y71199D01*
X109955Y71172D01*
X110045Y71138D01*
X110131Y71096D01*
X110173Y71090D01*
X110219Y71073D01*
X110346Y71063D01*
X110436Y71049D01*
X143924Y71049D01*
X144019Y71062D01*
X144115Y71067D01*
X144158Y71082D01*
X144203Y71089D01*
X144290Y71128D01*
X144381Y71160D01*
X144416Y71185D01*
X144460Y71205D01*
X144557Y71288D01*
X144630Y71341D01*
X182683Y109394D01*
X182740Y109470D01*
X182805Y109542D01*
X182825Y109583D01*
X182852Y109619D01*
X182886Y109709D01*
X182928Y109796D01*
X182934Y109838D01*
X182951Y109883D01*
X182961Y110011D01*
X182975Y110100D01*
X182975Y123960D01*
X182962Y124054D01*
X182957Y124151D01*
X182942Y124194D01*
X182935Y124239D01*
X182896Y124326D01*
X182864Y124417D01*
X182839Y124452D01*
X182819Y124496D01*
X182736Y124593D01*
X182683Y124666D01*
X180443Y126905D01*
X180443Y131095D01*
X183405Y134057D01*
X187595Y134057D01*
X190557Y131095D01*
X190557Y126905D01*
X188317Y124666D01*
X188260Y124589D01*
X188195Y124518D01*
X188175Y124477D01*
X188148Y124441D01*
X188114Y124350D01*
X188072Y124264D01*
X188066Y124222D01*
X188049Y124177D01*
X188039Y124049D01*
X188025Y123960D01*
X188025Y112164D01*
X188029Y112133D01*
X188027Y112100D01*
X188049Y111993D01*
X188065Y111885D01*
X188078Y111856D01*
X188084Y111824D01*
X188136Y111728D01*
X188181Y111628D01*
X188202Y111604D01*
X188217Y111575D01*
X188293Y111497D01*
X188364Y111414D01*
X188391Y111396D01*
X188414Y111373D01*
X188509Y111320D01*
X188600Y111260D01*
X188631Y111250D01*
X188659Y111234D01*
X188766Y111209D01*
X188870Y111177D01*
X188902Y111177D01*
X188933Y111169D01*
X189043Y111175D01*
X189152Y111173D01*
X189183Y111182D01*
X189215Y111184D01*
X189318Y111220D01*
X189424Y111249D01*
X189451Y111266D01*
X189482Y111276D01*
X189555Y111329D01*
X189664Y111397D01*
X189696Y111433D01*
X189731Y111458D01*
X195523Y117250D01*
X195580Y117327D01*
X195645Y117398D01*
X195665Y117439D01*
X195692Y117476D01*
X195726Y117566D01*
X195768Y117652D01*
X195774Y117694D01*
X195791Y117739D01*
X195801Y117867D01*
X195815Y117957D01*
X195815Y146883D01*
X195802Y146979D01*
X195797Y147075D01*
X195782Y147118D01*
X195775Y147163D01*
X195736Y147250D01*
X195704Y147341D01*
X195679Y147376D01*
X195659Y147420D01*
X195576Y147517D01*
X195523Y147590D01*
X194930Y148183D01*
X194853Y148240D01*
X194782Y148305D01*
X194741Y148325D01*
X194704Y148352D01*
X194615Y148386D01*
X194528Y148428D01*
X194486Y148434D01*
X194441Y148451D01*
X194313Y148461D01*
X194223Y148475D01*
X143702Y148475D01*
X141304Y149469D01*
X139469Y151304D01*
X138475Y153702D01*
X138475Y156298D01*
X139469Y158696D01*
X141304Y160531D01*
X143702Y161525D01*
X194223Y161525D01*
X194319Y161538D01*
X194415Y161543D01*
X194458Y161558D01*
X194503Y161565D01*
X194590Y161604D01*
X194681Y161636D01*
X194716Y161661D01*
X194760Y161681D01*
X194857Y161764D01*
X194930Y161817D01*
X195523Y162410D01*
X195580Y162487D01*
X195645Y162558D01*
X195665Y162599D01*
X195692Y162635D01*
X195726Y162725D01*
X195768Y162812D01*
X195774Y162854D01*
X195791Y162899D01*
X195801Y163027D01*
X195815Y163117D01*
X195815Y211252D01*
X195811Y211284D01*
X195813Y211316D01*
X195791Y211423D01*
X195775Y211531D01*
X195762Y211560D01*
X195756Y211592D01*
X195704Y211688D01*
X195659Y211788D01*
X195638Y211812D01*
X195623Y211841D01*
X195547Y211919D01*
X195476Y212002D01*
X195449Y212020D01*
X195426Y212043D01*
X195331Y212097D01*
X195240Y212156D01*
X195209Y212166D01*
X195181Y212182D01*
X195075Y212207D01*
X194970Y212239D01*
X194938Y212239D01*
X194907Y212247D01*
X194797Y212241D01*
X194688Y212243D01*
X194657Y212234D01*
X194625Y212232D01*
X194522Y212197D01*
X194416Y212167D01*
X194389Y212150D01*
X194358Y212140D01*
X194285Y212087D01*
X194176Y212019D01*
X194144Y211983D01*
X194109Y211958D01*
X193095Y210943D01*
X188905Y210943D01*
X187361Y212488D01*
X187309Y212526D01*
X187265Y212572D01*
X187197Y212611D01*
X187135Y212657D01*
X187075Y212680D01*
X187019Y212712D01*
X186944Y212729D01*
X186871Y212757D01*
X186807Y212762D01*
X186745Y212776D01*
X186667Y212773D01*
X186590Y212778D01*
X186527Y212765D01*
X186463Y212762D01*
X186390Y212737D01*
X186314Y212721D01*
X186257Y212691D01*
X186197Y212670D01*
X186140Y212628D01*
X186065Y212588D01*
X186004Y212529D01*
X185948Y212488D01*
X184403Y210943D01*
X180214Y210943D01*
X177252Y213905D01*
X177252Y217516D01*
X177238Y217611D01*
X177233Y217707D01*
X177218Y217751D01*
X177212Y217796D01*
X177172Y217883D01*
X177141Y217974D01*
X177116Y218008D01*
X177096Y218052D01*
X177012Y218150D01*
X176959Y218223D01*
X172999Y222183D01*
X172923Y222240D01*
X172851Y222305D01*
X172810Y222325D01*
X172774Y222352D01*
X172684Y222386D01*
X172597Y222428D01*
X172555Y222434D01*
X172510Y222451D01*
X172382Y222461D01*
X172293Y222475D01*
X157540Y222475D01*
X157446Y222462D01*
X157349Y222457D01*
X157306Y222442D01*
X157261Y222435D01*
X157174Y222396D01*
X157083Y222364D01*
X157048Y222339D01*
X157004Y222319D01*
X156907Y222236D01*
X156834Y222183D01*
X154595Y219943D01*
X150405Y219943D01*
X147443Y222905D01*
X147443Y227095D01*
X150405Y230057D01*
X154595Y230057D01*
X156834Y227817D01*
X156911Y227760D01*
X156982Y227695D01*
X157023Y227675D01*
X157059Y227648D01*
X157150Y227614D01*
X157236Y227572D01*
X157278Y227566D01*
X157323Y227549D01*
X157451Y227539D01*
X157540Y227525D01*
X173492Y227525D01*
X173524Y227529D01*
X173556Y227527D01*
X173663Y227549D01*
X173772Y227565D01*
X173801Y227578D01*
X173833Y227584D01*
X173929Y227636D01*
X174029Y227681D01*
X174053Y227702D01*
X174081Y227717D01*
X174160Y227793D01*
X174243Y227864D01*
X174260Y227891D01*
X174284Y227914D01*
X174337Y228009D01*
X174397Y228100D01*
X174407Y228131D01*
X174423Y228159D01*
X174448Y228266D01*
X174480Y228370D01*
X174480Y228402D01*
X174488Y228433D01*
X174482Y228543D01*
X174483Y228652D01*
X174475Y228683D01*
X174473Y228715D01*
X174437Y228818D01*
X174408Y228924D01*
X174391Y228951D01*
X174381Y228982D01*
X174327Y229055D01*
X174260Y229164D01*
X174224Y229196D01*
X174199Y229231D01*
X154919Y248510D01*
X154919Y269460D01*
X154906Y269555D01*
X154901Y269651D01*
X154886Y269694D01*
X154879Y269739D01*
X154840Y269826D01*
X154808Y269917D01*
X154783Y269952D01*
X154763Y269996D01*
X154680Y270093D01*
X154627Y270166D01*
X152387Y272405D01*
X152387Y276595D01*
X155349Y279557D01*
X159539Y279557D01*
X162501Y276595D01*
X162501Y272405D01*
X160261Y270166D01*
X160204Y270089D01*
X160139Y270018D01*
X160119Y269977D01*
X160092Y269941D01*
X160058Y269851D01*
X160016Y269764D01*
X160010Y269722D01*
X159993Y269677D01*
X159983Y269549D01*
X159969Y269460D01*
X159969Y251016D01*
X159982Y250921D01*
X159987Y250825D01*
X160002Y250781D01*
X160009Y250736D01*
X160048Y250649D01*
X160080Y250558D01*
X160105Y250524D01*
X160125Y250480D01*
X160208Y250382D01*
X160261Y250309D01*
X189221Y221349D01*
X189298Y221292D01*
X189369Y221227D01*
X189410Y221207D01*
X189447Y221180D01*
X189537Y221146D01*
X189623Y221104D01*
X189665Y221098D01*
X189711Y221081D01*
X189838Y221071D01*
X189928Y221057D01*
X193095Y221057D01*
X194109Y220042D01*
X194135Y220022D01*
X194156Y219998D01*
X194248Y219938D01*
X194335Y219873D01*
X194365Y219861D01*
X194392Y219844D01*
X194497Y219812D01*
X194599Y219773D01*
X194631Y219771D01*
X194662Y219761D01*
X194771Y219760D01*
X194880Y219751D01*
X194912Y219758D01*
X194944Y219757D01*
X195049Y219787D01*
X195156Y219809D01*
X195185Y219824D01*
X195216Y219833D01*
X195309Y219890D01*
X195405Y219941D01*
X195428Y219964D01*
X195456Y219981D01*
X195529Y220062D01*
X195607Y220138D01*
X195623Y220166D01*
X195645Y220190D01*
X195692Y220288D01*
X195746Y220383D01*
X195754Y220415D01*
X195768Y220444D01*
X195782Y220533D01*
X195811Y220658D01*
X195809Y220706D01*
X195815Y220748D01*
X195815Y596883D01*
X195802Y596978D01*
X195797Y597075D01*
X195782Y597118D01*
X195775Y597163D01*
X195736Y597250D01*
X195704Y597341D01*
X195679Y597375D01*
X195659Y597420D01*
X195576Y597517D01*
X195523Y597590D01*
X141969Y651144D01*
X140975Y653542D01*
X140975Y663040D01*
X140962Y663135D01*
X140957Y663231D01*
X140942Y663275D01*
X140935Y663320D01*
X140896Y663407D01*
X140864Y663498D01*
X140839Y663532D01*
X140819Y663576D01*
X140736Y663674D01*
X140683Y663747D01*
X123255Y681175D01*
X123229Y681194D01*
X123208Y681219D01*
X123116Y681279D01*
X123029Y681344D01*
X122999Y681356D01*
X122972Y681373D01*
X122867Y681405D01*
X122765Y681444D01*
X122733Y681446D01*
X122702Y681456D01*
X122593Y681457D01*
X122484Y681466D01*
X122452Y681459D01*
X122420Y681459D01*
X122315Y681430D01*
X122208Y681408D01*
X122179Y681393D01*
X122148Y681384D01*
X122055Y681327D01*
X121959Y681275D01*
X121936Y681253D01*
X121908Y681236D01*
X121835Y681155D01*
X121757Y681079D01*
X121741Y681051D01*
X121719Y681027D01*
X121672Y680928D01*
X121618Y680833D01*
X121610Y680802D01*
X121596Y680773D01*
X121582Y680684D01*
X121553Y680559D01*
X121555Y680510D01*
X121549Y680468D01*
X121549Y161593D01*
X121562Y161498D01*
X121567Y161401D01*
X121582Y161358D01*
X121589Y161313D01*
X121628Y161226D01*
X121660Y161135D01*
X121685Y161101D01*
X121705Y161056D01*
X121788Y160959D01*
X121841Y160886D01*
X143031Y139696D01*
X144025Y137298D01*
X144025Y134702D01*
X143031Y132304D01*
X141196Y130469D01*
X138798Y129475D01*
X136202Y129475D01*
X133804Y130469D01*
X111731Y152542D01*
X111705Y152561D01*
X111684Y152586D01*
X111592Y152646D01*
X111505Y152711D01*
X111475Y152723D01*
X111448Y152740D01*
X111343Y152772D01*
X111241Y152811D01*
X111209Y152813D01*
X111178Y152823D01*
X111069Y152824D01*
X110960Y152833D01*
X110928Y152826D01*
X110896Y152827D01*
X110791Y152797D01*
X110684Y152775D01*
X110655Y152760D01*
X110624Y152751D01*
X110531Y152694D01*
X110435Y152643D01*
X110412Y152620D01*
X110384Y152603D01*
X110311Y152522D01*
X110233Y152446D01*
X110217Y152418D01*
X110195Y152394D01*
X110148Y152296D01*
X110094Y152200D01*
X110086Y152169D01*
X110072Y152140D01*
X110058Y152051D01*
X110029Y151926D01*
X110031Y151878D01*
X110025Y151836D01*
X110025Y115040D01*
X110038Y114946D01*
X110043Y114849D01*
X110058Y114806D01*
X110065Y114761D01*
X110104Y114674D01*
X110136Y114583D01*
X110161Y114548D01*
X110181Y114504D01*
X110264Y114407D01*
X110317Y114334D01*
X112557Y112095D01*
X112557Y107905D01*
X109595Y104943D01*
X105405Y104943D01*
X102443Y107905D01*
X102443Y112095D01*
X104683Y114334D01*
X104740Y114411D01*
X104805Y114482D01*
X104825Y114523D01*
X104852Y114559D01*
X104886Y114650D01*
X104928Y114736D01*
X104934Y114778D01*
X104951Y114823D01*
X104961Y114951D01*
X104975Y115040D01*
X104975Y451492D01*
X104971Y451524D01*
X104973Y451556D01*
X104951Y451663D01*
X104935Y451772D01*
X104922Y451801D01*
X104916Y451833D01*
X104864Y451929D01*
X104819Y452029D01*
X104798Y452053D01*
X104783Y452081D01*
X104707Y452160D01*
X104636Y452243D01*
X104609Y452260D01*
X104586Y452284D01*
X104491Y452337D01*
X104400Y452397D01*
X104369Y452407D01*
X104341Y452423D01*
X104234Y452448D01*
X104130Y452480D01*
X104098Y452480D01*
X104067Y452488D01*
X103957Y452482D01*
X103848Y452483D01*
X103817Y452475D01*
X103785Y452473D01*
X103682Y452437D01*
X103576Y452408D01*
X103549Y452391D01*
X103518Y452381D01*
X103445Y452327D01*
X103336Y452260D01*
X103304Y452224D01*
X103269Y452199D01*
X51317Y400247D01*
X49546Y398475D01*
X43540Y398475D01*
X43446Y398462D01*
X43349Y398457D01*
X43306Y398442D01*
X43261Y398435D01*
X43174Y398396D01*
X43083Y398364D01*
X43048Y398339D01*
X43004Y398319D01*
X42907Y398236D01*
X42834Y398183D01*
X40595Y395943D01*
X36405Y395943D01*
X33443Y398905D01*
X33443Y403095D01*
X36405Y406057D01*
X40595Y406057D01*
X42834Y403817D01*
X42911Y403760D01*
X42982Y403695D01*
X43023Y403675D01*
X43059Y403648D01*
X43150Y403614D01*
X43236Y403572D01*
X43278Y403566D01*
X43323Y403549D01*
X43451Y403539D01*
X43540Y403525D01*
X47040Y403525D01*
X47135Y403538D01*
X47231Y403543D01*
X47275Y403558D01*
X47320Y403565D01*
X47407Y403604D01*
X47498Y403636D01*
X47532Y403661D01*
X47576Y403681D01*
X47674Y403764D01*
X47747Y403817D01*
X57167Y413237D01*
X57186Y413263D01*
X57211Y413284D01*
X57271Y413376D01*
X57336Y413463D01*
X57348Y413493D01*
X57365Y413520D01*
X57397Y413625D01*
X57436Y413727D01*
X57438Y413759D01*
X57448Y413790D01*
X57449Y413899D01*
X57458Y414008D01*
X57451Y414040D01*
X57451Y414072D01*
X57422Y414177D01*
X57400Y414284D01*
X57385Y414313D01*
X57376Y414344D01*
X57319Y414437D01*
X57267Y414533D01*
X57245Y414556D01*
X57228Y414584D01*
X57147Y414657D01*
X57071Y414735D01*
X57043Y414751D01*
X57019Y414773D01*
X56920Y414820D01*
X56825Y414874D01*
X56794Y414882D01*
X56765Y414896D01*
X56676Y414910D01*
X56551Y414939D01*
X56502Y414937D01*
X56460Y414943D01*
X54777Y414943D01*
X52893Y416828D01*
X52841Y416867D01*
X52796Y416913D01*
X52729Y416951D01*
X52667Y416997D01*
X52607Y417020D01*
X52551Y417052D01*
X52476Y417070D01*
X52403Y417097D01*
X52339Y417102D01*
X52277Y417117D01*
X52199Y417113D01*
X52122Y417119D01*
X52059Y417106D01*
X51995Y417102D01*
X51922Y417077D01*
X51846Y417061D01*
X51789Y417031D01*
X51728Y417010D01*
X51672Y416968D01*
X51597Y416929D01*
X51536Y416869D01*
X51479Y416828D01*
X49595Y414943D01*
X45405Y414943D01*
X42443Y417905D01*
X42443Y422095D01*
X45405Y425057D01*
X48572Y425057D01*
X48667Y425070D01*
X48763Y425075D01*
X48807Y425090D01*
X48852Y425097D01*
X48939Y425136D01*
X49030Y425168D01*
X49064Y425193D01*
X49108Y425213D01*
X49206Y425296D01*
X49279Y425349D01*
X52954Y429025D01*
X62540Y429025D01*
X62635Y429038D01*
X62731Y429043D01*
X62775Y429058D01*
X62820Y429065D01*
X62907Y429104D01*
X62998Y429136D01*
X63032Y429161D01*
X63076Y429181D01*
X63174Y429264D01*
X63247Y429317D01*
X94111Y460181D01*
X94168Y460258D01*
X94233Y460329D01*
X94253Y460370D01*
X94280Y460407D01*
X94314Y460497D01*
X94356Y460583D01*
X94362Y460625D01*
X94379Y460671D01*
X94389Y460798D01*
X94403Y460888D01*
X94403Y546476D01*
X94394Y546540D01*
X94395Y546604D01*
X94374Y546679D01*
X94363Y546755D01*
X94337Y546814D01*
X94320Y546876D01*
X94279Y546942D01*
X94247Y547012D01*
X94205Y547061D01*
X94172Y547116D01*
X94114Y547168D01*
X94064Y547226D01*
X94010Y547262D01*
X93962Y547305D01*
X93893Y547338D01*
X93828Y547381D01*
X93766Y547400D01*
X93709Y547428D01*
X93639Y547439D01*
X93558Y547463D01*
X93473Y547464D01*
X93404Y547475D01*
X76454Y547475D01*
X74975Y548954D01*
X74975Y560836D01*
X74971Y560867D01*
X74973Y560900D01*
X74951Y561007D01*
X74935Y561115D01*
X74922Y561144D01*
X74916Y561176D01*
X74864Y561272D01*
X74819Y561372D01*
X74798Y561396D01*
X74783Y561425D01*
X74707Y561503D01*
X74636Y561586D01*
X74609Y561604D01*
X74586Y561627D01*
X74491Y561680D01*
X74400Y561740D01*
X74369Y561750D01*
X74341Y561766D01*
X74234Y561791D01*
X74130Y561823D01*
X74098Y561823D01*
X74067Y561831D01*
X73957Y561825D01*
X73848Y561827D01*
X73817Y561818D01*
X73785Y561816D01*
X73682Y561780D01*
X73576Y561751D01*
X73549Y561734D01*
X73518Y561724D01*
X73445Y561671D01*
X73336Y561603D01*
X73304Y561567D01*
X73269Y561542D01*
X40317Y528590D01*
X40260Y528513D01*
X40195Y528442D01*
X40175Y528401D01*
X40148Y528364D01*
X40114Y528274D01*
X40072Y528188D01*
X40066Y528146D01*
X40049Y528101D01*
X40039Y527973D01*
X40025Y527883D01*
X40025Y518954D01*
X39317Y518247D01*
X39260Y518170D01*
X39195Y518099D01*
X39175Y518058D01*
X39148Y518021D01*
X39114Y517931D01*
X39072Y517845D01*
X39066Y517803D01*
X39049Y517757D01*
X39039Y517630D01*
X39025Y517540D01*
X39025Y468117D01*
X39038Y468022D01*
X39043Y467925D01*
X39058Y467882D01*
X39065Y467837D01*
X39104Y467750D01*
X39136Y467659D01*
X39161Y467625D01*
X39181Y467580D01*
X39262Y467486D01*
X39285Y467448D01*
X39298Y467436D01*
X39317Y467410D01*
X43910Y462817D01*
X43987Y462760D01*
X44058Y462695D01*
X44099Y462675D01*
X44136Y462648D01*
X44226Y462614D01*
X44312Y462572D01*
X44354Y462566D01*
X44399Y462549D01*
X44527Y462539D01*
X44617Y462525D01*
X58546Y462525D01*
X60025Y461046D01*
X60025Y438954D01*
X58546Y437475D01*
X36454Y437475D01*
X34975Y438954D01*
X34975Y452883D01*
X34962Y452978D01*
X34957Y453075D01*
X34942Y453118D01*
X34935Y453163D01*
X34896Y453250D01*
X34864Y453341D01*
X34839Y453375D01*
X34819Y453420D01*
X34736Y453517D01*
X34683Y453590D01*
X26969Y461304D01*
X25975Y463702D01*
X25975Y483968D01*
X25971Y484000D01*
X25973Y484032D01*
X25951Y484139D01*
X25935Y484247D01*
X25922Y484276D01*
X25915Y484308D01*
X25864Y484405D01*
X25819Y484504D01*
X25798Y484528D01*
X25783Y484557D01*
X25707Y484635D01*
X25636Y484718D01*
X25609Y484736D01*
X25586Y484759D01*
X25491Y484813D01*
X25400Y484872D01*
X25369Y484882D01*
X25340Y484898D01*
X25234Y484923D01*
X25130Y484955D01*
X25098Y484955D01*
X25066Y484963D01*
X24957Y484957D01*
X24848Y484959D01*
X24817Y484950D01*
X24784Y484948D01*
X24770Y484943D01*
X20349Y484943D01*
X17387Y487905D01*
X17387Y492095D01*
X19683Y494390D01*
X19693Y494404D01*
X19698Y494408D01*
X19709Y494425D01*
X19740Y494467D01*
X19805Y494538D01*
X19825Y494579D01*
X19852Y494615D01*
X19886Y494706D01*
X19928Y494792D01*
X19934Y494834D01*
X19951Y494879D01*
X19961Y495007D01*
X19975Y495096D01*
X19975Y534904D01*
X19962Y534998D01*
X19957Y535095D01*
X19942Y535138D01*
X19935Y535183D01*
X19896Y535270D01*
X19864Y535361D01*
X19839Y535396D01*
X19819Y535440D01*
X19736Y535537D01*
X19683Y535610D01*
X17387Y537905D01*
X17387Y542095D01*
X20349Y545057D01*
X24539Y545057D01*
X26778Y542817D01*
X26855Y542760D01*
X26926Y542695D01*
X26967Y542675D01*
X27003Y542648D01*
X27094Y542614D01*
X27180Y542572D01*
X27222Y542566D01*
X27267Y542549D01*
X27395Y542539D01*
X27484Y542525D01*
X35383Y542525D01*
X35478Y542538D01*
X35575Y542543D01*
X35618Y542558D01*
X35663Y542565D01*
X35750Y542604D01*
X35841Y542636D01*
X35875Y542661D01*
X35920Y542681D01*
X36017Y542764D01*
X36090Y542817D01*
X83804Y590531D01*
X84742Y590920D01*
X84778Y590941D01*
X84817Y590955D01*
X84886Y591005D01*
X84984Y591063D01*
X85025Y591106D01*
X85066Y591136D01*
X86454Y592525D01*
X93404Y592525D01*
X93468Y592534D01*
X93532Y592533D01*
X93607Y592554D01*
X93683Y592565D01*
X93742Y592591D01*
X93804Y592608D01*
X93870Y592649D01*
X93940Y592681D01*
X93989Y592723D01*
X94044Y592756D01*
X94096Y592814D01*
X94154Y592864D01*
X94190Y592918D01*
X94233Y592966D01*
X94266Y593035D01*
X94309Y593100D01*
X94328Y593162D01*
X94356Y593219D01*
X94367Y593289D01*
X94391Y593370D01*
X94392Y593455D01*
X94403Y593524D01*
X94403Y603068D01*
X94390Y603163D01*
X94385Y603259D01*
X94370Y603303D01*
X94363Y603348D01*
X94324Y603435D01*
X94292Y603526D01*
X94267Y603560D01*
X94247Y603604D01*
X94164Y603702D01*
X94111Y603775D01*
X60435Y637451D01*
X60358Y637508D01*
X60287Y637573D01*
X60246Y637593D01*
X60209Y637620D01*
X60119Y637654D01*
X60033Y637696D01*
X59991Y637702D01*
X59945Y637719D01*
X59818Y637729D01*
X59728Y637743D01*
X56561Y637743D01*
X53599Y640705D01*
X53599Y644895D01*
X56561Y647857D01*
X60751Y647857D01*
X63713Y644895D01*
X63713Y641728D01*
X63726Y641633D01*
X63731Y641537D01*
X63746Y641493D01*
X63753Y641448D01*
X63792Y641361D01*
X63824Y641270D01*
X63849Y641236D01*
X63869Y641192D01*
X63952Y641094D01*
X64005Y641021D01*
X96221Y608805D01*
X96247Y608786D01*
X96268Y608761D01*
X96360Y608701D01*
X96447Y608636D01*
X96477Y608624D01*
X96504Y608607D01*
X96609Y608575D01*
X96711Y608536D01*
X96743Y608534D01*
X96774Y608524D01*
X96883Y608523D01*
X96992Y608514D01*
X97024Y608521D01*
X97056Y608521D01*
X97161Y608550D01*
X97268Y608572D01*
X97297Y608587D01*
X97328Y608596D01*
X97421Y608653D01*
X97517Y608705D01*
X97540Y608727D01*
X97568Y608744D01*
X97641Y608825D01*
X97719Y608901D01*
X97735Y608929D01*
X97757Y608953D01*
X97804Y609052D01*
X97858Y609147D01*
X97866Y609178D01*
X97880Y609207D01*
X97894Y609296D01*
X97923Y609421D01*
X97921Y609470D01*
X97927Y609512D01*
X97927Y617040D01*
X97919Y617098D01*
X97919Y617104D01*
X97917Y617111D01*
X97914Y617135D01*
X97909Y617231D01*
X97894Y617274D01*
X97887Y617319D01*
X97848Y617407D01*
X97816Y617498D01*
X97791Y617532D01*
X97771Y617576D01*
X97688Y617674D01*
X97635Y617747D01*
X88199Y627183D01*
X88122Y627240D01*
X88050Y627305D01*
X88009Y627325D01*
X87973Y627352D01*
X87883Y627386D01*
X87797Y627428D01*
X87755Y627434D01*
X87709Y627451D01*
X87582Y627461D01*
X87492Y627475D01*
X87454Y627475D01*
X85975Y628954D01*
X85975Y628992D01*
X85966Y629054D01*
X85967Y629095D01*
X85960Y629121D01*
X85957Y629183D01*
X85942Y629226D01*
X85935Y629271D01*
X85896Y629359D01*
X85864Y629450D01*
X85839Y629484D01*
X85819Y629528D01*
X85736Y629626D01*
X85683Y629699D01*
X77731Y637651D01*
X77654Y637708D01*
X77582Y637773D01*
X77541Y637793D01*
X77505Y637820D01*
X77415Y637854D01*
X77329Y637896D01*
X77287Y637902D01*
X77241Y637919D01*
X77114Y637929D01*
X77024Y637943D01*
X75405Y637943D01*
X72443Y640905D01*
X72443Y645095D01*
X73118Y645769D01*
X73138Y645795D01*
X73162Y645816D01*
X73222Y645908D01*
X73287Y645995D01*
X73299Y646025D01*
X73316Y646052D01*
X73348Y646157D01*
X73387Y646259D01*
X73389Y646291D01*
X73399Y646322D01*
X73400Y646431D01*
X73409Y646540D01*
X73402Y646572D01*
X73403Y646604D01*
X73373Y646709D01*
X73351Y646816D01*
X73336Y646845D01*
X73327Y646876D01*
X73270Y646969D01*
X73219Y647065D01*
X73196Y647088D01*
X73179Y647116D01*
X73098Y647189D01*
X73022Y647267D01*
X72994Y647283D01*
X72970Y647305D01*
X72872Y647352D01*
X72777Y647406D01*
X72745Y647414D01*
X72716Y647428D01*
X72627Y647442D01*
X72502Y647471D01*
X72454Y647469D01*
X72412Y647475D01*
X71454Y647475D01*
X61179Y657751D01*
X61102Y657808D01*
X61031Y657873D01*
X60990Y657893D01*
X60953Y657920D01*
X60863Y657954D01*
X60777Y657996D01*
X60735Y658002D01*
X60689Y658019D01*
X60562Y658029D01*
X60472Y658043D01*
X60235Y658043D01*
X57273Y661005D01*
X57273Y665195D01*
X60235Y668157D01*
X64425Y668157D01*
X67387Y665195D01*
X67387Y661005D01*
X66932Y660551D01*
X66894Y660500D01*
X66848Y660455D01*
X66810Y660388D01*
X66763Y660326D01*
X66741Y660266D01*
X66709Y660210D01*
X66691Y660134D01*
X66664Y660062D01*
X66659Y659998D01*
X66644Y659935D01*
X66648Y659858D01*
X66642Y659781D01*
X66655Y659718D01*
X66658Y659653D01*
X66684Y659580D01*
X66699Y659504D01*
X66730Y659448D01*
X66751Y659387D01*
X66792Y659330D01*
X66832Y659255D01*
X66891Y659195D01*
X66932Y659138D01*
X73253Y652817D01*
X73330Y652760D01*
X73401Y652695D01*
X73442Y652675D01*
X73479Y652648D01*
X73569Y652614D01*
X73655Y652572D01*
X73697Y652566D01*
X73743Y652549D01*
X73870Y652539D01*
X73960Y652525D01*
X83546Y652525D01*
X84269Y651801D01*
X84295Y651782D01*
X84316Y651757D01*
X84408Y651697D01*
X84495Y651632D01*
X84525Y651620D01*
X84552Y651603D01*
X84657Y651571D01*
X84759Y651532D01*
X84791Y651530D01*
X84822Y651520D01*
X84931Y651519D01*
X85040Y651510D01*
X85072Y651517D01*
X85104Y651517D01*
X85209Y651546D01*
X85316Y651568D01*
X85345Y651583D01*
X85376Y651592D01*
X85469Y651649D01*
X85565Y651701D01*
X85588Y651723D01*
X85616Y651740D01*
X85689Y651821D01*
X85767Y651897D01*
X85783Y651925D01*
X85805Y651949D01*
X85852Y652047D01*
X85906Y652143D01*
X85914Y652174D01*
X85928Y652203D01*
X85942Y652292D01*
X85971Y652417D01*
X85969Y652465D01*
X85975Y652508D01*
X85975Y697046D01*
X87454Y698525D01*
X93976Y698525D01*
X94040Y698534D01*
X94104Y698533D01*
X94179Y698554D01*
X94255Y698565D01*
X94314Y698591D01*
X94376Y698608D01*
X94442Y698649D01*
X94512Y698681D01*
X94561Y698723D01*
X94616Y698756D01*
X94668Y698814D01*
X94726Y698864D01*
X94762Y698918D01*
X94805Y698966D01*
X94838Y699035D01*
X94881Y699100D01*
X94900Y699162D01*
X94928Y699219D01*
X94939Y699289D01*
X94963Y699370D01*
X94964Y699455D01*
X94975Y699524D01*
X94975Y703957D01*
X94967Y704016D01*
X94967Y704039D01*
X94961Y704060D01*
X94957Y704148D01*
X94942Y704191D01*
X94935Y704236D01*
X94896Y704323D01*
X94864Y704414D01*
X94839Y704449D01*
X94819Y704493D01*
X94736Y704590D01*
X94683Y704663D01*
X89293Y710053D01*
X89284Y710078D01*
X89259Y710112D01*
X89239Y710156D01*
X89156Y710254D01*
X89103Y710327D01*
X83009Y716420D01*
X83001Y716426D01*
X82995Y716434D01*
X82888Y716511D01*
X82783Y716590D01*
X82774Y716593D01*
X82767Y716599D01*
X82643Y716643D01*
X82520Y716689D01*
X82510Y716690D01*
X82501Y716693D01*
X82369Y716701D01*
X82238Y716711D01*
X82229Y716709D01*
X82219Y716710D01*
X82152Y716693D01*
X79944Y716693D01*
X77994Y717501D01*
X76501Y718994D01*
X75693Y720944D01*
X75693Y723056D01*
X76501Y725006D01*
X77994Y726499D01*
X79944Y727307D01*
X82056Y727307D01*
X84006Y726499D01*
X85499Y725006D01*
X86307Y723056D01*
X86307Y720861D01*
X86293Y720807D01*
X86293Y720797D01*
X86291Y720788D01*
X86298Y720656D01*
X86302Y720525D01*
X86305Y720516D01*
X86305Y720506D01*
X86349Y720382D01*
X86389Y720257D01*
X86395Y720249D01*
X86398Y720240D01*
X86443Y720178D01*
X86548Y720024D01*
X86567Y720009D01*
X86579Y719991D01*
X91213Y715357D01*
X91239Y715338D01*
X91260Y715313D01*
X91352Y715253D01*
X91439Y715188D01*
X91469Y715176D01*
X91496Y715159D01*
X91601Y715127D01*
X91703Y715088D01*
X91735Y715086D01*
X91766Y715076D01*
X91875Y715075D01*
X91984Y715066D01*
X92016Y715073D01*
X92048Y715073D01*
X92153Y715102D01*
X92260Y715124D01*
X92289Y715139D01*
X92320Y715148D01*
X92413Y715205D01*
X92509Y715257D01*
X92532Y715279D01*
X92560Y715296D01*
X92633Y715377D01*
X92711Y715453D01*
X92727Y715481D01*
X92749Y715505D01*
X92796Y715604D01*
X92850Y715699D01*
X92858Y715730D01*
X92872Y715759D01*
X92886Y715848D01*
X92915Y715973D01*
X92913Y716022D01*
X92919Y716064D01*
X92919Y726554D01*
X104683Y738318D01*
X104740Y738394D01*
X104805Y738466D01*
X104825Y738507D01*
X104852Y738543D01*
X104886Y738633D01*
X104928Y738720D01*
X104934Y738762D01*
X104951Y738807D01*
X104961Y738935D01*
X104975Y739024D01*
X104975Y739112D01*
X104974Y739121D01*
X104975Y739131D01*
X104954Y739261D01*
X104935Y739391D01*
X104932Y739400D01*
X104930Y739409D01*
X104873Y739529D01*
X104819Y739648D01*
X104813Y739655D01*
X104809Y739664D01*
X104721Y739763D01*
X104636Y739862D01*
X104628Y739868D01*
X104622Y739875D01*
X104556Y739915D01*
X104400Y740017D01*
X104377Y740024D01*
X104358Y740035D01*
X101028Y741415D01*
X97815Y744628D01*
X96075Y748827D01*
X96075Y753373D01*
X97815Y757572D01*
X101028Y760785D01*
X105227Y762525D01*
X109773Y762525D01*
X113972Y760785D01*
X117185Y757572D01*
X118925Y753373D01*
X118925Y748827D01*
X117185Y744628D01*
X113972Y741415D01*
X110642Y740035D01*
X110633Y740030D01*
X110624Y740028D01*
X110512Y739959D01*
X110399Y739892D01*
X110392Y739885D01*
X110384Y739880D01*
X110296Y739782D01*
X110206Y739686D01*
X110202Y739677D01*
X110195Y739670D01*
X110138Y739552D01*
X110078Y739434D01*
X110076Y739425D01*
X110072Y739417D01*
X110060Y739341D01*
X110026Y739157D01*
X110028Y739133D01*
X110025Y739112D01*
X110025Y736519D01*
X98261Y724755D01*
X98204Y724679D01*
X98139Y724607D01*
X98119Y724566D01*
X98092Y724530D01*
X98058Y724440D01*
X98016Y724353D01*
X98010Y724311D01*
X97993Y724266D01*
X97983Y724138D01*
X97969Y724049D01*
X97969Y713916D01*
X97982Y713821D01*
X97987Y713725D01*
X98002Y713681D01*
X98009Y713636D01*
X98048Y713549D01*
X98080Y713458D01*
X98105Y713424D01*
X98125Y713380D01*
X98183Y713311D01*
X98213Y713264D01*
X98239Y713240D01*
X98261Y713209D01*
X107398Y704072D01*
X107493Y704001D01*
X107585Y703925D01*
X107606Y703916D01*
X107624Y703903D01*
X107735Y703861D01*
X107844Y703814D01*
X107867Y703811D01*
X107888Y703803D01*
X108006Y703794D01*
X108124Y703780D01*
X108146Y703783D01*
X108169Y703781D01*
X108285Y703806D01*
X108402Y703825D01*
X108423Y703834D01*
X108445Y703839D01*
X108550Y703895D01*
X108657Y703946D01*
X108674Y703961D01*
X108694Y703972D01*
X108779Y704054D01*
X108868Y704133D01*
X108879Y704152D01*
X108896Y704168D01*
X108988Y704330D01*
X109028Y704396D01*
X109493Y705517D01*
X129107Y725131D01*
X129164Y725208D01*
X129229Y725280D01*
X129249Y725321D01*
X129276Y725357D01*
X129310Y725447D01*
X129352Y725533D01*
X129358Y725575D01*
X129375Y725621D01*
X129384Y725729D01*
X129387Y725740D01*
X129388Y725763D01*
X129399Y725838D01*
X129399Y813459D01*
X129386Y813554D01*
X129381Y813651D01*
X129366Y813694D01*
X129359Y813739D01*
X129320Y813826D01*
X129288Y813917D01*
X129263Y813951D01*
X129243Y813996D01*
X129160Y814093D01*
X129107Y814166D01*
X66969Y876304D01*
X65975Y878702D01*
X65975Y883798D01*
X66969Y886196D01*
X68804Y888031D01*
X71202Y889025D01*
X73798Y889025D01*
X76196Y888031D01*
X78031Y886196D01*
X79025Y883798D01*
X79025Y883117D01*
X79038Y883022D01*
X79043Y882925D01*
X79058Y882882D01*
X79065Y882837D01*
X79104Y882750D01*
X79136Y882659D01*
X79161Y882625D01*
X79181Y882580D01*
X79264Y882483D01*
X79317Y882410D01*
X139269Y822458D01*
X139295Y822439D01*
X139316Y822414D01*
X139408Y822354D01*
X139495Y822289D01*
X139525Y822277D01*
X139552Y822260D01*
X139657Y822228D01*
X139759Y822189D01*
X139791Y822187D01*
X139822Y822177D01*
X139931Y822176D01*
X140040Y822167D01*
X140072Y822174D01*
X140104Y822173D01*
X140209Y822203D01*
X140316Y822225D01*
X140345Y822240D01*
X140376Y822249D01*
X140469Y822306D01*
X140565Y822357D01*
X140588Y822380D01*
X140616Y822397D01*
X140689Y822478D01*
X140767Y822554D01*
X140783Y822582D01*
X140805Y822606D01*
X140852Y822704D01*
X140906Y822800D01*
X140914Y822831D01*
X140928Y822860D01*
X140942Y822949D01*
X140971Y823074D01*
X140969Y823122D01*
X140975Y823164D01*
X140975Y906476D01*
X140966Y906540D01*
X140967Y906604D01*
X140946Y906679D01*
X140935Y906755D01*
X140909Y906814D01*
X140892Y906876D01*
X140851Y906942D01*
X140819Y907012D01*
X140777Y907061D01*
X140744Y907116D01*
X140686Y907168D01*
X140636Y907226D01*
X140582Y907262D01*
X140534Y907305D01*
X140465Y907338D01*
X140400Y907381D01*
X140338Y907400D01*
X140281Y907428D01*
X140211Y907439D01*
X140130Y907463D01*
X140045Y907464D01*
X139976Y907475D01*
X117564Y907475D01*
X117500Y907466D01*
X117436Y907467D01*
X117361Y907446D01*
X117285Y907435D01*
X117226Y907409D01*
X117164Y907392D01*
X117098Y907351D01*
X117028Y907319D01*
X116979Y907277D01*
X116924Y907244D01*
X116872Y907186D01*
X116814Y907136D01*
X116778Y907082D01*
X116735Y907034D01*
X116702Y906965D01*
X116659Y906900D01*
X116640Y906838D01*
X116612Y906781D01*
X116601Y906711D01*
X116577Y906630D01*
X116576Y906545D01*
X116565Y906476D01*
X116565Y903197D01*
X115185Y899865D01*
X112635Y897315D01*
X109303Y895935D01*
X105697Y895935D01*
X102365Y897315D01*
X99815Y899865D01*
X98435Y903197D01*
X98435Y906803D01*
X99815Y910135D01*
X101098Y911418D01*
X101137Y911469D01*
X101183Y911514D01*
X101221Y911582D01*
X101268Y911643D01*
X101290Y911704D01*
X101322Y911760D01*
X101340Y911835D01*
X101367Y911907D01*
X101372Y911971D01*
X101387Y912034D01*
X101383Y912111D01*
X101389Y912189D01*
X101376Y912251D01*
X101373Y912316D01*
X101347Y912389D01*
X101331Y912465D01*
X101301Y912521D01*
X101280Y912582D01*
X101239Y912639D01*
X101199Y912714D01*
X101140Y912774D01*
X101098Y912831D01*
X94975Y918954D01*
X94975Y931911D01*
X94962Y932006D01*
X94957Y932102D01*
X94942Y932145D01*
X94935Y932190D01*
X94896Y932278D01*
X94864Y932369D01*
X94839Y932403D01*
X94819Y932447D01*
X94736Y932545D01*
X94683Y932618D01*
X94126Y933175D01*
X92475Y937159D01*
X92475Y972841D01*
X92637Y973232D01*
X92648Y973272D01*
X92666Y973310D01*
X92679Y973395D01*
X92707Y973505D01*
X92705Y973564D01*
X92713Y973614D01*
X92713Y977570D01*
X92704Y977634D01*
X92705Y977698D01*
X92684Y977773D01*
X92673Y977849D01*
X92647Y977908D01*
X92630Y977970D01*
X92589Y978036D01*
X92557Y978106D01*
X92515Y978155D01*
X92482Y978210D01*
X92424Y978262D01*
X92374Y978320D01*
X92320Y978356D01*
X92272Y978399D01*
X92203Y978432D01*
X92138Y978475D01*
X92076Y978494D01*
X92019Y978522D01*
X91949Y978533D01*
X91868Y978557D01*
X91783Y978558D01*
X91714Y978569D01*
X85844Y978569D01*
X85750Y978556D01*
X85655Y978551D01*
X85611Y978536D01*
X85565Y978529D01*
X85479Y978490D01*
X85389Y978459D01*
X85351Y978432D01*
X85308Y978413D01*
X85236Y978351D01*
X85158Y978297D01*
X85129Y978260D01*
X85094Y978230D01*
X85042Y978150D01*
X84983Y978076D01*
X84965Y978033D01*
X84940Y977994D01*
X84912Y977903D01*
X84876Y977815D01*
X84871Y977769D01*
X84857Y977724D01*
X84856Y977629D01*
X84846Y977535D01*
X84854Y977489D01*
X84853Y977442D01*
X84879Y977351D01*
X84895Y977257D01*
X84915Y977218D01*
X84929Y977170D01*
X84995Y977063D01*
X85036Y976983D01*
X85290Y976633D01*
X86101Y975041D01*
X86653Y973342D01*
X86933Y971578D01*
X86933Y956999D01*
X72400Y956999D01*
X72336Y956990D01*
X72272Y956991D01*
X72198Y956970D01*
X72121Y956959D01*
X72062Y956933D01*
X72000Y956916D01*
X71934Y956875D01*
X71864Y956843D01*
X71815Y956801D01*
X71760Y956768D01*
X71709Y956710D01*
X71650Y956660D01*
X71614Y956606D01*
X71571Y956558D01*
X71538Y956489D01*
X71495Y956424D01*
X71476Y956362D01*
X71448Y956305D01*
X71438Y956235D01*
X71413Y956154D01*
X71412Y956069D01*
X71401Y956000D01*
X71401Y954999D01*
X70400Y954999D01*
X70336Y954990D01*
X70272Y954991D01*
X70197Y954970D01*
X70121Y954959D01*
X70062Y954933D01*
X70000Y954916D01*
X69934Y954875D01*
X69864Y954843D01*
X69815Y954801D01*
X69760Y954768D01*
X69708Y954710D01*
X69650Y954660D01*
X69614Y954606D01*
X69571Y954558D01*
X69538Y954489D01*
X69495Y954424D01*
X69476Y954362D01*
X69448Y954304D01*
X69438Y954235D01*
X69413Y954154D01*
X69412Y954069D01*
X69401Y954000D01*
X69401Y927967D01*
X66322Y927967D01*
X64558Y928247D01*
X62855Y928800D01*
X62854Y928801D01*
X62835Y928806D01*
X62784Y928823D01*
X62777Y928824D01*
X62735Y928837D01*
X62617Y928877D01*
X62600Y928878D01*
X62584Y928883D01*
X62460Y928885D01*
X62335Y928891D01*
X62319Y928887D01*
X62302Y928887D01*
X62182Y928854D01*
X62061Y928824D01*
X62047Y928816D01*
X62030Y928812D01*
X61924Y928746D01*
X61816Y928684D01*
X61805Y928672D01*
X61790Y928663D01*
X61707Y928571D01*
X61620Y928482D01*
X61613Y928467D01*
X61601Y928454D01*
X61547Y928342D01*
X61489Y928232D01*
X61486Y928216D01*
X61478Y928200D01*
X61465Y928112D01*
X61433Y927956D01*
X61435Y927924D01*
X61431Y927896D01*
X61431Y800685D01*
X61439Y800627D01*
X61437Y800576D01*
X61611Y798997D01*
X61470Y798511D01*
X61432Y798238D01*
X61431Y798232D01*
X61431Y797726D01*
X60823Y796259D01*
X60808Y796201D01*
X60786Y796155D01*
X60344Y794629D01*
X60027Y794235D01*
X59887Y793997D01*
X59884Y793992D01*
X59691Y793525D01*
X58567Y792402D01*
X58532Y792355D01*
X58494Y792320D01*
X57501Y791080D01*
X57058Y790836D01*
X56837Y790671D01*
X56833Y790667D01*
X56475Y790309D01*
X55007Y789702D01*
X54957Y789672D01*
X54908Y789654D01*
X28420Y775086D01*
X28395Y775066D01*
X28366Y775053D01*
X28282Y774982D01*
X28195Y774916D01*
X28176Y774891D01*
X28151Y774870D01*
X28091Y774778D01*
X28026Y774690D01*
X28014Y774661D01*
X27997Y774634D01*
X27965Y774529D01*
X27926Y774426D01*
X27924Y774395D01*
X27914Y774364D01*
X27913Y774255D01*
X27905Y774145D01*
X27911Y774114D01*
X27911Y774082D01*
X27940Y773977D01*
X27962Y773869D01*
X27977Y773841D01*
X27986Y773810D01*
X28043Y773717D01*
X28095Y773620D01*
X28117Y773598D01*
X28134Y773570D01*
X28215Y773497D01*
X28292Y773418D01*
X28320Y773403D01*
X28343Y773381D01*
X28442Y773333D01*
X28537Y773280D01*
X28568Y773272D01*
X28597Y773258D01*
X28687Y773244D01*
X28812Y773215D01*
X28860Y773217D01*
X28902Y773211D01*
X31898Y773211D01*
X40025Y769845D01*
X46245Y763625D01*
X49611Y755498D01*
X49611Y746702D01*
X46245Y738575D01*
X40025Y732355D01*
X31898Y728989D01*
X23102Y728989D01*
X14975Y732355D01*
X13137Y734194D01*
X13111Y734213D01*
X13090Y734238D01*
X12998Y734298D01*
X12911Y734363D01*
X12881Y734375D01*
X12854Y734392D01*
X12749Y734424D01*
X12647Y734463D01*
X12615Y734465D01*
X12584Y734475D01*
X12475Y734476D01*
X12366Y734485D01*
X12334Y734478D01*
X12302Y734479D01*
X12197Y734449D01*
X12090Y734427D01*
X12061Y734412D01*
X12030Y734403D01*
X11937Y734346D01*
X11841Y734295D01*
X11818Y734272D01*
X11790Y734255D01*
X11717Y734174D01*
X11639Y734098D01*
X11623Y734070D01*
X11601Y734046D01*
X11554Y733948D01*
X11500Y733853D01*
X11492Y733821D01*
X11478Y733792D01*
X11464Y733703D01*
X11435Y733578D01*
X11437Y733530D01*
X11431Y733488D01*
X11431Y138970D01*
X11437Y138928D01*
X11434Y138885D01*
X11457Y138789D01*
X11471Y138691D01*
X11488Y138652D01*
X11498Y138610D01*
X11546Y138524D01*
X11587Y138434D01*
X11615Y138402D01*
X11636Y138364D01*
X11706Y138295D01*
X11770Y138220D01*
X11806Y138196D01*
X11837Y138166D01*
X11923Y138120D01*
X12006Y138065D01*
X12047Y138053D01*
X12085Y138033D01*
X12182Y138012D01*
X12276Y137983D01*
X12319Y137983D01*
X12361Y137974D01*
X12459Y137981D01*
X12558Y137979D01*
X12599Y137991D01*
X12642Y137994D01*
X12722Y138025D01*
X12830Y138055D01*
X12881Y138086D01*
X12930Y138105D01*
X16630Y140242D01*
X23793Y142161D01*
X31207Y142161D01*
X38370Y140242D01*
X44791Y136534D01*
X50034Y131291D01*
X53742Y124870D01*
X55661Y117707D01*
X55661Y110293D01*
X53742Y103130D01*
X50034Y96709D01*
X44791Y91466D01*
X38370Y87758D01*
X31207Y85839D01*
X23793Y85839D01*
X16630Y87758D01*
X12930Y89895D01*
X12890Y89911D01*
X12854Y89935D01*
X12759Y89963D01*
X12668Y90000D01*
X12625Y90004D01*
X12584Y90017D01*
X12486Y90018D01*
X12387Y90028D01*
X12345Y90020D01*
X12302Y90021D01*
X12207Y89994D01*
X12110Y89976D01*
X12072Y89957D01*
X12030Y89945D01*
X11946Y89894D01*
X11858Y89849D01*
X11827Y89820D01*
X11790Y89797D01*
X11724Y89724D01*
X11652Y89657D01*
X11630Y89620D01*
X11601Y89588D01*
X11558Y89499D01*
X11508Y89414D01*
X11497Y89373D01*
X11478Y89334D01*
X11465Y89250D01*
X11437Y89141D01*
X11439Y89081D01*
X11431Y89030D01*
X11431Y16498D01*
X11443Y16412D01*
X11446Y16325D01*
X11463Y16273D01*
X11471Y16219D01*
X11506Y16140D01*
X11533Y16057D01*
X11564Y16012D01*
X11587Y15962D01*
X11643Y15896D01*
X11692Y15824D01*
X11734Y15789D01*
X11770Y15747D01*
X11843Y15700D01*
X11910Y15645D01*
X11960Y15623D01*
X12006Y15593D01*
X12089Y15568D01*
X12169Y15533D01*
X12223Y15527D01*
X12276Y15511D01*
X12363Y15509D01*
X12449Y15499D01*
X12503Y15508D01*
X12558Y15507D01*
X12642Y15530D01*
X12727Y15544D01*
X12777Y15567D01*
X12830Y15582D01*
X12903Y15628D01*
X12982Y15665D01*
X13023Y15701D01*
X13070Y15730D01*
X13128Y15795D01*
X13193Y15852D01*
X13219Y15896D01*
X13259Y15940D01*
X13308Y16042D01*
X13353Y16116D01*
X14065Y17835D01*
X16615Y20385D01*
X19947Y21765D01*
X23553Y21765D01*
X26885Y20385D01*
X29435Y17835D01*
X30815Y14503D01*
X30815Y12430D01*
X30824Y12366D01*
X30823Y12302D01*
X30844Y12227D01*
X30855Y12151D01*
X30881Y12092D01*
X30898Y12030D01*
X30939Y11964D01*
X30971Y11894D01*
X31013Y11845D01*
X31046Y11790D01*
X31104Y11738D01*
X31154Y11680D01*
X31208Y11644D01*
X31256Y11601D01*
X31325Y11568D01*
X31390Y11525D01*
X31452Y11506D01*
X31509Y11478D01*
X31579Y11467D01*
X31660Y11443D01*
X31745Y11442D01*
X31814Y11431D01*
X83186Y11431D01*
X83250Y11440D01*
G37*
G36*
X163259Y648801D02*
X163259Y648801D01*
X163269Y648801D01*
X163397Y648830D01*
X163524Y648857D01*
X163534Y648862D01*
X163544Y648864D01*
X163658Y648928D01*
X163773Y648989D01*
X163781Y648997D01*
X163790Y649002D01*
X163881Y649095D01*
X163975Y649186D01*
X163981Y649195D01*
X163988Y649203D01*
X164050Y649318D01*
X164114Y649431D01*
X164117Y649442D01*
X164122Y649451D01*
X164149Y649579D01*
X164179Y649706D01*
X164179Y649717D01*
X164181Y649727D01*
X164172Y649857D01*
X164165Y649988D01*
X164161Y649998D01*
X164161Y650008D01*
X164132Y650084D01*
X164072Y650254D01*
X164058Y650274D01*
X164049Y650296D01*
X161258Y655130D01*
X159339Y662293D01*
X159339Y669707D01*
X161258Y676870D01*
X164966Y683291D01*
X170209Y688534D01*
X176630Y692242D01*
X183793Y694161D01*
X191207Y694161D01*
X198370Y692242D01*
X202070Y690105D01*
X202110Y690089D01*
X202146Y690065D01*
X202241Y690037D01*
X202332Y690000D01*
X202375Y689996D01*
X202416Y689983D01*
X202514Y689982D01*
X202613Y689972D01*
X202655Y689980D01*
X202698Y689979D01*
X202793Y690006D01*
X202890Y690024D01*
X202928Y690043D01*
X202970Y690055D01*
X203054Y690106D01*
X203142Y690151D01*
X203173Y690180D01*
X203210Y690203D01*
X203276Y690276D01*
X203348Y690343D01*
X203370Y690380D01*
X203399Y690412D01*
X203442Y690501D01*
X203492Y690586D01*
X203503Y690627D01*
X203522Y690666D01*
X203535Y690750D01*
X203563Y690859D01*
X203561Y690919D01*
X203569Y690970D01*
X203569Y765151D01*
X203556Y765245D01*
X203551Y765341D01*
X203536Y765384D01*
X203529Y765430D01*
X203490Y765517D01*
X203459Y765608D01*
X203432Y765645D01*
X203413Y765687D01*
X203351Y765759D01*
X203296Y765838D01*
X203262Y765864D01*
X203230Y765901D01*
X203123Y765971D01*
X203052Y766026D01*
X160092Y789654D01*
X160036Y789675D01*
X159992Y789702D01*
X158525Y790309D01*
X158167Y790667D01*
X157947Y790833D01*
X157942Y790836D01*
X157499Y791080D01*
X156506Y792320D01*
X156463Y792360D01*
X156433Y792402D01*
X155731Y793104D01*
X155705Y793123D01*
X155684Y793148D01*
X155592Y793208D01*
X155505Y793273D01*
X155475Y793285D01*
X155448Y793302D01*
X155343Y793334D01*
X155241Y793373D01*
X155209Y793375D01*
X155178Y793385D01*
X155069Y793386D01*
X154960Y793395D01*
X154928Y793388D01*
X154896Y793388D01*
X154791Y793359D01*
X154684Y793337D01*
X154655Y793322D01*
X154624Y793313D01*
X154531Y793256D01*
X154435Y793205D01*
X154412Y793182D01*
X154384Y793165D01*
X154311Y793084D01*
X154233Y793008D01*
X154217Y792980D01*
X154195Y792956D01*
X154148Y792857D01*
X154094Y792762D01*
X154086Y792731D01*
X154072Y792702D01*
X154058Y792613D01*
X154029Y792488D01*
X154031Y792439D01*
X154025Y792397D01*
X154025Y657957D01*
X154038Y657862D01*
X154043Y657765D01*
X154058Y657722D01*
X154065Y657677D01*
X154104Y657590D01*
X154118Y657549D01*
X154119Y657546D01*
X154120Y657545D01*
X154136Y657499D01*
X154161Y657465D01*
X154181Y657420D01*
X154238Y657354D01*
X154267Y657306D01*
X154295Y657281D01*
X154317Y657250D01*
X162478Y649090D01*
X162486Y649083D01*
X162493Y649075D01*
X162599Y648999D01*
X162703Y648921D01*
X162713Y648917D01*
X162722Y648910D01*
X162845Y648867D01*
X162967Y648821D01*
X162978Y648820D01*
X162988Y648817D01*
X163119Y648809D01*
X163248Y648799D01*
X163259Y648801D01*
G37*
G36*
X152634Y909010D02*
X152634Y909010D01*
X152698Y909009D01*
X152773Y909030D01*
X152849Y909041D01*
X152908Y909067D01*
X152970Y909084D01*
X153036Y909125D01*
X153106Y909157D01*
X153155Y909199D01*
X153210Y909232D01*
X153262Y909290D01*
X153320Y909340D01*
X153356Y909394D01*
X153399Y909442D01*
X153432Y909511D01*
X153475Y909576D01*
X153494Y909638D01*
X153522Y909695D01*
X153533Y909765D01*
X153557Y909846D01*
X153558Y909931D01*
X153569Y910000D01*
X153569Y928483D01*
X153553Y928600D01*
X153541Y928718D01*
X153533Y928739D01*
X153529Y928762D01*
X153481Y928870D01*
X153437Y928980D01*
X153423Y928998D01*
X153413Y929019D01*
X153336Y929109D01*
X153263Y929202D01*
X153245Y929216D01*
X153230Y929233D01*
X153130Y929298D01*
X153034Y929367D01*
X153013Y929375D01*
X152994Y929388D01*
X152880Y929422D01*
X152769Y929462D01*
X152746Y929463D01*
X152724Y929470D01*
X152606Y929471D01*
X152487Y929478D01*
X152466Y929473D01*
X152442Y929474D01*
X152263Y929424D01*
X152188Y929406D01*
X149941Y928475D01*
X137259Y928475D01*
X133275Y930126D01*
X130226Y933175D01*
X128575Y937159D01*
X128575Y972841D01*
X130226Y976825D01*
X130264Y976863D01*
X130283Y976889D01*
X130308Y976910D01*
X130368Y977002D01*
X130433Y977089D01*
X130444Y977119D01*
X130462Y977146D01*
X130494Y977251D01*
X130533Y977353D01*
X130535Y977385D01*
X130544Y977416D01*
X130546Y977525D01*
X130554Y977634D01*
X130548Y977666D01*
X130548Y977698D01*
X130519Y977803D01*
X130497Y977910D01*
X130482Y977939D01*
X130473Y977970D01*
X130416Y978063D01*
X130364Y978159D01*
X130342Y978182D01*
X130325Y978210D01*
X130244Y978283D01*
X130168Y978361D01*
X130140Y978377D01*
X130116Y978399D01*
X130017Y978446D01*
X129922Y978500D01*
X129891Y978508D01*
X129862Y978522D01*
X129772Y978536D01*
X129648Y978565D01*
X129599Y978563D01*
X129557Y978569D01*
X122726Y978569D01*
X122076Y978839D01*
X122068Y978841D01*
X122060Y978845D01*
X121931Y978876D01*
X121803Y978909D01*
X121794Y978909D01*
X121786Y978910D01*
X121653Y978904D01*
X121521Y978900D01*
X121513Y978897D01*
X121504Y978897D01*
X121379Y978854D01*
X121253Y978812D01*
X121246Y978808D01*
X121238Y978805D01*
X121130Y978729D01*
X121020Y978653D01*
X121014Y978647D01*
X121007Y978642D01*
X120924Y978538D01*
X120840Y978436D01*
X120837Y978428D01*
X120832Y978422D01*
X120781Y978299D01*
X120729Y978177D01*
X120728Y978168D01*
X120725Y978161D01*
X120711Y978029D01*
X120694Y977897D01*
X120696Y977889D01*
X120695Y977880D01*
X120718Y977749D01*
X120739Y977618D01*
X120743Y977611D01*
X120744Y977603D01*
X120778Y977536D01*
X120860Y977364D01*
X120876Y977347D01*
X120885Y977328D01*
X121390Y976633D01*
X122201Y975041D01*
X122753Y973342D01*
X123033Y971578D01*
X123033Y956999D01*
X108500Y956999D01*
X108436Y956990D01*
X108372Y956991D01*
X108298Y956970D01*
X108221Y956959D01*
X108162Y956933D01*
X108100Y956916D01*
X108034Y956875D01*
X107964Y956843D01*
X107915Y956801D01*
X107860Y956768D01*
X107809Y956710D01*
X107750Y956660D01*
X107714Y956606D01*
X107671Y956558D01*
X107638Y956489D01*
X107595Y956424D01*
X107576Y956362D01*
X107548Y956305D01*
X107538Y956235D01*
X107513Y956154D01*
X107512Y956069D01*
X107501Y956000D01*
X107501Y954999D01*
X106500Y954999D01*
X106436Y954990D01*
X106372Y954991D01*
X106297Y954970D01*
X106221Y954959D01*
X106162Y954933D01*
X106100Y954916D01*
X106034Y954875D01*
X105964Y954843D01*
X105915Y954801D01*
X105860Y954768D01*
X105808Y954710D01*
X105750Y954660D01*
X105714Y954606D01*
X105671Y954558D01*
X105638Y954489D01*
X105595Y954424D01*
X105576Y954362D01*
X105548Y954304D01*
X105538Y954235D01*
X105513Y954154D01*
X105512Y954069D01*
X105501Y954000D01*
X105501Y927967D01*
X102422Y927967D01*
X100658Y928247D01*
X98959Y928799D01*
X97954Y929311D01*
X97938Y929316D01*
X97924Y929325D01*
X97805Y929362D01*
X97687Y929402D01*
X97670Y929403D01*
X97654Y929408D01*
X97530Y929410D01*
X97405Y929415D01*
X97389Y929411D01*
X97372Y929412D01*
X97252Y929378D01*
X97131Y929349D01*
X97116Y929341D01*
X97100Y929336D01*
X96994Y929271D01*
X96886Y929209D01*
X96875Y929197D01*
X96860Y929188D01*
X96777Y929096D01*
X96690Y929006D01*
X96683Y928991D01*
X96671Y928979D01*
X96617Y928867D01*
X96559Y928757D01*
X96556Y928740D01*
X96548Y928725D01*
X96535Y928637D01*
X96503Y928480D01*
X96505Y928449D01*
X96501Y928421D01*
X96501Y920000D01*
X96514Y919905D01*
X96519Y919809D01*
X96534Y919766D01*
X96541Y919721D01*
X96580Y919633D01*
X96582Y919629D01*
X96592Y919593D01*
X96597Y919583D01*
X96612Y919542D01*
X96637Y919508D01*
X96657Y919464D01*
X96709Y919403D01*
X96740Y919353D01*
X96770Y919326D01*
X96793Y919293D01*
X102626Y913461D01*
X102634Y913455D01*
X102640Y913447D01*
X102747Y913370D01*
X102852Y913291D01*
X102861Y913288D01*
X102868Y913282D01*
X102992Y913238D01*
X103116Y913192D01*
X103125Y913191D01*
X103134Y913188D01*
X103266Y913180D01*
X103397Y913170D01*
X103406Y913172D01*
X103416Y913171D01*
X103491Y913190D01*
X103673Y913228D01*
X103694Y913239D01*
X103715Y913244D01*
X105697Y914065D01*
X109303Y914065D01*
X112635Y912685D01*
X115185Y910135D01*
X115399Y909618D01*
X115404Y909609D01*
X115406Y909600D01*
X115476Y909488D01*
X115543Y909375D01*
X115549Y909368D01*
X115554Y909360D01*
X115652Y909272D01*
X115748Y909182D01*
X115757Y909178D01*
X115764Y909171D01*
X115882Y909114D01*
X116000Y909054D01*
X116009Y909052D01*
X116018Y909048D01*
X116094Y909036D01*
X116277Y909002D01*
X116301Y909004D01*
X116322Y909001D01*
X152570Y909001D01*
X152634Y909010D01*
G37*
G36*
X108282Y969242D02*
X108282Y969242D01*
X108301Y969240D01*
X108403Y969262D01*
X108505Y969279D01*
X108522Y969288D01*
X108542Y969292D01*
X108631Y969345D01*
X108722Y969394D01*
X108736Y969408D01*
X108753Y969418D01*
X108820Y969497D01*
X108891Y969572D01*
X108900Y969590D01*
X108913Y969605D01*
X108952Y969701D01*
X108995Y969795D01*
X108997Y969815D01*
X109005Y969833D01*
X109023Y970000D01*
X109023Y982033D01*
X112578Y982033D01*
X114342Y981753D01*
X115384Y981415D01*
X115451Y981405D01*
X115516Y981385D01*
X115572Y981386D01*
X115627Y981378D01*
X115694Y981389D01*
X115762Y981391D01*
X115814Y981410D01*
X115869Y981420D01*
X115929Y981452D01*
X115993Y981476D01*
X116036Y981510D01*
X116085Y981537D01*
X116132Y981587D01*
X116185Y981629D01*
X116215Y981676D01*
X116253Y981717D01*
X116281Y981779D01*
X116318Y981836D01*
X116331Y981890D01*
X116354Y981941D01*
X116361Y982009D01*
X116378Y982075D01*
X116373Y982130D01*
X116379Y982186D01*
X116364Y982252D01*
X116359Y982320D01*
X116337Y982371D01*
X116324Y982426D01*
X116289Y982484D01*
X116262Y982546D01*
X116213Y982608D01*
X116196Y982636D01*
X116180Y982649D01*
X116157Y982677D01*
X115310Y983525D01*
X113569Y987726D01*
X113569Y1107808D01*
X113567Y1107819D01*
X113568Y1107826D01*
X113567Y1107833D01*
X113568Y1107847D01*
X113546Y1107949D01*
X113530Y1108051D01*
X113520Y1108068D01*
X113516Y1108088D01*
X113463Y1108177D01*
X113414Y1108268D01*
X113400Y1108282D01*
X113390Y1108299D01*
X113311Y1108366D01*
X113236Y1108438D01*
X113218Y1108446D01*
X113203Y1108459D01*
X113107Y1108498D01*
X113013Y1108541D01*
X112993Y1108543D01*
X112975Y1108551D01*
X112808Y1108569D01*
X102192Y1108569D01*
X102172Y1108566D01*
X102153Y1108568D01*
X102051Y1108546D01*
X101949Y1108530D01*
X101932Y1108520D01*
X101912Y1108516D01*
X101823Y1108463D01*
X101732Y1108414D01*
X101718Y1108400D01*
X101701Y1108390D01*
X101634Y1108311D01*
X101562Y1108236D01*
X101554Y1108218D01*
X101541Y1108203D01*
X101502Y1108107D01*
X101459Y1108013D01*
X101457Y1107993D01*
X101449Y1107975D01*
X101431Y1107808D01*
X101431Y987726D01*
X99690Y983525D01*
X98843Y982677D01*
X98803Y982622D01*
X98756Y982573D01*
X98732Y982523D01*
X98699Y982477D01*
X98679Y982413D01*
X98650Y982351D01*
X98643Y982296D01*
X98627Y982242D01*
X98628Y982175D01*
X98620Y982107D01*
X98632Y982052D01*
X98633Y981996D01*
X98656Y981933D01*
X98670Y981866D01*
X98698Y981818D01*
X98718Y981765D01*
X98760Y981712D01*
X98794Y981654D01*
X98836Y981617D01*
X98871Y981573D01*
X98928Y981537D01*
X98979Y981492D01*
X99031Y981471D01*
X99078Y981440D01*
X99144Y981424D01*
X99206Y981398D01*
X99262Y981394D01*
X99317Y981380D01*
X99384Y981386D01*
X99452Y981381D01*
X99529Y981397D01*
X99562Y981399D01*
X99581Y981408D01*
X99616Y981415D01*
X100658Y981753D01*
X102422Y982033D01*
X105977Y982033D01*
X105977Y970000D01*
X105980Y969980D01*
X105978Y969961D01*
X106000Y969859D01*
X106017Y969757D01*
X106026Y969740D01*
X106030Y969720D01*
X106083Y969631D01*
X106132Y969540D01*
X106146Y969526D01*
X106156Y969509D01*
X106235Y969442D01*
X106310Y969371D01*
X106328Y969362D01*
X106343Y969349D01*
X106439Y969310D01*
X106533Y969267D01*
X106553Y969265D01*
X106571Y969257D01*
X106738Y969239D01*
X108262Y969239D01*
X108282Y969242D01*
G37*
G36*
X104040Y629010D02*
X104040Y629010D01*
X104104Y629009D01*
X104179Y629030D01*
X104255Y629041D01*
X104314Y629067D01*
X104376Y629084D01*
X104442Y629125D01*
X104512Y629157D01*
X104561Y629199D01*
X104616Y629232D01*
X104668Y629290D01*
X104726Y629340D01*
X104762Y629394D01*
X104805Y629442D01*
X104838Y629511D01*
X104881Y629576D01*
X104900Y629638D01*
X104928Y629695D01*
X104939Y629765D01*
X104963Y629846D01*
X104964Y629931D01*
X104975Y630000D01*
X104975Y696000D01*
X104967Y696059D01*
X104967Y696078D01*
X104966Y696081D01*
X104967Y696128D01*
X104946Y696203D01*
X104935Y696279D01*
X104909Y696338D01*
X104892Y696400D01*
X104851Y696466D01*
X104819Y696536D01*
X104777Y696585D01*
X104744Y696640D01*
X104686Y696692D01*
X104636Y696750D01*
X104582Y696786D01*
X104534Y696829D01*
X104465Y696862D01*
X104400Y696905D01*
X104338Y696924D01*
X104281Y696952D01*
X104211Y696963D01*
X104130Y696987D01*
X104045Y696988D01*
X103976Y696999D01*
X88500Y696999D01*
X88436Y696990D01*
X88372Y696991D01*
X88297Y696970D01*
X88221Y696959D01*
X88162Y696933D01*
X88100Y696916D01*
X88034Y696875D01*
X87964Y696843D01*
X87915Y696801D01*
X87860Y696768D01*
X87808Y696710D01*
X87750Y696660D01*
X87714Y696606D01*
X87671Y696558D01*
X87638Y696489D01*
X87595Y696424D01*
X87576Y696362D01*
X87548Y696305D01*
X87537Y696235D01*
X87513Y696154D01*
X87512Y696069D01*
X87501Y696000D01*
X87501Y648984D01*
X87510Y648920D01*
X87509Y648858D01*
X87517Y648827D01*
X87519Y648793D01*
X87534Y648749D01*
X87541Y648704D01*
X87569Y648643D01*
X87584Y648586D01*
X87599Y648561D01*
X87612Y648526D01*
X87637Y648492D01*
X87657Y648448D01*
X87703Y648393D01*
X87732Y648346D01*
X87764Y648318D01*
X87793Y648277D01*
X90025Y646046D01*
X90025Y637895D01*
X90038Y637800D01*
X90043Y637704D01*
X90058Y637661D01*
X90065Y637616D01*
X90104Y637529D01*
X90136Y637438D01*
X90161Y637403D01*
X90181Y637359D01*
X90264Y637262D01*
X90317Y637189D01*
X98213Y629293D01*
X98289Y629236D01*
X98361Y629171D01*
X98402Y629151D01*
X98438Y629124D01*
X98528Y629090D01*
X98615Y629048D01*
X98657Y629042D01*
X98702Y629025D01*
X98830Y629015D01*
X98919Y629001D01*
X103976Y629001D01*
X104040Y629010D01*
G37*
G36*
X147096Y660009D02*
X147096Y660009D01*
X147128Y660009D01*
X147233Y660038D01*
X147340Y660060D01*
X147369Y660076D01*
X147400Y660084D01*
X147493Y660142D01*
X147589Y660193D01*
X147612Y660215D01*
X147640Y660232D01*
X147713Y660313D01*
X147791Y660390D01*
X147807Y660418D01*
X147829Y660442D01*
X147876Y660540D01*
X147930Y660635D01*
X147938Y660666D01*
X147952Y660695D01*
X147966Y660785D01*
X147995Y660909D01*
X147993Y660958D01*
X147999Y661000D01*
X147999Y723000D01*
X147995Y723032D01*
X147997Y723064D01*
X147975Y723171D01*
X147959Y723279D01*
X147946Y723309D01*
X147940Y723340D01*
X147888Y723437D01*
X147843Y723536D01*
X147822Y723561D01*
X147807Y723589D01*
X147731Y723668D01*
X147660Y723750D01*
X147633Y723768D01*
X147610Y723791D01*
X147515Y723845D01*
X147424Y723905D01*
X147393Y723914D01*
X147365Y723930D01*
X147258Y723955D01*
X147154Y723987D01*
X147122Y723988D01*
X147091Y723995D01*
X146981Y723990D01*
X146872Y723991D01*
X146841Y723982D01*
X146809Y723981D01*
X146706Y723945D01*
X146600Y723916D01*
X146573Y723899D01*
X146542Y723888D01*
X146469Y723835D01*
X146360Y723768D01*
X146328Y723732D01*
X146293Y723707D01*
X121841Y699255D01*
X121784Y699178D01*
X121719Y699106D01*
X121699Y699065D01*
X121672Y699029D01*
X121638Y698939D01*
X121596Y698853D01*
X121590Y698811D01*
X121573Y698765D01*
X121563Y698637D01*
X121549Y698548D01*
X121549Y685452D01*
X121562Y685357D01*
X121567Y685261D01*
X121582Y685218D01*
X121589Y685173D01*
X121628Y685085D01*
X121660Y684994D01*
X121685Y684960D01*
X121705Y684916D01*
X121788Y684819D01*
X121841Y684745D01*
X146293Y660293D01*
X146319Y660274D01*
X146340Y660250D01*
X146432Y660190D01*
X146519Y660124D01*
X146549Y660113D01*
X146576Y660095D01*
X146681Y660063D01*
X146783Y660025D01*
X146815Y660022D01*
X146846Y660013D01*
X146955Y660011D01*
X147064Y660003D01*
X147096Y660009D01*
G37*
G36*
X42564Y29010D02*
X42564Y29010D01*
X42628Y29009D01*
X42703Y29030D01*
X42779Y29041D01*
X42838Y29067D01*
X42900Y29084D01*
X42966Y29125D01*
X43036Y29157D01*
X43085Y29199D01*
X43140Y29232D01*
X43192Y29290D01*
X43250Y29340D01*
X43286Y29394D01*
X43329Y29442D01*
X43362Y29511D01*
X43405Y29576D01*
X43424Y29638D01*
X43452Y29695D01*
X43463Y29765D01*
X43487Y29846D01*
X43488Y29931D01*
X43499Y30000D01*
X43499Y70000D01*
X43491Y70061D01*
X43491Y70098D01*
X43491Y70099D01*
X43491Y70128D01*
X43470Y70203D01*
X43459Y70279D01*
X43433Y70338D01*
X43416Y70400D01*
X43375Y70466D01*
X43343Y70536D01*
X43301Y70585D01*
X43268Y70640D01*
X43210Y70692D01*
X43160Y70750D01*
X43106Y70786D01*
X43058Y70829D01*
X42989Y70862D01*
X42924Y70905D01*
X42862Y70924D01*
X42805Y70952D01*
X42735Y70963D01*
X42654Y70987D01*
X42569Y70988D01*
X42500Y70999D01*
X19500Y70999D01*
X19436Y70990D01*
X19372Y70991D01*
X19297Y70970D01*
X19221Y70959D01*
X19162Y70933D01*
X19100Y70916D01*
X19034Y70875D01*
X18964Y70843D01*
X18915Y70801D01*
X18860Y70768D01*
X18808Y70710D01*
X18750Y70660D01*
X18714Y70606D01*
X18671Y70558D01*
X18638Y70489D01*
X18595Y70424D01*
X18576Y70362D01*
X18548Y70305D01*
X18537Y70235D01*
X18513Y70154D01*
X18512Y70069D01*
X18501Y70000D01*
X18501Y30000D01*
X18510Y29936D01*
X18509Y29872D01*
X18530Y29797D01*
X18541Y29721D01*
X18567Y29662D01*
X18584Y29600D01*
X18625Y29534D01*
X18657Y29464D01*
X18699Y29415D01*
X18732Y29360D01*
X18790Y29308D01*
X18840Y29250D01*
X18894Y29214D01*
X18942Y29171D01*
X19011Y29138D01*
X19076Y29095D01*
X19138Y29076D01*
X19195Y29048D01*
X19265Y29037D01*
X19346Y29013D01*
X19431Y29012D01*
X19500Y29001D01*
X42500Y29001D01*
X42564Y29010D01*
G37*
%LPC*%
G36*
X140405Y229943D02*
X140405Y229943D01*
X137443Y232905D01*
X137443Y237095D01*
X139683Y239334D01*
X139740Y239411D01*
X139805Y239482D01*
X139825Y239523D01*
X139852Y239559D01*
X139886Y239650D01*
X139928Y239736D01*
X139934Y239778D01*
X139951Y239823D01*
X139961Y239951D01*
X139975Y240040D01*
X139975Y286046D01*
X155454Y301525D01*
X171460Y301525D01*
X171554Y301538D01*
X171651Y301543D01*
X171694Y301558D01*
X171739Y301565D01*
X171826Y301604D01*
X171917Y301636D01*
X171952Y301661D01*
X171996Y301681D01*
X172093Y301764D01*
X172166Y301817D01*
X174405Y304057D01*
X178595Y304057D01*
X181557Y301095D01*
X181557Y296905D01*
X178595Y293943D01*
X174405Y293943D01*
X172166Y296183D01*
X172089Y296240D01*
X172018Y296305D01*
X171977Y296325D01*
X171941Y296352D01*
X171850Y296386D01*
X171764Y296428D01*
X171722Y296434D01*
X171677Y296451D01*
X171549Y296461D01*
X171460Y296475D01*
X157960Y296475D01*
X157865Y296462D01*
X157769Y296457D01*
X157725Y296442D01*
X157680Y296435D01*
X157593Y296396D01*
X157502Y296364D01*
X157468Y296339D01*
X157424Y296319D01*
X157326Y296236D01*
X157253Y296183D01*
X145317Y284247D01*
X145260Y284170D01*
X145195Y284099D01*
X145175Y284058D01*
X145148Y284021D01*
X145114Y283931D01*
X145072Y283845D01*
X145066Y283803D01*
X145049Y283757D01*
X145039Y283630D01*
X145025Y283540D01*
X145025Y240040D01*
X145038Y239946D01*
X145043Y239849D01*
X145058Y239806D01*
X145065Y239761D01*
X145104Y239674D01*
X145136Y239583D01*
X145161Y239548D01*
X145181Y239504D01*
X145264Y239407D01*
X145317Y239334D01*
X147557Y237095D01*
X147557Y232905D01*
X144595Y229943D01*
X140405Y229943D01*
G37*
%LPD*%
G36*
X92564Y549010D02*
X92564Y549010D01*
X92628Y549009D01*
X92703Y549030D01*
X92779Y549041D01*
X92838Y549067D01*
X92900Y549084D01*
X92966Y549125D01*
X93036Y549157D01*
X93085Y549199D01*
X93140Y549232D01*
X93192Y549290D01*
X93250Y549340D01*
X93286Y549394D01*
X93329Y549442D01*
X93362Y549511D01*
X93405Y549576D01*
X93424Y549638D01*
X93452Y549695D01*
X93463Y549765D01*
X93487Y549846D01*
X93488Y549931D01*
X93499Y550000D01*
X93499Y590000D01*
X93491Y590061D01*
X93491Y590098D01*
X93491Y590099D01*
X93491Y590128D01*
X93470Y590203D01*
X93459Y590279D01*
X93433Y590338D01*
X93416Y590400D01*
X93375Y590466D01*
X93343Y590536D01*
X93301Y590585D01*
X93268Y590640D01*
X93210Y590692D01*
X93160Y590750D01*
X93106Y590786D01*
X93058Y590829D01*
X92989Y590862D01*
X92924Y590905D01*
X92862Y590924D01*
X92805Y590952D01*
X92735Y590963D01*
X92654Y590987D01*
X92569Y590988D01*
X92500Y590999D01*
X87500Y590999D01*
X87436Y590990D01*
X87372Y590991D01*
X87297Y590970D01*
X87221Y590959D01*
X87162Y590933D01*
X87100Y590916D01*
X87034Y590875D01*
X86964Y590843D01*
X86915Y590801D01*
X86860Y590768D01*
X86808Y590710D01*
X86750Y590660D01*
X86714Y590606D01*
X86671Y590558D01*
X86638Y590489D01*
X86595Y590424D01*
X86576Y590362D01*
X86548Y590305D01*
X86537Y590235D01*
X86513Y590154D01*
X86512Y590069D01*
X86501Y590000D01*
X86501Y580414D01*
X76793Y570707D01*
X76736Y570630D01*
X76671Y570558D01*
X76651Y570517D01*
X76624Y570481D01*
X76599Y570415D01*
X76595Y570409D01*
X76589Y570388D01*
X76548Y570305D01*
X76542Y570263D01*
X76525Y570217D01*
X76521Y570165D01*
X76513Y570139D01*
X76512Y570071D01*
X76501Y570000D01*
X76501Y550000D01*
X76510Y549936D01*
X76509Y549872D01*
X76530Y549797D01*
X76541Y549721D01*
X76567Y549662D01*
X76584Y549600D01*
X76625Y549534D01*
X76657Y549464D01*
X76699Y549415D01*
X76732Y549360D01*
X76790Y549308D01*
X76840Y549250D01*
X76894Y549214D01*
X76942Y549171D01*
X77011Y549138D01*
X77076Y549095D01*
X77138Y549076D01*
X77195Y549048D01*
X77265Y549037D01*
X77346Y549013D01*
X77431Y549012D01*
X77500Y549001D01*
X92500Y549001D01*
X92564Y549010D01*
G37*
G36*
X202666Y609420D02*
X202666Y609420D01*
X202698Y609419D01*
X202803Y609449D01*
X202910Y609471D01*
X202939Y609486D01*
X202970Y609495D01*
X203063Y609552D01*
X203159Y609603D01*
X203182Y609626D01*
X203210Y609643D01*
X203283Y609724D01*
X203361Y609800D01*
X203377Y609828D01*
X203399Y609852D01*
X203446Y609950D01*
X203500Y610046D01*
X203508Y610077D01*
X203522Y610106D01*
X203536Y610195D01*
X203565Y610320D01*
X203563Y610368D01*
X203569Y610410D01*
X203569Y641030D01*
X203563Y641072D01*
X203566Y641115D01*
X203543Y641211D01*
X203529Y641309D01*
X203512Y641348D01*
X203502Y641390D01*
X203454Y641476D01*
X203413Y641566D01*
X203385Y641598D01*
X203364Y641636D01*
X203294Y641705D01*
X203230Y641780D01*
X203194Y641804D01*
X203163Y641834D01*
X203077Y641880D01*
X202994Y641935D01*
X202953Y641947D01*
X202915Y641967D01*
X202818Y641988D01*
X202724Y642017D01*
X202681Y642017D01*
X202639Y642026D01*
X202541Y642019D01*
X202442Y642021D01*
X202401Y642009D01*
X202358Y642006D01*
X202278Y641975D01*
X202170Y641945D01*
X202119Y641914D01*
X202070Y641895D01*
X198370Y639758D01*
X191207Y637839D01*
X183793Y637839D01*
X176630Y639758D01*
X171796Y642549D01*
X171786Y642553D01*
X171777Y642560D01*
X171655Y642606D01*
X171534Y642655D01*
X171524Y642656D01*
X171514Y642659D01*
X171384Y642670D01*
X171254Y642682D01*
X171243Y642680D01*
X171232Y642681D01*
X171105Y642655D01*
X170976Y642631D01*
X170967Y642626D01*
X170956Y642624D01*
X170841Y642562D01*
X170725Y642504D01*
X170717Y642496D01*
X170707Y642491D01*
X170614Y642400D01*
X170518Y642311D01*
X170513Y642302D01*
X170505Y642294D01*
X170441Y642181D01*
X170374Y642069D01*
X170372Y642058D01*
X170366Y642049D01*
X170336Y641921D01*
X170303Y641796D01*
X170304Y641785D01*
X170301Y641775D01*
X170308Y641643D01*
X170312Y641514D01*
X170315Y641504D01*
X170316Y641493D01*
X170359Y641369D01*
X170399Y641246D01*
X170405Y641237D01*
X170408Y641227D01*
X170456Y641162D01*
X170557Y641012D01*
X170576Y640997D01*
X170590Y640978D01*
X201863Y609704D01*
X201889Y609685D01*
X201910Y609660D01*
X202002Y609600D01*
X202089Y609535D01*
X202119Y609523D01*
X202146Y609506D01*
X202251Y609474D01*
X202353Y609435D01*
X202385Y609433D01*
X202416Y609423D01*
X202525Y609422D01*
X202634Y609413D01*
X202666Y609420D01*
G37*
G36*
X57564Y439010D02*
X57564Y439010D01*
X57628Y439009D01*
X57703Y439030D01*
X57779Y439041D01*
X57838Y439067D01*
X57900Y439084D01*
X57966Y439125D01*
X58036Y439157D01*
X58085Y439199D01*
X58140Y439232D01*
X58192Y439290D01*
X58250Y439340D01*
X58286Y439394D01*
X58329Y439442D01*
X58362Y439511D01*
X58405Y439576D01*
X58424Y439638D01*
X58452Y439695D01*
X58463Y439765D01*
X58487Y439846D01*
X58488Y439931D01*
X58499Y440000D01*
X58499Y460000D01*
X58490Y460062D01*
X58491Y460113D01*
X58491Y460114D01*
X58491Y460128D01*
X58470Y460203D01*
X58459Y460279D01*
X58433Y460338D01*
X58416Y460400D01*
X58375Y460466D01*
X58343Y460536D01*
X58301Y460585D01*
X58268Y460640D01*
X58210Y460692D01*
X58160Y460750D01*
X58106Y460786D01*
X58058Y460829D01*
X57989Y460862D01*
X57924Y460905D01*
X57862Y460924D01*
X57805Y460952D01*
X57735Y460963D01*
X57654Y460987D01*
X57569Y460988D01*
X57500Y460999D01*
X37500Y460999D01*
X37436Y460990D01*
X37372Y460991D01*
X37297Y460970D01*
X37221Y460959D01*
X37162Y460933D01*
X37100Y460916D01*
X37034Y460875D01*
X36964Y460843D01*
X36915Y460801D01*
X36860Y460768D01*
X36808Y460710D01*
X36750Y460660D01*
X36714Y460606D01*
X36671Y460558D01*
X36638Y460489D01*
X36595Y460424D01*
X36576Y460362D01*
X36548Y460305D01*
X36537Y460235D01*
X36513Y460154D01*
X36512Y460069D01*
X36501Y460000D01*
X36501Y440000D01*
X36510Y439936D01*
X36509Y439872D01*
X36530Y439797D01*
X36541Y439721D01*
X36567Y439662D01*
X36584Y439600D01*
X36625Y439534D01*
X36657Y439464D01*
X36699Y439415D01*
X36732Y439360D01*
X36790Y439308D01*
X36840Y439250D01*
X36894Y439214D01*
X36942Y439171D01*
X37011Y439138D01*
X37076Y439095D01*
X37138Y439076D01*
X37195Y439048D01*
X37265Y439037D01*
X37346Y439013D01*
X37431Y439012D01*
X37500Y439001D01*
X57500Y439001D01*
X57564Y439010D01*
G37*
G36*
X187564Y49010D02*
X187564Y49010D01*
X187628Y49009D01*
X187703Y49030D01*
X187779Y49041D01*
X187838Y49067D01*
X187900Y49084D01*
X187966Y49125D01*
X188036Y49157D01*
X188085Y49199D01*
X188140Y49232D01*
X188192Y49290D01*
X188250Y49340D01*
X188286Y49394D01*
X188329Y49442D01*
X188362Y49511D01*
X188405Y49576D01*
X188424Y49638D01*
X188452Y49695D01*
X188463Y49765D01*
X188487Y49846D01*
X188488Y49931D01*
X188499Y50000D01*
X188499Y70000D01*
X188490Y70062D01*
X188491Y70113D01*
X188491Y70114D01*
X188491Y70128D01*
X188470Y70203D01*
X188459Y70279D01*
X188433Y70338D01*
X188416Y70400D01*
X188375Y70466D01*
X188343Y70536D01*
X188301Y70585D01*
X188268Y70640D01*
X188210Y70692D01*
X188160Y70750D01*
X188106Y70786D01*
X188058Y70829D01*
X187989Y70862D01*
X187924Y70905D01*
X187862Y70924D01*
X187805Y70952D01*
X187735Y70963D01*
X187654Y70987D01*
X187569Y70988D01*
X187500Y70999D01*
X173124Y70999D01*
X173029Y70986D01*
X172933Y70981D01*
X172890Y70966D01*
X172845Y70959D01*
X172758Y70920D01*
X172667Y70888D01*
X172632Y70863D01*
X172588Y70843D01*
X172491Y70760D01*
X172418Y70707D01*
X166793Y65082D01*
X166736Y65005D01*
X166671Y64934D01*
X166651Y64893D01*
X166624Y64857D01*
X166590Y64767D01*
X166548Y64680D01*
X166542Y64638D01*
X166525Y64593D01*
X166515Y64465D01*
X166501Y64376D01*
X166501Y50000D01*
X166510Y49936D01*
X166509Y49872D01*
X166530Y49797D01*
X166541Y49721D01*
X166567Y49662D01*
X166584Y49600D01*
X166625Y49534D01*
X166657Y49464D01*
X166699Y49415D01*
X166732Y49360D01*
X166790Y49308D01*
X166840Y49250D01*
X166894Y49214D01*
X166942Y49171D01*
X167011Y49138D01*
X167076Y49095D01*
X167138Y49076D01*
X167195Y49048D01*
X167265Y49037D01*
X167346Y49013D01*
X167431Y49012D01*
X167500Y49001D01*
X187500Y49001D01*
X187564Y49010D01*
G37*
%LPC*%
G36*
X17405Y175943D02*
X17405Y175943D01*
X14443Y178905D01*
X14443Y183095D01*
X17405Y186057D01*
X20572Y186057D01*
X20667Y186070D01*
X20763Y186075D01*
X20807Y186090D01*
X20852Y186097D01*
X20939Y186136D01*
X21030Y186168D01*
X21064Y186193D01*
X21108Y186213D01*
X21206Y186296D01*
X21279Y186349D01*
X52151Y217221D01*
X52208Y217298D01*
X52273Y217369D01*
X52293Y217410D01*
X52320Y217447D01*
X52354Y217537D01*
X52396Y217623D01*
X52402Y217665D01*
X52419Y217711D01*
X52429Y217838D01*
X52443Y217928D01*
X52443Y222095D01*
X55405Y225057D01*
X59595Y225057D01*
X62557Y222095D01*
X62557Y217905D01*
X59595Y214943D01*
X57428Y214943D01*
X57333Y214930D01*
X57237Y214925D01*
X57193Y214910D01*
X57148Y214903D01*
X57061Y214864D01*
X56970Y214832D01*
X56936Y214807D01*
X56892Y214787D01*
X56794Y214704D01*
X56721Y214651D01*
X24849Y182779D01*
X24792Y182702D01*
X24727Y182631D01*
X24707Y182590D01*
X24680Y182553D01*
X24646Y182463D01*
X24604Y182377D01*
X24598Y182335D01*
X24581Y182289D01*
X24571Y182162D01*
X24557Y182072D01*
X24557Y178905D01*
X21595Y175943D01*
X17405Y175943D01*
G37*
%LPD*%
%LPC*%
G36*
X73399Y927967D02*
X73399Y927967D01*
X73399Y953001D01*
X86933Y953001D01*
X86933Y938422D01*
X86690Y936891D01*
X86690Y936890D01*
X86653Y936658D01*
X86101Y934959D01*
X85290Y933367D01*
X84241Y931922D01*
X82978Y930659D01*
X81533Y929610D01*
X79941Y928799D01*
X78242Y928247D01*
X76478Y927967D01*
X73399Y927967D01*
G37*
%LPD*%
%LPC*%
G36*
X109499Y927967D02*
X109499Y927967D01*
X109499Y953001D01*
X123033Y953001D01*
X123033Y938422D01*
X122987Y938133D01*
X122753Y936658D01*
X122201Y934959D01*
X121390Y933367D01*
X120341Y931922D01*
X119078Y930659D01*
X117633Y929610D01*
X116041Y928799D01*
X114342Y928247D01*
X112578Y927967D01*
X109499Y927967D01*
G37*
%LPD*%
G36*
X37564Y519010D02*
X37564Y519010D01*
X37628Y519009D01*
X37703Y519030D01*
X37779Y519041D01*
X37838Y519067D01*
X37900Y519084D01*
X37966Y519125D01*
X38036Y519157D01*
X38085Y519199D01*
X38140Y519232D01*
X38192Y519290D01*
X38250Y519340D01*
X38286Y519394D01*
X38329Y519442D01*
X38362Y519511D01*
X38405Y519576D01*
X38424Y519638D01*
X38452Y519695D01*
X38463Y519765D01*
X38487Y519846D01*
X38488Y519931D01*
X38499Y520000D01*
X38499Y540000D01*
X38490Y540062D01*
X38491Y540113D01*
X38491Y540114D01*
X38491Y540128D01*
X38470Y540203D01*
X38459Y540279D01*
X38433Y540338D01*
X38416Y540400D01*
X38375Y540466D01*
X38343Y540536D01*
X38301Y540585D01*
X38268Y540640D01*
X38210Y540692D01*
X38160Y540750D01*
X38106Y540786D01*
X38058Y540829D01*
X37989Y540862D01*
X37924Y540905D01*
X37862Y540924D01*
X37805Y540952D01*
X37735Y540963D01*
X37654Y540987D01*
X37569Y540988D01*
X37500Y540999D01*
X28500Y540999D01*
X28436Y540990D01*
X28372Y540991D01*
X28297Y540970D01*
X28221Y540959D01*
X28162Y540933D01*
X28100Y540916D01*
X28034Y540875D01*
X27964Y540843D01*
X27915Y540801D01*
X27860Y540768D01*
X27808Y540710D01*
X27750Y540660D01*
X27714Y540606D01*
X27671Y540558D01*
X27638Y540489D01*
X27595Y540424D01*
X27576Y540362D01*
X27548Y540305D01*
X27537Y540235D01*
X27513Y540154D01*
X27512Y540069D01*
X27501Y540000D01*
X27501Y537905D01*
X26793Y537198D01*
X26736Y537121D01*
X26671Y537050D01*
X26651Y537009D01*
X26624Y536973D01*
X26590Y536883D01*
X26548Y536796D01*
X26542Y536754D01*
X26525Y536709D01*
X26515Y536581D01*
X26501Y536492D01*
X26501Y520000D01*
X26510Y519936D01*
X26509Y519872D01*
X26530Y519797D01*
X26541Y519721D01*
X26567Y519662D01*
X26584Y519600D01*
X26625Y519534D01*
X26657Y519464D01*
X26699Y519415D01*
X26732Y519360D01*
X26790Y519308D01*
X26840Y519250D01*
X26894Y519214D01*
X26942Y519171D01*
X27011Y519138D01*
X27076Y519095D01*
X27138Y519076D01*
X27195Y519048D01*
X27265Y519037D01*
X27346Y519013D01*
X27431Y519012D01*
X27500Y519001D01*
X37500Y519001D01*
X37564Y519010D01*
G37*
%LPC*%
G36*
X140405Y19943D02*
X140405Y19943D01*
X137443Y22905D01*
X137443Y27095D01*
X139683Y29334D01*
X139740Y29411D01*
X139805Y29482D01*
X139825Y29523D01*
X139852Y29559D01*
X139886Y29650D01*
X139928Y29736D01*
X139934Y29778D01*
X139951Y29823D01*
X139961Y29951D01*
X139975Y30040D01*
X139975Y39960D01*
X139962Y40054D01*
X139957Y40151D01*
X139942Y40194D01*
X139935Y40239D01*
X139896Y40326D01*
X139864Y40417D01*
X139839Y40452D01*
X139819Y40496D01*
X139736Y40593D01*
X139683Y40666D01*
X137443Y42905D01*
X137443Y47095D01*
X140405Y50057D01*
X144595Y50057D01*
X147557Y47095D01*
X147557Y42905D01*
X145317Y40666D01*
X145260Y40589D01*
X145195Y40518D01*
X145175Y40477D01*
X145148Y40441D01*
X145114Y40350D01*
X145072Y40264D01*
X145066Y40222D01*
X145049Y40177D01*
X145039Y40049D01*
X145025Y39960D01*
X145025Y30040D01*
X145038Y29946D01*
X145043Y29849D01*
X145058Y29806D01*
X145065Y29761D01*
X145104Y29674D01*
X145136Y29583D01*
X145161Y29548D01*
X145181Y29504D01*
X145264Y29407D01*
X145317Y29334D01*
X147557Y27095D01*
X147557Y22905D01*
X144595Y19943D01*
X140405Y19943D01*
G37*
%LPD*%
%LPC*%
G36*
X31795Y32685D02*
X31795Y32685D01*
X29106Y33799D01*
X27049Y35856D01*
X25935Y38545D01*
X25935Y41455D01*
X27049Y44144D01*
X29106Y46201D01*
X31795Y47315D01*
X34705Y47315D01*
X37394Y46201D01*
X39451Y44144D01*
X40565Y41455D01*
X40565Y38545D01*
X39451Y35856D01*
X37394Y33799D01*
X34705Y32685D01*
X31795Y32685D01*
G37*
%LPD*%
%LPC*%
G36*
X80295Y32685D02*
X80295Y32685D01*
X77606Y33799D01*
X75549Y35856D01*
X74435Y38545D01*
X74435Y41455D01*
X75549Y44144D01*
X77606Y46201D01*
X80295Y47315D01*
X83205Y47315D01*
X85894Y46201D01*
X87951Y44144D01*
X89065Y41455D01*
X89065Y38545D01*
X87951Y35856D01*
X85894Y33799D01*
X83205Y32685D01*
X80295Y32685D01*
G37*
%LPD*%
D10*
X147785Y970685D02*
X147785Y939315D01*
X139415Y939315D01*
X139415Y970685D01*
X147785Y970685D01*
X147785Y957013D02*
X139415Y957013D01*
X111685Y939315D02*
X103315Y939315D01*
X103315Y970685D01*
X111685Y970685D01*
X111685Y939315D01*
X111685Y957013D02*
X103315Y957013D01*
X75585Y939315D02*
X67215Y939315D01*
X67215Y970685D01*
X75585Y970685D01*
X75585Y939315D01*
X75585Y957013D02*
X67215Y957013D01*
D11*
X107500Y905000D03*
X21750Y12700D03*
X93250Y12700D03*
D12*
X81750Y40000D03*
X33250Y40000D03*
D13*
X107500Y28900D03*
X107500Y751100D03*
D14*
X32500Y535000D03*
X32500Y525000D03*
X42500Y455000D03*
X42500Y445000D03*
X52500Y445000D03*
X52500Y455000D03*
D15*
X42500Y455000D02*
X32500Y465000D01*
X32500Y525000D01*
D14*
X85500Y553000D03*
X85500Y558000D03*
X85500Y563000D03*
X85500Y568000D03*
X87500Y585000D03*
D15*
X32500Y530000D01*
X32500Y525000D01*
D14*
X47500Y450000D03*
X152500Y225000D03*
X182309Y216000D03*
D16*
X173753Y225000D02*
X152500Y225000D01*
X173753Y225000D02*
X182309Y216444D01*
X182309Y216000D01*
D14*
X22444Y540000D03*
D16*
X22500Y539944D01*
X22500Y490000D01*
D14*
X22444Y490000D03*
X176500Y299000D03*
X142500Y235000D03*
D16*
X142500Y285000D01*
X156500Y299000D02*
X176500Y299000D01*
X156500Y299000D02*
X142500Y285000D01*
D14*
X191000Y216000D03*
X157444Y274500D03*
D16*
X157444Y249556D01*
X191000Y216000D01*
X107500Y110000D02*
X107500Y700400D01*
D14*
X107500Y110000D03*
D16*
X107500Y737565D02*
X107500Y751100D01*
X107500Y737565D02*
X95444Y725509D01*
X95444Y712456D02*
X107500Y700400D01*
X95444Y712456D02*
X95444Y725509D01*
D14*
X142500Y25000D03*
X142500Y45000D03*
D16*
X142500Y25000D01*
D14*
X35000Y55000D03*
X25000Y55000D03*
X25000Y65000D03*
X35000Y65000D03*
D15*
X41000Y61000D02*
X148500Y61000D01*
X41000Y61000D02*
X35000Y55000D01*
X148500Y61000D02*
X202340Y114840D01*
X202340Y150000D01*
X202340Y160000D01*
X202340Y600000D01*
D16*
X107500Y920000D02*
X107500Y955000D01*
X107500Y920000D02*
X147500Y920000D01*
D15*
X147500Y654840D02*
X202340Y600000D01*
X147500Y654840D02*
X147500Y920000D01*
D14*
X145000Y155000D03*
D15*
X197340Y155000D01*
X202340Y160000D01*
X197340Y155000D02*
X202340Y150000D01*
D14*
X30000Y60000D03*
X30000Y67500D03*
X22500Y60000D03*
X37500Y60000D03*
X30000Y52500D03*
D17*
X129000Y698000D03*
X126000Y692000D03*
X129000Y687000D03*
D14*
X58656Y642800D03*
X47500Y420000D03*
D16*
X54000Y426500D02*
X64000Y426500D01*
X96928Y459428D01*
X96928Y604528D02*
X58656Y642800D01*
X96928Y604528D02*
X96928Y459428D01*
X54000Y426500D02*
X47500Y420000D01*
D14*
X38500Y401000D03*
D16*
X103976Y456476D02*
X103976Y619960D01*
X103976Y456476D02*
X48500Y401000D01*
X38500Y401000D01*
D14*
X62330Y663100D03*
D16*
X62330Y660170D01*
X72500Y650000D02*
X82500Y650000D01*
X87500Y645000D01*
X87500Y636436D01*
X72500Y650000D02*
X62330Y660170D01*
X87500Y636436D02*
X103976Y619960D01*
D14*
X19500Y181000D03*
D16*
X57500Y219000D02*
X57500Y220000D01*
X57500Y219000D02*
X19500Y181000D01*
D14*
X57500Y220000D03*
X77500Y643000D03*
D16*
X77500Y641452D01*
X100452Y618500D01*
X62516Y420000D02*
X56872Y420000D01*
D14*
X56872Y420000D03*
D16*
X100452Y457936D02*
X100452Y618500D01*
X100452Y457936D02*
X62516Y420000D01*
D14*
X130500Y631000D03*
X72500Y690500D03*
X92500Y735000D03*
X126500Y901000D03*
X67500Y27000D03*
X44500Y150000D03*
X19950Y477250D03*
X41300Y286150D03*
X176500Y311500D03*
X177150Y401200D03*
X172500Y465000D03*
X38500Y382500D03*
X56000Y395500D03*
X56000Y347500D03*
X38500Y332000D03*
X62500Y95000D03*
X86000Y149000D03*
X137400Y187900D03*
X96600Y72100D03*
X97300Y50300D03*
X152500Y215000D03*
X12500Y495000D03*
X12500Y505000D03*
X32500Y630000D03*
X176500Y240500D03*
X176500Y286500D03*
X129000Y209500D03*
X152500Y235000D03*
X62500Y105000D03*
X62500Y115000D03*
X62500Y125000D03*
X62500Y135000D03*
X12500Y145000D03*
X22500Y145000D03*
X32500Y145000D03*
X32500Y155000D03*
X22500Y155000D03*
X12500Y155000D03*
X41500Y432500D03*
X177050Y439750D03*
X89500Y168000D03*
X38200Y420000D03*
X177500Y419500D03*
X77500Y50900D03*
X12500Y85000D03*
X12500Y75000D03*
X12500Y65000D03*
X12500Y55000D03*
X12500Y45000D03*
X12500Y35000D03*
X12500Y25000D03*
X32500Y22500D03*
X42500Y22500D03*
X37500Y15000D03*
X47500Y15000D03*
X107300Y50300D03*
X117300Y50300D03*
X156000Y143000D03*
X47500Y180000D03*
X12500Y189000D03*
X42500Y235000D03*
X52500Y235000D03*
X62500Y235000D03*
X72500Y235000D03*
X82500Y235000D03*
X92500Y235000D03*
X136500Y901000D03*
X126500Y886000D03*
X87500Y920000D03*
X135000Y835000D03*
X72500Y920000D03*
X72500Y855000D03*
X182500Y770000D03*
X72500Y845000D03*
X72500Y835000D03*
X72500Y825000D03*
X72500Y815000D03*
X52500Y785000D03*
X52500Y765000D03*
X52500Y775000D03*
X42500Y775000D03*
X52500Y755000D03*
X52500Y745000D03*
X20000Y660000D03*
X32500Y660000D03*
X32500Y650000D03*
X20000Y650000D03*
X20000Y640000D03*
X32500Y640000D03*
X12500Y515000D03*
X12500Y525000D03*
X12500Y535000D03*
X52500Y565000D03*
X52500Y575000D03*
X52500Y585000D03*
X52500Y595000D03*
X42500Y595000D03*
X52500Y525000D03*
X52500Y535000D03*
X52500Y515000D03*
X52500Y505000D03*
X52500Y495000D03*
X52500Y485000D03*
X52500Y475000D03*
X172500Y715000D03*
X172500Y725000D03*
X172500Y735000D03*
X172500Y745000D03*
X202500Y705000D03*
X202500Y715000D03*
X202500Y725000D03*
X202500Y735000D03*
X202500Y745000D03*
X202500Y755000D03*
X202500Y695000D03*
X192500Y765000D03*
X91500Y775000D03*
X91500Y765000D03*
X88500Y785000D03*
X51000Y735000D03*
X42500Y727500D03*
X74000Y712500D03*
X82500Y735000D03*
X82500Y745000D03*
X82500Y755000D03*
X82500Y765000D03*
X82500Y775000D03*
X82500Y475000D03*
X82500Y485000D03*
X82500Y495000D03*
X82500Y505000D03*
X82500Y525000D03*
X82500Y515000D03*
X82500Y535000D03*
X152500Y512500D03*
X142500Y512500D03*
X132500Y512500D03*
X132500Y502500D03*
X132500Y492500D03*
X132500Y482500D03*
X142500Y482500D03*
X152500Y482500D03*
X192000Y512500D03*
X182500Y502500D03*
X182500Y492500D03*
X192000Y482500D03*
X172500Y492500D03*
X172500Y482500D03*
X172500Y502500D03*
X172500Y512500D03*
X132500Y415000D03*
X132500Y405000D03*
X132500Y395000D03*
X132500Y385000D03*
X132500Y375000D03*
X132500Y365000D03*
X92500Y355000D03*
X82500Y355000D03*
X82500Y425000D03*
X92500Y425000D03*
D17*
X166500Y556929D03*
X173964Y566464D03*
X168964Y566464D03*
X177500Y547929D03*
X158964Y566464D03*
X163964Y566464D03*
X172500Y547929D03*
X167500Y547929D03*
X162500Y547929D03*
X161500Y552929D03*
D14*
X202500Y625000D03*
X202500Y635000D03*
X192500Y635000D03*
X202500Y15000D03*
X197500Y20000D03*
X202500Y25000D03*
X197500Y30000D03*
X202500Y35000D03*
X197500Y40000D03*
X202500Y45000D03*
X197500Y50000D03*
X202500Y95000D03*
X197500Y90000D03*
X152500Y50000D03*
X157500Y55000D03*
X127500Y50000D03*
X122300Y110300D03*
X162500Y100000D03*
X177500Y115000D03*
X167500Y105000D03*
X172500Y110000D03*
X137500Y85000D03*
X147500Y85000D03*
X100300Y102600D03*
X100500Y118100D03*
X152500Y100000D03*
X142500Y100000D03*
X172500Y125000D03*
X177500Y720000D03*
X177500Y730000D03*
X177500Y740000D03*
X75000Y27000D03*
D16*
X157500Y55000D02*
X162500Y60000D01*
X162500Y64359D01*
X173141Y75000D02*
X177500Y75000D01*
X173141Y75000D02*
X162500Y64359D01*
D14*
X124500Y770000D03*
X124500Y760000D03*
X124500Y795000D03*
X121500Y735300D03*
X176500Y351500D03*
X59900Y699450D03*
X11400Y619900D03*
X130400Y598800D03*
D17*
X172500Y558929D03*
X180036Y566464D03*
X157500Y547929D03*
X177500Y561929D03*
D14*
X136500Y876000D03*
X80000Y935000D03*
X75000Y935000D03*
X80000Y940000D03*
X65000Y975000D03*
D17*
X168964Y589749D03*
X160429Y591213D03*
X160429Y586213D03*
X178964Y599749D03*
X178964Y594749D03*
X160429Y581213D03*
X178964Y589749D03*
X178964Y584749D03*
X178964Y579749D03*
X173964Y584749D03*
X163964Y594749D03*
X160429Y598284D03*
D14*
X78700Y71200D03*
X137500Y80000D03*
X142500Y80000D03*
X142500Y85000D03*
X147500Y80000D03*
X142500Y75000D03*
X137500Y75000D03*
X192500Y85000D03*
X192500Y90000D03*
X197500Y95000D03*
X202500Y90000D03*
X122300Y105300D03*
X122300Y115300D03*
X152500Y85000D03*
X102300Y50300D03*
X112300Y50300D03*
X122300Y50300D03*
X132500Y50000D03*
X157500Y50000D03*
X156000Y138000D03*
X191800Y119800D03*
X97500Y265000D03*
X97500Y270000D03*
X97500Y275000D03*
X97500Y280000D03*
X97500Y285000D03*
X97500Y290000D03*
X97500Y295000D03*
X97500Y300000D03*
X97500Y305000D03*
X97500Y310000D03*
X97500Y315000D03*
X97500Y320000D03*
X97500Y325000D03*
X97500Y330000D03*
X97500Y335000D03*
X97500Y340000D03*
X127500Y340000D03*
X127500Y335000D03*
X127500Y330000D03*
X127500Y325000D03*
X127500Y320000D03*
X127500Y315000D03*
X127500Y310000D03*
X127500Y305000D03*
X127500Y300000D03*
X127500Y295000D03*
X127500Y290000D03*
X127500Y280000D03*
X127500Y285000D03*
X127500Y275000D03*
X127500Y270000D03*
X127500Y265000D03*
X87500Y355000D03*
X77500Y355000D03*
X97500Y355000D03*
X97500Y425000D03*
X87500Y425000D03*
X132500Y370000D03*
X132500Y380000D03*
X132500Y390000D03*
X132500Y400000D03*
X132500Y410000D03*
X50100Y200000D03*
X85350Y213850D03*
X85250Y186450D03*
X152500Y245000D03*
X42500Y605000D03*
X52500Y22500D03*
X57500Y15000D03*
X32500Y620000D03*
X137500Y535000D03*
X147500Y535000D03*
X157500Y535000D03*
X167500Y535000D03*
X177500Y535000D03*
X187500Y535000D03*
X86500Y369000D03*
X92500Y375000D03*
X80500Y375000D03*
X85500Y381000D03*
X81500Y400000D03*
X86500Y394000D03*
X88500Y406000D03*
X92500Y400000D03*
X101500Y407000D03*
X101500Y369000D03*
X160400Y175400D03*
X160400Y184400D03*
X167400Y191400D03*
X177400Y191400D03*
X183400Y184400D03*
X183400Y175400D03*
X176400Y169400D03*
X168400Y169400D03*
X107500Y720000D03*
X112500Y715000D03*
X107500Y710000D03*
X102500Y715000D03*
X185500Y129000D03*
D16*
X185500Y108641D01*
X145383Y68524D01*
D14*
X92500Y157000D03*
D16*
X92500Y85000D01*
X108976Y68524D01*
X145383Y68524D01*
D14*
X145500Y934500D03*
D16*
X145500Y953100D02*
X143600Y955000D01*
X145500Y953100D02*
X145500Y934500D01*
D14*
X137500Y136000D03*
D15*
X135924Y816576D02*
X72500Y880000D01*
X72500Y882500D01*
D14*
X77500Y875000D03*
X72500Y882500D03*
X97500Y675000D03*
X97500Y670000D03*
X97500Y665000D03*
X97500Y660000D03*
X97500Y655000D03*
X97500Y650000D03*
X97500Y645000D03*
X97500Y640000D03*
X115500Y640000D03*
X115500Y645000D03*
X115500Y650000D03*
D15*
X115024Y701821D02*
X135924Y722721D01*
X135924Y816576D01*
X115024Y701821D02*
X115024Y158476D01*
D14*
X115500Y655000D03*
X115500Y660000D03*
X115500Y665000D03*
X115500Y670000D03*
X115500Y675000D03*
D15*
X115024Y158476D02*
X137500Y136000D01*
D17*
X81000Y722000D03*
D16*
X97500Y705416D02*
X97500Y675000D01*
X97500Y705416D02*
X91920Y710996D01*
X91920Y711080D01*
X81000Y722000D01*
D14*
X170500Y60000D03*
X184500Y60000D03*
X177500Y54000D03*
X177500Y66000D03*
M02*
