G04 EAGLE Gerber RS-274X export*
G75*
%MOMM*%
%FSLAX34Y34*%
%LPD*%
%INSilkscreen Bottom*%
%IPPOS*%
%AMOC8*
5,1,8,0,0,1.08239X$1,22.5*%
G01*
%ADD10C,0.508000*%
%ADD11C,0.152400*%
%ADD12C,0.076200*%
%ADD13R,0.012700X0.012700*%
%ADD14R,0.012700X0.101600*%
%ADD15R,0.012700X0.139700*%
%ADD16R,0.012700X0.203200*%
%ADD17R,0.012700X0.241300*%
%ADD18R,0.012700X0.330200*%
%ADD19R,0.012700X0.368300*%
%ADD20R,0.012700X0.431800*%
%ADD21R,0.012700X0.469900*%
%ADD22R,0.012700X0.533400*%
%ADD23R,0.012700X0.571500*%
%ADD24R,0.012700X0.660400*%
%ADD25R,0.012700X0.698500*%
%ADD26R,0.012700X0.762000*%
%ADD27R,0.012700X0.800100*%
%ADD28R,0.012700X0.863600*%
%ADD29R,0.012700X0.927100*%
%ADD30R,0.012700X0.965200*%
%ADD31R,0.012700X0.977900*%
%ADD32R,0.012700X0.825500*%
%ADD33R,0.012700X1.054100*%
%ADD34R,0.012700X1.155700*%
%ADD35R,0.012700X1.104900*%
%ADD36R,0.012700X1.257300*%
%ADD37R,0.012700X1.460500*%
%ADD38R,0.012700X1.689100*%
%ADD39R,0.012700X1.333500*%
%ADD40R,0.012700X1.536700*%
%ADD41R,0.012700X1.816100*%
%ADD42R,0.012700X1.435100*%
%ADD43R,0.012700X1.638300*%
%ADD44R,0.012700X1.854200*%
%ADD45R,0.012700X1.485900*%
%ADD46R,0.012700X1.663700*%
%ADD47R,0.012700X1.917700*%
%ADD48R,0.012700X1.562100*%
%ADD49R,0.012700X1.739900*%
%ADD50R,0.012700X1.968500*%
%ADD51R,0.012700X1.765300*%
%ADD52R,0.012700X0.025400*%
%ADD53R,0.012700X2.032000*%
%ADD54R,0.012700X0.088900*%
%ADD55R,0.012700X2.044700*%
%ADD56R,0.012700X1.841500*%
%ADD57R,0.012700X2.120900*%
%ADD58R,0.012700X1.790700*%
%ADD59R,0.012700X1.892300*%
%ADD60R,0.012700X0.190500*%
%ADD61R,0.012700X0.266700*%
%ADD62R,0.012700X2.171700*%
%ADD63R,0.012700X1.866900*%
%ADD64R,0.012700X1.943100*%
%ADD65R,0.012700X0.292100*%
%ADD66R,0.012700X1.905000*%
%ADD67R,0.012700X2.222500*%
%ADD68R,0.012700X1.993900*%
%ADD69R,0.012700X0.419100*%
%ADD70R,0.012700X2.247900*%
%ADD71R,0.012700X2.273300*%
%ADD72R,0.012700X2.019300*%
%ADD73R,0.012700X0.520700*%
%ADD74R,0.012700X2.298700*%
%ADD75R,0.012700X2.057400*%
%ADD76R,0.012700X2.311400*%
%ADD77R,0.012700X2.095500*%
%ADD78R,0.012700X0.647700*%
%ADD79R,0.012700X2.324100*%
%ADD80R,0.012700X2.146300*%
%ADD81R,0.012700X2.374900*%
%ADD82R,0.012700X0.749300*%
%ADD83R,0.012700X2.197100*%
%ADD84R,0.012700X0.787400*%
%ADD85R,0.012700X2.400300*%
%ADD86R,0.012700X0.850900*%
%ADD87R,0.012700X2.413000*%
%ADD88R,0.012700X0.901700*%
%ADD89R,0.012700X2.425700*%
%ADD90R,0.012700X2.451100*%
%ADD91R,0.012700X2.463800*%
%ADD92R,0.012700X2.349500*%
%ADD93R,0.012700X2.476500*%
%ADD94R,0.012700X2.362200*%
%ADD95R,0.012700X2.489200*%
%ADD96R,0.012700X2.501900*%
%ADD97R,0.012700X2.540000*%
%ADD98R,0.012700X2.527300*%
%ADD99R,0.012700X2.552700*%
%ADD100R,0.012700X2.565400*%
%ADD101R,0.012700X2.578100*%
%ADD102R,0.012700X2.603500*%
%ADD103R,0.012700X2.616200*%
%ADD104R,0.012700X2.628900*%
%ADD105R,0.012700X2.654300*%
%ADD106R,0.012700X2.679700*%
%ADD107R,0.012700X2.667000*%
%ADD108R,0.012700X2.717800*%
%ADD109R,0.012700X2.705100*%
%ADD110R,0.012700X2.692400*%
%ADD111R,0.012700X2.730500*%
%ADD112R,0.012700X2.755900*%
%ADD113R,0.012700X2.781300*%
%ADD114R,0.012700X2.794000*%
%ADD115R,0.012700X2.806700*%
%ADD116R,0.012700X2.832100*%
%ADD117R,0.012700X2.743200*%
%ADD118R,0.012700X2.857500*%
%ADD119R,0.012700X2.882900*%
%ADD120R,0.012700X2.768600*%
%ADD121R,0.012700X2.895600*%
%ADD122R,0.012700X2.908300*%
%ADD123R,0.012700X2.933700*%
%ADD124R,0.012700X0.546100*%
%ADD125R,0.012700X0.596900*%
%ADD126R,0.012700X2.819400*%
%ADD127R,0.012700X2.946400*%
%ADD128R,0.012700X2.959100*%
%ADD129R,0.012700X0.723900*%
%ADD130R,0.012700X2.984500*%
%ADD131R,0.012700X0.838200*%
%ADD132R,0.012700X1.447800*%
%ADD133R,0.012700X1.358900*%
%ADD134R,0.012700X2.641600*%
%ADD135R,0.012700X1.003300*%
%ADD136R,0.012700X1.282700*%
%ADD137R,0.012700X1.028700*%
%ADD138R,0.012700X1.092200*%
%ADD139R,0.012700X2.870200*%
%ADD140R,0.012700X1.231900*%
%ADD141R,0.012700X1.181100*%
%ADD142R,0.012700X1.206500*%
%ADD143R,0.012700X1.219200*%
%ADD144R,0.012700X1.409700*%
%ADD145R,0.012700X0.063500*%
%ADD146R,0.012700X1.193800*%
%ADD147R,0.012700X1.384300*%
%ADD148R,0.012700X0.127000*%
%ADD149R,0.012700X1.308100*%
%ADD150R,0.012700X0.254000*%
%ADD151R,0.012700X1.168400*%
%ADD152R,0.012700X0.355600*%
%ADD153R,0.012700X0.393700*%
%ADD154R,0.012700X0.482600*%
%ADD155R,0.012700X0.584200*%
%ADD156R,0.012700X1.511300*%
%ADD157R,0.012700X1.143000*%
%ADD158R,0.012700X1.130300*%
%ADD159R,0.012700X0.622300*%
%ADD160R,0.012700X0.685800*%
%ADD161R,0.012700X0.812800*%
%ADD162R,0.012700X1.117600*%
%ADD163R,0.012700X1.587500*%
%ADD164R,0.012700X2.159000*%
%ADD165R,0.012700X0.914400*%
%ADD166R,0.012700X1.612900*%
%ADD167R,0.012700X0.952500*%
%ADD168R,0.012700X1.600200*%
%ADD169R,0.012700X2.260600*%
%ADD170R,0.012700X1.625600*%
%ADD171R,0.012700X1.079500*%
%ADD172R,0.012700X1.066800*%
%ADD173R,0.012700X0.609600*%
%ADD174R,0.012700X1.714500*%
%ADD175R,0.012700X1.041400*%
%ADD176R,0.012700X1.727200*%
%ADD177R,0.012700X0.038100*%
%ADD178R,0.012700X4.114800*%
%ADD179R,0.012700X1.828800*%
%ADD180R,0.012700X4.127500*%
%ADD181R,0.012700X1.016000*%
%ADD182R,0.012700X4.140200*%
%ADD183R,0.012700X0.990600*%
%ADD184R,0.012700X4.152900*%
%ADD185R,0.012700X4.165600*%
%ADD186R,0.012700X2.514600*%
%ADD187R,0.012700X2.387600*%
%ADD188R,0.012700X2.184400*%
%ADD189R,0.012700X2.006600*%
%ADD190R,0.012700X1.676400*%
%ADD191R,0.012700X0.939800*%
%ADD192R,0.012700X1.270000*%
%ADD193R,0.012700X1.549400*%
%ADD194R,0.012700X1.397000*%
%ADD195R,0.012700X2.844800*%
%ADD196R,0.012700X0.152400*%
%ADD197R,0.012700X1.371600*%
%ADD198R,0.012700X0.050800*%
%ADD199R,0.012700X2.438400*%
%ADD200R,0.012700X2.286000*%
%ADD201R,0.012700X2.235200*%
%ADD202R,0.012700X2.209800*%
%ADD203R,0.012700X2.108200*%
%ADD204R,0.012700X2.070100*%
%ADD205R,0.012700X1.955800*%
%ADD206R,0.012700X1.930400*%
%ADD207R,0.012700X1.803400*%
%ADD208R,0.012700X0.876300*%
%ADD209R,0.012700X1.574800*%
%ADD210R,0.012700X1.473200*%
%ADD211R,0.012700X0.317500*%
%ADD212R,0.012700X0.673100*%
%ADD213R,0.012700X0.558800*%
%ADD214R,0.012700X0.228600*%
%ADD215R,0.012700X0.165100*%
%ADD216C,0.127000*%


D10*
X131112Y683346D02*
X91488Y683346D01*
X111300Y663534D02*
X111300Y703158D01*
D11*
X131738Y77018D02*
X126319Y60762D01*
X120901Y77018D01*
X115204Y73406D02*
X110688Y77018D01*
X110688Y60762D01*
X106173Y60762D02*
X115204Y60762D01*
X100198Y60762D02*
X100198Y61665D01*
X99295Y61665D01*
X99295Y60762D01*
X100198Y60762D01*
X93320Y60762D02*
X88804Y60762D01*
X88671Y60764D01*
X88539Y60770D01*
X88407Y60780D01*
X88275Y60793D01*
X88143Y60811D01*
X88013Y60832D01*
X87882Y60857D01*
X87753Y60886D01*
X87625Y60919D01*
X87497Y60955D01*
X87371Y60995D01*
X87246Y61039D01*
X87122Y61087D01*
X87000Y61138D01*
X86879Y61193D01*
X86760Y61251D01*
X86642Y61313D01*
X86527Y61378D01*
X86413Y61447D01*
X86302Y61518D01*
X86193Y61594D01*
X86086Y61672D01*
X85981Y61753D01*
X85879Y61838D01*
X85779Y61925D01*
X85682Y62015D01*
X85587Y62108D01*
X85496Y62204D01*
X85407Y62302D01*
X85321Y62403D01*
X85238Y62507D01*
X85158Y62613D01*
X85082Y62721D01*
X85008Y62831D01*
X84938Y62944D01*
X84871Y63058D01*
X84808Y63175D01*
X84748Y63293D01*
X84691Y63413D01*
X84638Y63535D01*
X84589Y63658D01*
X84543Y63782D01*
X84501Y63908D01*
X84463Y64035D01*
X84428Y64163D01*
X84397Y64292D01*
X84370Y64421D01*
X84347Y64552D01*
X84327Y64683D01*
X84312Y64815D01*
X84300Y64947D01*
X84292Y65079D01*
X84288Y65212D01*
X84288Y65344D01*
X84292Y65477D01*
X84300Y65609D01*
X84312Y65741D01*
X84327Y65873D01*
X84347Y66004D01*
X84370Y66135D01*
X84397Y66264D01*
X84428Y66393D01*
X84463Y66521D01*
X84501Y66648D01*
X84543Y66774D01*
X84589Y66898D01*
X84638Y67021D01*
X84691Y67143D01*
X84748Y67263D01*
X84808Y67381D01*
X84871Y67498D01*
X84938Y67612D01*
X85008Y67725D01*
X85082Y67835D01*
X85158Y67943D01*
X85238Y68049D01*
X85321Y68153D01*
X85407Y68254D01*
X85496Y68352D01*
X85587Y68448D01*
X85682Y68541D01*
X85779Y68631D01*
X85879Y68718D01*
X85981Y68803D01*
X86086Y68884D01*
X86193Y68962D01*
X86302Y69038D01*
X86413Y69109D01*
X86527Y69178D01*
X86642Y69243D01*
X86760Y69305D01*
X86879Y69363D01*
X87000Y69418D01*
X87122Y69469D01*
X87246Y69517D01*
X87371Y69561D01*
X87497Y69601D01*
X87625Y69637D01*
X87753Y69670D01*
X87882Y69699D01*
X88013Y69724D01*
X88143Y69745D01*
X88275Y69763D01*
X88407Y69776D01*
X88539Y69786D01*
X88671Y69792D01*
X88804Y69794D01*
X87901Y77018D02*
X93320Y77018D01*
X87901Y77018D02*
X87782Y77016D01*
X87662Y77010D01*
X87543Y77000D01*
X87425Y76986D01*
X87306Y76969D01*
X87189Y76947D01*
X87072Y76922D01*
X86957Y76892D01*
X86842Y76859D01*
X86728Y76822D01*
X86616Y76782D01*
X86505Y76737D01*
X86396Y76689D01*
X86288Y76638D01*
X86182Y76583D01*
X86078Y76524D01*
X85976Y76462D01*
X85876Y76397D01*
X85778Y76328D01*
X85682Y76256D01*
X85589Y76181D01*
X85499Y76104D01*
X85411Y76023D01*
X85326Y75939D01*
X85244Y75852D01*
X85164Y75763D01*
X85088Y75671D01*
X85014Y75577D01*
X84944Y75480D01*
X84877Y75382D01*
X84813Y75281D01*
X84753Y75177D01*
X84696Y75072D01*
X84643Y74965D01*
X84593Y74857D01*
X84547Y74747D01*
X84505Y74635D01*
X84466Y74522D01*
X84431Y74408D01*
X84400Y74293D01*
X84372Y74176D01*
X84349Y74059D01*
X84329Y73942D01*
X84313Y73823D01*
X84301Y73704D01*
X84293Y73585D01*
X84289Y73466D01*
X84289Y73346D01*
X84293Y73227D01*
X84301Y73108D01*
X84313Y72989D01*
X84329Y72870D01*
X84349Y72753D01*
X84372Y72636D01*
X84400Y72519D01*
X84431Y72404D01*
X84466Y72290D01*
X84505Y72177D01*
X84547Y72065D01*
X84593Y71955D01*
X84643Y71847D01*
X84696Y71740D01*
X84753Y71635D01*
X84813Y71531D01*
X84877Y71430D01*
X84944Y71332D01*
X85014Y71235D01*
X85088Y71141D01*
X85164Y71049D01*
X85244Y70960D01*
X85326Y70873D01*
X85411Y70789D01*
X85499Y70708D01*
X85589Y70631D01*
X85682Y70556D01*
X85778Y70484D01*
X85876Y70415D01*
X85976Y70350D01*
X86078Y70288D01*
X86182Y70229D01*
X86288Y70174D01*
X86396Y70123D01*
X86505Y70075D01*
X86616Y70030D01*
X86728Y69990D01*
X86842Y69953D01*
X86957Y69920D01*
X87072Y69890D01*
X87189Y69865D01*
X87306Y69843D01*
X87425Y69826D01*
X87543Y69812D01*
X87662Y69802D01*
X87782Y69796D01*
X87901Y69794D01*
X87901Y69793D02*
X91514Y69793D01*
X105482Y297053D02*
X121738Y297053D01*
X105482Y297053D02*
X105482Y304278D01*
X109094Y309910D02*
X112707Y309910D01*
X112826Y309912D01*
X112946Y309918D01*
X113065Y309928D01*
X113183Y309942D01*
X113302Y309959D01*
X113419Y309981D01*
X113536Y310006D01*
X113651Y310036D01*
X113766Y310069D01*
X113880Y310106D01*
X113992Y310146D01*
X114103Y310191D01*
X114212Y310239D01*
X114320Y310290D01*
X114426Y310345D01*
X114530Y310404D01*
X114632Y310466D01*
X114732Y310531D01*
X114830Y310600D01*
X114926Y310672D01*
X115019Y310747D01*
X115109Y310824D01*
X115197Y310905D01*
X115282Y310989D01*
X115364Y311076D01*
X115444Y311165D01*
X115520Y311257D01*
X115594Y311351D01*
X115664Y311448D01*
X115731Y311546D01*
X115795Y311647D01*
X115855Y311751D01*
X115912Y311856D01*
X115965Y311963D01*
X116015Y312071D01*
X116061Y312181D01*
X116103Y312293D01*
X116142Y312406D01*
X116177Y312520D01*
X116208Y312635D01*
X116236Y312752D01*
X116259Y312869D01*
X116279Y312986D01*
X116295Y313105D01*
X116307Y313224D01*
X116315Y313343D01*
X116319Y313462D01*
X116319Y313582D01*
X116315Y313701D01*
X116307Y313820D01*
X116295Y313939D01*
X116279Y314058D01*
X116259Y314175D01*
X116236Y314292D01*
X116208Y314409D01*
X116177Y314524D01*
X116142Y314638D01*
X116103Y314751D01*
X116061Y314863D01*
X116015Y314973D01*
X115965Y315081D01*
X115912Y315188D01*
X115855Y315293D01*
X115795Y315397D01*
X115731Y315498D01*
X115664Y315596D01*
X115594Y315693D01*
X115520Y315787D01*
X115444Y315879D01*
X115364Y315968D01*
X115282Y316055D01*
X115197Y316139D01*
X115109Y316220D01*
X115019Y316297D01*
X114926Y316372D01*
X114830Y316444D01*
X114732Y316513D01*
X114632Y316578D01*
X114530Y316640D01*
X114426Y316699D01*
X114320Y316754D01*
X114212Y316805D01*
X114103Y316853D01*
X113992Y316898D01*
X113880Y316938D01*
X113766Y316975D01*
X113651Y317008D01*
X113536Y317038D01*
X113419Y317063D01*
X113302Y317085D01*
X113183Y317102D01*
X113065Y317116D01*
X112946Y317126D01*
X112826Y317132D01*
X112707Y317134D01*
X112707Y317135D02*
X109094Y317135D01*
X109094Y317134D02*
X108975Y317132D01*
X108855Y317126D01*
X108736Y317116D01*
X108618Y317102D01*
X108499Y317085D01*
X108382Y317063D01*
X108265Y317038D01*
X108150Y317008D01*
X108035Y316975D01*
X107921Y316938D01*
X107809Y316898D01*
X107698Y316853D01*
X107589Y316805D01*
X107481Y316754D01*
X107375Y316699D01*
X107271Y316640D01*
X107169Y316578D01*
X107069Y316513D01*
X106971Y316444D01*
X106875Y316372D01*
X106782Y316297D01*
X106692Y316220D01*
X106604Y316139D01*
X106519Y316055D01*
X106437Y315968D01*
X106357Y315879D01*
X106281Y315787D01*
X106207Y315693D01*
X106137Y315596D01*
X106070Y315498D01*
X106006Y315397D01*
X105946Y315293D01*
X105889Y315188D01*
X105836Y315081D01*
X105786Y314973D01*
X105740Y314863D01*
X105698Y314751D01*
X105659Y314638D01*
X105624Y314524D01*
X105593Y314409D01*
X105565Y314292D01*
X105542Y314175D01*
X105522Y314058D01*
X105506Y313939D01*
X105494Y313820D01*
X105486Y313701D01*
X105482Y313582D01*
X105482Y313462D01*
X105486Y313343D01*
X105494Y313224D01*
X105506Y313105D01*
X105522Y312986D01*
X105542Y312869D01*
X105565Y312752D01*
X105593Y312635D01*
X105624Y312520D01*
X105659Y312406D01*
X105698Y312293D01*
X105740Y312181D01*
X105786Y312071D01*
X105836Y311963D01*
X105889Y311856D01*
X105946Y311751D01*
X106006Y311647D01*
X106070Y311546D01*
X106137Y311448D01*
X106207Y311351D01*
X106281Y311257D01*
X106357Y311165D01*
X106437Y311076D01*
X106519Y310989D01*
X106604Y310905D01*
X106692Y310824D01*
X106782Y310747D01*
X106875Y310672D01*
X106971Y310600D01*
X107069Y310531D01*
X107169Y310466D01*
X107271Y310404D01*
X107375Y310345D01*
X107481Y310290D01*
X107589Y310239D01*
X107698Y310191D01*
X107809Y310146D01*
X107921Y310106D01*
X108035Y310069D01*
X108150Y310036D01*
X108265Y310006D01*
X108382Y309981D01*
X108499Y309959D01*
X108618Y309942D01*
X108736Y309928D01*
X108855Y309918D01*
X108975Y309912D01*
X109094Y309910D01*
X116319Y322936D02*
X105482Y326548D01*
X116319Y330161D01*
X116319Y335927D02*
X105482Y335927D01*
X120835Y335476D02*
X121738Y335476D01*
X121738Y336379D01*
X120835Y336379D01*
X120835Y335476D01*
X116319Y342736D02*
X105482Y342736D01*
X116319Y342736D02*
X116319Y347251D01*
X116317Y347352D01*
X116311Y347453D01*
X116302Y347554D01*
X116289Y347655D01*
X116272Y347755D01*
X116251Y347854D01*
X116227Y347952D01*
X116199Y348049D01*
X116167Y348146D01*
X116132Y348241D01*
X116093Y348334D01*
X116051Y348426D01*
X116005Y348517D01*
X115956Y348606D01*
X115904Y348692D01*
X115848Y348777D01*
X115790Y348860D01*
X115728Y348940D01*
X115663Y349018D01*
X115596Y349094D01*
X115526Y349167D01*
X115453Y349237D01*
X115377Y349304D01*
X115299Y349369D01*
X115219Y349431D01*
X115136Y349489D01*
X115051Y349545D01*
X114965Y349597D01*
X114876Y349646D01*
X114785Y349692D01*
X114693Y349734D01*
X114600Y349773D01*
X114505Y349808D01*
X114408Y349840D01*
X114311Y349868D01*
X114213Y349892D01*
X114114Y349913D01*
X114014Y349930D01*
X113913Y349943D01*
X113812Y349952D01*
X113711Y349958D01*
X113610Y349960D01*
X105482Y349960D01*
X105482Y359440D02*
X105482Y363955D01*
X105482Y359440D02*
X105484Y359339D01*
X105490Y359238D01*
X105499Y359137D01*
X105512Y359036D01*
X105529Y358936D01*
X105550Y358837D01*
X105574Y358739D01*
X105602Y358642D01*
X105634Y358545D01*
X105669Y358450D01*
X105708Y358357D01*
X105750Y358265D01*
X105796Y358174D01*
X105845Y358086D01*
X105897Y357999D01*
X105953Y357914D01*
X106011Y357831D01*
X106073Y357751D01*
X106138Y357673D01*
X106205Y357597D01*
X106275Y357524D01*
X106348Y357454D01*
X106424Y357387D01*
X106502Y357322D01*
X106582Y357260D01*
X106665Y357202D01*
X106750Y357146D01*
X106837Y357094D01*
X106925Y357045D01*
X107016Y356999D01*
X107108Y356957D01*
X107201Y356918D01*
X107296Y356883D01*
X107393Y356851D01*
X107490Y356823D01*
X107588Y356799D01*
X107687Y356778D01*
X107787Y356761D01*
X107888Y356748D01*
X107989Y356739D01*
X108090Y356733D01*
X108191Y356731D01*
X108191Y356730D02*
X113610Y356730D01*
X113610Y356731D02*
X113711Y356733D01*
X113812Y356739D01*
X113913Y356748D01*
X114014Y356761D01*
X114114Y356778D01*
X114213Y356799D01*
X114311Y356823D01*
X114408Y356851D01*
X114505Y356883D01*
X114600Y356918D01*
X114693Y356957D01*
X114785Y356999D01*
X114876Y357045D01*
X114964Y357094D01*
X115051Y357146D01*
X115136Y357202D01*
X115219Y357260D01*
X115299Y357322D01*
X115377Y357387D01*
X115453Y357454D01*
X115526Y357524D01*
X115596Y357597D01*
X115663Y357673D01*
X115728Y357751D01*
X115790Y357831D01*
X115848Y357914D01*
X115904Y357999D01*
X115956Y358086D01*
X116005Y358174D01*
X116051Y358265D01*
X116093Y358357D01*
X116132Y358450D01*
X116167Y358545D01*
X116199Y358642D01*
X116227Y358739D01*
X116251Y358837D01*
X116272Y358936D01*
X116289Y359036D01*
X116302Y359137D01*
X116311Y359238D01*
X116317Y359339D01*
X116319Y359440D01*
X116319Y363955D01*
X102773Y363955D01*
X102669Y363953D01*
X102566Y363947D01*
X102462Y363937D01*
X102359Y363923D01*
X102257Y363905D01*
X102156Y363884D01*
X102055Y363858D01*
X101956Y363829D01*
X101857Y363796D01*
X101760Y363759D01*
X101665Y363718D01*
X101571Y363674D01*
X101479Y363626D01*
X101389Y363575D01*
X101300Y363520D01*
X101214Y363462D01*
X101131Y363400D01*
X101049Y363336D01*
X100971Y363268D01*
X100895Y363198D01*
X100821Y363125D01*
X100751Y363048D01*
X100683Y362970D01*
X100619Y362888D01*
X100557Y362805D01*
X100499Y362719D01*
X100444Y362630D01*
X100393Y362540D01*
X100345Y362448D01*
X100301Y362354D01*
X100260Y362259D01*
X100223Y362162D01*
X100190Y362063D01*
X100161Y361964D01*
X100135Y361863D01*
X100114Y361762D01*
X100096Y361660D01*
X100082Y361557D01*
X100072Y361453D01*
X100066Y361350D01*
X100064Y361246D01*
X100063Y361246D02*
X100063Y357633D01*
X108191Y371109D02*
X121738Y371109D01*
X108191Y371109D02*
X108090Y371111D01*
X107989Y371117D01*
X107888Y371126D01*
X107787Y371139D01*
X107687Y371156D01*
X107588Y371177D01*
X107490Y371201D01*
X107393Y371229D01*
X107296Y371261D01*
X107201Y371296D01*
X107108Y371335D01*
X107016Y371377D01*
X106925Y371423D01*
X106837Y371472D01*
X106750Y371524D01*
X106665Y371580D01*
X106582Y371638D01*
X106502Y371700D01*
X106424Y371765D01*
X106348Y371832D01*
X106275Y371902D01*
X106205Y371975D01*
X106138Y372051D01*
X106073Y372129D01*
X106011Y372209D01*
X105953Y372292D01*
X105897Y372377D01*
X105845Y372464D01*
X105796Y372552D01*
X105750Y372643D01*
X105708Y372735D01*
X105669Y372828D01*
X105634Y372923D01*
X105602Y373020D01*
X105574Y373117D01*
X105550Y373215D01*
X105529Y373314D01*
X105512Y373414D01*
X105499Y373515D01*
X105490Y373616D01*
X105484Y373717D01*
X105482Y373818D01*
X100063Y378687D02*
X100063Y380494D01*
X116319Y385912D01*
X116319Y378687D02*
X105482Y382300D01*
X105482Y403762D02*
X105482Y407374D01*
X105482Y403762D02*
X105484Y403644D01*
X105490Y403526D01*
X105499Y403408D01*
X105513Y403291D01*
X105530Y403174D01*
X105551Y403057D01*
X105576Y402942D01*
X105605Y402827D01*
X105638Y402713D01*
X105674Y402601D01*
X105714Y402490D01*
X105757Y402380D01*
X105804Y402271D01*
X105854Y402164D01*
X105909Y402059D01*
X105966Y401956D01*
X106027Y401855D01*
X106091Y401755D01*
X106158Y401658D01*
X106228Y401563D01*
X106302Y401471D01*
X106378Y401380D01*
X106458Y401293D01*
X106540Y401208D01*
X106625Y401126D01*
X106712Y401046D01*
X106803Y400970D01*
X106895Y400896D01*
X106990Y400826D01*
X107087Y400759D01*
X107187Y400695D01*
X107288Y400634D01*
X107391Y400577D01*
X107496Y400522D01*
X107603Y400472D01*
X107712Y400425D01*
X107822Y400382D01*
X107933Y400342D01*
X108045Y400306D01*
X108159Y400273D01*
X108274Y400244D01*
X108389Y400219D01*
X108506Y400198D01*
X108623Y400181D01*
X108740Y400167D01*
X108858Y400158D01*
X108976Y400152D01*
X109094Y400150D01*
X109094Y400149D02*
X118126Y400149D01*
X118126Y400150D02*
X118244Y400152D01*
X118362Y400158D01*
X118480Y400167D01*
X118597Y400181D01*
X118714Y400198D01*
X118831Y400219D01*
X118946Y400244D01*
X119061Y400273D01*
X119175Y400306D01*
X119287Y400342D01*
X119398Y400382D01*
X119508Y400425D01*
X119617Y400472D01*
X119724Y400522D01*
X119829Y400576D01*
X119932Y400634D01*
X120033Y400695D01*
X120133Y400759D01*
X120230Y400826D01*
X120325Y400896D01*
X120417Y400970D01*
X120508Y401046D01*
X120595Y401126D01*
X120680Y401208D01*
X120762Y401293D01*
X120842Y401380D01*
X120918Y401471D01*
X120992Y401563D01*
X121062Y401658D01*
X121129Y401755D01*
X121193Y401855D01*
X121254Y401956D01*
X121311Y402059D01*
X121365Y402164D01*
X121416Y402271D01*
X121463Y402380D01*
X121506Y402490D01*
X121546Y402601D01*
X121582Y402713D01*
X121615Y402827D01*
X121644Y402942D01*
X121669Y403057D01*
X121690Y403174D01*
X121707Y403291D01*
X121721Y403408D01*
X121730Y403526D01*
X121736Y403644D01*
X121738Y403762D01*
X121738Y407374D01*
X116319Y413682D02*
X105482Y413682D01*
X116319Y413682D02*
X116319Y419101D01*
X114513Y419101D01*
X111804Y427105D02*
X111804Y431169D01*
X111804Y427105D02*
X111802Y426993D01*
X111796Y426882D01*
X111786Y426771D01*
X111773Y426660D01*
X111755Y426550D01*
X111733Y426441D01*
X111708Y426332D01*
X111679Y426224D01*
X111646Y426118D01*
X111609Y426012D01*
X111569Y425908D01*
X111525Y425806D01*
X111477Y425705D01*
X111426Y425606D01*
X111371Y425508D01*
X111313Y425413D01*
X111252Y425320D01*
X111187Y425229D01*
X111119Y425140D01*
X111048Y425054D01*
X110975Y424971D01*
X110898Y424890D01*
X110818Y424811D01*
X110736Y424736D01*
X110651Y424664D01*
X110564Y424594D01*
X110474Y424528D01*
X110382Y424465D01*
X110287Y424405D01*
X110191Y424349D01*
X110093Y424296D01*
X109993Y424247D01*
X109891Y424201D01*
X109788Y424159D01*
X109683Y424120D01*
X109577Y424085D01*
X109470Y424054D01*
X109362Y424027D01*
X109253Y424003D01*
X109143Y423984D01*
X109033Y423968D01*
X108922Y423956D01*
X108810Y423948D01*
X108699Y423944D01*
X108587Y423944D01*
X108476Y423948D01*
X108364Y423956D01*
X108253Y423968D01*
X108143Y423984D01*
X108033Y424003D01*
X107924Y424027D01*
X107816Y424054D01*
X107709Y424085D01*
X107603Y424120D01*
X107498Y424159D01*
X107395Y424201D01*
X107293Y424247D01*
X107193Y424296D01*
X107095Y424349D01*
X106999Y424405D01*
X106904Y424465D01*
X106812Y424528D01*
X106722Y424594D01*
X106635Y424664D01*
X106550Y424736D01*
X106468Y424811D01*
X106388Y424890D01*
X106311Y424971D01*
X106238Y425054D01*
X106167Y425140D01*
X106099Y425229D01*
X106034Y425320D01*
X105973Y425413D01*
X105915Y425508D01*
X105860Y425606D01*
X105809Y425705D01*
X105761Y425806D01*
X105717Y425908D01*
X105677Y426012D01*
X105640Y426118D01*
X105607Y426224D01*
X105578Y426332D01*
X105553Y426441D01*
X105531Y426550D01*
X105513Y426660D01*
X105500Y426771D01*
X105490Y426882D01*
X105484Y426993D01*
X105482Y427105D01*
X105482Y431169D01*
X113610Y431169D01*
X113711Y431167D01*
X113812Y431161D01*
X113913Y431152D01*
X114014Y431139D01*
X114114Y431122D01*
X114213Y431101D01*
X114311Y431077D01*
X114408Y431049D01*
X114505Y431017D01*
X114600Y430982D01*
X114693Y430943D01*
X114785Y430901D01*
X114876Y430855D01*
X114965Y430806D01*
X115051Y430754D01*
X115136Y430698D01*
X115219Y430640D01*
X115299Y430578D01*
X115377Y430513D01*
X115453Y430446D01*
X115526Y430376D01*
X115596Y430303D01*
X115663Y430227D01*
X115728Y430149D01*
X115790Y430069D01*
X115848Y429986D01*
X115904Y429901D01*
X115956Y429815D01*
X116005Y429726D01*
X116051Y429635D01*
X116093Y429543D01*
X116132Y429450D01*
X116167Y429355D01*
X116199Y429258D01*
X116227Y429161D01*
X116251Y429063D01*
X116272Y428964D01*
X116289Y428864D01*
X116302Y428763D01*
X116311Y428662D01*
X116317Y428561D01*
X116319Y428460D01*
X116319Y424848D01*
X119029Y438974D02*
X105482Y438974D01*
X119029Y438974D02*
X119133Y438976D01*
X119236Y438982D01*
X119340Y438992D01*
X119443Y439006D01*
X119545Y439024D01*
X119646Y439045D01*
X119747Y439071D01*
X119846Y439100D01*
X119945Y439133D01*
X120042Y439170D01*
X120137Y439211D01*
X120231Y439255D01*
X120323Y439303D01*
X120413Y439354D01*
X120502Y439409D01*
X120588Y439467D01*
X120671Y439529D01*
X120753Y439593D01*
X120831Y439661D01*
X120907Y439731D01*
X120981Y439804D01*
X121051Y439881D01*
X121119Y439959D01*
X121183Y440041D01*
X121245Y440124D01*
X121303Y440210D01*
X121358Y440299D01*
X121409Y440389D01*
X121457Y440481D01*
X121501Y440575D01*
X121542Y440670D01*
X121579Y440767D01*
X121612Y440866D01*
X121641Y440965D01*
X121667Y441066D01*
X121688Y441167D01*
X121706Y441269D01*
X121720Y441372D01*
X121730Y441476D01*
X121736Y441579D01*
X121738Y441683D01*
X121738Y442586D01*
X116319Y442586D02*
X116319Y437167D01*
X116319Y445646D02*
X116319Y451065D01*
X121738Y447453D02*
X108191Y447453D01*
X108090Y447455D01*
X107989Y447461D01*
X107888Y447470D01*
X107787Y447483D01*
X107687Y447500D01*
X107588Y447521D01*
X107490Y447545D01*
X107393Y447573D01*
X107296Y447605D01*
X107201Y447640D01*
X107108Y447679D01*
X107016Y447721D01*
X106925Y447767D01*
X106837Y447816D01*
X106750Y447868D01*
X106665Y447924D01*
X106582Y447982D01*
X106502Y448044D01*
X106424Y448109D01*
X106348Y448176D01*
X106275Y448246D01*
X106205Y448319D01*
X106138Y448395D01*
X106073Y448473D01*
X106011Y448553D01*
X105953Y448636D01*
X105897Y448721D01*
X105845Y448808D01*
X105796Y448896D01*
X105750Y448987D01*
X105708Y449079D01*
X105669Y449172D01*
X105634Y449267D01*
X105602Y449364D01*
X105574Y449461D01*
X105550Y449559D01*
X105529Y449658D01*
X105512Y449758D01*
X105499Y449859D01*
X105490Y449960D01*
X105484Y450061D01*
X105482Y450162D01*
X105482Y451065D01*
X105482Y459553D02*
X105482Y464068D01*
X105482Y459553D02*
X105484Y459452D01*
X105490Y459351D01*
X105499Y459250D01*
X105512Y459149D01*
X105529Y459049D01*
X105550Y458950D01*
X105574Y458852D01*
X105602Y458755D01*
X105634Y458658D01*
X105669Y458563D01*
X105708Y458470D01*
X105750Y458378D01*
X105796Y458287D01*
X105845Y458199D01*
X105897Y458112D01*
X105953Y458027D01*
X106011Y457944D01*
X106073Y457864D01*
X106138Y457786D01*
X106205Y457710D01*
X106275Y457637D01*
X106348Y457567D01*
X106424Y457500D01*
X106502Y457435D01*
X106582Y457373D01*
X106665Y457315D01*
X106750Y457259D01*
X106837Y457207D01*
X106925Y457158D01*
X107016Y457112D01*
X107108Y457070D01*
X107201Y457031D01*
X107296Y456996D01*
X107393Y456964D01*
X107490Y456936D01*
X107588Y456912D01*
X107687Y456891D01*
X107787Y456874D01*
X107888Y456861D01*
X107989Y456852D01*
X108090Y456846D01*
X108191Y456844D01*
X108191Y456843D02*
X112707Y456843D01*
X112707Y456844D02*
X112826Y456846D01*
X112946Y456852D01*
X113065Y456862D01*
X113183Y456876D01*
X113302Y456893D01*
X113419Y456915D01*
X113536Y456940D01*
X113651Y456970D01*
X113766Y457003D01*
X113880Y457040D01*
X113992Y457080D01*
X114103Y457125D01*
X114212Y457173D01*
X114320Y457224D01*
X114426Y457279D01*
X114530Y457338D01*
X114632Y457400D01*
X114732Y457465D01*
X114830Y457534D01*
X114926Y457606D01*
X115019Y457681D01*
X115109Y457758D01*
X115197Y457839D01*
X115282Y457923D01*
X115364Y458010D01*
X115444Y458099D01*
X115520Y458191D01*
X115594Y458285D01*
X115664Y458382D01*
X115731Y458480D01*
X115795Y458581D01*
X115855Y458685D01*
X115912Y458790D01*
X115965Y458897D01*
X116015Y459005D01*
X116061Y459115D01*
X116103Y459227D01*
X116142Y459340D01*
X116177Y459454D01*
X116208Y459569D01*
X116236Y459686D01*
X116259Y459803D01*
X116279Y459920D01*
X116295Y460039D01*
X116307Y460158D01*
X116315Y460277D01*
X116319Y460396D01*
X116319Y460516D01*
X116315Y460635D01*
X116307Y460754D01*
X116295Y460873D01*
X116279Y460992D01*
X116259Y461109D01*
X116236Y461226D01*
X116208Y461343D01*
X116177Y461458D01*
X116142Y461572D01*
X116103Y461685D01*
X116061Y461797D01*
X116015Y461907D01*
X115965Y462015D01*
X115912Y462122D01*
X115855Y462227D01*
X115795Y462331D01*
X115731Y462432D01*
X115664Y462530D01*
X115594Y462627D01*
X115520Y462721D01*
X115444Y462813D01*
X115364Y462902D01*
X115282Y462989D01*
X115197Y463073D01*
X115109Y463154D01*
X115019Y463231D01*
X114926Y463306D01*
X114830Y463378D01*
X114732Y463447D01*
X114632Y463512D01*
X114530Y463574D01*
X114426Y463633D01*
X114320Y463688D01*
X114212Y463739D01*
X114103Y463787D01*
X113992Y463832D01*
X113880Y463872D01*
X113766Y463909D01*
X113651Y463942D01*
X113536Y463972D01*
X113419Y463997D01*
X113302Y464019D01*
X113183Y464036D01*
X113065Y464050D01*
X112946Y464060D01*
X112826Y464066D01*
X112707Y464068D01*
X110901Y464068D01*
X110901Y456843D01*
X105482Y477542D02*
X121738Y477542D01*
X105482Y477542D02*
X105482Y473026D01*
X105484Y472925D01*
X105490Y472824D01*
X105499Y472723D01*
X105512Y472622D01*
X105529Y472522D01*
X105550Y472423D01*
X105574Y472325D01*
X105602Y472228D01*
X105634Y472131D01*
X105669Y472036D01*
X105708Y471943D01*
X105750Y471851D01*
X105796Y471760D01*
X105845Y471672D01*
X105897Y471585D01*
X105953Y471500D01*
X106011Y471417D01*
X106073Y471337D01*
X106138Y471259D01*
X106205Y471183D01*
X106275Y471110D01*
X106348Y471040D01*
X106424Y470973D01*
X106502Y470908D01*
X106582Y470846D01*
X106665Y470788D01*
X106750Y470732D01*
X106837Y470680D01*
X106925Y470631D01*
X107016Y470585D01*
X107108Y470543D01*
X107201Y470504D01*
X107296Y470469D01*
X107393Y470437D01*
X107490Y470409D01*
X107588Y470385D01*
X107687Y470364D01*
X107787Y470347D01*
X107888Y470334D01*
X107989Y470325D01*
X108090Y470319D01*
X108191Y470317D01*
X113610Y470317D01*
X113711Y470319D01*
X113812Y470325D01*
X113913Y470334D01*
X114014Y470347D01*
X114114Y470364D01*
X114213Y470385D01*
X114311Y470409D01*
X114408Y470437D01*
X114505Y470469D01*
X114600Y470504D01*
X114693Y470543D01*
X114785Y470585D01*
X114876Y470631D01*
X114964Y470680D01*
X115051Y470732D01*
X115136Y470788D01*
X115219Y470846D01*
X115299Y470908D01*
X115377Y470973D01*
X115453Y471040D01*
X115526Y471110D01*
X115596Y471183D01*
X115663Y471259D01*
X115728Y471337D01*
X115790Y471417D01*
X115848Y471500D01*
X115904Y471585D01*
X115956Y471672D01*
X116005Y471760D01*
X116051Y471851D01*
X116093Y471943D01*
X116132Y472036D01*
X116167Y472131D01*
X116199Y472228D01*
X116227Y472325D01*
X116251Y472423D01*
X116272Y472522D01*
X116289Y472622D01*
X116302Y472723D01*
X116311Y472824D01*
X116317Y472925D01*
X116319Y473026D01*
X116319Y477542D01*
X116319Y492760D02*
X105482Y492760D01*
X120835Y492309D02*
X121738Y492309D01*
X121738Y493212D01*
X120835Y493212D01*
X120835Y492309D01*
X116319Y499569D02*
X105482Y499569D01*
X116319Y499569D02*
X116319Y504084D01*
X116317Y504185D01*
X116311Y504286D01*
X116302Y504387D01*
X116289Y504488D01*
X116272Y504588D01*
X116251Y504687D01*
X116227Y504785D01*
X116199Y504882D01*
X116167Y504979D01*
X116132Y505074D01*
X116093Y505167D01*
X116051Y505259D01*
X116005Y505350D01*
X115956Y505439D01*
X115904Y505525D01*
X115848Y505610D01*
X115790Y505693D01*
X115728Y505773D01*
X115663Y505851D01*
X115596Y505927D01*
X115526Y506000D01*
X115453Y506070D01*
X115377Y506137D01*
X115299Y506202D01*
X115219Y506264D01*
X115136Y506322D01*
X115051Y506378D01*
X114965Y506430D01*
X114876Y506479D01*
X114785Y506525D01*
X114693Y506567D01*
X114600Y506606D01*
X114505Y506641D01*
X114408Y506673D01*
X114311Y506701D01*
X114213Y506725D01*
X114114Y506746D01*
X114014Y506763D01*
X113913Y506776D01*
X113812Y506785D01*
X113711Y506791D01*
X113610Y506793D01*
X105482Y506793D01*
X105482Y525100D02*
X121738Y521487D01*
X116319Y528712D02*
X105482Y525100D01*
X105482Y532324D02*
X116319Y528712D01*
X121738Y535937D02*
X105482Y532324D01*
X105482Y541738D02*
X116319Y541738D01*
X120835Y541286D02*
X121738Y541286D01*
X121738Y542190D01*
X120835Y542190D01*
X120835Y541286D01*
X111804Y549380D02*
X109998Y553896D01*
X111804Y549380D02*
X111841Y549292D01*
X111882Y549206D01*
X111926Y549121D01*
X111974Y549038D01*
X112025Y548958D01*
X112079Y548879D01*
X112137Y548803D01*
X112197Y548729D01*
X112261Y548657D01*
X112327Y548589D01*
X112397Y548523D01*
X112468Y548460D01*
X112543Y548399D01*
X112619Y548342D01*
X112698Y548289D01*
X112779Y548238D01*
X112862Y548191D01*
X112947Y548147D01*
X113034Y548107D01*
X113122Y548070D01*
X113212Y548037D01*
X113303Y548007D01*
X113395Y547982D01*
X113488Y547960D01*
X113582Y547942D01*
X113676Y547927D01*
X113771Y547917D01*
X113867Y547911D01*
X113962Y547908D01*
X114058Y547909D01*
X114153Y547915D01*
X114249Y547924D01*
X114343Y547937D01*
X114437Y547953D01*
X114531Y547974D01*
X114623Y547999D01*
X114714Y548027D01*
X114804Y548059D01*
X114893Y548094D01*
X114980Y548133D01*
X115066Y548176D01*
X115150Y548222D01*
X115231Y548272D01*
X115311Y548324D01*
X115389Y548380D01*
X115464Y548440D01*
X115536Y548502D01*
X115606Y548567D01*
X115674Y548635D01*
X115738Y548705D01*
X115800Y548778D01*
X115858Y548854D01*
X115914Y548932D01*
X115966Y549012D01*
X116015Y549094D01*
X116060Y549178D01*
X116102Y549264D01*
X116141Y549351D01*
X116176Y549440D01*
X116207Y549531D01*
X116234Y549622D01*
X116258Y549715D01*
X116278Y549808D01*
X116294Y549902D01*
X116306Y549997D01*
X116315Y550092D01*
X116319Y550188D01*
X116320Y550283D01*
X116313Y550530D01*
X116301Y550776D01*
X116283Y551022D01*
X116258Y551268D01*
X116228Y551512D01*
X116192Y551756D01*
X116151Y551999D01*
X116103Y552241D01*
X116049Y552482D01*
X115990Y552721D01*
X115925Y552959D01*
X115854Y553195D01*
X115778Y553430D01*
X115696Y553663D01*
X115608Y553893D01*
X115515Y554121D01*
X115417Y554348D01*
X109997Y553896D02*
X109960Y553984D01*
X109919Y554070D01*
X109875Y554155D01*
X109827Y554238D01*
X109776Y554318D01*
X109722Y554397D01*
X109664Y554473D01*
X109604Y554547D01*
X109540Y554619D01*
X109474Y554687D01*
X109404Y554753D01*
X109333Y554816D01*
X109258Y554877D01*
X109182Y554934D01*
X109103Y554987D01*
X109022Y555038D01*
X108939Y555085D01*
X108854Y555129D01*
X108767Y555169D01*
X108679Y555206D01*
X108589Y555239D01*
X108498Y555269D01*
X108406Y555294D01*
X108313Y555316D01*
X108219Y555334D01*
X108125Y555349D01*
X108030Y555359D01*
X107934Y555365D01*
X107839Y555368D01*
X107743Y555367D01*
X107648Y555361D01*
X107552Y555352D01*
X107458Y555339D01*
X107364Y555323D01*
X107270Y555302D01*
X107178Y555277D01*
X107087Y555249D01*
X106997Y555217D01*
X106908Y555182D01*
X106821Y555143D01*
X106735Y555100D01*
X106651Y555054D01*
X106570Y555004D01*
X106490Y554952D01*
X106412Y554896D01*
X106337Y554836D01*
X106265Y554774D01*
X106195Y554709D01*
X106127Y554641D01*
X106063Y554571D01*
X106001Y554498D01*
X105943Y554422D01*
X105887Y554344D01*
X105835Y554264D01*
X105786Y554182D01*
X105741Y554098D01*
X105699Y554012D01*
X105660Y553925D01*
X105625Y553836D01*
X105594Y553745D01*
X105567Y553654D01*
X105543Y553561D01*
X105523Y553468D01*
X105507Y553374D01*
X105495Y553279D01*
X105486Y553184D01*
X105482Y553088D01*
X105481Y552993D01*
X105482Y552992D02*
X105491Y552630D01*
X105509Y552268D01*
X105536Y551907D01*
X105571Y551547D01*
X105614Y551187D01*
X105666Y550828D01*
X105727Y550471D01*
X105796Y550116D01*
X105873Y549762D01*
X105959Y549410D01*
X106053Y549060D01*
X106156Y548712D01*
X106266Y548367D01*
X106385Y548025D01*
X105482Y564299D02*
X105482Y567912D01*
X105482Y564299D02*
X105484Y564198D01*
X105490Y564097D01*
X105499Y563996D01*
X105512Y563895D01*
X105529Y563795D01*
X105550Y563696D01*
X105574Y563598D01*
X105602Y563501D01*
X105634Y563404D01*
X105669Y563309D01*
X105708Y563216D01*
X105750Y563124D01*
X105796Y563033D01*
X105845Y562945D01*
X105897Y562858D01*
X105953Y562773D01*
X106011Y562690D01*
X106073Y562610D01*
X106138Y562532D01*
X106205Y562456D01*
X106275Y562383D01*
X106348Y562313D01*
X106424Y562246D01*
X106502Y562181D01*
X106582Y562119D01*
X106665Y562061D01*
X106750Y562005D01*
X106837Y561953D01*
X106925Y561904D01*
X107016Y561858D01*
X107108Y561816D01*
X107201Y561777D01*
X107296Y561742D01*
X107393Y561710D01*
X107490Y561682D01*
X107588Y561658D01*
X107687Y561637D01*
X107787Y561620D01*
X107888Y561607D01*
X107989Y561598D01*
X108090Y561592D01*
X108191Y561590D01*
X113610Y561590D01*
X113711Y561592D01*
X113812Y561598D01*
X113913Y561607D01*
X114014Y561620D01*
X114114Y561637D01*
X114213Y561658D01*
X114311Y561682D01*
X114408Y561710D01*
X114505Y561742D01*
X114600Y561777D01*
X114693Y561816D01*
X114785Y561858D01*
X114876Y561904D01*
X114964Y561953D01*
X115051Y562005D01*
X115136Y562061D01*
X115219Y562119D01*
X115299Y562181D01*
X115377Y562246D01*
X115453Y562313D01*
X115526Y562383D01*
X115596Y562456D01*
X115663Y562532D01*
X115728Y562610D01*
X115790Y562690D01*
X115848Y562773D01*
X115904Y562858D01*
X115956Y562945D01*
X116005Y563033D01*
X116051Y563124D01*
X116093Y563216D01*
X116132Y563309D01*
X116167Y563404D01*
X116199Y563501D01*
X116227Y563598D01*
X116251Y563696D01*
X116272Y563795D01*
X116289Y563895D01*
X116302Y563996D01*
X116311Y564097D01*
X116317Y564198D01*
X116319Y564299D01*
X116319Y567912D01*
X112707Y573556D02*
X109094Y573556D01*
X112707Y573557D02*
X112826Y573559D01*
X112946Y573565D01*
X113065Y573575D01*
X113183Y573589D01*
X113302Y573606D01*
X113419Y573628D01*
X113536Y573653D01*
X113651Y573683D01*
X113766Y573716D01*
X113880Y573753D01*
X113992Y573793D01*
X114103Y573838D01*
X114212Y573886D01*
X114320Y573937D01*
X114426Y573992D01*
X114530Y574051D01*
X114632Y574113D01*
X114732Y574178D01*
X114830Y574247D01*
X114926Y574319D01*
X115019Y574394D01*
X115109Y574471D01*
X115197Y574552D01*
X115282Y574636D01*
X115364Y574723D01*
X115444Y574812D01*
X115520Y574904D01*
X115594Y574998D01*
X115664Y575095D01*
X115731Y575193D01*
X115795Y575294D01*
X115855Y575398D01*
X115912Y575503D01*
X115965Y575610D01*
X116015Y575718D01*
X116061Y575828D01*
X116103Y575940D01*
X116142Y576053D01*
X116177Y576167D01*
X116208Y576282D01*
X116236Y576399D01*
X116259Y576516D01*
X116279Y576633D01*
X116295Y576752D01*
X116307Y576871D01*
X116315Y576990D01*
X116319Y577109D01*
X116319Y577229D01*
X116315Y577348D01*
X116307Y577467D01*
X116295Y577586D01*
X116279Y577705D01*
X116259Y577822D01*
X116236Y577939D01*
X116208Y578056D01*
X116177Y578171D01*
X116142Y578285D01*
X116103Y578398D01*
X116061Y578510D01*
X116015Y578620D01*
X115965Y578728D01*
X115912Y578835D01*
X115855Y578940D01*
X115795Y579044D01*
X115731Y579145D01*
X115664Y579243D01*
X115594Y579340D01*
X115520Y579434D01*
X115444Y579526D01*
X115364Y579615D01*
X115282Y579702D01*
X115197Y579786D01*
X115109Y579867D01*
X115019Y579944D01*
X114926Y580019D01*
X114830Y580091D01*
X114732Y580160D01*
X114632Y580225D01*
X114530Y580287D01*
X114426Y580346D01*
X114320Y580401D01*
X114212Y580452D01*
X114103Y580500D01*
X113992Y580545D01*
X113880Y580585D01*
X113766Y580622D01*
X113651Y580655D01*
X113536Y580685D01*
X113419Y580710D01*
X113302Y580732D01*
X113183Y580749D01*
X113065Y580763D01*
X112946Y580773D01*
X112826Y580779D01*
X112707Y580781D01*
X109094Y580781D01*
X108975Y580779D01*
X108855Y580773D01*
X108736Y580763D01*
X108618Y580749D01*
X108499Y580732D01*
X108382Y580710D01*
X108265Y580685D01*
X108150Y580655D01*
X108035Y580622D01*
X107921Y580585D01*
X107809Y580545D01*
X107698Y580500D01*
X107589Y580452D01*
X107481Y580401D01*
X107375Y580346D01*
X107271Y580287D01*
X107169Y580225D01*
X107069Y580160D01*
X106971Y580091D01*
X106875Y580019D01*
X106782Y579944D01*
X106692Y579867D01*
X106604Y579786D01*
X106519Y579702D01*
X106437Y579615D01*
X106357Y579526D01*
X106281Y579434D01*
X106207Y579340D01*
X106137Y579243D01*
X106070Y579145D01*
X106006Y579044D01*
X105946Y578940D01*
X105889Y578835D01*
X105836Y578728D01*
X105786Y578620D01*
X105740Y578510D01*
X105698Y578398D01*
X105659Y578285D01*
X105624Y578171D01*
X105593Y578056D01*
X105565Y577939D01*
X105542Y577822D01*
X105522Y577705D01*
X105506Y577586D01*
X105494Y577467D01*
X105486Y577348D01*
X105482Y577229D01*
X105482Y577109D01*
X105486Y576990D01*
X105494Y576871D01*
X105506Y576752D01*
X105522Y576633D01*
X105542Y576516D01*
X105565Y576399D01*
X105593Y576282D01*
X105624Y576167D01*
X105659Y576053D01*
X105698Y575940D01*
X105740Y575828D01*
X105786Y575718D01*
X105836Y575610D01*
X105889Y575503D01*
X105946Y575398D01*
X106006Y575294D01*
X106070Y575193D01*
X106137Y575095D01*
X106207Y574998D01*
X106281Y574904D01*
X106357Y574812D01*
X106437Y574723D01*
X106519Y574636D01*
X106604Y574552D01*
X106692Y574471D01*
X106782Y574394D01*
X106875Y574319D01*
X106971Y574247D01*
X107069Y574178D01*
X107169Y574113D01*
X107271Y574051D01*
X107375Y573992D01*
X107481Y573937D01*
X107589Y573886D01*
X107698Y573838D01*
X107809Y573793D01*
X107921Y573753D01*
X108035Y573716D01*
X108150Y573683D01*
X108265Y573653D01*
X108382Y573628D01*
X108499Y573606D01*
X108618Y573589D01*
X108736Y573575D01*
X108855Y573565D01*
X108975Y573559D01*
X109094Y573557D01*
X105482Y587624D02*
X116319Y587624D01*
X116319Y592140D01*
X116317Y592241D01*
X116311Y592342D01*
X116302Y592443D01*
X116289Y592544D01*
X116272Y592644D01*
X116251Y592743D01*
X116227Y592841D01*
X116199Y592938D01*
X116167Y593035D01*
X116132Y593130D01*
X116093Y593223D01*
X116051Y593315D01*
X116005Y593406D01*
X115956Y593495D01*
X115904Y593581D01*
X115848Y593666D01*
X115790Y593749D01*
X115728Y593829D01*
X115663Y593907D01*
X115596Y593983D01*
X115526Y594056D01*
X115453Y594126D01*
X115377Y594193D01*
X115299Y594258D01*
X115219Y594320D01*
X115136Y594378D01*
X115051Y594434D01*
X114965Y594486D01*
X114876Y594535D01*
X114785Y594581D01*
X114693Y594623D01*
X114600Y594662D01*
X114505Y594697D01*
X114408Y594729D01*
X114311Y594757D01*
X114213Y594781D01*
X114114Y594802D01*
X114014Y594819D01*
X113913Y594832D01*
X113812Y594841D01*
X113711Y594847D01*
X113610Y594849D01*
X105482Y594849D01*
X111804Y603047D02*
X109998Y607563D01*
X111804Y603047D02*
X111841Y602959D01*
X111882Y602873D01*
X111926Y602788D01*
X111974Y602705D01*
X112025Y602625D01*
X112079Y602546D01*
X112137Y602470D01*
X112197Y602396D01*
X112261Y602324D01*
X112327Y602256D01*
X112397Y602190D01*
X112468Y602127D01*
X112543Y602066D01*
X112619Y602009D01*
X112698Y601956D01*
X112779Y601905D01*
X112862Y601858D01*
X112947Y601814D01*
X113034Y601774D01*
X113122Y601737D01*
X113212Y601704D01*
X113303Y601674D01*
X113395Y601649D01*
X113488Y601627D01*
X113582Y601609D01*
X113676Y601594D01*
X113771Y601584D01*
X113867Y601578D01*
X113962Y601575D01*
X114058Y601576D01*
X114153Y601582D01*
X114249Y601591D01*
X114343Y601604D01*
X114437Y601620D01*
X114531Y601641D01*
X114623Y601666D01*
X114714Y601694D01*
X114804Y601726D01*
X114893Y601761D01*
X114980Y601800D01*
X115066Y601843D01*
X115150Y601889D01*
X115231Y601939D01*
X115311Y601991D01*
X115389Y602047D01*
X115464Y602107D01*
X115536Y602169D01*
X115606Y602234D01*
X115674Y602302D01*
X115738Y602372D01*
X115800Y602445D01*
X115858Y602521D01*
X115914Y602599D01*
X115966Y602679D01*
X116015Y602761D01*
X116060Y602845D01*
X116102Y602931D01*
X116141Y603018D01*
X116176Y603107D01*
X116207Y603198D01*
X116234Y603289D01*
X116258Y603382D01*
X116278Y603475D01*
X116294Y603569D01*
X116306Y603664D01*
X116315Y603759D01*
X116319Y603855D01*
X116320Y603950D01*
X116313Y604197D01*
X116301Y604443D01*
X116283Y604689D01*
X116258Y604935D01*
X116228Y605179D01*
X116192Y605423D01*
X116151Y605666D01*
X116103Y605908D01*
X116049Y606149D01*
X115990Y606388D01*
X115925Y606626D01*
X115854Y606862D01*
X115778Y607097D01*
X115696Y607330D01*
X115608Y607560D01*
X115515Y607788D01*
X115417Y608015D01*
X109997Y607563D02*
X109960Y607651D01*
X109919Y607737D01*
X109875Y607822D01*
X109827Y607905D01*
X109776Y607985D01*
X109722Y608064D01*
X109664Y608140D01*
X109604Y608214D01*
X109540Y608286D01*
X109474Y608354D01*
X109404Y608420D01*
X109333Y608483D01*
X109258Y608544D01*
X109182Y608601D01*
X109103Y608654D01*
X109022Y608705D01*
X108939Y608752D01*
X108854Y608796D01*
X108767Y608836D01*
X108679Y608873D01*
X108589Y608906D01*
X108498Y608936D01*
X108406Y608961D01*
X108313Y608983D01*
X108219Y609001D01*
X108125Y609016D01*
X108030Y609026D01*
X107934Y609032D01*
X107839Y609035D01*
X107743Y609034D01*
X107648Y609028D01*
X107552Y609019D01*
X107458Y609006D01*
X107364Y608990D01*
X107270Y608969D01*
X107178Y608944D01*
X107087Y608916D01*
X106997Y608884D01*
X106908Y608849D01*
X106821Y608810D01*
X106735Y608767D01*
X106651Y608721D01*
X106570Y608671D01*
X106490Y608619D01*
X106412Y608563D01*
X106337Y608503D01*
X106265Y608441D01*
X106195Y608376D01*
X106127Y608308D01*
X106063Y608238D01*
X106001Y608165D01*
X105943Y608089D01*
X105887Y608011D01*
X105835Y607931D01*
X105786Y607849D01*
X105741Y607765D01*
X105699Y607679D01*
X105660Y607592D01*
X105625Y607503D01*
X105594Y607412D01*
X105567Y607321D01*
X105543Y607228D01*
X105523Y607135D01*
X105507Y607041D01*
X105495Y606946D01*
X105486Y606851D01*
X105482Y606755D01*
X105481Y606660D01*
X105482Y606659D02*
X105491Y606297D01*
X105509Y605935D01*
X105536Y605574D01*
X105571Y605214D01*
X105614Y604854D01*
X105666Y604495D01*
X105727Y604138D01*
X105796Y603783D01*
X105873Y603429D01*
X105959Y603077D01*
X106053Y602727D01*
X106156Y602379D01*
X106266Y602034D01*
X106385Y601692D01*
X105482Y615205D02*
X116319Y615205D01*
X120835Y614753D02*
X121738Y614753D01*
X121738Y615656D01*
X120835Y615656D01*
X120835Y614753D01*
X116319Y622013D02*
X105482Y622013D01*
X116319Y622013D02*
X116319Y626529D01*
X116317Y626630D01*
X116311Y626731D01*
X116302Y626832D01*
X116289Y626933D01*
X116272Y627033D01*
X116251Y627132D01*
X116227Y627230D01*
X116199Y627327D01*
X116167Y627424D01*
X116132Y627519D01*
X116093Y627612D01*
X116051Y627704D01*
X116005Y627795D01*
X115956Y627884D01*
X115904Y627970D01*
X115848Y628055D01*
X115790Y628138D01*
X115728Y628218D01*
X115663Y628296D01*
X115596Y628372D01*
X115526Y628445D01*
X115453Y628515D01*
X115377Y628582D01*
X115299Y628647D01*
X115219Y628709D01*
X115136Y628767D01*
X115051Y628823D01*
X114965Y628875D01*
X114876Y628924D01*
X114785Y628970D01*
X114693Y629012D01*
X114600Y629051D01*
X114505Y629086D01*
X114408Y629118D01*
X114311Y629146D01*
X114213Y629170D01*
X114114Y629191D01*
X114014Y629208D01*
X113913Y629221D01*
X113812Y629230D01*
X113711Y629236D01*
X113610Y629238D01*
X105482Y629238D01*
D12*
X147202Y799732D02*
X153860Y804394D01*
X155155Y802545D02*
X152565Y806244D01*
X150765Y808813D02*
X144107Y804151D01*
X148546Y807259D02*
X147251Y809109D01*
X147251Y809108D02*
X147207Y809167D01*
X147160Y809224D01*
X147111Y809278D01*
X147058Y809329D01*
X147003Y809377D01*
X146945Y809422D01*
X146884Y809464D01*
X146822Y809502D01*
X146758Y809538D01*
X146691Y809569D01*
X146624Y809597D01*
X146554Y809621D01*
X146484Y809642D01*
X146412Y809659D01*
X146340Y809671D01*
X146267Y809680D01*
X146194Y809685D01*
X146121Y809686D01*
X146047Y809683D01*
X145974Y809676D01*
X145902Y809665D01*
X145830Y809650D01*
X145759Y809631D01*
X145689Y809608D01*
X145621Y809582D01*
X145554Y809552D01*
X145488Y809518D01*
X145425Y809481D01*
X145364Y809441D01*
X142035Y807110D01*
X139200Y811159D02*
X137905Y813009D01*
X139200Y811159D02*
X139244Y811100D01*
X139291Y811043D01*
X139340Y810989D01*
X139393Y810938D01*
X139448Y810890D01*
X139506Y810845D01*
X139567Y810803D01*
X139629Y810765D01*
X139693Y810729D01*
X139760Y810698D01*
X139827Y810670D01*
X139897Y810646D01*
X139967Y810625D01*
X140039Y810608D01*
X140111Y810596D01*
X140184Y810587D01*
X140257Y810582D01*
X140330Y810581D01*
X140404Y810584D01*
X140477Y810591D01*
X140549Y810602D01*
X140621Y810617D01*
X140692Y810636D01*
X140762Y810659D01*
X140830Y810685D01*
X140897Y810715D01*
X140963Y810749D01*
X141026Y810786D01*
X141087Y810826D01*
X141087Y810827D02*
X142936Y812122D01*
X143003Y812171D01*
X143068Y812224D01*
X143130Y812279D01*
X143190Y812337D01*
X143247Y812398D01*
X143301Y812462D01*
X143352Y812527D01*
X143400Y812596D01*
X143445Y812666D01*
X143487Y812738D01*
X143525Y812813D01*
X143560Y812889D01*
X143591Y812966D01*
X143618Y813045D01*
X143642Y813125D01*
X143662Y813206D01*
X143679Y813287D01*
X143691Y813370D01*
X143700Y813453D01*
X143705Y813536D01*
X143706Y813620D01*
X143703Y813703D01*
X143696Y813786D01*
X143686Y813869D01*
X143672Y813951D01*
X143654Y814033D01*
X143632Y814113D01*
X143606Y814192D01*
X143577Y814271D01*
X143545Y814347D01*
X143508Y814423D01*
X143469Y814496D01*
X143426Y814567D01*
X143379Y814637D01*
X143330Y814704D01*
X143277Y814769D01*
X143222Y814831D01*
X143164Y814891D01*
X143103Y814948D01*
X143039Y815002D01*
X142974Y815053D01*
X142905Y815101D01*
X142835Y815146D01*
X142763Y815188D01*
X142688Y815226D01*
X142612Y815261D01*
X142535Y815292D01*
X142456Y815319D01*
X142376Y815343D01*
X142295Y815363D01*
X142214Y815380D01*
X142131Y815392D01*
X142048Y815401D01*
X141965Y815406D01*
X141881Y815407D01*
X141798Y815404D01*
X141715Y815397D01*
X141632Y815387D01*
X141550Y815373D01*
X141468Y815355D01*
X141388Y815333D01*
X141309Y815307D01*
X141230Y815278D01*
X141154Y815246D01*
X141078Y815209D01*
X141005Y815170D01*
X140934Y815127D01*
X140864Y815080D01*
X140864Y815081D02*
X140125Y814563D01*
X142197Y811604D01*
X140258Y819096D02*
X135819Y815988D01*
X140258Y819096D02*
X138704Y821315D01*
X137964Y820797D01*
X132011Y821427D02*
X130716Y823277D01*
X132010Y821427D02*
X132054Y821368D01*
X132101Y821311D01*
X132150Y821257D01*
X132203Y821206D01*
X132258Y821158D01*
X132316Y821113D01*
X132377Y821071D01*
X132439Y821033D01*
X132503Y820997D01*
X132570Y820966D01*
X132637Y820938D01*
X132707Y820914D01*
X132777Y820893D01*
X132849Y820876D01*
X132921Y820864D01*
X132994Y820855D01*
X133067Y820850D01*
X133140Y820849D01*
X133214Y820852D01*
X133287Y820859D01*
X133359Y820870D01*
X133431Y820885D01*
X133502Y820904D01*
X133572Y820927D01*
X133640Y820953D01*
X133707Y820983D01*
X133773Y821017D01*
X133836Y821054D01*
X133897Y821094D01*
X133897Y821095D02*
X135747Y822390D01*
X135814Y822439D01*
X135879Y822492D01*
X135941Y822547D01*
X136001Y822605D01*
X136058Y822666D01*
X136112Y822730D01*
X136163Y822795D01*
X136211Y822864D01*
X136256Y822934D01*
X136298Y823006D01*
X136336Y823081D01*
X136371Y823157D01*
X136402Y823234D01*
X136429Y823313D01*
X136453Y823393D01*
X136473Y823474D01*
X136490Y823555D01*
X136502Y823638D01*
X136511Y823721D01*
X136516Y823804D01*
X136517Y823888D01*
X136514Y823971D01*
X136507Y824054D01*
X136497Y824137D01*
X136483Y824219D01*
X136465Y824301D01*
X136443Y824381D01*
X136417Y824460D01*
X136388Y824539D01*
X136356Y824615D01*
X136319Y824691D01*
X136280Y824764D01*
X136237Y824835D01*
X136190Y824905D01*
X136141Y824972D01*
X136088Y825037D01*
X136033Y825099D01*
X135975Y825159D01*
X135914Y825216D01*
X135850Y825270D01*
X135785Y825321D01*
X135716Y825369D01*
X135646Y825414D01*
X135574Y825456D01*
X135499Y825494D01*
X135423Y825529D01*
X135346Y825560D01*
X135267Y825587D01*
X135187Y825611D01*
X135106Y825631D01*
X135025Y825648D01*
X134942Y825660D01*
X134859Y825669D01*
X134776Y825674D01*
X134692Y825675D01*
X134609Y825672D01*
X134526Y825665D01*
X134443Y825655D01*
X134361Y825641D01*
X134279Y825623D01*
X134199Y825601D01*
X134120Y825575D01*
X134041Y825546D01*
X133965Y825514D01*
X133889Y825477D01*
X133816Y825438D01*
X133745Y825395D01*
X133675Y825348D01*
X133675Y825349D02*
X132935Y824831D01*
X135007Y821872D01*
X135809Y830173D02*
X137289Y831209D01*
X129787Y830113D02*
X127752Y831445D01*
X129787Y830113D02*
X129845Y830078D01*
X129904Y830046D01*
X129966Y830017D01*
X130029Y829992D01*
X130093Y829971D01*
X130158Y829954D01*
X130224Y829940D01*
X130291Y829930D01*
X130359Y829924D01*
X130427Y829922D01*
X130494Y829924D01*
X130562Y829930D01*
X130629Y829939D01*
X130695Y829953D01*
X130760Y829970D01*
X130825Y829991D01*
X130888Y830016D01*
X130949Y830044D01*
X131009Y830076D01*
X131067Y830112D01*
X131122Y830150D01*
X131176Y830192D01*
X131227Y830237D01*
X131275Y830284D01*
X131320Y830334D01*
X131362Y830387D01*
X131402Y830442D01*
X131438Y830500D01*
X131470Y830559D01*
X131499Y830620D01*
X131525Y830683D01*
X131547Y830747D01*
X131565Y830812D01*
X131579Y830878D01*
X131590Y830945D01*
X131596Y831013D01*
X131599Y831080D01*
X131598Y831148D01*
X131593Y831215D01*
X131584Y831283D01*
X131571Y831349D01*
X131554Y831415D01*
X131533Y831479D01*
X131509Y831542D01*
X131482Y831604D01*
X131450Y831664D01*
X131416Y831722D01*
X131378Y831778D01*
X131377Y831778D02*
X131294Y831890D01*
X131207Y832000D01*
X131118Y832108D01*
X131026Y832213D01*
X130931Y832315D01*
X130833Y832415D01*
X130733Y832512D01*
X130630Y832606D01*
X130524Y832698D01*
X130416Y832786D01*
X130306Y832872D01*
X130193Y832955D01*
X130078Y833034D01*
X129961Y833110D01*
X129842Y833183D01*
X127752Y831445D02*
X127694Y831480D01*
X127635Y831512D01*
X127573Y831541D01*
X127510Y831566D01*
X127446Y831587D01*
X127381Y831604D01*
X127315Y831618D01*
X127248Y831628D01*
X127180Y831634D01*
X127112Y831636D01*
X127045Y831634D01*
X126977Y831628D01*
X126910Y831619D01*
X126844Y831605D01*
X126779Y831588D01*
X126714Y831567D01*
X126651Y831542D01*
X126590Y831514D01*
X126530Y831482D01*
X126472Y831446D01*
X126417Y831408D01*
X126363Y831366D01*
X126312Y831321D01*
X126264Y831274D01*
X126219Y831224D01*
X126177Y831171D01*
X126137Y831116D01*
X126101Y831058D01*
X126069Y830999D01*
X126040Y830938D01*
X126014Y830875D01*
X125992Y830811D01*
X125974Y830746D01*
X125960Y830680D01*
X125949Y830613D01*
X125943Y830545D01*
X125940Y830478D01*
X125941Y830410D01*
X125946Y830343D01*
X125955Y830275D01*
X125968Y830209D01*
X125985Y830143D01*
X126006Y830079D01*
X126030Y830016D01*
X126057Y829954D01*
X126089Y829894D01*
X126123Y829836D01*
X126161Y829780D01*
X126163Y829780D02*
X126270Y829634D01*
X126381Y829491D01*
X126496Y829351D01*
X126614Y829213D01*
X126735Y829078D01*
X126859Y828946D01*
X126986Y828818D01*
X127116Y828692D01*
X127250Y828569D01*
X127386Y828449D01*
X127524Y828333D01*
X127666Y828220D01*
X127810Y828111D01*
X127957Y828004D01*
X121009Y837139D02*
X125448Y840247D01*
X124153Y842097D01*
X124109Y842156D01*
X124062Y842213D01*
X124013Y842267D01*
X123960Y842318D01*
X123905Y842366D01*
X123847Y842411D01*
X123786Y842453D01*
X123724Y842491D01*
X123660Y842527D01*
X123593Y842558D01*
X123526Y842586D01*
X123456Y842610D01*
X123386Y842631D01*
X123314Y842648D01*
X123242Y842660D01*
X123169Y842669D01*
X123096Y842674D01*
X123023Y842675D01*
X122949Y842672D01*
X122876Y842665D01*
X122804Y842654D01*
X122732Y842639D01*
X122661Y842620D01*
X122591Y842597D01*
X122523Y842571D01*
X122456Y842541D01*
X122390Y842507D01*
X122327Y842470D01*
X122266Y842430D01*
X122266Y842429D02*
X118937Y840098D01*
X118358Y844074D02*
X119838Y845110D01*
X119838Y845111D02*
X119905Y845160D01*
X119970Y845213D01*
X120032Y845268D01*
X120092Y845326D01*
X120149Y845387D01*
X120203Y845451D01*
X120254Y845516D01*
X120302Y845585D01*
X120347Y845655D01*
X120389Y845727D01*
X120427Y845802D01*
X120462Y845878D01*
X120493Y845955D01*
X120520Y846034D01*
X120544Y846114D01*
X120564Y846195D01*
X120581Y846276D01*
X120593Y846359D01*
X120602Y846442D01*
X120607Y846525D01*
X120608Y846609D01*
X120605Y846692D01*
X120598Y846775D01*
X120588Y846858D01*
X120574Y846940D01*
X120556Y847022D01*
X120534Y847102D01*
X120508Y847181D01*
X120479Y847260D01*
X120447Y847336D01*
X120410Y847412D01*
X120371Y847485D01*
X120328Y847556D01*
X120281Y847626D01*
X120232Y847693D01*
X120179Y847758D01*
X120124Y847820D01*
X120066Y847880D01*
X120005Y847937D01*
X119941Y847991D01*
X119876Y848042D01*
X119807Y848090D01*
X119737Y848135D01*
X119665Y848177D01*
X119590Y848215D01*
X119514Y848250D01*
X119437Y848281D01*
X119358Y848308D01*
X119278Y848332D01*
X119197Y848352D01*
X119116Y848369D01*
X119033Y848381D01*
X118950Y848390D01*
X118867Y848395D01*
X118783Y848396D01*
X118700Y848393D01*
X118617Y848386D01*
X118534Y848376D01*
X118452Y848362D01*
X118370Y848344D01*
X118290Y848322D01*
X118211Y848296D01*
X118132Y848267D01*
X118056Y848235D01*
X117980Y848198D01*
X117907Y848159D01*
X117836Y848116D01*
X117766Y848069D01*
X116286Y847033D01*
X116219Y846984D01*
X116154Y846931D01*
X116092Y846876D01*
X116032Y846818D01*
X115975Y846757D01*
X115921Y846693D01*
X115870Y846628D01*
X115822Y846559D01*
X115777Y846489D01*
X115735Y846417D01*
X115697Y846342D01*
X115662Y846266D01*
X115631Y846189D01*
X115604Y846110D01*
X115580Y846030D01*
X115560Y845949D01*
X115543Y845868D01*
X115531Y845785D01*
X115522Y845702D01*
X115517Y845619D01*
X115516Y845535D01*
X115519Y845452D01*
X115526Y845369D01*
X115536Y845286D01*
X115550Y845204D01*
X115568Y845122D01*
X115590Y845042D01*
X115616Y844963D01*
X115645Y844884D01*
X115677Y844808D01*
X115714Y844732D01*
X115753Y844659D01*
X115796Y844588D01*
X115843Y844518D01*
X115892Y844451D01*
X115945Y844386D01*
X116000Y844324D01*
X116058Y844264D01*
X116119Y844207D01*
X116183Y844153D01*
X116249Y844102D01*
X116317Y844054D01*
X116387Y844009D01*
X116459Y843967D01*
X116534Y843929D01*
X116610Y843894D01*
X116687Y843863D01*
X116766Y843836D01*
X116846Y843812D01*
X116927Y843792D01*
X117008Y843775D01*
X117091Y843763D01*
X117174Y843754D01*
X117257Y843749D01*
X117341Y843748D01*
X117424Y843751D01*
X117507Y843758D01*
X117590Y843768D01*
X117672Y843782D01*
X117754Y843800D01*
X117834Y843822D01*
X117914Y843848D01*
X117992Y843877D01*
X118068Y843909D01*
X118144Y843946D01*
X118217Y843985D01*
X118288Y844028D01*
X118358Y844075D01*
X114715Y855575D02*
X108057Y850913D01*
X114715Y855575D02*
X113420Y857424D01*
X113376Y857483D01*
X113329Y857540D01*
X113280Y857594D01*
X113227Y857645D01*
X113172Y857693D01*
X113114Y857738D01*
X113053Y857780D01*
X112991Y857818D01*
X112927Y857854D01*
X112860Y857885D01*
X112793Y857913D01*
X112723Y857937D01*
X112653Y857958D01*
X112581Y857975D01*
X112509Y857987D01*
X112436Y857996D01*
X112363Y858001D01*
X112290Y858002D01*
X112216Y857999D01*
X112143Y857992D01*
X112071Y857981D01*
X111999Y857966D01*
X111928Y857947D01*
X111858Y857924D01*
X111790Y857898D01*
X111723Y857868D01*
X111657Y857834D01*
X111594Y857797D01*
X111533Y857757D01*
X109314Y856203D01*
X109257Y856161D01*
X109202Y856116D01*
X109150Y856068D01*
X109100Y856017D01*
X109053Y855964D01*
X109009Y855908D01*
X108968Y855851D01*
X108930Y855791D01*
X108895Y855729D01*
X108863Y855666D01*
X108835Y855601D01*
X108810Y855534D01*
X108788Y855466D01*
X108771Y855398D01*
X108757Y855328D01*
X108746Y855258D01*
X108739Y855187D01*
X108736Y855117D01*
X108737Y855046D01*
X108741Y854975D01*
X108749Y854904D01*
X108761Y854834D01*
X108776Y854765D01*
X108795Y854697D01*
X108818Y854630D01*
X108844Y854564D01*
X108873Y854499D01*
X108906Y854436D01*
X108942Y854375D01*
X108981Y854316D01*
X110276Y852467D01*
X107377Y858970D02*
X112925Y862855D01*
X107377Y858970D02*
X107316Y858930D01*
X107253Y858893D01*
X107187Y858859D01*
X107120Y858829D01*
X107052Y858803D01*
X106982Y858780D01*
X106911Y858761D01*
X106839Y858746D01*
X106767Y858735D01*
X106694Y858728D01*
X106620Y858725D01*
X106547Y858726D01*
X106474Y858731D01*
X106401Y858740D01*
X106329Y858752D01*
X106257Y858769D01*
X106187Y858790D01*
X106117Y858814D01*
X106050Y858842D01*
X105983Y858873D01*
X105919Y858909D01*
X105857Y858947D01*
X105796Y858989D01*
X105738Y859034D01*
X105683Y859082D01*
X105630Y859133D01*
X105581Y859187D01*
X105534Y859244D01*
X105490Y859303D01*
X105583Y864680D02*
X104418Y866345D01*
X105583Y864680D02*
X105627Y864615D01*
X105667Y864547D01*
X105704Y864477D01*
X105737Y864406D01*
X105767Y864333D01*
X105793Y864258D01*
X105815Y864183D01*
X105834Y864106D01*
X105848Y864029D01*
X105859Y863951D01*
X105866Y863872D01*
X105869Y863794D01*
X105868Y863715D01*
X105863Y863636D01*
X105854Y863558D01*
X105841Y863480D01*
X105825Y863403D01*
X105804Y863327D01*
X105780Y863252D01*
X105752Y863178D01*
X105721Y863106D01*
X105686Y863036D01*
X105647Y862967D01*
X105605Y862900D01*
X105560Y862836D01*
X105512Y862774D01*
X105461Y862714D01*
X105406Y862657D01*
X105349Y862602D01*
X105289Y862551D01*
X105227Y862503D01*
X105163Y862458D01*
X105096Y862416D01*
X105027Y862377D01*
X104957Y862342D01*
X104885Y862311D01*
X104811Y862283D01*
X104736Y862259D01*
X104660Y862238D01*
X104583Y862222D01*
X104505Y862209D01*
X104427Y862200D01*
X104348Y862195D01*
X104269Y862194D01*
X104191Y862197D01*
X104112Y862204D01*
X104034Y862215D01*
X103957Y862229D01*
X103880Y862248D01*
X103804Y862270D01*
X103730Y862296D01*
X103657Y862326D01*
X103586Y862359D01*
X103516Y862396D01*
X103448Y862436D01*
X103383Y862480D01*
X103319Y862527D01*
X103258Y862576D01*
X103200Y862629D01*
X103144Y862685D01*
X103091Y862743D01*
X103042Y862804D01*
X102995Y862868D01*
X102994Y862867D02*
X101829Y864532D01*
X105158Y866863D01*
X105219Y866903D01*
X105282Y866940D01*
X105348Y866974D01*
X105415Y867004D01*
X105483Y867030D01*
X105553Y867053D01*
X105624Y867072D01*
X105696Y867087D01*
X105768Y867098D01*
X105841Y867105D01*
X105915Y867108D01*
X105988Y867107D01*
X106061Y867102D01*
X106134Y867093D01*
X106206Y867081D01*
X106278Y867064D01*
X106348Y867043D01*
X106418Y867019D01*
X106485Y866991D01*
X106552Y866960D01*
X106616Y866924D01*
X106678Y866886D01*
X106739Y866844D01*
X106797Y866799D01*
X106852Y866751D01*
X106905Y866700D01*
X106954Y866646D01*
X107001Y866589D01*
X107045Y866530D01*
X107044Y866530D02*
X108080Y865050D01*
X98963Y868624D02*
X97927Y870103D01*
X98963Y868624D02*
X99007Y868565D01*
X99054Y868508D01*
X99103Y868454D01*
X99156Y868403D01*
X99211Y868355D01*
X99269Y868310D01*
X99330Y868268D01*
X99392Y868230D01*
X99456Y868194D01*
X99523Y868163D01*
X99590Y868135D01*
X99660Y868111D01*
X99730Y868090D01*
X99802Y868073D01*
X99874Y868061D01*
X99947Y868052D01*
X100020Y868047D01*
X100093Y868046D01*
X100167Y868049D01*
X100240Y868056D01*
X100312Y868067D01*
X100384Y868082D01*
X100455Y868101D01*
X100525Y868124D01*
X100593Y868150D01*
X100660Y868180D01*
X100726Y868214D01*
X100789Y868251D01*
X100850Y868291D01*
X103069Y869845D01*
X103126Y869887D01*
X103181Y869932D01*
X103233Y869980D01*
X103283Y870031D01*
X103330Y870084D01*
X103374Y870140D01*
X103415Y870197D01*
X103453Y870257D01*
X103488Y870319D01*
X103520Y870382D01*
X103548Y870447D01*
X103573Y870514D01*
X103595Y870582D01*
X103612Y870650D01*
X103626Y870720D01*
X103637Y870790D01*
X103644Y870861D01*
X103647Y870931D01*
X103646Y871002D01*
X103642Y871073D01*
X103634Y871144D01*
X103622Y871214D01*
X103607Y871283D01*
X103588Y871351D01*
X103565Y871418D01*
X103539Y871484D01*
X103510Y871549D01*
X103477Y871612D01*
X103441Y871673D01*
X103402Y871732D01*
X102366Y873211D01*
X95451Y873640D02*
X94156Y875490D01*
X95450Y873640D02*
X95494Y873581D01*
X95541Y873524D01*
X95590Y873470D01*
X95643Y873419D01*
X95698Y873371D01*
X95756Y873326D01*
X95817Y873284D01*
X95879Y873246D01*
X95943Y873210D01*
X96010Y873179D01*
X96077Y873151D01*
X96147Y873127D01*
X96217Y873106D01*
X96289Y873089D01*
X96361Y873077D01*
X96434Y873068D01*
X96507Y873063D01*
X96580Y873062D01*
X96654Y873065D01*
X96727Y873072D01*
X96799Y873083D01*
X96871Y873098D01*
X96942Y873117D01*
X97012Y873140D01*
X97080Y873166D01*
X97147Y873196D01*
X97213Y873230D01*
X97276Y873267D01*
X97337Y873307D01*
X97337Y873308D02*
X99187Y874603D01*
X99254Y874652D01*
X99319Y874705D01*
X99381Y874760D01*
X99441Y874818D01*
X99498Y874879D01*
X99552Y874943D01*
X99603Y875008D01*
X99651Y875077D01*
X99696Y875147D01*
X99738Y875219D01*
X99776Y875294D01*
X99811Y875370D01*
X99842Y875447D01*
X99869Y875526D01*
X99893Y875606D01*
X99913Y875687D01*
X99930Y875768D01*
X99942Y875851D01*
X99951Y875934D01*
X99956Y876017D01*
X99957Y876101D01*
X99954Y876184D01*
X99947Y876267D01*
X99937Y876350D01*
X99923Y876432D01*
X99905Y876514D01*
X99883Y876594D01*
X99857Y876673D01*
X99828Y876752D01*
X99796Y876828D01*
X99759Y876904D01*
X99720Y876977D01*
X99677Y877048D01*
X99630Y877118D01*
X99581Y877185D01*
X99528Y877250D01*
X99473Y877312D01*
X99415Y877372D01*
X99354Y877429D01*
X99290Y877483D01*
X99225Y877534D01*
X99156Y877582D01*
X99086Y877627D01*
X99014Y877669D01*
X98939Y877707D01*
X98863Y877742D01*
X98786Y877773D01*
X98707Y877800D01*
X98627Y877824D01*
X98546Y877844D01*
X98465Y877861D01*
X98382Y877873D01*
X98299Y877882D01*
X98216Y877887D01*
X98132Y877888D01*
X98049Y877885D01*
X97966Y877878D01*
X97883Y877868D01*
X97801Y877854D01*
X97719Y877836D01*
X97639Y877814D01*
X97560Y877788D01*
X97481Y877759D01*
X97405Y877727D01*
X97329Y877690D01*
X97256Y877651D01*
X97185Y877608D01*
X97115Y877561D01*
X97115Y877562D02*
X96375Y877044D01*
X98447Y874085D01*
X90856Y882564D02*
X96404Y886449D01*
X90856Y882564D02*
X90795Y882524D01*
X90732Y882487D01*
X90666Y882453D01*
X90599Y882423D01*
X90531Y882397D01*
X90461Y882374D01*
X90390Y882355D01*
X90318Y882340D01*
X90246Y882329D01*
X90173Y882322D01*
X90099Y882319D01*
X90026Y882320D01*
X89953Y882325D01*
X89880Y882334D01*
X89808Y882346D01*
X89736Y882363D01*
X89666Y882384D01*
X89596Y882408D01*
X89529Y882436D01*
X89462Y882467D01*
X89398Y882503D01*
X89336Y882541D01*
X89275Y882583D01*
X89217Y882628D01*
X89162Y882676D01*
X89109Y882727D01*
X89060Y882781D01*
X89013Y882838D01*
X88969Y882897D01*
X87390Y885152D02*
X91829Y888260D01*
X93808Y889370D02*
X94178Y889629D01*
X93919Y889999D01*
X93549Y889740D01*
X93808Y889370D01*
X91968Y892784D02*
X85310Y888122D01*
X87530Y889676D02*
X87677Y894189D01*
X87548Y891618D02*
X83238Y891081D01*
X80765Y894613D02*
X79470Y896462D01*
X80765Y894613D02*
X80809Y894554D01*
X80856Y894497D01*
X80905Y894443D01*
X80958Y894392D01*
X81013Y894344D01*
X81071Y894299D01*
X81132Y894257D01*
X81194Y894219D01*
X81258Y894183D01*
X81325Y894152D01*
X81392Y894124D01*
X81462Y894100D01*
X81532Y894079D01*
X81604Y894062D01*
X81676Y894050D01*
X81749Y894041D01*
X81822Y894036D01*
X81895Y894035D01*
X81969Y894038D01*
X82042Y894045D01*
X82114Y894056D01*
X82186Y894071D01*
X82257Y894090D01*
X82327Y894113D01*
X82395Y894139D01*
X82462Y894169D01*
X82528Y894203D01*
X82591Y894240D01*
X82652Y894280D01*
X84502Y895575D01*
X84502Y895576D02*
X84569Y895625D01*
X84634Y895678D01*
X84696Y895733D01*
X84756Y895791D01*
X84813Y895852D01*
X84867Y895916D01*
X84918Y895981D01*
X84966Y896050D01*
X85011Y896120D01*
X85053Y896192D01*
X85091Y896267D01*
X85126Y896343D01*
X85157Y896420D01*
X85184Y896499D01*
X85208Y896579D01*
X85228Y896660D01*
X85245Y896741D01*
X85257Y896824D01*
X85266Y896907D01*
X85271Y896990D01*
X85272Y897074D01*
X85269Y897157D01*
X85262Y897240D01*
X85252Y897323D01*
X85238Y897405D01*
X85220Y897487D01*
X85198Y897567D01*
X85172Y897646D01*
X85143Y897725D01*
X85111Y897801D01*
X85074Y897877D01*
X85035Y897950D01*
X84992Y898021D01*
X84945Y898091D01*
X84896Y898158D01*
X84843Y898223D01*
X84788Y898285D01*
X84730Y898345D01*
X84669Y898402D01*
X84605Y898456D01*
X84540Y898507D01*
X84471Y898555D01*
X84401Y898600D01*
X84329Y898642D01*
X84254Y898680D01*
X84178Y898715D01*
X84101Y898746D01*
X84022Y898773D01*
X83942Y898797D01*
X83861Y898817D01*
X83780Y898834D01*
X83697Y898846D01*
X83614Y898855D01*
X83531Y898860D01*
X83447Y898861D01*
X83364Y898858D01*
X83281Y898851D01*
X83198Y898841D01*
X83116Y898827D01*
X83034Y898809D01*
X82954Y898787D01*
X82875Y898761D01*
X82796Y898732D01*
X82720Y898700D01*
X82644Y898663D01*
X82571Y898624D01*
X82500Y898581D01*
X82430Y898534D01*
X81690Y898016D01*
X83762Y895057D01*
X74965Y902897D02*
X81623Y907559D01*
X79403Y906005D02*
X78108Y907855D01*
X78109Y907855D02*
X78065Y907914D01*
X78018Y907971D01*
X77969Y908025D01*
X77916Y908076D01*
X77861Y908124D01*
X77803Y908169D01*
X77742Y908211D01*
X77680Y908249D01*
X77616Y908285D01*
X77549Y908316D01*
X77482Y908344D01*
X77412Y908368D01*
X77342Y908389D01*
X77270Y908406D01*
X77198Y908418D01*
X77125Y908427D01*
X77052Y908432D01*
X76979Y908433D01*
X76905Y908430D01*
X76832Y908423D01*
X76760Y908412D01*
X76688Y908397D01*
X76617Y908378D01*
X76547Y908355D01*
X76479Y908329D01*
X76412Y908299D01*
X76346Y908265D01*
X76283Y908228D01*
X76222Y908188D01*
X76222Y908187D02*
X72893Y905856D01*
X72314Y909832D02*
X73794Y910868D01*
X73861Y910917D01*
X73926Y910970D01*
X73988Y911025D01*
X74048Y911083D01*
X74105Y911144D01*
X74159Y911208D01*
X74210Y911273D01*
X74258Y911342D01*
X74303Y911412D01*
X74345Y911484D01*
X74383Y911559D01*
X74418Y911635D01*
X74449Y911712D01*
X74476Y911791D01*
X74500Y911871D01*
X74520Y911952D01*
X74537Y912033D01*
X74549Y912116D01*
X74558Y912199D01*
X74563Y912282D01*
X74564Y912366D01*
X74561Y912449D01*
X74554Y912532D01*
X74544Y912615D01*
X74530Y912697D01*
X74512Y912779D01*
X74490Y912859D01*
X74464Y912938D01*
X74435Y913017D01*
X74403Y913093D01*
X74366Y913169D01*
X74327Y913242D01*
X74284Y913313D01*
X74237Y913383D01*
X74188Y913450D01*
X74135Y913515D01*
X74080Y913577D01*
X74022Y913637D01*
X73961Y913694D01*
X73897Y913748D01*
X73832Y913799D01*
X73763Y913847D01*
X73693Y913892D01*
X73621Y913934D01*
X73546Y913972D01*
X73470Y914007D01*
X73393Y914038D01*
X73314Y914065D01*
X73234Y914089D01*
X73153Y914109D01*
X73072Y914126D01*
X72989Y914138D01*
X72906Y914147D01*
X72823Y914152D01*
X72739Y914153D01*
X72656Y914150D01*
X72573Y914143D01*
X72490Y914133D01*
X72408Y914119D01*
X72326Y914101D01*
X72246Y914079D01*
X72167Y914053D01*
X72088Y914024D01*
X72012Y913992D01*
X71936Y913955D01*
X71863Y913916D01*
X71792Y913873D01*
X71722Y913826D01*
X71722Y913827D02*
X70242Y912791D01*
X70242Y912790D02*
X70175Y912741D01*
X70110Y912688D01*
X70048Y912633D01*
X69988Y912575D01*
X69931Y912514D01*
X69877Y912450D01*
X69826Y912385D01*
X69778Y912316D01*
X69733Y912246D01*
X69691Y912174D01*
X69653Y912099D01*
X69618Y912023D01*
X69587Y911946D01*
X69560Y911867D01*
X69536Y911787D01*
X69516Y911706D01*
X69499Y911625D01*
X69487Y911542D01*
X69478Y911459D01*
X69473Y911376D01*
X69472Y911292D01*
X69475Y911209D01*
X69482Y911126D01*
X69492Y911043D01*
X69506Y910961D01*
X69524Y910879D01*
X69546Y910799D01*
X69572Y910720D01*
X69601Y910641D01*
X69633Y910565D01*
X69670Y910489D01*
X69709Y910416D01*
X69752Y910345D01*
X69799Y910275D01*
X69848Y910208D01*
X69901Y910143D01*
X69956Y910081D01*
X70014Y910021D01*
X70075Y909964D01*
X70139Y909910D01*
X70205Y909859D01*
X70273Y909811D01*
X70343Y909766D01*
X70415Y909724D01*
X70490Y909686D01*
X70566Y909651D01*
X70643Y909620D01*
X70722Y909593D01*
X70802Y909569D01*
X70883Y909549D01*
X70964Y909532D01*
X71047Y909520D01*
X71130Y909511D01*
X71213Y909506D01*
X71297Y909505D01*
X71380Y909508D01*
X71463Y909515D01*
X71546Y909525D01*
X71628Y909539D01*
X71710Y909557D01*
X71790Y909579D01*
X71870Y909605D01*
X71948Y909634D01*
X72024Y909666D01*
X72100Y909703D01*
X72173Y909742D01*
X72244Y909785D01*
X72314Y909832D01*
X66610Y914829D02*
X71049Y917937D01*
X68718Y921266D01*
X68676Y921323D01*
X68631Y921378D01*
X68583Y921430D01*
X68532Y921480D01*
X68479Y921527D01*
X68423Y921571D01*
X68366Y921612D01*
X68306Y921650D01*
X68244Y921685D01*
X68181Y921717D01*
X68116Y921745D01*
X68049Y921770D01*
X67981Y921792D01*
X67913Y921809D01*
X67843Y921823D01*
X67773Y921834D01*
X67702Y921841D01*
X67632Y921844D01*
X67561Y921843D01*
X67490Y921839D01*
X67419Y921831D01*
X67349Y921819D01*
X67280Y921804D01*
X67212Y921785D01*
X67145Y921762D01*
X67079Y921736D01*
X67014Y921707D01*
X66951Y921674D01*
X66890Y921638D01*
X66831Y921599D01*
X66831Y921598D02*
X63502Y919267D01*
X65056Y917048D02*
X69495Y920156D01*
X60573Y923450D02*
X59278Y925300D01*
X60573Y923450D02*
X60617Y923391D01*
X60664Y923334D01*
X60713Y923280D01*
X60766Y923229D01*
X60821Y923181D01*
X60879Y923136D01*
X60940Y923094D01*
X61002Y923056D01*
X61066Y923020D01*
X61133Y922989D01*
X61200Y922961D01*
X61270Y922937D01*
X61340Y922916D01*
X61412Y922899D01*
X61484Y922887D01*
X61557Y922878D01*
X61630Y922873D01*
X61703Y922872D01*
X61777Y922875D01*
X61850Y922882D01*
X61922Y922893D01*
X61994Y922908D01*
X62065Y922927D01*
X62135Y922950D01*
X62203Y922976D01*
X62270Y923006D01*
X62336Y923040D01*
X62399Y923077D01*
X62460Y923117D01*
X62460Y923118D02*
X64309Y924413D01*
X64376Y924462D01*
X64441Y924515D01*
X64503Y924570D01*
X64563Y924628D01*
X64620Y924689D01*
X64674Y924753D01*
X64725Y924818D01*
X64773Y924887D01*
X64818Y924957D01*
X64860Y925029D01*
X64898Y925104D01*
X64933Y925180D01*
X64964Y925257D01*
X64991Y925336D01*
X65015Y925416D01*
X65035Y925497D01*
X65052Y925578D01*
X65064Y925661D01*
X65073Y925744D01*
X65078Y925827D01*
X65079Y925911D01*
X65076Y925994D01*
X65069Y926077D01*
X65059Y926160D01*
X65045Y926242D01*
X65027Y926324D01*
X65005Y926404D01*
X64979Y926483D01*
X64950Y926562D01*
X64918Y926638D01*
X64881Y926714D01*
X64842Y926787D01*
X64799Y926858D01*
X64752Y926928D01*
X64703Y926995D01*
X64650Y927060D01*
X64595Y927122D01*
X64537Y927182D01*
X64476Y927239D01*
X64412Y927293D01*
X64347Y927344D01*
X64278Y927392D01*
X64208Y927437D01*
X64136Y927479D01*
X64061Y927517D01*
X63985Y927552D01*
X63908Y927583D01*
X63829Y927610D01*
X63749Y927634D01*
X63668Y927654D01*
X63587Y927671D01*
X63504Y927683D01*
X63421Y927692D01*
X63338Y927697D01*
X63254Y927698D01*
X63171Y927695D01*
X63088Y927688D01*
X63005Y927678D01*
X62923Y927664D01*
X62841Y927646D01*
X62761Y927624D01*
X62682Y927598D01*
X62603Y927569D01*
X62527Y927537D01*
X62451Y927500D01*
X62378Y927461D01*
X62307Y927418D01*
X62237Y927371D01*
X62237Y927372D02*
X61498Y926854D01*
X63570Y923895D01*
D13*
X90591Y204343D03*
X90591Y204597D03*
D14*
X90718Y204788D03*
D15*
X90845Y204978D03*
D13*
X90845Y205867D03*
D16*
X90972Y205296D03*
D13*
X90972Y206502D03*
D17*
X91099Y205486D03*
D13*
X91099Y206883D03*
D18*
X91226Y205931D03*
D19*
X91353Y206121D03*
D20*
X91480Y206439D03*
D21*
X91607Y206629D03*
D22*
X91734Y206947D03*
D13*
X91734Y209804D03*
D23*
X91861Y207137D03*
D13*
X91861Y210185D03*
D24*
X91988Y207582D03*
D25*
X92115Y207772D03*
D26*
X92242Y208090D03*
D27*
X92369Y208280D03*
D13*
X92369Y212471D03*
D28*
X92496Y208598D03*
D13*
X92496Y213106D03*
D29*
X92623Y208915D03*
D30*
X92750Y209106D03*
D31*
X92877Y209169D03*
D30*
X93004Y209106D03*
X93131Y209106D03*
X93258Y209106D03*
D31*
X93385Y209169D03*
D30*
X93512Y209106D03*
D31*
X93639Y209169D03*
D30*
X93766Y209106D03*
D31*
X93893Y209169D03*
D30*
X94020Y209106D03*
X94147Y209106D03*
X94274Y209106D03*
D31*
X94401Y209169D03*
D30*
X94528Y209106D03*
D31*
X94655Y209169D03*
D30*
X94782Y209106D03*
D31*
X94909Y209169D03*
D30*
X95036Y209106D03*
X95163Y209106D03*
X95290Y209106D03*
D31*
X95417Y209169D03*
D30*
X95544Y209106D03*
D31*
X95671Y209169D03*
D30*
X95798Y209106D03*
D31*
X95925Y209169D03*
D30*
X96052Y209106D03*
X96179Y209106D03*
X96306Y209106D03*
D31*
X96433Y209169D03*
D30*
X96560Y209106D03*
D31*
X96687Y209169D03*
D13*
X96814Y145034D03*
X96814Y145288D03*
X96814Y145542D03*
X96814Y145796D03*
X96814Y146050D03*
X96814Y146304D03*
X96814Y146558D03*
X96814Y146812D03*
X96814Y147066D03*
X96814Y147320D03*
X96814Y147574D03*
X96814Y147828D03*
X96814Y148082D03*
X96814Y148336D03*
X96814Y148590D03*
X96814Y148844D03*
X96814Y149098D03*
X96814Y149352D03*
X96814Y149606D03*
X96814Y149860D03*
X96814Y150114D03*
X96814Y150368D03*
X96814Y150622D03*
X96814Y150876D03*
X96814Y151130D03*
X96814Y151384D03*
X96814Y151638D03*
X96814Y151892D03*
X96814Y152146D03*
X96814Y152400D03*
D30*
X96814Y209106D03*
D13*
X96941Y144145D03*
X96941Y144399D03*
D32*
X96941Y148717D03*
D13*
X96941Y153035D03*
X96941Y153289D03*
D31*
X96941Y209169D03*
D13*
X97068Y143256D03*
D33*
X97068Y148717D03*
D13*
X97068Y154178D03*
D30*
X97068Y209106D03*
D34*
X97195Y148590D03*
D13*
X97195Y154559D03*
D30*
X97195Y209106D03*
D13*
X97322Y104648D03*
X97322Y104902D03*
X97322Y105156D03*
X97322Y105410D03*
X97322Y105664D03*
X97322Y105918D03*
X97322Y106172D03*
X97322Y106426D03*
X97322Y106680D03*
X97322Y106934D03*
X97322Y107188D03*
X97322Y107442D03*
X97322Y107696D03*
X97322Y107950D03*
X97322Y108204D03*
X97322Y108458D03*
X97322Y108712D03*
X97322Y108966D03*
X97322Y109220D03*
X97322Y109474D03*
D35*
X97322Y115189D03*
D13*
X97322Y120904D03*
X97322Y121158D03*
X97322Y142240D03*
D36*
X97322Y148717D03*
D13*
X97322Y155194D03*
X97322Y179578D03*
X97322Y179832D03*
D37*
X97322Y187325D03*
D30*
X97322Y209106D03*
D38*
X97449Y113157D03*
D13*
X97449Y121793D03*
X97449Y122047D03*
X97449Y141859D03*
D39*
X97449Y148717D03*
D13*
X97449Y178943D03*
D40*
X97449Y186817D03*
D31*
X97449Y209169D03*
D41*
X97576Y113665D03*
D13*
X97576Y122936D03*
D42*
X97576Y148590D03*
D13*
X97576Y155956D03*
X97576Y178054D03*
D43*
X97576Y186436D03*
D30*
X97576Y209106D03*
D44*
X97703Y113856D03*
D13*
X97703Y123317D03*
D45*
X97703Y148717D03*
D46*
X97703Y186182D03*
D31*
X97703Y209169D03*
D47*
X97830Y114173D03*
D13*
X97830Y123952D03*
D48*
X97830Y148717D03*
D13*
X97830Y156718D03*
X97830Y177038D03*
D49*
X97830Y185928D03*
D30*
X97830Y209106D03*
D50*
X97957Y114300D03*
D13*
X97957Y124333D03*
D43*
X97957Y148717D03*
D51*
X97957Y185674D03*
D31*
X97957Y209169D03*
D52*
X97957Y223076D03*
D53*
X98084Y114618D03*
D38*
X98084Y148590D03*
D13*
X98084Y176276D03*
D41*
X98084Y185547D03*
D30*
X98084Y209106D03*
D54*
X98084Y223393D03*
D55*
X98211Y114681D03*
D13*
X98211Y125095D03*
D49*
X98211Y148717D03*
D56*
X98211Y185293D03*
D30*
X98211Y209106D03*
D15*
X98211Y223520D03*
D13*
X98211Y224409D03*
D57*
X98338Y114935D03*
D58*
X98338Y148590D03*
D59*
X98338Y185166D03*
D30*
X98338Y209106D03*
D60*
X98338Y223901D03*
D13*
X98338Y225044D03*
D57*
X98465Y115062D03*
D56*
X98465Y148717D03*
D59*
X98465Y185039D03*
D31*
X98465Y209169D03*
D61*
X98465Y224155D03*
D62*
X98592Y115189D03*
D63*
X98592Y148717D03*
D64*
X98592Y184912D03*
D30*
X98592Y209106D03*
D65*
X98592Y224409D03*
D13*
X98592Y226060D03*
D62*
X98719Y115316D03*
D66*
X98719Y148654D03*
D13*
X98719Y174879D03*
D64*
X98719Y184785D03*
D31*
X98719Y209169D03*
D18*
X98719Y224600D03*
D13*
X98719Y226441D03*
D67*
X98846Y115443D03*
D50*
X98846Y148717D03*
D68*
X98846Y184658D03*
D30*
X98846Y209106D03*
D69*
X98846Y225044D03*
D70*
X98973Y115443D03*
D68*
X98973Y148717D03*
X98973Y184531D03*
D31*
X98973Y209169D03*
D21*
X98973Y225171D03*
D13*
X98973Y227711D03*
D71*
X99100Y115697D03*
D72*
X99100Y148717D03*
D55*
X99100Y184404D03*
D30*
X99100Y209106D03*
D73*
X99100Y225552D03*
D74*
X99227Y115697D03*
D75*
X99227Y148654D03*
D55*
X99227Y184277D03*
D30*
X99227Y209106D03*
D23*
X99227Y225679D03*
D13*
X99227Y228727D03*
D76*
X99354Y115761D03*
D57*
X99354Y148717D03*
D77*
X99354Y184150D03*
D30*
X99354Y209106D03*
D78*
X99354Y226187D03*
D79*
X99481Y115824D03*
D80*
X99481Y148717D03*
D77*
X99481Y184023D03*
D31*
X99481Y209169D03*
D25*
X99481Y226314D03*
D81*
X99608Y115951D03*
D62*
X99608Y148717D03*
D57*
X99608Y184023D03*
D30*
X99608Y209106D03*
D82*
X99608Y226695D03*
D81*
X99735Y116078D03*
D83*
X99735Y148717D03*
D57*
X99735Y183896D03*
D31*
X99735Y209169D03*
D84*
X99735Y226886D03*
D85*
X99862Y116078D03*
D67*
X99862Y148717D03*
D62*
X99862Y183769D03*
D30*
X99862Y209106D03*
D86*
X99862Y227203D03*
D87*
X99989Y116142D03*
D70*
X99989Y148717D03*
D62*
X99989Y183642D03*
D31*
X99989Y209169D03*
D88*
X99989Y227330D03*
D13*
X99989Y232029D03*
D89*
X100116Y116205D03*
D71*
X100116Y148717D03*
D83*
X100116Y183642D03*
D30*
X100116Y209106D03*
X100116Y227775D03*
D90*
X100243Y116205D03*
D74*
X100243Y148717D03*
D83*
X100243Y183515D03*
D30*
X100243Y209106D03*
D31*
X100243Y227711D03*
D91*
X100370Y116269D03*
D92*
X100370Y148717D03*
D13*
X100370Y172212D03*
D67*
X100370Y183515D03*
D30*
X100370Y209106D03*
X100370Y227775D03*
D93*
X100497Y116332D03*
D94*
X100497Y148654D03*
D67*
X100497Y183388D03*
D31*
X100497Y209169D03*
X100497Y227711D03*
D95*
X100624Y116396D03*
D85*
X100624Y148717D03*
D71*
X100624Y183261D03*
D30*
X100624Y209106D03*
X100624Y227775D03*
D96*
X100751Y116459D03*
D85*
X100751Y148717D03*
D71*
X100751Y183134D03*
D31*
X100751Y209169D03*
D30*
X100751Y227775D03*
D97*
X100878Y116523D03*
D90*
X100878Y148590D03*
D74*
X100878Y183134D03*
D30*
X100878Y209106D03*
X100878Y227775D03*
D98*
X101005Y116586D03*
D90*
X101005Y148717D03*
D74*
X101005Y183007D03*
D31*
X101005Y209169D03*
X101005Y227711D03*
D99*
X101132Y116586D03*
D93*
X101132Y148717D03*
D79*
X101132Y183007D03*
D30*
X101132Y209106D03*
X101132Y227775D03*
D100*
X101259Y116650D03*
D96*
X101259Y148717D03*
D79*
X101259Y182880D03*
D30*
X101259Y209106D03*
D31*
X101259Y227711D03*
D101*
X101386Y116713D03*
D98*
X101386Y148717D03*
D92*
X101386Y182880D03*
D30*
X101386Y209106D03*
X101386Y227775D03*
D102*
X101513Y116713D03*
D99*
X101513Y148717D03*
D92*
X101513Y182753D03*
D31*
X101513Y209169D03*
X101513Y227711D03*
D103*
X101640Y116777D03*
D101*
X101640Y148717D03*
D81*
X101640Y182753D03*
D30*
X101640Y209106D03*
X101640Y227775D03*
D103*
X101767Y116777D03*
D102*
X101767Y148717D03*
D81*
X101767Y182626D03*
D31*
X101767Y209169D03*
D30*
X101767Y227775D03*
D104*
X101894Y116840D03*
X101894Y148717D03*
D85*
X101894Y182626D03*
D30*
X101894Y209106D03*
X101894Y227775D03*
D104*
X102021Y116840D03*
D105*
X102021Y148717D03*
D85*
X102021Y182499D03*
D31*
X102021Y209169D03*
X102021Y227711D03*
D105*
X102148Y116840D03*
D106*
X102148Y148717D03*
D89*
X102148Y182499D03*
D30*
X102148Y209106D03*
X102148Y227775D03*
D105*
X102275Y116967D03*
D107*
X102275Y148654D03*
D89*
X102275Y182372D03*
D30*
X102275Y209106D03*
D31*
X102275Y227711D03*
D106*
X102402Y116967D03*
D108*
X102402Y148654D03*
D90*
X102402Y182372D03*
D30*
X102402Y209106D03*
X102402Y227775D03*
D106*
X102529Y116967D03*
D109*
X102529Y148717D03*
D90*
X102529Y182245D03*
D31*
X102529Y209169D03*
X102529Y227711D03*
D110*
X102656Y117031D03*
D111*
X102656Y148717D03*
D93*
X102656Y182245D03*
D30*
X102656Y209106D03*
X102656Y227775D03*
D109*
X102783Y116967D03*
D112*
X102783Y148717D03*
D90*
X102783Y182245D03*
D31*
X102783Y209169D03*
D30*
X102783Y227775D03*
D108*
X102910Y117031D03*
D113*
X102910Y148717D03*
D95*
X102910Y182182D03*
D30*
X102910Y209106D03*
X102910Y227775D03*
D111*
X103037Y117094D03*
D114*
X103037Y148654D03*
D93*
X103037Y182118D03*
D31*
X103037Y209169D03*
X103037Y227711D03*
D111*
X103164Y117094D03*
D115*
X103164Y148717D03*
D96*
X103164Y182118D03*
D30*
X103164Y209106D03*
X103164Y227775D03*
D111*
X103291Y117094D03*
D115*
X103291Y148717D03*
D96*
X103291Y181991D03*
D30*
X103291Y209106D03*
D31*
X103291Y227711D03*
D112*
X103418Y117094D03*
D116*
X103418Y148717D03*
D98*
X103418Y181991D03*
D30*
X103418Y209106D03*
X103418Y227775D03*
D117*
X103545Y117158D03*
D118*
X103545Y148717D03*
D98*
X103545Y181864D03*
D31*
X103545Y209169D03*
X103545Y227711D03*
D112*
X103672Y117094D03*
D119*
X103672Y148717D03*
D99*
X103672Y181864D03*
D30*
X103672Y209106D03*
X103672Y227775D03*
D120*
X103799Y117158D03*
D118*
X103799Y148717D03*
D97*
X103799Y181801D03*
D31*
X103799Y209169D03*
D30*
X103799Y227775D03*
D13*
X103799Y272923D03*
X103799Y273177D03*
X103799Y273431D03*
X103799Y273685D03*
X103799Y273939D03*
D113*
X103926Y117221D03*
D121*
X103926Y148654D03*
D100*
X103926Y181801D03*
D30*
X103926Y209106D03*
X103926Y227775D03*
D13*
X103926Y271780D03*
D65*
X103926Y273431D03*
D13*
X103926Y275082D03*
D114*
X104053Y117158D03*
D122*
X104053Y148717D03*
D99*
X104053Y181737D03*
D31*
X104053Y209169D03*
X104053Y227711D03*
D69*
X104053Y273431D03*
D114*
X104180Y117158D03*
D123*
X104180Y148717D03*
D101*
X104180Y181737D03*
D30*
X104180Y209106D03*
X104180Y227775D03*
D124*
X104180Y273431D03*
D115*
X104307Y117221D03*
D123*
X104307Y148717D03*
D101*
X104307Y181610D03*
D30*
X104307Y209106D03*
D31*
X104307Y227711D03*
D125*
X104307Y273304D03*
D13*
X104307Y276479D03*
D126*
X104434Y117158D03*
D127*
X104434Y148654D03*
D102*
X104434Y181610D03*
D30*
X104434Y209106D03*
X104434Y227775D03*
D25*
X104434Y273431D03*
D115*
X104561Y117221D03*
D128*
X104561Y148717D03*
D101*
X104561Y181610D03*
D31*
X104561Y209169D03*
X104561Y227711D03*
D129*
X104561Y273431D03*
D116*
X104688Y117221D03*
D130*
X104688Y148717D03*
D102*
X104688Y181610D03*
D30*
X104688Y209106D03*
X104688Y227775D03*
D27*
X104688Y273431D03*
D115*
X104815Y117221D03*
D130*
X104815Y148717D03*
D102*
X104815Y181483D03*
D31*
X104815Y209169D03*
D30*
X104815Y227775D03*
D131*
X104815Y273368D03*
D116*
X104942Y117221D03*
D132*
X104942Y140907D03*
D13*
X104942Y148336D03*
X104942Y148590D03*
X104942Y148844D03*
X104942Y149098D03*
D42*
X104942Y156464D03*
D104*
X104942Y181483D03*
D30*
X104942Y209106D03*
X104942Y227775D03*
D88*
X104942Y273431D03*
D116*
X105069Y117221D03*
D133*
X105069Y140462D03*
D13*
X105069Y147447D03*
X105069Y149987D03*
D133*
X105069Y156972D03*
D103*
X105069Y181420D03*
D31*
X105069Y209169D03*
X105069Y227711D03*
D29*
X105069Y273431D03*
D116*
X105196Y117221D03*
D39*
X105196Y140208D03*
D13*
X105196Y150368D03*
D39*
X105196Y157226D03*
D134*
X105196Y181420D03*
D30*
X105196Y209106D03*
X105196Y227775D03*
D135*
X105196Y273431D03*
D118*
X105323Y117221D03*
D136*
X105323Y140081D03*
D13*
X105323Y150749D03*
D136*
X105323Y157353D03*
D104*
X105323Y181356D03*
D30*
X105323Y209106D03*
D31*
X105323Y227711D03*
D137*
X105323Y273431D03*
D118*
X105450Y117221D03*
D136*
X105450Y139954D03*
X105450Y157480D03*
D105*
X105450Y181356D03*
D30*
X105450Y209106D03*
X105450Y227775D03*
D33*
X105450Y273431D03*
D118*
X105577Y117221D03*
D136*
X105577Y139827D03*
X105577Y157607D03*
D105*
X105577Y181229D03*
D31*
X105577Y209169D03*
X105577Y227711D03*
D138*
X105577Y273368D03*
D139*
X105704Y117158D03*
D36*
X105704Y139573D03*
X105704Y157734D03*
D107*
X105704Y181293D03*
D30*
X105704Y209106D03*
X105704Y227775D03*
D34*
X105704Y273431D03*
D118*
X105831Y117221D03*
D140*
X105831Y139573D03*
X105831Y157861D03*
D105*
X105831Y181229D03*
D31*
X105831Y209169D03*
D30*
X105831Y227775D03*
D141*
X105831Y273431D03*
D119*
X105958Y117221D03*
D140*
X105958Y139446D03*
X105958Y157988D03*
D106*
X105958Y181229D03*
D30*
X105958Y209106D03*
X105958Y227775D03*
D142*
X105958Y273431D03*
D118*
X106085Y117221D03*
D140*
X106085Y139319D03*
D143*
X106085Y158052D03*
D107*
X106085Y181166D03*
D31*
X106085Y209169D03*
X106085Y227711D03*
D140*
X106085Y273431D03*
D119*
X106212Y117221D03*
D142*
X106212Y139319D03*
X106212Y158115D03*
D106*
X106212Y181229D03*
D30*
X106212Y209106D03*
X106212Y227775D03*
D52*
X106212Y241237D03*
D13*
X106212Y241554D03*
D36*
X106212Y273431D03*
D32*
X106339Y127381D03*
D142*
X106339Y139192D03*
X106339Y158242D03*
D144*
X106339Y174752D03*
D13*
X106339Y181991D03*
X106339Y182245D03*
X106339Y182499D03*
X106339Y182753D03*
X106339Y183007D03*
X106339Y183261D03*
X106339Y183515D03*
X106339Y183769D03*
X106339Y184023D03*
X106339Y184277D03*
X106339Y184531D03*
X106339Y184785D03*
X106339Y185039D03*
X106339Y185293D03*
X106339Y185547D03*
X106339Y185801D03*
X106339Y186055D03*
X106339Y186309D03*
X106339Y186563D03*
X106339Y186817D03*
X106339Y187071D03*
X106339Y187325D03*
X106339Y187579D03*
X106339Y187833D03*
X106339Y188087D03*
X106339Y188341D03*
X106339Y188595D03*
X106339Y188849D03*
X106339Y189103D03*
X106339Y189357D03*
X106339Y189611D03*
X106339Y189865D03*
X106339Y190119D03*
X106339Y190373D03*
X106339Y190627D03*
X106339Y190881D03*
X106339Y191135D03*
X106339Y191389D03*
X106339Y191643D03*
X106339Y191897D03*
X106339Y192151D03*
X106339Y192405D03*
X106339Y192659D03*
X106339Y192913D03*
X106339Y193167D03*
X106339Y193421D03*
X106339Y193675D03*
X106339Y193929D03*
X106339Y194183D03*
X106339Y194437D03*
D30*
X106339Y209106D03*
D31*
X106339Y227711D03*
D145*
X106339Y241427D03*
D13*
X106339Y241935D03*
D136*
X106339Y273431D03*
D131*
X106466Y127445D03*
D142*
X106466Y139065D03*
D146*
X106466Y158306D03*
D147*
X106466Y174498D03*
D30*
X106466Y209106D03*
X106466Y227775D03*
D148*
X106466Y241745D03*
D13*
X106466Y242570D03*
D149*
X106466Y273431D03*
D27*
X106593Y127508D03*
D141*
X106593Y139065D03*
X106593Y158369D03*
D149*
X106593Y174244D03*
D31*
X106593Y209169D03*
X106593Y227711D03*
D60*
X106593Y242062D03*
D39*
X106593Y273431D03*
D32*
X106720Y127508D03*
D141*
X106720Y138938D03*
X106720Y158496D03*
D136*
X106720Y173990D03*
D30*
X106720Y209106D03*
X106720Y227775D03*
D150*
X106720Y242380D03*
D133*
X106720Y273431D03*
D27*
X106847Y127508D03*
D151*
X106847Y138875D03*
X106847Y158560D03*
D36*
X106847Y173736D03*
D31*
X106847Y209169D03*
D30*
X106847Y227775D03*
D65*
X106847Y242570D03*
D147*
X106847Y273431D03*
D32*
X106974Y127508D03*
D34*
X106974Y138811D03*
X106974Y158623D03*
D36*
X106974Y173609D03*
D30*
X106974Y209106D03*
X106974Y227775D03*
D152*
X106974Y242888D03*
D13*
X106974Y244856D03*
D144*
X106974Y273431D03*
D27*
X107101Y127508D03*
D34*
X107101Y138684D03*
D151*
X107101Y158687D03*
D142*
X107101Y173482D03*
D31*
X107101Y209169D03*
X107101Y227711D03*
D153*
X107101Y243078D03*
D13*
X107101Y245237D03*
D42*
X107101Y273431D03*
D32*
X107228Y127508D03*
D151*
X107228Y138748D03*
X107228Y158687D03*
D142*
X107228Y173355D03*
D30*
X107228Y209106D03*
X107228Y227775D03*
D154*
X107228Y243523D03*
D37*
X107228Y273431D03*
D27*
X107355Y127508D03*
D34*
X107355Y138684D03*
X107355Y158750D03*
D146*
X107355Y173292D03*
D30*
X107355Y209106D03*
D31*
X107355Y227711D03*
D73*
X107355Y243713D03*
D45*
X107355Y273431D03*
D32*
X107482Y127508D03*
D34*
X107482Y138557D03*
X107482Y158877D03*
D141*
X107482Y173228D03*
D30*
X107482Y209106D03*
X107482Y227775D03*
D155*
X107482Y244031D03*
D156*
X107482Y273431D03*
D32*
X107609Y127381D03*
D157*
X107609Y138494D03*
D158*
X107609Y158877D03*
D151*
X107609Y173038D03*
D31*
X107609Y209169D03*
X107609Y227711D03*
D159*
X107609Y244221D03*
D156*
X107609Y273431D03*
D86*
X107736Y127381D03*
D157*
X107736Y138494D03*
D34*
X107736Y158877D03*
X107736Y172974D03*
D30*
X107736Y209106D03*
X107736Y227775D03*
D160*
X107736Y244539D03*
D13*
X107736Y248158D03*
D40*
X107736Y273431D03*
D13*
X107863Y123063D03*
D32*
X107863Y127381D03*
D34*
X107863Y138430D03*
D157*
X107863Y158941D03*
D158*
X107863Y172847D03*
D31*
X107863Y209169D03*
D30*
X107863Y227775D03*
D129*
X107863Y244729D03*
D13*
X107863Y248539D03*
D40*
X107863Y273431D03*
D13*
X107990Y111506D03*
X107990Y111760D03*
D50*
X107990Y121793D03*
D157*
X107990Y138367D03*
D158*
X107990Y159004D03*
D157*
X107990Y172784D03*
D30*
X107990Y209106D03*
X107990Y227775D03*
D161*
X107990Y245174D03*
D48*
X107990Y273431D03*
D13*
X108117Y110617D03*
X108117Y110871D03*
D55*
X108117Y121285D03*
D157*
X108117Y138367D03*
X108117Y159068D03*
D162*
X108117Y172657D03*
D31*
X108117Y209169D03*
X108117Y227711D03*
D86*
X108117Y245364D03*
D163*
X108117Y273431D03*
D13*
X108244Y109728D03*
D164*
X108244Y120714D03*
D157*
X108244Y138367D03*
X108244Y159068D03*
D162*
X108244Y172657D03*
D30*
X108244Y209106D03*
X108244Y227775D03*
D165*
X108244Y245682D03*
D166*
X108244Y273431D03*
D13*
X108371Y109347D03*
D83*
X108371Y120523D03*
D158*
X108371Y138303D03*
X108371Y159131D03*
D35*
X108371Y172466D03*
D30*
X108371Y209106D03*
D31*
X108371Y227711D03*
D167*
X108371Y245872D03*
D168*
X108371Y273368D03*
D13*
X108498Y108712D03*
D169*
X108498Y120206D03*
D157*
X108498Y138240D03*
D34*
X108498Y159131D03*
D35*
X108498Y172466D03*
D30*
X108498Y209106D03*
X108498Y227775D03*
X108498Y245936D03*
D170*
X108498Y273368D03*
D74*
X108625Y120015D03*
D158*
X108625Y138303D03*
X108625Y159131D03*
D138*
X108625Y172403D03*
D31*
X108625Y209169D03*
X108625Y227711D03*
D30*
X108625Y245936D03*
D43*
X108625Y273431D03*
D13*
X108752Y107950D03*
D79*
X108752Y119761D03*
D157*
X108752Y138240D03*
X108752Y159195D03*
D171*
X108752Y172339D03*
D30*
X108752Y209106D03*
X108752Y227775D03*
X108752Y245936D03*
D46*
X108752Y273431D03*
D94*
X108879Y119571D03*
D157*
X108879Y138240D03*
D158*
X108879Y159131D03*
D172*
X108879Y172276D03*
D13*
X108879Y196215D03*
X108879Y196469D03*
X108879Y196723D03*
X108879Y196977D03*
X108879Y197231D03*
X108879Y197485D03*
X108879Y197739D03*
X108879Y197993D03*
X108879Y198247D03*
X108879Y198501D03*
X108879Y198755D03*
X108879Y199009D03*
X108879Y199263D03*
X108879Y199517D03*
X108879Y199771D03*
X108879Y200025D03*
X108879Y200279D03*
X108879Y200533D03*
X108879Y200787D03*
X108879Y201041D03*
X108879Y201295D03*
X108879Y201549D03*
X108879Y201803D03*
X108879Y202057D03*
D31*
X108879Y209169D03*
D30*
X108879Y227775D03*
X108879Y245936D03*
D46*
X108879Y273431D03*
D85*
X109006Y119380D03*
D158*
X109006Y138176D03*
X109006Y159258D03*
D171*
X109006Y172212D03*
D173*
X109006Y198946D03*
D30*
X109006Y209106D03*
X109006Y227775D03*
X109006Y245936D03*
D38*
X109006Y273431D03*
D87*
X109133Y119317D03*
D158*
X109133Y138176D03*
X109133Y159258D03*
D33*
X109133Y172212D03*
D173*
X109133Y198946D03*
D31*
X109133Y209169D03*
X109133Y227711D03*
D30*
X109133Y245936D03*
D38*
X109133Y273431D03*
D90*
X109260Y119126D03*
D158*
X109260Y138176D03*
X109260Y159258D03*
D33*
X109260Y172085D03*
D173*
X109260Y198946D03*
D30*
X109260Y209106D03*
X109260Y227775D03*
X109260Y245936D03*
D174*
X109260Y273431D03*
D90*
X109387Y118999D03*
D158*
X109387Y138049D03*
D157*
X109387Y159322D03*
D175*
X109387Y172022D03*
D173*
X109387Y198946D03*
D30*
X109387Y209106D03*
D31*
X109387Y227711D03*
D30*
X109387Y245936D03*
D174*
X109387Y273431D03*
D96*
X109514Y118872D03*
D157*
X109514Y138113D03*
D158*
X109514Y159258D03*
D33*
X109514Y172085D03*
D159*
X109514Y198882D03*
D30*
X109514Y209106D03*
X109514Y227775D03*
X109514Y245936D03*
D176*
X109514Y273368D03*
D96*
X109641Y118745D03*
D158*
X109641Y138049D03*
X109641Y159385D03*
D33*
X109641Y171958D03*
D125*
X109641Y198882D03*
D31*
X109641Y209169D03*
X109641Y227711D03*
D30*
X109641Y245936D03*
D49*
X109641Y273431D03*
D97*
X109768Y118555D03*
D157*
X109768Y138113D03*
X109768Y159322D03*
D137*
X109768Y171958D03*
D159*
X109768Y198882D03*
D30*
X109768Y209106D03*
X109768Y227775D03*
X109768Y245936D03*
D51*
X109768Y273431D03*
D98*
X109895Y118618D03*
D158*
X109895Y138049D03*
X109895Y159385D03*
D137*
X109895Y171831D03*
D125*
X109895Y198882D03*
D31*
X109895Y209169D03*
D52*
X109895Y218504D03*
D177*
X109895Y218948D03*
X109895Y219456D03*
X109895Y219964D03*
X109895Y220472D03*
X109895Y220980D03*
X109895Y221488D03*
X109895Y221996D03*
X109895Y222504D03*
D135*
X109895Y227838D03*
D177*
X109895Y233172D03*
X109895Y233680D03*
X109895Y234188D03*
X109895Y234696D03*
X109895Y235204D03*
X109895Y235712D03*
X109895Y236220D03*
D13*
X109895Y236601D03*
D31*
X109895Y245999D03*
D13*
X109895Y251079D03*
X109895Y251333D03*
X109895Y251587D03*
X109895Y251841D03*
X109895Y252095D03*
X109895Y252349D03*
X109895Y252603D03*
X109895Y252857D03*
X109895Y253111D03*
X109895Y253365D03*
X109895Y253619D03*
X109895Y253873D03*
X109895Y254127D03*
X109895Y254381D03*
X109895Y254635D03*
X109895Y254889D03*
X109895Y255143D03*
X109895Y255397D03*
X109895Y255651D03*
X109895Y255905D03*
X109895Y256159D03*
X109895Y256413D03*
X109895Y256667D03*
X109895Y256921D03*
X109895Y257175D03*
X109895Y257429D03*
X109895Y257683D03*
X109895Y257937D03*
X109895Y258191D03*
X109895Y258445D03*
X109895Y258699D03*
X109895Y258953D03*
X109895Y259207D03*
X109895Y259461D03*
X109895Y259715D03*
X109895Y259969D03*
X109895Y260223D03*
X109895Y260477D03*
X109895Y260731D03*
X109895Y260985D03*
X109895Y261239D03*
X109895Y261493D03*
X109895Y261747D03*
X109895Y262001D03*
X109895Y262255D03*
X109895Y262509D03*
X109895Y262763D03*
X109895Y263017D03*
X109895Y263271D03*
X109895Y263525D03*
X109895Y263779D03*
X109895Y264033D03*
X109895Y264287D03*
D51*
X109895Y273304D03*
D100*
X110022Y118428D03*
D34*
X110022Y138049D03*
D157*
X110022Y159322D03*
D175*
X110022Y171895D03*
D159*
X110022Y198882D03*
D30*
X110022Y209106D03*
D56*
X110022Y227584D03*
D178*
X110022Y261684D03*
D101*
X110149Y118364D03*
D158*
X110149Y138049D03*
X110149Y159385D03*
D137*
X110149Y171831D03*
D173*
X110149Y198819D03*
D31*
X110149Y209169D03*
D179*
X110149Y227521D03*
D180*
X110149Y261747D03*
D101*
X110276Y118237D03*
D34*
X110276Y138049D03*
X110276Y159385D03*
D181*
X110276Y171768D03*
D173*
X110276Y198819D03*
D30*
X110276Y209106D03*
D56*
X110276Y227584D03*
D180*
X110276Y261747D03*
D101*
X110403Y118110D03*
D158*
X110403Y138049D03*
X110403Y159385D03*
D135*
X110403Y171704D03*
D159*
X110403Y198755D03*
D30*
X110403Y209106D03*
D179*
X110403Y227521D03*
D180*
X110403Y261747D03*
D102*
X110530Y118110D03*
D34*
X110530Y138049D03*
X110530Y159385D03*
D137*
X110530Y171704D03*
D173*
X110530Y198692D03*
D30*
X110530Y209106D03*
D56*
X110530Y227584D03*
D182*
X110530Y261811D03*
D102*
X110657Y117983D03*
D158*
X110657Y138049D03*
X110657Y159385D03*
D135*
X110657Y171704D03*
D173*
X110657Y198692D03*
D31*
X110657Y209169D03*
D179*
X110657Y227521D03*
D180*
X110657Y261747D03*
D102*
X110784Y117856D03*
D34*
X110784Y138049D03*
X110784Y159385D03*
D181*
X110784Y171641D03*
D173*
X110784Y198692D03*
D30*
X110784Y209106D03*
D56*
X110784Y227584D03*
D182*
X110784Y261811D03*
D103*
X110911Y117793D03*
D158*
X110911Y138049D03*
X110911Y159385D03*
D135*
X110911Y171704D03*
D173*
X110911Y198692D03*
D31*
X110911Y209169D03*
D179*
X110911Y227521D03*
D182*
X110911Y261811D03*
D104*
X111038Y117729D03*
D34*
X111038Y138049D03*
X111038Y159385D03*
D135*
X111038Y171577D03*
D159*
X111038Y198628D03*
D30*
X111038Y209106D03*
D56*
X111038Y227584D03*
D182*
X111038Y261811D03*
D104*
X111165Y117602D03*
D157*
X111165Y137986D03*
D158*
X111165Y159385D03*
D183*
X111165Y171641D03*
D125*
X111165Y198628D03*
D31*
X111165Y209169D03*
D179*
X111165Y227521D03*
D184*
X111165Y261874D03*
D134*
X111292Y117539D03*
D34*
X111292Y138049D03*
X111292Y159385D03*
D135*
X111292Y171577D03*
D159*
X111292Y198628D03*
D30*
X111292Y209106D03*
D56*
X111292Y227584D03*
D184*
X111292Y261874D03*
D105*
X111419Y117475D03*
D157*
X111419Y137986D03*
D158*
X111419Y159385D03*
D31*
X111419Y171577D03*
D125*
X111419Y198628D03*
D30*
X111419Y209106D03*
D179*
X111419Y227521D03*
D184*
X111419Y261874D03*
D105*
X111546Y117348D03*
D34*
X111546Y138049D03*
X111546Y159385D03*
D135*
X111546Y171577D03*
D159*
X111546Y198628D03*
D30*
X111546Y209106D03*
D56*
X111546Y227584D03*
D185*
X111546Y261938D03*
D134*
X111673Y117285D03*
D157*
X111673Y137986D03*
D158*
X111673Y159385D03*
D31*
X111673Y171577D03*
D173*
X111673Y198565D03*
D31*
X111673Y209169D03*
D179*
X111673Y227521D03*
D184*
X111673Y261874D03*
D107*
X111800Y117285D03*
D34*
X111800Y138049D03*
X111800Y159385D03*
D135*
X111800Y171577D03*
D173*
X111800Y198565D03*
D30*
X111800Y209106D03*
D56*
X111800Y227584D03*
D185*
X111800Y261938D03*
D105*
X111927Y117221D03*
D157*
X111927Y137986D03*
D158*
X111927Y159385D03*
D31*
X111927Y171577D03*
D159*
X111927Y198501D03*
D31*
X111927Y209169D03*
D179*
X111927Y227521D03*
D184*
X111927Y261874D03*
D105*
X112054Y117094D03*
D34*
X112054Y138049D03*
X112054Y159385D03*
D135*
X112054Y171577D03*
D173*
X112054Y198438D03*
D30*
X112054Y209106D03*
D56*
X112054Y227584D03*
D185*
X112054Y261938D03*
D105*
X112181Y116967D03*
D157*
X112181Y137986D03*
D158*
X112181Y159385D03*
D31*
X112181Y171577D03*
D173*
X112181Y198438D03*
D31*
X112181Y209169D03*
D179*
X112181Y227521D03*
D185*
X112181Y261938D03*
D107*
X112308Y116904D03*
D34*
X112308Y138049D03*
X112308Y159385D03*
D135*
X112308Y171577D03*
D173*
X112308Y198438D03*
D30*
X112308Y209106D03*
D56*
X112308Y227584D03*
D185*
X112308Y261938D03*
D107*
X112435Y116777D03*
D157*
X112435Y137986D03*
D158*
X112435Y159385D03*
D31*
X112435Y171577D03*
D173*
X112435Y198438D03*
D30*
X112435Y209106D03*
D179*
X112435Y227521D03*
D185*
X112435Y261938D03*
D107*
X112562Y116777D03*
D34*
X112562Y138049D03*
X112562Y159385D03*
D135*
X112562Y171577D03*
D159*
X112562Y198374D03*
D30*
X112562Y209106D03*
D56*
X112562Y227584D03*
D185*
X112562Y261938D03*
D105*
X112689Y116713D03*
D157*
X112689Y137986D03*
D158*
X112689Y159385D03*
D31*
X112689Y171577D03*
D125*
X112689Y198374D03*
D31*
X112689Y209169D03*
D179*
X112689Y227521D03*
D185*
X112689Y261938D03*
D105*
X112816Y116586D03*
D34*
X112816Y138049D03*
X112816Y159385D03*
D135*
X112816Y171577D03*
D159*
X112816Y198374D03*
D30*
X112816Y209106D03*
D56*
X112816Y227584D03*
D185*
X112816Y261938D03*
D105*
X112943Y116459D03*
D157*
X112943Y137986D03*
D158*
X112943Y159385D03*
D183*
X112943Y171641D03*
D173*
X112943Y198311D03*
D31*
X112943Y209169D03*
D179*
X112943Y227521D03*
D185*
X112943Y261938D03*
D107*
X113070Y116396D03*
D34*
X113070Y138049D03*
X113070Y159385D03*
D135*
X113070Y171577D03*
D159*
X113070Y198374D03*
D30*
X113070Y209106D03*
D56*
X113070Y227584D03*
D185*
X113070Y261938D03*
D105*
X113197Y116332D03*
D158*
X113197Y138049D03*
X113197Y159385D03*
D183*
X113197Y171641D03*
D173*
X113197Y198311D03*
D31*
X113197Y209169D03*
D179*
X113197Y227521D03*
D185*
X113197Y261938D03*
D134*
X113324Y116269D03*
D34*
X113324Y138049D03*
X113324Y159385D03*
D181*
X113324Y171641D03*
D173*
X113324Y198311D03*
D30*
X113324Y209106D03*
D56*
X113324Y227584D03*
D185*
X113324Y261938D03*
D134*
X113451Y116142D03*
D158*
X113451Y138049D03*
X113451Y159385D03*
D135*
X113451Y171704D03*
D159*
X113451Y198247D03*
D30*
X113451Y209106D03*
D179*
X113451Y227521D03*
D184*
X113451Y261874D03*
D105*
X113578Y116078D03*
D34*
X113578Y138049D03*
X113578Y159385D03*
D137*
X113578Y171704D03*
D173*
X113578Y198184D03*
D30*
X113578Y209106D03*
D56*
X113578Y227584D03*
D185*
X113578Y261938D03*
D103*
X113705Y116015D03*
D158*
X113705Y138049D03*
X113705Y159385D03*
D135*
X113705Y171704D03*
D173*
X113705Y198184D03*
D31*
X113705Y209169D03*
D179*
X113705Y227521D03*
D184*
X113705Y261874D03*
D103*
X113832Y115888D03*
D34*
X113832Y138049D03*
X113832Y159385D03*
D137*
X113832Y171704D03*
D173*
X113832Y198184D03*
D30*
X113832Y209106D03*
D56*
X113832Y227584D03*
D185*
X113832Y261938D03*
D102*
X113959Y115697D03*
D158*
X113959Y138049D03*
X113959Y159385D03*
D181*
X113959Y171768D03*
D173*
X113959Y198184D03*
D31*
X113959Y209169D03*
D179*
X113959Y227521D03*
D184*
X113959Y261874D03*
D103*
X114086Y115761D03*
D34*
X114086Y138049D03*
D157*
X114086Y159322D03*
D137*
X114086Y171831D03*
D159*
X114086Y198120D03*
D30*
X114086Y209106D03*
D56*
X114086Y227584D03*
D184*
X114086Y261874D03*
D101*
X114213Y115570D03*
D158*
X114213Y138049D03*
X114213Y159385D03*
D137*
X114213Y171831D03*
D125*
X114213Y198120D03*
D31*
X114213Y209169D03*
D179*
X114213Y227521D03*
D184*
X114213Y261874D03*
D101*
X114340Y115443D03*
D157*
X114340Y138113D03*
X114340Y159322D03*
D175*
X114340Y171895D03*
D159*
X114340Y198120D03*
D30*
X114340Y209106D03*
D56*
X114340Y227584D03*
D182*
X114340Y261811D03*
D99*
X114467Y115443D03*
D158*
X114467Y138049D03*
X114467Y159385D03*
D175*
X114467Y171895D03*
D173*
X114467Y198057D03*
D30*
X114467Y209106D03*
D179*
X114467Y227521D03*
D182*
X114467Y261811D03*
D99*
X114594Y115316D03*
D157*
X114594Y138113D03*
X114594Y159322D03*
D175*
X114594Y172022D03*
D159*
X114594Y198120D03*
D30*
X114594Y209106D03*
D56*
X114594Y227584D03*
D182*
X114594Y261811D03*
D97*
X114721Y115126D03*
D158*
X114721Y138049D03*
D157*
X114721Y159322D03*
D175*
X114721Y172022D03*
D173*
X114721Y198057D03*
D31*
X114721Y209169D03*
D179*
X114721Y227521D03*
D180*
X114721Y261747D03*
D186*
X114848Y114999D03*
D158*
X114848Y138176D03*
X114848Y159258D03*
D33*
X114848Y172085D03*
D173*
X114848Y198057D03*
D30*
X114848Y209106D03*
D56*
X114848Y227584D03*
D182*
X114848Y261811D03*
D96*
X114975Y114935D03*
D157*
X114975Y138113D03*
D158*
X114975Y159258D03*
D33*
X114975Y172212D03*
D159*
X114975Y197993D03*
D31*
X114975Y209169D03*
D179*
X114975Y227521D03*
D180*
X114975Y261747D03*
D96*
X115102Y114808D03*
D158*
X115102Y138176D03*
X115102Y159258D03*
D171*
X115102Y172212D03*
D173*
X115102Y197930D03*
D30*
X115102Y209106D03*
D56*
X115102Y227584D03*
D180*
X115102Y261747D03*
D90*
X115229Y114681D03*
D158*
X115229Y138176D03*
D157*
X115229Y159195D03*
D33*
X115229Y172212D03*
D173*
X115229Y197930D03*
D31*
X115229Y209169D03*
D179*
X115229Y227521D03*
D180*
X115229Y261747D03*
D89*
X115356Y114427D03*
D158*
X115356Y138176D03*
X115356Y159258D03*
D138*
X115356Y172276D03*
D173*
X115356Y197930D03*
D30*
X115356Y209106D03*
D56*
X115356Y227584D03*
D178*
X115356Y261684D03*
D187*
X115483Y114237D03*
D13*
X115483Y126365D03*
D158*
X115483Y138303D03*
X115483Y159131D03*
D171*
X115483Y172339D03*
D13*
X115483Y194945D03*
X115483Y195199D03*
X115483Y195453D03*
X115483Y195707D03*
X115483Y195961D03*
X115483Y196215D03*
X115483Y196469D03*
X115483Y196723D03*
X115483Y196977D03*
X115483Y197231D03*
X115483Y197485D03*
X115483Y197739D03*
X115483Y197993D03*
X115483Y198247D03*
X115483Y198501D03*
X115483Y198755D03*
X115483Y199009D03*
X115483Y199263D03*
X115483Y199517D03*
X115483Y199771D03*
X115483Y200025D03*
X115483Y200279D03*
X115483Y200533D03*
X115483Y200787D03*
D30*
X115483Y209106D03*
D177*
X115483Y218694D03*
X115483Y219202D03*
X115483Y219710D03*
X115483Y220218D03*
X115483Y220726D03*
X115483Y221234D03*
X115483Y221742D03*
X115483Y222250D03*
D135*
X115483Y227584D03*
D177*
X115483Y232918D03*
X115483Y233426D03*
X115483Y233934D03*
X115483Y234442D03*
X115483Y234950D03*
X115483Y235458D03*
X115483Y235966D03*
X115483Y236474D03*
D31*
X115483Y245999D03*
D13*
X115483Y251079D03*
X115483Y251333D03*
X115483Y251587D03*
X115483Y251841D03*
X115483Y252095D03*
X115483Y252349D03*
X115483Y252603D03*
X115483Y252857D03*
X115483Y253111D03*
X115483Y253365D03*
X115483Y253619D03*
X115483Y253873D03*
X115483Y254127D03*
X115483Y254381D03*
X115483Y254635D03*
X115483Y254889D03*
X115483Y255143D03*
X115483Y255397D03*
X115483Y255651D03*
X115483Y255905D03*
X115483Y256159D03*
X115483Y256413D03*
X115483Y256667D03*
X115483Y256921D03*
X115483Y257175D03*
X115483Y257429D03*
X115483Y257683D03*
X115483Y257937D03*
X115483Y258191D03*
X115483Y258445D03*
X115483Y258699D03*
X115483Y258953D03*
X115483Y259207D03*
X115483Y259461D03*
X115483Y259715D03*
X115483Y259969D03*
X115483Y260223D03*
X115483Y260477D03*
X115483Y260731D03*
X115483Y260985D03*
X115483Y261239D03*
X115483Y261493D03*
X115483Y261747D03*
X115483Y262001D03*
X115483Y262255D03*
X115483Y262509D03*
X115483Y262763D03*
X115483Y263017D03*
X115483Y263271D03*
X115483Y263525D03*
X115483Y263779D03*
X115483Y264033D03*
X115483Y264287D03*
X115483Y264541D03*
D49*
X115483Y273431D03*
D81*
X115610Y114173D03*
D157*
X115610Y138240D03*
X115610Y159195D03*
D138*
X115610Y172403D03*
D30*
X115610Y209106D03*
X115610Y227775D03*
X115610Y245936D03*
D51*
X115610Y273431D03*
D76*
X115737Y113856D03*
D13*
X115737Y125603D03*
D158*
X115737Y138303D03*
X115737Y159131D03*
D35*
X115737Y172466D03*
D31*
X115737Y209169D03*
X115737Y227711D03*
D30*
X115737Y245936D03*
D49*
X115737Y273431D03*
D74*
X115864Y113792D03*
D34*
X115864Y138303D03*
D157*
X115864Y159068D03*
D35*
X115864Y172593D03*
D30*
X115864Y209106D03*
X115864Y227775D03*
X115864Y245936D03*
D49*
X115864Y273431D03*
D70*
X115991Y113411D03*
D158*
X115991Y138303D03*
X115991Y159131D03*
D162*
X115991Y172657D03*
D31*
X115991Y209169D03*
D30*
X115991Y227775D03*
X115991Y245936D03*
D174*
X115991Y273431D03*
D188*
X116118Y113094D03*
D13*
X116118Y124206D03*
D157*
X116118Y138367D03*
X116118Y159068D03*
D158*
X116118Y172720D03*
D30*
X116118Y209106D03*
X116118Y227775D03*
X116118Y245936D03*
D174*
X116118Y273431D03*
D77*
X116245Y112649D03*
D13*
X116245Y123317D03*
D157*
X116245Y138367D03*
D34*
X116245Y159004D03*
D158*
X116245Y172847D03*
D31*
X116245Y209169D03*
X116245Y227711D03*
D30*
X116245Y245936D03*
D38*
X116245Y273431D03*
D189*
X116372Y112205D03*
D13*
X116372Y122428D03*
D157*
X116372Y138494D03*
X116372Y158941D03*
D34*
X116372Y172847D03*
D30*
X116372Y209106D03*
X116372Y227775D03*
X116372Y245936D03*
D38*
X116372Y273431D03*
D167*
X116499Y106934D03*
D13*
X116499Y111887D03*
X116499Y112141D03*
X116499Y112395D03*
X116499Y112649D03*
X116499Y112903D03*
X116499Y113157D03*
X116499Y113411D03*
X116499Y113665D03*
X116499Y113919D03*
X116499Y114173D03*
X116499Y114427D03*
X116499Y114681D03*
X116499Y114935D03*
X116499Y115189D03*
X116499Y115443D03*
X116499Y115697D03*
X116499Y115951D03*
X116499Y116205D03*
X116499Y116459D03*
X116499Y116713D03*
X116499Y116967D03*
X116499Y117221D03*
X116499Y117475D03*
X116499Y117729D03*
X116499Y117983D03*
X116499Y118237D03*
X116499Y118491D03*
X116499Y118745D03*
X116499Y118999D03*
X116499Y119253D03*
X116499Y119507D03*
X116499Y119761D03*
X116499Y120015D03*
X116499Y120269D03*
D157*
X116499Y138494D03*
X116499Y158941D03*
D34*
X116499Y172974D03*
D30*
X116499Y209106D03*
D31*
X116499Y227711D03*
D30*
X116499Y245936D03*
D190*
X116499Y273368D03*
D191*
X116626Y106744D03*
D34*
X116626Y138557D03*
X116626Y158877D03*
D151*
X116626Y173038D03*
D30*
X116626Y209106D03*
X116626Y227775D03*
X116626Y245936D03*
D46*
X116626Y273431D03*
D165*
X116753Y106744D03*
D157*
X116753Y138621D03*
X116753Y158814D03*
D151*
X116753Y173165D03*
D31*
X116753Y209169D03*
X116753Y227711D03*
D30*
X116753Y245936D03*
D43*
X116753Y273431D03*
D29*
X116880Y106680D03*
D151*
X116880Y138621D03*
D34*
X116880Y158750D03*
D146*
X116880Y173292D03*
D30*
X116880Y209106D03*
X116880Y227775D03*
X116880Y245936D03*
D43*
X116880Y273431D03*
D88*
X117007Y106680D03*
D34*
X117007Y138684D03*
X117007Y158750D03*
D142*
X117007Y173482D03*
D31*
X117007Y209169D03*
D30*
X117007Y227775D03*
D167*
X117007Y245872D03*
D166*
X117007Y273431D03*
D29*
X117134Y106680D03*
D151*
X117134Y138748D03*
X117134Y158687D03*
D140*
X117134Y173482D03*
D30*
X117134Y209106D03*
X117134Y227775D03*
D165*
X117134Y245682D03*
D166*
X117134Y273431D03*
D88*
X117261Y106680D03*
D141*
X117261Y138811D03*
D151*
X117261Y158560D03*
D140*
X117261Y173609D03*
D31*
X117261Y209169D03*
X117261Y227711D03*
D86*
X117261Y245364D03*
D163*
X117261Y273431D03*
D165*
X117388Y106617D03*
D141*
X117388Y138938D03*
X117388Y158496D03*
D192*
X117388Y173800D03*
D30*
X117388Y209106D03*
X117388Y227775D03*
D84*
X117388Y245047D03*
D13*
X117388Y249174D03*
D48*
X117388Y273431D03*
D88*
X117515Y106680D03*
D151*
X117515Y138875D03*
X117515Y158433D03*
D192*
X117515Y173927D03*
D30*
X117515Y209106D03*
D31*
X117515Y227711D03*
D129*
X117515Y244729D03*
D13*
X117515Y248539D03*
D40*
X117515Y273431D03*
D29*
X117642Y106680D03*
D146*
X117642Y139002D03*
D142*
X117642Y158369D03*
D39*
X117642Y174244D03*
D30*
X117642Y209106D03*
X117642Y227775D03*
D160*
X117642Y244539D03*
D13*
X117642Y248158D03*
D193*
X117642Y273368D03*
D88*
X117769Y106680D03*
D141*
X117769Y139065D03*
X117769Y158369D03*
D39*
X117769Y174371D03*
D13*
X117769Y181229D03*
D31*
X117769Y209169D03*
X117769Y227711D03*
D159*
X117769Y244221D03*
D13*
X117769Y247523D03*
D156*
X117769Y273431D03*
D29*
X117896Y106680D03*
D146*
X117896Y139129D03*
X117896Y158306D03*
D194*
X117896Y174689D03*
D13*
X117896Y181864D03*
X117896Y182118D03*
D30*
X117896Y209106D03*
X117896Y227775D03*
D155*
X117896Y244031D03*
D13*
X117896Y247142D03*
D156*
X117896Y273431D03*
D29*
X118023Y106807D03*
D142*
X118023Y139192D03*
X118023Y158242D03*
D45*
X118023Y175133D03*
D13*
X118023Y182753D03*
X118023Y183007D03*
X118023Y183261D03*
X118023Y183515D03*
X118023Y183769D03*
X118023Y184023D03*
X118023Y184277D03*
X118023Y184531D03*
X118023Y184785D03*
X118023Y185039D03*
X118023Y185293D03*
X118023Y185547D03*
X118023Y185801D03*
X118023Y186055D03*
X118023Y186309D03*
X118023Y186563D03*
X118023Y186817D03*
X118023Y187071D03*
X118023Y187325D03*
X118023Y187579D03*
X118023Y187833D03*
X118023Y188087D03*
X118023Y188341D03*
X118023Y188595D03*
X118023Y188849D03*
X118023Y189103D03*
X118023Y189357D03*
X118023Y189611D03*
X118023Y189865D03*
X118023Y190119D03*
X118023Y190373D03*
X118023Y190627D03*
X118023Y190881D03*
X118023Y191135D03*
X118023Y191389D03*
X118023Y191643D03*
X118023Y191897D03*
X118023Y192151D03*
X118023Y192405D03*
X118023Y192659D03*
X118023Y192913D03*
X118023Y193167D03*
X118023Y193421D03*
X118023Y193675D03*
X118023Y193929D03*
X118023Y194183D03*
D31*
X118023Y209169D03*
D30*
X118023Y227775D03*
D73*
X118023Y243713D03*
D45*
X118023Y273431D03*
D119*
X118150Y116459D03*
D140*
X118150Y139446D03*
D143*
X118150Y158052D03*
D105*
X118150Y181102D03*
D30*
X118150Y209106D03*
X118150Y227775D03*
D154*
X118150Y243523D03*
D37*
X118150Y273431D03*
D118*
X118277Y116459D03*
D143*
X118277Y139383D03*
D140*
X118277Y157988D03*
D104*
X118277Y181102D03*
D31*
X118277Y209169D03*
X118277Y227711D03*
D153*
X118277Y243078D03*
D13*
X118277Y245237D03*
D42*
X118277Y273431D03*
D195*
X118404Y116396D03*
D36*
X118404Y139573D03*
X118404Y157861D03*
D105*
X118404Y181102D03*
D30*
X118404Y209106D03*
X118404Y227775D03*
D152*
X118404Y242888D03*
D13*
X118404Y244856D03*
D144*
X118404Y273431D03*
D195*
X118531Y116396D03*
D36*
X118531Y139700D03*
X118531Y157734D03*
D104*
X118531Y181102D03*
D30*
X118531Y209106D03*
D31*
X118531Y227711D03*
D65*
X118531Y242570D03*
D13*
X118531Y244221D03*
D147*
X118531Y273431D03*
D195*
X118658Y116396D03*
D192*
X118658Y139764D03*
X118658Y157671D03*
D104*
X118658Y181229D03*
D30*
X118658Y209106D03*
X118658Y227775D03*
D150*
X118658Y242380D03*
D13*
X118658Y243840D03*
D133*
X118658Y273431D03*
D195*
X118785Y116396D03*
D136*
X118785Y139827D03*
D192*
X118785Y157544D03*
D102*
X118785Y181229D03*
D31*
X118785Y209169D03*
X118785Y227711D03*
D60*
X118785Y242062D03*
D13*
X118785Y243205D03*
D39*
X118785Y273431D03*
D116*
X118912Y116459D03*
D149*
X118912Y140081D03*
X118912Y157353D03*
D103*
X118912Y181166D03*
D30*
X118912Y209106D03*
X118912Y227775D03*
D196*
X118912Y241872D03*
D149*
X118912Y273431D03*
D126*
X119039Y116396D03*
D39*
X119039Y140335D03*
D13*
X119039Y150495D03*
D149*
X119039Y157226D03*
D102*
X119039Y181229D03*
D31*
X119039Y209169D03*
D30*
X119039Y227775D03*
D145*
X119039Y241427D03*
D13*
X119039Y241935D03*
D136*
X119039Y273431D03*
D116*
X119166Y116459D03*
D197*
X119166Y140526D03*
D13*
X119166Y147574D03*
D197*
X119166Y156909D03*
D101*
X119166Y181229D03*
D30*
X119166Y209106D03*
X119166Y227775D03*
D198*
X119166Y241364D03*
D36*
X119166Y273431D03*
D115*
X119293Y116459D03*
D144*
X119293Y140716D03*
D13*
X119293Y147955D03*
X119293Y149479D03*
D144*
X119293Y156718D03*
D100*
X119293Y181293D03*
D31*
X119293Y209169D03*
X119293Y227711D03*
D140*
X119293Y273431D03*
D126*
X119420Y116396D03*
D130*
X119420Y148717D03*
D100*
X119420Y181293D03*
D30*
X119420Y209106D03*
X119420Y227775D03*
D142*
X119420Y273431D03*
D115*
X119547Y116459D03*
D128*
X119547Y148717D03*
D99*
X119547Y181229D03*
D30*
X119547Y209106D03*
D31*
X119547Y227711D03*
D141*
X119547Y273431D03*
D114*
X119674Y116396D03*
D130*
X119674Y148717D03*
D99*
X119674Y181356D03*
D30*
X119674Y209106D03*
X119674Y227775D03*
D34*
X119674Y273431D03*
D114*
X119801Y116396D03*
D128*
X119801Y148717D03*
D98*
X119801Y181356D03*
D31*
X119801Y209169D03*
X119801Y227711D03*
D138*
X119801Y273368D03*
D113*
X119928Y116459D03*
D123*
X119928Y148717D03*
D98*
X119928Y181356D03*
D30*
X119928Y209106D03*
X119928Y227775D03*
D33*
X119928Y273431D03*
D120*
X120055Y116396D03*
D122*
X120055Y148717D03*
D96*
X120055Y181483D03*
D31*
X120055Y209169D03*
D30*
X120055Y227775D03*
D137*
X120055Y273431D03*
D113*
X120182Y116459D03*
D123*
X120182Y148717D03*
D96*
X120182Y181356D03*
D30*
X120182Y209106D03*
X120182Y227775D03*
D135*
X120182Y273431D03*
D112*
X120309Y116459D03*
D122*
X120309Y148717D03*
D95*
X120309Y181420D03*
D31*
X120309Y209169D03*
X120309Y227711D03*
D29*
X120309Y273431D03*
D112*
X120436Y116459D03*
D119*
X120436Y148717D03*
D93*
X120436Y181483D03*
D30*
X120436Y209106D03*
X120436Y227775D03*
D88*
X120436Y273431D03*
D112*
X120563Y116459D03*
D118*
X120563Y148717D03*
D90*
X120563Y181483D03*
D30*
X120563Y209106D03*
D31*
X120563Y227711D03*
D13*
X120563Y269113D03*
D86*
X120563Y273558D03*
D111*
X120690Y116459D03*
D118*
X120690Y148717D03*
D91*
X120690Y181547D03*
D30*
X120690Y209106D03*
X120690Y227775D03*
D27*
X120690Y273431D03*
D108*
X120817Y116523D03*
D195*
X120817Y148654D03*
D199*
X120817Y181547D03*
D31*
X120817Y209169D03*
X120817Y227711D03*
D13*
X120817Y269621D03*
D129*
X120817Y273431D03*
D111*
X120944Y116459D03*
D116*
X120944Y148717D03*
D199*
X120944Y181547D03*
D30*
X120944Y209106D03*
X120944Y227775D03*
D25*
X120944Y273431D03*
D109*
X121071Y116459D03*
D115*
X121071Y148717D03*
D87*
X121071Y181674D03*
D31*
X121071Y209169D03*
D30*
X121071Y227775D03*
D13*
X121071Y270383D03*
D125*
X121071Y273558D03*
D109*
X121198Y116586D03*
D113*
X121198Y148717D03*
D85*
X121198Y181610D03*
D30*
X121198Y209106D03*
X121198Y227775D03*
D124*
X121198Y273431D03*
D106*
X121325Y116586D03*
D112*
X121325Y148717D03*
D187*
X121325Y181674D03*
D31*
X121325Y209169D03*
X121325Y227711D03*
D69*
X121325Y273431D03*
D109*
X121452Y116586D03*
D112*
X121452Y148717D03*
D81*
X121452Y181737D03*
D30*
X121452Y209106D03*
X121452Y227775D03*
D13*
X121452Y271780D03*
D65*
X121452Y273431D03*
D13*
X121452Y275082D03*
D106*
X121579Y116586D03*
D117*
X121579Y148654D03*
D92*
X121579Y181737D03*
D30*
X121579Y209106D03*
D31*
X121579Y227711D03*
D13*
X121579Y272923D03*
X121579Y273177D03*
X121579Y273431D03*
X121579Y273685D03*
X121579Y273939D03*
D107*
X121706Y116650D03*
D111*
X121706Y148717D03*
D92*
X121706Y181864D03*
D30*
X121706Y209106D03*
X121706Y227775D03*
D105*
X121833Y116713D03*
D109*
X121833Y148717D03*
D79*
X121833Y181864D03*
D31*
X121833Y209169D03*
X121833Y227711D03*
D134*
X121960Y116650D03*
D106*
X121960Y148717D03*
D79*
X121960Y181864D03*
D30*
X121960Y209106D03*
X121960Y227775D03*
D104*
X122087Y116713D03*
D105*
X122087Y148717D03*
D74*
X122087Y181991D03*
D31*
X122087Y209169D03*
D30*
X122087Y227775D03*
D104*
X122214Y116713D03*
D134*
X122214Y148654D03*
D200*
X122214Y181928D03*
D30*
X122214Y209106D03*
X122214Y227775D03*
D102*
X122341Y116713D03*
D103*
X122341Y148654D03*
D71*
X122341Y181991D03*
D31*
X122341Y209169D03*
X122341Y227711D03*
D102*
X122468Y116840D03*
D103*
X122468Y148654D03*
D169*
X122468Y182055D03*
D30*
X122468Y209106D03*
X122468Y227775D03*
D101*
X122595Y116840D03*
X122595Y148717D03*
D201*
X122595Y182182D03*
D30*
X122595Y209106D03*
D31*
X122595Y227711D03*
D101*
X122722Y116840D03*
X122722Y148717D03*
D201*
X122722Y182182D03*
D30*
X122722Y209106D03*
X122722Y227775D03*
D100*
X122849Y116904D03*
D99*
X122849Y148717D03*
D83*
X122849Y182245D03*
D31*
X122849Y209169D03*
X122849Y227711D03*
D97*
X122976Y116904D03*
D98*
X122976Y148717D03*
D202*
X122976Y182309D03*
D30*
X122976Y209106D03*
X122976Y227775D03*
D97*
X123103Y116904D03*
D96*
X123103Y148717D03*
D62*
X123103Y182372D03*
D31*
X123103Y209169D03*
D30*
X123103Y227775D03*
D98*
X123230Y116967D03*
D93*
X123230Y148717D03*
D164*
X123230Y182436D03*
D30*
X123230Y209106D03*
X123230Y227775D03*
D96*
X123357Y116967D03*
D90*
X123357Y148717D03*
D80*
X123357Y182499D03*
D31*
X123357Y209169D03*
X123357Y227711D03*
D96*
X123484Y117094D03*
D89*
X123484Y148717D03*
D57*
X123484Y182499D03*
D30*
X123484Y209106D03*
X123484Y227775D03*
D93*
X123611Y117094D03*
D85*
X123611Y148717D03*
D203*
X123611Y182563D03*
D30*
X123611Y209106D03*
D31*
X123611Y227711D03*
D91*
X123738Y117158D03*
D81*
X123738Y148717D03*
D77*
X123738Y182626D03*
D30*
X123738Y209106D03*
X123738Y227775D03*
D90*
X123865Y117221D03*
D92*
X123865Y148717D03*
D204*
X123865Y182626D03*
D31*
X123865Y209169D03*
X123865Y227711D03*
D89*
X123992Y117221D03*
D79*
X123992Y148717D03*
D204*
X123992Y182753D03*
D30*
X123992Y209106D03*
X123992Y227775D03*
D87*
X124119Y117285D03*
D74*
X124119Y148717D03*
D53*
X124119Y182817D03*
D31*
X124119Y209169D03*
D30*
X124119Y227775D03*
D85*
X124246Y117348D03*
D71*
X124246Y148717D03*
D72*
X124246Y182880D03*
D30*
X124246Y209106D03*
X124246Y227775D03*
D94*
X124373Y117412D03*
D201*
X124373Y148654D03*
D68*
X124373Y183007D03*
D31*
X124373Y209169D03*
X124373Y227711D03*
D81*
X124500Y117475D03*
D67*
X124500Y148717D03*
D50*
X124500Y183007D03*
D30*
X124500Y209106D03*
X124500Y227775D03*
D79*
X124627Y117602D03*
D164*
X124627Y148654D03*
D205*
X124627Y183071D03*
D30*
X124627Y209106D03*
D31*
X124627Y227711D03*
D79*
X124754Y117729D03*
D164*
X124754Y148781D03*
D206*
X124754Y183198D03*
D30*
X124754Y209106D03*
X124754Y227775D03*
D74*
X124881Y117729D03*
D77*
X124881Y148717D03*
D59*
X124881Y183261D03*
D31*
X124881Y209169D03*
X124881Y227711D03*
D200*
X125008Y117793D03*
D204*
X125008Y148717D03*
D59*
X125008Y183388D03*
D30*
X125008Y209106D03*
X125008Y227775D03*
D70*
X125135Y117983D03*
D55*
X125135Y148717D03*
D56*
X125135Y183515D03*
D31*
X125135Y209169D03*
D30*
X125135Y227775D03*
D67*
X125262Y117983D03*
D72*
X125262Y148717D03*
D179*
X125262Y183579D03*
D30*
X125262Y209106D03*
D167*
X125262Y227711D03*
D83*
X125389Y118110D03*
D64*
X125389Y148717D03*
D207*
X125389Y183706D03*
D31*
X125389Y209169D03*
D29*
X125389Y227457D03*
D62*
X125516Y118237D03*
D47*
X125516Y148717D03*
D51*
X125516Y183769D03*
D30*
X125516Y209106D03*
D208*
X125516Y227330D03*
D13*
X125643Y107569D03*
D57*
X125643Y118364D03*
D63*
X125643Y148590D03*
D13*
X125643Y175133D03*
D176*
X125643Y183960D03*
D30*
X125643Y209106D03*
D27*
X125643Y226822D03*
D13*
X125643Y231013D03*
D57*
X125770Y118491D03*
D179*
X125770Y148654D03*
D174*
X125770Y184023D03*
D30*
X125770Y209106D03*
D82*
X125770Y226695D03*
D204*
X125897Y118618D03*
D58*
X125897Y148717D03*
D46*
X125897Y184150D03*
D31*
X125897Y209169D03*
D25*
X125897Y226314D03*
D75*
X126024Y118682D03*
D13*
X126024Y139954D03*
D174*
X126024Y148717D03*
D46*
X126024Y184277D03*
D30*
X126024Y209106D03*
D78*
X126024Y226187D03*
D13*
X126151Y108839D03*
D68*
X126151Y118999D03*
D38*
X126151Y148717D03*
D13*
X126151Y176403D03*
D163*
X126151Y184531D03*
D31*
X126151Y209169D03*
D155*
X126151Y225870D03*
D50*
X126278Y118999D03*
D13*
X126278Y140462D03*
D166*
X126278Y148717D03*
D209*
X126278Y184595D03*
D30*
X126278Y209106D03*
D124*
X126278Y225679D03*
D66*
X126405Y119317D03*
D13*
X126405Y140843D03*
D40*
X126405Y148717D03*
D13*
X126405Y177165D03*
D156*
X126405Y184912D03*
D31*
X126405Y209169D03*
D21*
X126405Y225171D03*
D13*
X126405Y227711D03*
D63*
X126532Y119507D03*
D156*
X126532Y148717D03*
D13*
X126532Y177546D03*
D210*
X126532Y185103D03*
D30*
X126532Y209106D03*
D69*
X126532Y225044D03*
D13*
X126659Y110617D03*
D58*
X126659Y119761D03*
D13*
X126659Y141605D03*
D144*
X126659Y148844D03*
D13*
X126659Y178181D03*
D144*
X126659Y185420D03*
D30*
X126659Y209106D03*
D19*
X126659Y224663D03*
D13*
X126786Y111252D03*
D49*
X126786Y120142D03*
D133*
X126786Y148717D03*
D13*
X126786Y178816D03*
D39*
X126786Y185674D03*
D30*
X126786Y209106D03*
D211*
X126786Y224536D03*
D13*
X126913Y112395D03*
X126913Y112649D03*
D163*
X126913Y120777D03*
D140*
X126913Y148717D03*
D13*
X126913Y179959D03*
X126913Y180213D03*
X126913Y180467D03*
D151*
X126913Y186500D03*
D31*
X126913Y209169D03*
D61*
X126913Y224155D03*
D13*
X127040Y113538D03*
X127040Y113792D03*
X127040Y114046D03*
X127040Y114300D03*
X127040Y114554D03*
X127040Y114808D03*
X127040Y115062D03*
X127040Y115316D03*
X127040Y115570D03*
X127040Y115824D03*
X127040Y116078D03*
X127040Y116332D03*
X127040Y116586D03*
X127040Y116840D03*
X127040Y117094D03*
X127040Y117348D03*
X127040Y117602D03*
X127040Y117856D03*
X127040Y118110D03*
X127040Y118364D03*
X127040Y118618D03*
X127040Y118872D03*
X127040Y119126D03*
X127040Y119380D03*
X127040Y119634D03*
X127040Y119888D03*
X127040Y120142D03*
X127040Y120396D03*
X127040Y120650D03*
X127040Y120904D03*
X127040Y121158D03*
X127040Y121412D03*
X127040Y121666D03*
X127040Y121920D03*
X127040Y122174D03*
X127040Y122428D03*
X127040Y122682D03*
X127040Y122936D03*
X127040Y123190D03*
X127040Y123444D03*
X127040Y123698D03*
X127040Y123952D03*
X127040Y124206D03*
X127040Y124460D03*
X127040Y124714D03*
X127040Y124968D03*
X127040Y125222D03*
X127040Y125476D03*
X127040Y125730D03*
X127040Y125984D03*
X127040Y126238D03*
X127040Y126492D03*
X127040Y126746D03*
X127040Y127000D03*
X127040Y127254D03*
X127040Y127508D03*
X127040Y127762D03*
X127040Y128016D03*
X127040Y128270D03*
X127040Y128524D03*
D34*
X127040Y148717D03*
D30*
X127040Y209106D03*
D60*
X127040Y223901D03*
D13*
X127040Y225044D03*
X127167Y143637D03*
D31*
X127167Y148717D03*
D13*
X127167Y153797D03*
D31*
X127167Y209169D03*
D148*
X127167Y223584D03*
D13*
X127294Y144272D03*
X127294Y144526D03*
D27*
X127294Y148717D03*
D13*
X127294Y152908D03*
X127294Y153162D03*
D30*
X127294Y209106D03*
D54*
X127294Y223393D03*
D31*
X127421Y209169D03*
D177*
X127421Y223012D03*
D30*
X127548Y209106D03*
X127675Y209106D03*
X127802Y209106D03*
D31*
X127929Y209169D03*
D30*
X128056Y209106D03*
D31*
X128183Y209169D03*
D30*
X128310Y209106D03*
D31*
X128437Y209169D03*
D30*
X128564Y209106D03*
X128691Y209106D03*
X128818Y209106D03*
D31*
X128945Y209169D03*
D30*
X129072Y209106D03*
D31*
X129199Y209169D03*
D30*
X129326Y209106D03*
D31*
X129453Y209169D03*
D30*
X129580Y209106D03*
X129707Y209106D03*
X129834Y209106D03*
D31*
X129961Y209169D03*
D30*
X130088Y209106D03*
D31*
X130215Y209169D03*
D30*
X130342Y209106D03*
D31*
X130469Y209169D03*
D30*
X130596Y209106D03*
X130723Y209106D03*
X130850Y209106D03*
D31*
X130977Y209169D03*
D30*
X131104Y209106D03*
D31*
X131231Y209169D03*
D30*
X131358Y209106D03*
D31*
X131485Y209169D03*
D30*
X131612Y209106D03*
X131739Y209106D03*
X131866Y209106D03*
D31*
X131993Y209169D03*
D30*
X132120Y209106D03*
D31*
X132247Y209169D03*
D30*
X132374Y209106D03*
D31*
X132501Y209169D03*
D30*
X132628Y209106D03*
D88*
X132755Y208788D03*
D13*
X132755Y213487D03*
D28*
X132882Y208598D03*
D13*
X132882Y213106D03*
D27*
X133009Y208280D03*
D13*
X133009Y212471D03*
D26*
X133136Y208090D03*
D212*
X133263Y207645D03*
D13*
X133263Y211201D03*
D24*
X133390Y207582D03*
D125*
X133517Y207264D03*
D213*
X133644Y207074D03*
D21*
X133771Y206629D03*
D13*
X133771Y209169D03*
D20*
X133898Y206439D03*
D19*
X134025Y206121D03*
D13*
X134025Y208153D03*
D18*
X134152Y205931D03*
D61*
X134279Y205613D03*
D214*
X134406Y205423D03*
D215*
X134533Y205105D03*
D14*
X134660Y204788D03*
D177*
X134787Y204470D03*
D216*
X210750Y4750D02*
X210750Y775250D01*
X4250Y775250D02*
X4250Y4750D01*
X210750Y4750D01*
X210750Y775250D02*
X4250Y775250D01*
X9100Y114000D02*
X9106Y114452D01*
X9122Y114903D01*
X9150Y115354D01*
X9189Y115804D01*
X9238Y116252D01*
X9299Y116700D01*
X9371Y117146D01*
X9454Y117590D01*
X9547Y118031D01*
X9651Y118471D01*
X9767Y118908D01*
X9892Y119341D01*
X10029Y119772D01*
X10176Y120199D01*
X10333Y120622D01*
X10501Y121041D01*
X10679Y121456D01*
X10867Y121867D01*
X11065Y122273D01*
X11273Y122674D01*
X11490Y123069D01*
X11718Y123459D01*
X11955Y123844D01*
X12201Y124222D01*
X12456Y124595D01*
X12721Y124961D01*
X12994Y125320D01*
X13277Y125673D01*
X13567Y126018D01*
X13866Y126357D01*
X14174Y126688D01*
X14489Y127011D01*
X14812Y127326D01*
X15143Y127634D01*
X15482Y127933D01*
X15827Y128223D01*
X16180Y128506D01*
X16539Y128779D01*
X16905Y129044D01*
X17278Y129299D01*
X17656Y129545D01*
X18041Y129782D01*
X18431Y130010D01*
X18826Y130227D01*
X19227Y130435D01*
X19633Y130633D01*
X20044Y130821D01*
X20459Y130999D01*
X20878Y131167D01*
X21301Y131324D01*
X21728Y131471D01*
X22159Y131608D01*
X22592Y131733D01*
X23029Y131849D01*
X23469Y131953D01*
X23910Y132046D01*
X24354Y132129D01*
X24800Y132201D01*
X25248Y132262D01*
X25696Y132311D01*
X26146Y132350D01*
X26597Y132378D01*
X27048Y132394D01*
X27500Y132400D01*
X27952Y132394D01*
X28403Y132378D01*
X28854Y132350D01*
X29304Y132311D01*
X29752Y132262D01*
X30200Y132201D01*
X30646Y132129D01*
X31090Y132046D01*
X31531Y131953D01*
X31971Y131849D01*
X32408Y131733D01*
X32841Y131608D01*
X33272Y131471D01*
X33699Y131324D01*
X34122Y131167D01*
X34541Y130999D01*
X34956Y130821D01*
X35367Y130633D01*
X35773Y130435D01*
X36174Y130227D01*
X36569Y130010D01*
X36959Y129782D01*
X37344Y129545D01*
X37722Y129299D01*
X38095Y129044D01*
X38461Y128779D01*
X38820Y128506D01*
X39173Y128223D01*
X39518Y127933D01*
X39857Y127634D01*
X40188Y127326D01*
X40511Y127011D01*
X40826Y126688D01*
X41134Y126357D01*
X41433Y126018D01*
X41723Y125673D01*
X42006Y125320D01*
X42279Y124961D01*
X42544Y124595D01*
X42799Y124222D01*
X43045Y123844D01*
X43282Y123459D01*
X43510Y123069D01*
X43727Y122674D01*
X43935Y122273D01*
X44133Y121867D01*
X44321Y121456D01*
X44499Y121041D01*
X44667Y120622D01*
X44824Y120199D01*
X44971Y119772D01*
X45108Y119341D01*
X45233Y118908D01*
X45349Y118471D01*
X45453Y118031D01*
X45546Y117590D01*
X45629Y117146D01*
X45701Y116700D01*
X45762Y116252D01*
X45811Y115804D01*
X45850Y115354D01*
X45878Y114903D01*
X45894Y114452D01*
X45900Y114000D01*
X45894Y113548D01*
X45878Y113097D01*
X45850Y112646D01*
X45811Y112196D01*
X45762Y111748D01*
X45701Y111300D01*
X45629Y110854D01*
X45546Y110410D01*
X45453Y109969D01*
X45349Y109529D01*
X45233Y109092D01*
X45108Y108659D01*
X44971Y108228D01*
X44824Y107801D01*
X44667Y107378D01*
X44499Y106959D01*
X44321Y106544D01*
X44133Y106133D01*
X43935Y105727D01*
X43727Y105326D01*
X43510Y104931D01*
X43282Y104541D01*
X43045Y104156D01*
X42799Y103778D01*
X42544Y103405D01*
X42279Y103039D01*
X42006Y102680D01*
X41723Y102327D01*
X41433Y101982D01*
X41134Y101643D01*
X40826Y101312D01*
X40511Y100989D01*
X40188Y100674D01*
X39857Y100366D01*
X39518Y100067D01*
X39173Y99777D01*
X38820Y99494D01*
X38461Y99221D01*
X38095Y98956D01*
X37722Y98701D01*
X37344Y98455D01*
X36959Y98218D01*
X36569Y97990D01*
X36174Y97773D01*
X35773Y97565D01*
X35367Y97367D01*
X34956Y97179D01*
X34541Y97001D01*
X34122Y96833D01*
X33699Y96676D01*
X33272Y96529D01*
X32841Y96392D01*
X32408Y96267D01*
X31971Y96151D01*
X31531Y96047D01*
X31090Y95954D01*
X30646Y95871D01*
X30200Y95799D01*
X29752Y95738D01*
X29304Y95689D01*
X28854Y95650D01*
X28403Y95622D01*
X27952Y95606D01*
X27500Y95600D01*
X27048Y95606D01*
X26597Y95622D01*
X26146Y95650D01*
X25696Y95689D01*
X25248Y95738D01*
X24800Y95799D01*
X24354Y95871D01*
X23910Y95954D01*
X23469Y96047D01*
X23029Y96151D01*
X22592Y96267D01*
X22159Y96392D01*
X21728Y96529D01*
X21301Y96676D01*
X20878Y96833D01*
X20459Y97001D01*
X20044Y97179D01*
X19633Y97367D01*
X19227Y97565D01*
X18826Y97773D01*
X18431Y97990D01*
X18041Y98218D01*
X17656Y98455D01*
X17278Y98701D01*
X16905Y98956D01*
X16539Y99221D01*
X16180Y99494D01*
X15827Y99777D01*
X15482Y100067D01*
X15143Y100366D01*
X14812Y100674D01*
X14489Y100989D01*
X14174Y101312D01*
X13866Y101643D01*
X13567Y101982D01*
X13277Y102327D01*
X12994Y102680D01*
X12721Y103039D01*
X12456Y103405D01*
X12201Y103778D01*
X11955Y104156D01*
X11718Y104541D01*
X11490Y104931D01*
X11273Y105326D01*
X11065Y105727D01*
X10867Y106133D01*
X10679Y106544D01*
X10501Y106959D01*
X10333Y107378D01*
X10176Y107801D01*
X10029Y108228D01*
X9892Y108659D01*
X9767Y109092D01*
X9651Y109529D01*
X9547Y109969D01*
X9454Y110410D01*
X9371Y110854D01*
X9299Y111300D01*
X9238Y111748D01*
X9189Y112196D01*
X9150Y112646D01*
X9122Y113097D01*
X9106Y113548D01*
X9100Y114000D01*
X169100Y666000D02*
X169106Y666452D01*
X169122Y666903D01*
X169150Y667354D01*
X169189Y667804D01*
X169238Y668252D01*
X169299Y668700D01*
X169371Y669146D01*
X169454Y669590D01*
X169547Y670031D01*
X169651Y670471D01*
X169767Y670908D01*
X169892Y671341D01*
X170029Y671772D01*
X170176Y672199D01*
X170333Y672622D01*
X170501Y673041D01*
X170679Y673456D01*
X170867Y673867D01*
X171065Y674273D01*
X171273Y674674D01*
X171490Y675069D01*
X171718Y675459D01*
X171955Y675844D01*
X172201Y676222D01*
X172456Y676595D01*
X172721Y676961D01*
X172994Y677320D01*
X173277Y677673D01*
X173567Y678018D01*
X173866Y678357D01*
X174174Y678688D01*
X174489Y679011D01*
X174812Y679326D01*
X175143Y679634D01*
X175482Y679933D01*
X175827Y680223D01*
X176180Y680506D01*
X176539Y680779D01*
X176905Y681044D01*
X177278Y681299D01*
X177656Y681545D01*
X178041Y681782D01*
X178431Y682010D01*
X178826Y682227D01*
X179227Y682435D01*
X179633Y682633D01*
X180044Y682821D01*
X180459Y682999D01*
X180878Y683167D01*
X181301Y683324D01*
X181728Y683471D01*
X182159Y683608D01*
X182592Y683733D01*
X183029Y683849D01*
X183469Y683953D01*
X183910Y684046D01*
X184354Y684129D01*
X184800Y684201D01*
X185248Y684262D01*
X185696Y684311D01*
X186146Y684350D01*
X186597Y684378D01*
X187048Y684394D01*
X187500Y684400D01*
X187952Y684394D01*
X188403Y684378D01*
X188854Y684350D01*
X189304Y684311D01*
X189752Y684262D01*
X190200Y684201D01*
X190646Y684129D01*
X191090Y684046D01*
X191531Y683953D01*
X191971Y683849D01*
X192408Y683733D01*
X192841Y683608D01*
X193272Y683471D01*
X193699Y683324D01*
X194122Y683167D01*
X194541Y682999D01*
X194956Y682821D01*
X195367Y682633D01*
X195773Y682435D01*
X196174Y682227D01*
X196569Y682010D01*
X196959Y681782D01*
X197344Y681545D01*
X197722Y681299D01*
X198095Y681044D01*
X198461Y680779D01*
X198820Y680506D01*
X199173Y680223D01*
X199518Y679933D01*
X199857Y679634D01*
X200188Y679326D01*
X200511Y679011D01*
X200826Y678688D01*
X201134Y678357D01*
X201433Y678018D01*
X201723Y677673D01*
X202006Y677320D01*
X202279Y676961D01*
X202544Y676595D01*
X202799Y676222D01*
X203045Y675844D01*
X203282Y675459D01*
X203510Y675069D01*
X203727Y674674D01*
X203935Y674273D01*
X204133Y673867D01*
X204321Y673456D01*
X204499Y673041D01*
X204667Y672622D01*
X204824Y672199D01*
X204971Y671772D01*
X205108Y671341D01*
X205233Y670908D01*
X205349Y670471D01*
X205453Y670031D01*
X205546Y669590D01*
X205629Y669146D01*
X205701Y668700D01*
X205762Y668252D01*
X205811Y667804D01*
X205850Y667354D01*
X205878Y666903D01*
X205894Y666452D01*
X205900Y666000D01*
X205894Y665548D01*
X205878Y665097D01*
X205850Y664646D01*
X205811Y664196D01*
X205762Y663748D01*
X205701Y663300D01*
X205629Y662854D01*
X205546Y662410D01*
X205453Y661969D01*
X205349Y661529D01*
X205233Y661092D01*
X205108Y660659D01*
X204971Y660228D01*
X204824Y659801D01*
X204667Y659378D01*
X204499Y658959D01*
X204321Y658544D01*
X204133Y658133D01*
X203935Y657727D01*
X203727Y657326D01*
X203510Y656931D01*
X203282Y656541D01*
X203045Y656156D01*
X202799Y655778D01*
X202544Y655405D01*
X202279Y655039D01*
X202006Y654680D01*
X201723Y654327D01*
X201433Y653982D01*
X201134Y653643D01*
X200826Y653312D01*
X200511Y652989D01*
X200188Y652674D01*
X199857Y652366D01*
X199518Y652067D01*
X199173Y651777D01*
X198820Y651494D01*
X198461Y651221D01*
X198095Y650956D01*
X197722Y650701D01*
X197344Y650455D01*
X196959Y650218D01*
X196569Y649990D01*
X196174Y649773D01*
X195773Y649565D01*
X195367Y649367D01*
X194956Y649179D01*
X194541Y649001D01*
X194122Y648833D01*
X193699Y648676D01*
X193272Y648529D01*
X192841Y648392D01*
X192408Y648267D01*
X191971Y648151D01*
X191531Y648047D01*
X191090Y647954D01*
X190646Y647871D01*
X190200Y647799D01*
X189752Y647738D01*
X189304Y647689D01*
X188854Y647650D01*
X188403Y647622D01*
X187952Y647606D01*
X187500Y647600D01*
X187048Y647606D01*
X186597Y647622D01*
X186146Y647650D01*
X185696Y647689D01*
X185248Y647738D01*
X184800Y647799D01*
X184354Y647871D01*
X183910Y647954D01*
X183469Y648047D01*
X183029Y648151D01*
X182592Y648267D01*
X182159Y648392D01*
X181728Y648529D01*
X181301Y648676D01*
X180878Y648833D01*
X180459Y649001D01*
X180044Y649179D01*
X179633Y649367D01*
X179227Y649565D01*
X178826Y649773D01*
X178431Y649990D01*
X178041Y650218D01*
X177656Y650455D01*
X177278Y650701D01*
X176905Y650956D01*
X176539Y651221D01*
X176180Y651494D01*
X175827Y651777D01*
X175482Y652067D01*
X175143Y652366D01*
X174812Y652674D01*
X174489Y652989D01*
X174174Y653312D01*
X173866Y653643D01*
X173567Y653982D01*
X173277Y654327D01*
X172994Y654680D01*
X172721Y655039D01*
X172456Y655405D01*
X172201Y655778D01*
X171955Y656156D01*
X171718Y656541D01*
X171490Y656931D01*
X171273Y657326D01*
X171065Y657727D01*
X170867Y658133D01*
X170679Y658544D01*
X170501Y658959D01*
X170333Y659378D01*
X170176Y659801D01*
X170029Y660228D01*
X169892Y660659D01*
X169767Y661092D01*
X169651Y661529D01*
X169547Y661969D01*
X169454Y662410D01*
X169371Y662854D01*
X169299Y663300D01*
X169238Y663748D01*
X169189Y664196D01*
X169150Y664646D01*
X169122Y665097D01*
X169106Y665548D01*
X169100Y666000D01*
M02*
