G04 EAGLE Gerber RS-274X export*
G75*
%MOMM*%
%FSLAX34Y34*%
%LPD*%
%INSoldermask Top*%
%IPPOS*%
%AMOC8*
5,1,8,0,0,1.08239X$1,22.5*%
G01*
%ADD10C,0.370056*%
%ADD11C,0.731250*%
%ADD12C,0.418428*%
%ADD13C,0.430247*%
%ADD14C,0.610147*%
%ADD15C,0.473200*%
%ADD16C,1.711200*%
%ADD17C,1.097334*%
%ADD18C,0.432097*%
%ADD19C,0.693853*%
%ADD20C,0.553200*%
%ADD21C,0.533200*%
%ADD22C,1.361200*%
%ADD23C,0.884075*%
%ADD24C,0.610069*%
%ADD25C,0.678831*%
%ADD26C,0.523200*%
%ADD27C,2.183200*%
%ADD28C,3.803200*%
%ADD29C,2.593200*%
%ADD30C,0.483200*%
%ADD31C,0.617847*%
%ADD32C,0.959600*%

G36*
X118565Y363377D02*
X118565Y363377D01*
X118631Y363379D01*
X118674Y363397D01*
X118721Y363405D01*
X118778Y363439D01*
X118838Y363464D01*
X118873Y363495D01*
X118914Y363520D01*
X118956Y363571D01*
X119004Y363615D01*
X119026Y363657D01*
X119055Y363694D01*
X119076Y363756D01*
X119107Y363815D01*
X119115Y363869D01*
X119127Y363906D01*
X119126Y363946D01*
X119134Y364000D01*
X119134Y411000D01*
X119123Y411065D01*
X119121Y411131D01*
X119103Y411174D01*
X119095Y411221D01*
X119061Y411278D01*
X119036Y411338D01*
X119005Y411373D01*
X118980Y411414D01*
X118929Y411456D01*
X118885Y411504D01*
X118843Y411526D01*
X118806Y411555D01*
X118744Y411576D01*
X118685Y411607D01*
X118631Y411615D01*
X118594Y411627D01*
X118554Y411626D01*
X118500Y411634D01*
X76500Y411634D01*
X76435Y411623D01*
X76369Y411621D01*
X76326Y411603D01*
X76279Y411595D01*
X76222Y411561D01*
X76162Y411536D01*
X76127Y411505D01*
X76086Y411480D01*
X76045Y411429D01*
X75996Y411385D01*
X75974Y411343D01*
X75945Y411306D01*
X75924Y411244D01*
X75893Y411185D01*
X75885Y411131D01*
X75873Y411094D01*
X75874Y411054D01*
X75866Y411000D01*
X75866Y364000D01*
X75877Y363935D01*
X75879Y363869D01*
X75897Y363826D01*
X75905Y363779D01*
X75939Y363722D01*
X75964Y363662D01*
X75995Y363627D01*
X76020Y363586D01*
X76071Y363545D01*
X76115Y363496D01*
X76157Y363474D01*
X76194Y363445D01*
X76256Y363424D01*
X76315Y363393D01*
X76369Y363385D01*
X76406Y363373D01*
X76446Y363374D01*
X76500Y363366D01*
X118500Y363366D01*
X118565Y363377D01*
G37*
G36*
X188565Y163377D02*
X188565Y163377D01*
X188631Y163379D01*
X188674Y163397D01*
X188721Y163405D01*
X188778Y163439D01*
X188838Y163464D01*
X188873Y163495D01*
X188914Y163520D01*
X188956Y163571D01*
X189004Y163615D01*
X189026Y163657D01*
X189055Y163694D01*
X189076Y163756D01*
X189107Y163815D01*
X189115Y163869D01*
X189127Y163906D01*
X189126Y163946D01*
X189134Y164000D01*
X189134Y196000D01*
X189123Y196065D01*
X189121Y196131D01*
X189103Y196174D01*
X189095Y196221D01*
X189061Y196278D01*
X189036Y196338D01*
X189005Y196373D01*
X188980Y196414D01*
X188929Y196456D01*
X188885Y196504D01*
X188843Y196526D01*
X188806Y196555D01*
X188744Y196576D01*
X188685Y196607D01*
X188631Y196615D01*
X188594Y196627D01*
X188554Y196626D01*
X188500Y196634D01*
X156500Y196634D01*
X156435Y196623D01*
X156369Y196621D01*
X156326Y196603D01*
X156279Y196595D01*
X156222Y196561D01*
X156162Y196536D01*
X156127Y196505D01*
X156086Y196480D01*
X156045Y196429D01*
X155996Y196385D01*
X155974Y196343D01*
X155945Y196306D01*
X155924Y196244D01*
X155893Y196185D01*
X155885Y196131D01*
X155873Y196094D01*
X155874Y196054D01*
X155866Y196000D01*
X155866Y164000D01*
X155877Y163935D01*
X155879Y163869D01*
X155897Y163826D01*
X155905Y163779D01*
X155939Y163722D01*
X155964Y163662D01*
X155995Y163627D01*
X156020Y163586D01*
X156071Y163545D01*
X156115Y163496D01*
X156157Y163474D01*
X156194Y163445D01*
X156256Y163424D01*
X156315Y163393D01*
X156369Y163385D01*
X156406Y163373D01*
X156446Y163374D01*
X156500Y163366D01*
X188500Y163366D01*
X188565Y163377D01*
G37*
G36*
X187564Y47010D02*
X187564Y47010D01*
X187628Y47009D01*
X187703Y47030D01*
X187779Y47041D01*
X187838Y47067D01*
X187900Y47084D01*
X187966Y47125D01*
X188036Y47157D01*
X188085Y47199D01*
X188140Y47232D01*
X188192Y47290D01*
X188250Y47340D01*
X188286Y47394D01*
X188329Y47442D01*
X188362Y47511D01*
X188405Y47576D01*
X188424Y47638D01*
X188452Y47695D01*
X188463Y47765D01*
X188487Y47846D01*
X188488Y47931D01*
X188499Y48000D01*
X188499Y72000D01*
X188490Y72062D01*
X188491Y72110D01*
X188491Y72111D01*
X188491Y72128D01*
X188470Y72203D01*
X188459Y72279D01*
X188433Y72338D01*
X188416Y72400D01*
X188375Y72466D01*
X188343Y72536D01*
X188301Y72585D01*
X188268Y72640D01*
X188210Y72692D01*
X188160Y72750D01*
X188106Y72786D01*
X188058Y72829D01*
X187989Y72862D01*
X187924Y72905D01*
X187862Y72924D01*
X187805Y72952D01*
X187735Y72963D01*
X187654Y72987D01*
X187569Y72988D01*
X187500Y72999D01*
X166500Y72999D01*
X166436Y72990D01*
X166372Y72991D01*
X166297Y72970D01*
X166221Y72959D01*
X166162Y72933D01*
X166100Y72916D01*
X166034Y72875D01*
X165964Y72843D01*
X165915Y72801D01*
X165860Y72768D01*
X165808Y72710D01*
X165750Y72660D01*
X165714Y72606D01*
X165671Y72558D01*
X165638Y72489D01*
X165595Y72424D01*
X165576Y72362D01*
X165548Y72305D01*
X165537Y72235D01*
X165513Y72154D01*
X165512Y72069D01*
X165501Y72000D01*
X165501Y48000D01*
X165510Y47936D01*
X165509Y47872D01*
X165530Y47797D01*
X165541Y47721D01*
X165567Y47662D01*
X165584Y47600D01*
X165625Y47534D01*
X165657Y47464D01*
X165699Y47415D01*
X165732Y47360D01*
X165790Y47308D01*
X165840Y47250D01*
X165894Y47214D01*
X165942Y47171D01*
X166011Y47138D01*
X166076Y47095D01*
X166138Y47076D01*
X166195Y47048D01*
X166265Y47037D01*
X166346Y47013D01*
X166431Y47012D01*
X166500Y47001D01*
X187500Y47001D01*
X187564Y47010D01*
G37*
G36*
X117565Y709377D02*
X117565Y709377D01*
X117631Y709379D01*
X117674Y709397D01*
X117721Y709405D01*
X117778Y709439D01*
X117838Y709464D01*
X117873Y709495D01*
X117914Y709520D01*
X117956Y709571D01*
X118004Y709615D01*
X118026Y709657D01*
X118055Y709694D01*
X118076Y709756D01*
X118107Y709815D01*
X118115Y709869D01*
X118127Y709906D01*
X118126Y709946D01*
X118134Y710000D01*
X118134Y730000D01*
X118123Y730065D01*
X118121Y730131D01*
X118103Y730174D01*
X118095Y730221D01*
X118061Y730278D01*
X118036Y730338D01*
X118005Y730373D01*
X117980Y730414D01*
X117929Y730456D01*
X117885Y730504D01*
X117843Y730526D01*
X117806Y730555D01*
X117744Y730576D01*
X117685Y730607D01*
X117631Y730615D01*
X117594Y730627D01*
X117554Y730626D01*
X117500Y730634D01*
X97500Y730634D01*
X97435Y730623D01*
X97369Y730621D01*
X97326Y730603D01*
X97279Y730595D01*
X97222Y730561D01*
X97162Y730536D01*
X97127Y730505D01*
X97086Y730480D01*
X97045Y730429D01*
X96996Y730385D01*
X96974Y730343D01*
X96945Y730306D01*
X96924Y730244D01*
X96893Y730185D01*
X96885Y730131D01*
X96873Y730094D01*
X96874Y730054D01*
X96866Y730000D01*
X96866Y710000D01*
X96877Y709935D01*
X96879Y709869D01*
X96897Y709826D01*
X96905Y709779D01*
X96939Y709722D01*
X96964Y709662D01*
X96995Y709627D01*
X97020Y709586D01*
X97071Y709545D01*
X97115Y709496D01*
X97157Y709474D01*
X97194Y709445D01*
X97256Y709424D01*
X97315Y709393D01*
X97369Y709385D01*
X97406Y709373D01*
X97446Y709374D01*
X97500Y709366D01*
X117500Y709366D01*
X117565Y709377D01*
G37*
D10*
X136561Y152490D02*
X136561Y147584D01*
X128439Y147584D01*
X128439Y152490D01*
X136561Y152490D01*
X136561Y151100D02*
X128439Y151100D01*
X136561Y161510D02*
X136561Y166416D01*
X136561Y161510D02*
X128439Y161510D01*
X128439Y166416D01*
X136561Y166416D01*
X136561Y165026D02*
X128439Y165026D01*
X17990Y545939D02*
X13084Y545939D01*
X13084Y554061D01*
X17990Y554061D01*
X17990Y545939D01*
X17990Y549455D02*
X13084Y549455D01*
X13084Y552971D02*
X17990Y552971D01*
X27010Y545939D02*
X31916Y545939D01*
X27010Y545939D02*
X27010Y554061D01*
X31916Y554061D01*
X31916Y545939D01*
X31916Y549455D02*
X27010Y549455D01*
X27010Y552971D02*
X31916Y552971D01*
X31916Y599061D02*
X27010Y599061D01*
X31916Y599061D02*
X31916Y590939D01*
X27010Y590939D01*
X27010Y599061D01*
X27010Y594455D02*
X31916Y594455D01*
X31916Y597971D02*
X27010Y597971D01*
X17990Y599061D02*
X13084Y599061D01*
X17990Y599061D02*
X17990Y590939D01*
X13084Y590939D01*
X13084Y599061D01*
X13084Y594455D02*
X17990Y594455D01*
X17990Y597971D02*
X13084Y597971D01*
D11*
X35803Y191719D02*
X41447Y191719D01*
X41447Y189281D01*
X35803Y189281D01*
X35803Y191719D01*
X35803Y210719D02*
X41447Y210719D01*
X41447Y208281D01*
X35803Y208281D01*
X35803Y210719D01*
X19197Y201219D02*
X13553Y201219D01*
X19197Y201219D02*
X19197Y198781D01*
X13553Y198781D01*
X13553Y201219D01*
X93553Y208281D02*
X99197Y208281D01*
X93553Y208281D02*
X93553Y210719D01*
X99197Y210719D01*
X99197Y208281D01*
X99197Y189281D02*
X93553Y189281D01*
X93553Y191719D01*
X99197Y191719D01*
X99197Y189281D01*
X115803Y198781D02*
X121447Y198781D01*
X115803Y198781D02*
X115803Y201219D01*
X121447Y201219D01*
X121447Y198781D01*
D12*
X17975Y606431D02*
X11431Y606431D01*
X11431Y613569D01*
X17975Y613569D01*
X17975Y606431D01*
X17975Y610406D02*
X11431Y610406D01*
X27025Y606431D02*
X33569Y606431D01*
X27025Y606431D02*
X27025Y613569D01*
X33569Y613569D01*
X33569Y606431D01*
X33569Y610406D02*
X27025Y610406D01*
X72025Y193569D02*
X78569Y193569D01*
X78569Y186431D01*
X72025Y186431D01*
X72025Y193569D01*
X72025Y190406D02*
X78569Y190406D01*
X62975Y193569D02*
X56431Y193569D01*
X62975Y193569D02*
X62975Y186431D01*
X56431Y186431D01*
X56431Y193569D01*
X56431Y190406D02*
X62975Y190406D01*
X62975Y206431D02*
X56431Y206431D01*
X56431Y213569D01*
X62975Y213569D01*
X62975Y206431D01*
X62975Y210406D02*
X56431Y210406D01*
X72025Y206431D02*
X78569Y206431D01*
X72025Y206431D02*
X72025Y213569D01*
X78569Y213569D01*
X78569Y206431D01*
X78569Y210406D02*
X72025Y210406D01*
D13*
X29365Y460935D02*
X13635Y460935D01*
X13635Y467665D01*
X29365Y467665D01*
X29365Y460935D01*
X29365Y465022D02*
X13635Y465022D01*
X13635Y448235D02*
X29365Y448235D01*
X13635Y448235D02*
X13635Y454965D01*
X29365Y454965D01*
X29365Y448235D01*
X29365Y452322D02*
X13635Y452322D01*
X13635Y435535D02*
X29365Y435535D01*
X13635Y435535D02*
X13635Y442265D01*
X29365Y442265D01*
X29365Y435535D01*
X29365Y439622D02*
X13635Y439622D01*
X13635Y422835D02*
X29365Y422835D01*
X13635Y422835D02*
X13635Y429565D01*
X29365Y429565D01*
X29365Y422835D01*
X29365Y426922D02*
X13635Y426922D01*
X13635Y410135D02*
X29365Y410135D01*
X13635Y410135D02*
X13635Y416865D01*
X29365Y416865D01*
X29365Y410135D01*
X29365Y414222D02*
X13635Y414222D01*
X13635Y397435D02*
X29365Y397435D01*
X13635Y397435D02*
X13635Y404165D01*
X29365Y404165D01*
X29365Y397435D01*
X29365Y401522D02*
X13635Y401522D01*
X13635Y384735D02*
X29365Y384735D01*
X13635Y384735D02*
X13635Y391465D01*
X29365Y391465D01*
X29365Y384735D01*
X29365Y388822D02*
X13635Y388822D01*
X13635Y372035D02*
X29365Y372035D01*
X13635Y372035D02*
X13635Y378765D01*
X29365Y378765D01*
X29365Y372035D01*
X29365Y376122D02*
X13635Y376122D01*
X13635Y359335D02*
X29365Y359335D01*
X13635Y359335D02*
X13635Y366065D01*
X29365Y366065D01*
X29365Y359335D01*
X29365Y363422D02*
X13635Y363422D01*
X13635Y346635D02*
X29365Y346635D01*
X13635Y346635D02*
X13635Y353365D01*
X29365Y353365D01*
X29365Y346635D01*
X29365Y350722D02*
X13635Y350722D01*
X13635Y333935D02*
X29365Y333935D01*
X13635Y333935D02*
X13635Y340665D01*
X29365Y340665D01*
X29365Y333935D01*
X29365Y338022D02*
X13635Y338022D01*
X13635Y321235D02*
X29365Y321235D01*
X13635Y321235D02*
X13635Y327965D01*
X29365Y327965D01*
X29365Y321235D01*
X29365Y325322D02*
X13635Y325322D01*
X13635Y308535D02*
X29365Y308535D01*
X13635Y308535D02*
X13635Y315265D01*
X29365Y315265D01*
X29365Y308535D01*
X29365Y312622D02*
X13635Y312622D01*
X13635Y295835D02*
X29365Y295835D01*
X13635Y295835D02*
X13635Y302565D01*
X29365Y302565D01*
X29365Y295835D01*
X29365Y299922D02*
X13635Y299922D01*
X13635Y283135D02*
X29365Y283135D01*
X13635Y283135D02*
X13635Y289865D01*
X29365Y289865D01*
X29365Y283135D01*
X29365Y287222D02*
X13635Y287222D01*
X13635Y270435D02*
X29365Y270435D01*
X13635Y270435D02*
X13635Y277165D01*
X29365Y277165D01*
X29365Y270435D01*
X29365Y274522D02*
X13635Y274522D01*
X13635Y257735D02*
X29365Y257735D01*
X13635Y257735D02*
X13635Y264465D01*
X29365Y264465D01*
X29365Y257735D01*
X29365Y261822D02*
X13635Y261822D01*
X13635Y245035D02*
X29365Y245035D01*
X13635Y245035D02*
X13635Y251765D01*
X29365Y251765D01*
X29365Y245035D01*
X29365Y249122D02*
X13635Y249122D01*
X13635Y232335D02*
X29365Y232335D01*
X13635Y232335D02*
X13635Y239065D01*
X29365Y239065D01*
X29365Y232335D01*
X29365Y236422D02*
X13635Y236422D01*
X185635Y232335D02*
X201365Y232335D01*
X185635Y232335D02*
X185635Y239065D01*
X201365Y239065D01*
X201365Y232335D01*
X201365Y236422D02*
X185635Y236422D01*
X185635Y245035D02*
X201365Y245035D01*
X185635Y245035D02*
X185635Y251765D01*
X201365Y251765D01*
X201365Y245035D01*
X201365Y249122D02*
X185635Y249122D01*
X185635Y257735D02*
X201365Y257735D01*
X185635Y257735D02*
X185635Y264465D01*
X201365Y264465D01*
X201365Y257735D01*
X201365Y261822D02*
X185635Y261822D01*
X185635Y270435D02*
X201365Y270435D01*
X185635Y270435D02*
X185635Y277165D01*
X201365Y277165D01*
X201365Y270435D01*
X201365Y274522D02*
X185635Y274522D01*
X185635Y283135D02*
X201365Y283135D01*
X185635Y283135D02*
X185635Y289865D01*
X201365Y289865D01*
X201365Y283135D01*
X201365Y287222D02*
X185635Y287222D01*
X185635Y295835D02*
X201365Y295835D01*
X185635Y295835D02*
X185635Y302565D01*
X201365Y302565D01*
X201365Y295835D01*
X201365Y299922D02*
X185635Y299922D01*
X185635Y308535D02*
X201365Y308535D01*
X185635Y308535D02*
X185635Y315265D01*
X201365Y315265D01*
X201365Y308535D01*
X201365Y312622D02*
X185635Y312622D01*
X185635Y321235D02*
X201365Y321235D01*
X185635Y321235D02*
X185635Y327965D01*
X201365Y327965D01*
X201365Y321235D01*
X201365Y325322D02*
X185635Y325322D01*
X185635Y333935D02*
X201365Y333935D01*
X185635Y333935D02*
X185635Y340665D01*
X201365Y340665D01*
X201365Y333935D01*
X201365Y338022D02*
X185635Y338022D01*
X185635Y346635D02*
X201365Y346635D01*
X185635Y346635D02*
X185635Y353365D01*
X201365Y353365D01*
X201365Y346635D01*
X201365Y350722D02*
X185635Y350722D01*
X185635Y359335D02*
X201365Y359335D01*
X185635Y359335D02*
X185635Y366065D01*
X201365Y366065D01*
X201365Y359335D01*
X201365Y363422D02*
X185635Y363422D01*
X185635Y372035D02*
X201365Y372035D01*
X185635Y372035D02*
X185635Y378765D01*
X201365Y378765D01*
X201365Y372035D01*
X201365Y376122D02*
X185635Y376122D01*
X185635Y384735D02*
X201365Y384735D01*
X185635Y384735D02*
X185635Y391465D01*
X201365Y391465D01*
X201365Y384735D01*
X201365Y388822D02*
X185635Y388822D01*
X185635Y397435D02*
X201365Y397435D01*
X185635Y397435D02*
X185635Y404165D01*
X201365Y404165D01*
X201365Y397435D01*
X201365Y401522D02*
X185635Y401522D01*
X185635Y410135D02*
X201365Y410135D01*
X185635Y410135D02*
X185635Y416865D01*
X201365Y416865D01*
X201365Y410135D01*
X201365Y414222D02*
X185635Y414222D01*
X185635Y422835D02*
X201365Y422835D01*
X185635Y422835D02*
X185635Y429565D01*
X201365Y429565D01*
X201365Y422835D01*
X201365Y426922D02*
X185635Y426922D01*
X185635Y435535D02*
X201365Y435535D01*
X185635Y435535D02*
X185635Y442265D01*
X201365Y442265D01*
X201365Y435535D01*
X201365Y439622D02*
X185635Y439622D01*
X185635Y448235D02*
X201365Y448235D01*
X185635Y448235D02*
X185635Y454965D01*
X201365Y454965D01*
X201365Y448235D01*
X201365Y452322D02*
X185635Y452322D01*
X185635Y460935D02*
X201365Y460935D01*
X185635Y460935D02*
X185635Y467665D01*
X201365Y467665D01*
X201365Y460935D01*
X201365Y465022D02*
X185635Y465022D01*
D14*
X89362Y812458D02*
X89362Y828074D01*
X89362Y812458D02*
X87538Y812458D01*
X87538Y828074D01*
X89362Y828074D01*
X89362Y818254D02*
X87538Y818254D01*
X87538Y824050D02*
X89362Y824050D01*
X102062Y828074D02*
X102062Y812458D01*
X100238Y812458D01*
X100238Y828074D01*
X102062Y828074D01*
X102062Y818254D02*
X100238Y818254D01*
X100238Y824050D02*
X102062Y824050D01*
X114762Y828074D02*
X114762Y812458D01*
X112938Y812458D01*
X112938Y828074D01*
X114762Y828074D01*
X114762Y818254D02*
X112938Y818254D01*
X112938Y824050D02*
X114762Y824050D01*
X127462Y828074D02*
X127462Y812458D01*
X125638Y812458D01*
X125638Y828074D01*
X127462Y828074D01*
X127462Y818254D02*
X125638Y818254D01*
X125638Y824050D02*
X127462Y824050D01*
X127462Y861926D02*
X127462Y877542D01*
X127462Y861926D02*
X125638Y861926D01*
X125638Y877542D01*
X127462Y877542D01*
X127462Y867722D02*
X125638Y867722D01*
X125638Y873518D02*
X127462Y873518D01*
X114762Y877542D02*
X114762Y861926D01*
X112938Y861926D01*
X112938Y877542D01*
X114762Y877542D01*
X114762Y867722D02*
X112938Y867722D01*
X112938Y873518D02*
X114762Y873518D01*
X102062Y877542D02*
X102062Y861926D01*
X100238Y861926D01*
X100238Y877542D01*
X102062Y877542D01*
X102062Y867722D02*
X100238Y867722D01*
X100238Y873518D02*
X102062Y873518D01*
X89362Y877542D02*
X89362Y861926D01*
X87538Y861926D01*
X87538Y877542D01*
X89362Y877542D01*
X89362Y867722D02*
X87538Y867722D01*
X87538Y873518D02*
X89362Y873518D01*
D15*
X144850Y195000D02*
X150150Y195000D01*
X150150Y190000D02*
X144850Y190000D01*
X144850Y185000D02*
X150150Y185000D01*
X150150Y180000D02*
X144850Y180000D01*
X144850Y175000D02*
X150150Y175000D01*
X150150Y170000D02*
X144850Y170000D01*
X144850Y165000D02*
X150150Y165000D01*
X157500Y157650D02*
X157500Y152350D01*
X162500Y152350D02*
X162500Y157650D01*
X167500Y157650D02*
X167500Y152350D01*
X172500Y152350D02*
X172500Y157650D01*
X177500Y157650D02*
X177500Y152350D01*
X182500Y152350D02*
X182500Y157650D01*
X187500Y157650D02*
X187500Y152350D01*
X194850Y165000D02*
X200150Y165000D01*
X200150Y170000D02*
X194850Y170000D01*
X194850Y175000D02*
X200150Y175000D01*
X200150Y180000D02*
X194850Y180000D01*
X194850Y185000D02*
X200150Y185000D01*
X200150Y190000D02*
X194850Y190000D01*
X194850Y195000D02*
X200150Y195000D01*
X187500Y202350D02*
X187500Y207650D01*
X182500Y207650D02*
X182500Y202350D01*
X177500Y202350D02*
X177500Y207650D01*
X172500Y207650D02*
X172500Y202350D01*
X167500Y202350D02*
X167500Y207650D01*
X162500Y207650D02*
X162500Y202350D01*
X157500Y202350D02*
X157500Y207650D01*
D16*
X107500Y905000D03*
D12*
X182025Y143569D02*
X188569Y143569D01*
X188569Y136431D01*
X182025Y136431D01*
X182025Y143569D01*
X182025Y140406D02*
X188569Y140406D01*
X172975Y143569D02*
X166431Y143569D01*
X172975Y143569D02*
X172975Y136431D01*
X166431Y136431D01*
X166431Y143569D01*
X166431Y140406D02*
X172975Y140406D01*
D10*
X121561Y147584D02*
X121561Y152490D01*
X121561Y147584D02*
X113439Y147584D01*
X113439Y152490D01*
X121561Y152490D01*
X121561Y151100D02*
X113439Y151100D01*
X121561Y161510D02*
X121561Y166416D01*
X121561Y161510D02*
X113439Y161510D01*
X113439Y166416D01*
X121561Y166416D01*
X121561Y165026D02*
X113439Y165026D01*
X91561Y890584D02*
X91561Y895490D01*
X91561Y890584D02*
X83439Y890584D01*
X83439Y895490D01*
X91561Y895490D01*
X91561Y894100D02*
X83439Y894100D01*
X91561Y904510D02*
X91561Y909416D01*
X91561Y904510D02*
X83439Y904510D01*
X83439Y909416D01*
X91561Y909416D01*
X91561Y908026D02*
X83439Y908026D01*
D17*
X89470Y91530D02*
X89470Y82470D01*
X89470Y91530D02*
X93530Y91530D01*
X93530Y82470D01*
X89470Y82470D01*
X121470Y82470D02*
X121470Y91530D01*
X125530Y91530D01*
X125530Y82470D01*
X121470Y82470D01*
X121470Y128470D02*
X121470Y137530D01*
X125530Y137530D01*
X125530Y128470D01*
X121470Y128470D01*
X89470Y128470D02*
X89470Y137530D01*
X93530Y137530D01*
X93530Y128470D01*
X89470Y128470D01*
D11*
X59197Y168281D02*
X53553Y168281D01*
X53553Y170719D01*
X59197Y170719D01*
X59197Y168281D01*
X59197Y149281D02*
X53553Y149281D01*
X53553Y151719D01*
X59197Y151719D01*
X59197Y149281D01*
X75803Y158781D02*
X81447Y158781D01*
X75803Y158781D02*
X75803Y161219D01*
X81447Y161219D01*
X81447Y158781D01*
D12*
X38569Y173569D02*
X32025Y173569D01*
X38569Y173569D02*
X38569Y166431D01*
X32025Y166431D01*
X32025Y173569D01*
X32025Y170406D02*
X38569Y170406D01*
X22975Y173569D02*
X16431Y173569D01*
X22975Y173569D02*
X22975Y166431D01*
X16431Y166431D01*
X16431Y173569D01*
X16431Y170406D02*
X22975Y170406D01*
D10*
X17990Y575939D02*
X13084Y575939D01*
X13084Y584061D01*
X17990Y584061D01*
X17990Y575939D01*
X17990Y579455D02*
X13084Y579455D01*
X13084Y582971D02*
X17990Y582971D01*
X27010Y575939D02*
X31916Y575939D01*
X27010Y575939D02*
X27010Y584061D01*
X31916Y584061D01*
X31916Y575939D01*
X31916Y579455D02*
X27010Y579455D01*
X27010Y582971D02*
X31916Y582971D01*
X68084Y628939D02*
X72990Y628939D01*
X68084Y628939D02*
X68084Y637061D01*
X72990Y637061D01*
X72990Y628939D01*
X72990Y632455D02*
X68084Y632455D01*
X68084Y635971D02*
X72990Y635971D01*
X82010Y628939D02*
X86916Y628939D01*
X82010Y628939D02*
X82010Y637061D01*
X86916Y637061D01*
X86916Y628939D01*
X86916Y632455D02*
X82010Y632455D01*
X82010Y635971D02*
X86916Y635971D01*
X17990Y560939D02*
X13084Y560939D01*
X13084Y569061D01*
X17990Y569061D01*
X17990Y560939D01*
X17990Y564455D02*
X13084Y564455D01*
X13084Y567971D02*
X17990Y567971D01*
X27010Y560939D02*
X31916Y560939D01*
X27010Y560939D02*
X27010Y569061D01*
X31916Y569061D01*
X31916Y560939D01*
X31916Y564455D02*
X27010Y564455D01*
X27010Y567971D02*
X31916Y567971D01*
D18*
X126975Y606545D02*
X126975Y623907D01*
X134025Y623907D01*
X134025Y606545D01*
X126975Y606545D01*
X126975Y610650D02*
X134025Y610650D01*
X134025Y614755D02*
X126975Y614755D01*
X126975Y618860D02*
X134025Y618860D01*
X134025Y622965D02*
X126975Y622965D01*
X103975Y623907D02*
X103975Y606545D01*
X103975Y623907D02*
X111025Y623907D01*
X111025Y606545D01*
X103975Y606545D01*
X103975Y610650D02*
X111025Y610650D01*
X111025Y614755D02*
X103975Y614755D01*
X103975Y618860D02*
X111025Y618860D01*
X111025Y622965D02*
X103975Y622965D01*
X80975Y623907D02*
X80975Y606545D01*
X80975Y623907D02*
X88025Y623907D01*
X88025Y606545D01*
X80975Y606545D01*
X80975Y610650D02*
X88025Y610650D01*
X88025Y614755D02*
X80975Y614755D01*
X80975Y618860D02*
X88025Y618860D01*
X88025Y622965D02*
X80975Y622965D01*
D19*
X93784Y562146D02*
X93784Y547402D01*
X93784Y562146D02*
X121216Y562146D01*
X121216Y547402D01*
X93784Y547402D01*
X93784Y553994D02*
X121216Y553994D01*
X121216Y560586D02*
X93784Y560586D01*
D10*
X106561Y152490D02*
X106561Y147584D01*
X98439Y147584D01*
X98439Y152490D01*
X106561Y152490D01*
X106561Y151100D02*
X98439Y151100D01*
X106561Y161510D02*
X106561Y166416D01*
X106561Y161510D02*
X98439Y161510D01*
X98439Y166416D01*
X106561Y166416D01*
X106561Y165026D02*
X98439Y165026D01*
D20*
X44000Y47250D02*
X44000Y35750D01*
D21*
X51000Y35650D02*
X51000Y47350D01*
X57500Y47350D02*
X57500Y35650D01*
D20*
X64500Y35750D02*
X64500Y47250D01*
X70500Y47250D02*
X70500Y35750D01*
D16*
X21750Y12700D03*
X93250Y12700D03*
D22*
X81750Y40000D03*
X33250Y40000D03*
D23*
X63535Y77179D02*
X63535Y83353D01*
X66641Y83353D01*
X66641Y77179D01*
X63535Y77179D01*
D24*
X46989Y75809D02*
X46989Y84723D01*
X48811Y84723D01*
X48811Y75809D01*
X46989Y75809D01*
X46989Y81605D02*
X48811Y81605D01*
X46989Y64191D02*
X46989Y55277D01*
X46989Y64191D02*
X48811Y64191D01*
X48811Y55277D01*
X46989Y55277D01*
X46989Y61073D02*
X48811Y61073D01*
X66189Y64191D02*
X66189Y55277D01*
X66189Y64191D02*
X68011Y64191D01*
X68011Y55277D01*
X66189Y55277D01*
X66189Y61073D02*
X68011Y61073D01*
D12*
X33569Y693569D02*
X27025Y693569D01*
X33569Y693569D02*
X33569Y686431D01*
X27025Y686431D01*
X27025Y693569D01*
X27025Y690406D02*
X33569Y690406D01*
X17975Y693569D02*
X11431Y693569D01*
X17975Y693569D02*
X17975Y686431D01*
X11431Y686431D01*
X11431Y693569D01*
X11431Y690406D02*
X17975Y690406D01*
D10*
X17990Y670939D02*
X13084Y670939D01*
X13084Y679061D01*
X17990Y679061D01*
X17990Y670939D01*
X17990Y674455D02*
X13084Y674455D01*
X13084Y677971D02*
X17990Y677971D01*
X27010Y670939D02*
X31916Y670939D01*
X27010Y670939D02*
X27010Y679061D01*
X31916Y679061D01*
X31916Y670939D01*
X31916Y674455D02*
X27010Y674455D01*
X27010Y677971D02*
X31916Y677971D01*
D12*
X17975Y701431D02*
X11431Y701431D01*
X11431Y708569D01*
X17975Y708569D01*
X17975Y701431D01*
X17975Y705406D02*
X11431Y705406D01*
X27025Y701431D02*
X33569Y701431D01*
X27025Y701431D02*
X27025Y708569D01*
X33569Y708569D01*
X33569Y701431D01*
X33569Y705406D02*
X27025Y705406D01*
X17975Y716431D02*
X11431Y716431D01*
X11431Y723569D01*
X17975Y723569D01*
X17975Y716431D01*
X17975Y720406D02*
X11431Y720406D01*
X27025Y716431D02*
X33569Y716431D01*
X27025Y716431D02*
X27025Y723569D01*
X33569Y723569D01*
X33569Y716431D01*
X33569Y720406D02*
X27025Y720406D01*
D25*
X168878Y43372D02*
X175122Y43372D01*
X175122Y41228D01*
X168878Y41228D01*
X168878Y43372D01*
D26*
X181300Y44350D02*
X181300Y40650D01*
X187200Y40650D02*
X187200Y44350D01*
D25*
X175122Y78572D02*
X168878Y78572D01*
X175122Y78572D02*
X175122Y76428D01*
X168878Y76428D01*
X168878Y78572D01*
D26*
X187000Y79350D02*
X187000Y75650D01*
D27*
X107500Y28900D03*
X107500Y751100D03*
D28*
X27500Y114000D03*
X187500Y666000D03*
D29*
X27500Y751100D03*
D10*
X168084Y25939D02*
X172990Y25939D01*
X168084Y25939D02*
X168084Y34061D01*
X172990Y34061D01*
X172990Y25939D01*
X172990Y29455D02*
X168084Y29455D01*
X168084Y32971D02*
X172990Y32971D01*
X182010Y25939D02*
X186916Y25939D01*
X182010Y25939D02*
X182010Y34061D01*
X186916Y34061D01*
X186916Y25939D01*
X186916Y29455D02*
X182010Y29455D01*
X182010Y32971D02*
X186916Y32971D01*
D12*
X188569Y18569D02*
X182025Y18569D01*
X188569Y18569D02*
X188569Y11431D01*
X182025Y11431D01*
X182025Y18569D01*
X182025Y15406D02*
X188569Y15406D01*
X172975Y18569D02*
X166431Y18569D01*
X172975Y18569D02*
X172975Y11431D01*
X166431Y11431D01*
X166431Y18569D01*
X166431Y15406D02*
X172975Y15406D01*
X206569Y58931D02*
X206569Y65475D01*
X206569Y58931D02*
X199431Y58931D01*
X199431Y65475D01*
X206569Y65475D01*
X206569Y62906D02*
X199431Y62906D01*
X206569Y74525D02*
X206569Y81069D01*
X206569Y74525D02*
X199431Y74525D01*
X199431Y81069D01*
X206569Y81069D01*
X206569Y78500D02*
X199431Y78500D01*
D10*
X146561Y110084D02*
X146561Y114990D01*
X146561Y110084D02*
X138439Y110084D01*
X138439Y114990D01*
X146561Y114990D01*
X146561Y113600D02*
X138439Y113600D01*
X146561Y124010D02*
X146561Y128916D01*
X146561Y124010D02*
X138439Y124010D01*
X138439Y128916D01*
X146561Y128916D01*
X146561Y127526D02*
X138439Y127526D01*
D30*
X115000Y733950D02*
X115000Y738050D01*
X110000Y738050D02*
X110000Y733950D01*
X105000Y733950D02*
X105000Y738050D01*
X100000Y738050D02*
X100000Y733950D01*
X93550Y727500D02*
X89450Y727500D01*
X89450Y722500D02*
X93550Y722500D01*
X93550Y717500D02*
X89450Y717500D01*
X89450Y712500D02*
X93550Y712500D01*
X100000Y706050D02*
X100000Y701950D01*
X105000Y701950D02*
X105000Y706050D01*
X110000Y706050D02*
X110000Y701950D01*
X115000Y701950D02*
X115000Y706050D01*
X121450Y712500D02*
X125550Y712500D01*
X125550Y717500D02*
X121450Y717500D01*
X121450Y722500D02*
X125550Y722500D01*
X125550Y727500D02*
X121450Y727500D01*
D10*
X116916Y774061D02*
X112010Y774061D01*
X116916Y774061D02*
X116916Y765939D01*
X112010Y765939D01*
X112010Y774061D01*
X112010Y769455D02*
X116916Y769455D01*
X116916Y772971D02*
X112010Y772971D01*
X102990Y774061D02*
X98084Y774061D01*
X102990Y774061D02*
X102990Y765939D01*
X98084Y765939D01*
X98084Y774061D01*
X98084Y769455D02*
X102990Y769455D01*
X102990Y772971D02*
X98084Y772971D01*
D12*
X136431Y721431D02*
X142975Y721431D01*
X136431Y721431D02*
X136431Y728569D01*
X142975Y728569D01*
X142975Y721431D01*
X142975Y725406D02*
X136431Y725406D01*
X152025Y721431D02*
X158569Y721431D01*
X152025Y721431D02*
X152025Y728569D01*
X158569Y728569D01*
X158569Y721431D01*
X158569Y725406D02*
X152025Y725406D01*
X142975Y736431D02*
X136431Y736431D01*
X136431Y743569D01*
X142975Y743569D01*
X142975Y736431D01*
X142975Y740406D02*
X136431Y740406D01*
X152025Y736431D02*
X158569Y736431D01*
X152025Y736431D02*
X152025Y743569D01*
X158569Y743569D01*
X158569Y736431D01*
X158569Y740406D02*
X152025Y740406D01*
D10*
X142990Y705939D02*
X138084Y705939D01*
X138084Y714061D01*
X142990Y714061D01*
X142990Y705939D01*
X142990Y709455D02*
X138084Y709455D01*
X138084Y712971D02*
X142990Y712971D01*
X152010Y705939D02*
X156916Y705939D01*
X152010Y705939D02*
X152010Y714061D01*
X156916Y714061D01*
X156916Y705939D01*
X156916Y709455D02*
X152010Y709455D01*
X152010Y712971D02*
X156916Y712971D01*
D12*
X72975Y649431D02*
X66431Y649431D01*
X66431Y656569D01*
X72975Y656569D01*
X72975Y649431D01*
X72975Y653406D02*
X66431Y653406D01*
X82025Y649431D02*
X88569Y649431D01*
X82025Y649431D02*
X82025Y656569D01*
X88569Y656569D01*
X88569Y649431D01*
X88569Y653406D02*
X82025Y653406D01*
X73275Y669531D02*
X66731Y669531D01*
X66731Y676669D01*
X73275Y676669D01*
X73275Y669531D01*
X73275Y673506D02*
X66731Y673506D01*
X82325Y669531D02*
X88869Y669531D01*
X82325Y669531D02*
X82325Y676669D01*
X88869Y676669D01*
X88869Y669531D01*
X88869Y673506D02*
X82325Y673506D01*
X136431Y661431D02*
X142975Y661431D01*
X136431Y661431D02*
X136431Y668569D01*
X142975Y668569D01*
X142975Y661431D01*
X142975Y665406D02*
X136431Y665406D01*
X152025Y661431D02*
X158569Y661431D01*
X152025Y661431D02*
X152025Y668569D01*
X158569Y668569D01*
X158569Y661431D01*
X158569Y665406D02*
X152025Y665406D01*
X152025Y698569D02*
X158569Y698569D01*
X158569Y691431D01*
X152025Y691431D01*
X152025Y698569D01*
X152025Y695406D02*
X158569Y695406D01*
X142975Y698569D02*
X136431Y698569D01*
X142975Y698569D02*
X142975Y691431D01*
X136431Y691431D01*
X136431Y698569D01*
X136431Y695406D02*
X142975Y695406D01*
X152025Y683569D02*
X158569Y683569D01*
X158569Y676431D01*
X152025Y676431D01*
X152025Y683569D01*
X152025Y680406D02*
X158569Y680406D01*
X142975Y683569D02*
X136431Y683569D01*
X142975Y683569D02*
X142975Y676431D01*
X136431Y676431D01*
X136431Y683569D01*
X136431Y680406D02*
X142975Y680406D01*
D10*
X76561Y890584D02*
X76561Y895490D01*
X76561Y890584D02*
X68439Y890584D01*
X68439Y895490D01*
X76561Y895490D01*
X76561Y894100D02*
X68439Y894100D01*
X76561Y904510D02*
X76561Y909416D01*
X76561Y904510D02*
X68439Y904510D01*
X68439Y909416D01*
X76561Y909416D01*
X76561Y908026D02*
X68439Y908026D01*
D12*
X112025Y788569D02*
X118569Y788569D01*
X118569Y781431D01*
X112025Y781431D01*
X112025Y788569D01*
X112025Y785406D02*
X118569Y785406D01*
X102975Y788569D02*
X96431Y788569D01*
X102975Y788569D02*
X102975Y781431D01*
X96431Y781431D01*
X96431Y788569D01*
X96431Y785406D02*
X102975Y785406D01*
X162025Y773569D02*
X168569Y773569D01*
X168569Y766431D01*
X162025Y766431D01*
X162025Y773569D01*
X162025Y770406D02*
X168569Y770406D01*
X152975Y773569D02*
X146431Y773569D01*
X152975Y773569D02*
X152975Y766431D01*
X146431Y766431D01*
X146431Y773569D01*
X146431Y770406D02*
X152975Y770406D01*
D31*
X133060Y38577D02*
X125996Y38577D01*
X125996Y40423D01*
X133060Y40423D01*
X133060Y38577D01*
X133060Y29077D02*
X125996Y29077D01*
X125996Y30923D01*
X133060Y30923D01*
X133060Y29077D01*
X133060Y19577D02*
X125996Y19577D01*
X125996Y21423D01*
X133060Y21423D01*
X133060Y19577D01*
X151940Y19577D02*
X159004Y19577D01*
X151940Y19577D02*
X151940Y21423D01*
X159004Y21423D01*
X159004Y19577D01*
X159004Y29077D02*
X151940Y29077D01*
X151940Y30923D01*
X159004Y30923D01*
X159004Y29077D01*
X159004Y38577D02*
X151940Y38577D01*
X151940Y40423D01*
X159004Y40423D01*
X159004Y38577D01*
D10*
X78939Y694118D02*
X75470Y697587D01*
X81213Y703330D01*
X84682Y699861D01*
X78939Y694118D01*
X75517Y697634D02*
X82455Y697634D01*
X83393Y701150D02*
X79033Y701150D01*
X85318Y687739D02*
X88787Y684270D01*
X85318Y687739D02*
X91061Y693482D01*
X94530Y690013D01*
X88787Y684270D01*
X85365Y687786D02*
X92303Y687786D01*
X93241Y691302D02*
X88881Y691302D01*
X161561Y115490D02*
X161561Y110584D01*
X153439Y110584D01*
X153439Y115490D01*
X161561Y115490D01*
X161561Y114100D02*
X153439Y114100D01*
X161561Y124510D02*
X161561Y129416D01*
X161561Y124510D02*
X153439Y124510D01*
X153439Y129416D01*
X161561Y129416D01*
X161561Y128026D02*
X153439Y128026D01*
D32*
X166500Y556929D03*
X173964Y566464D03*
X168964Y566464D03*
X177500Y547929D03*
X158964Y566464D03*
X163964Y566464D03*
X172500Y547929D03*
X167500Y547929D03*
X162500Y547929D03*
X161500Y552929D03*
X172500Y558929D03*
X180036Y566464D03*
X157500Y547929D03*
X177500Y561929D03*
X168964Y589749D03*
X160429Y591213D03*
X160429Y586213D03*
X178964Y599749D03*
X178964Y594749D03*
X160429Y581213D03*
X178964Y589749D03*
X178964Y584749D03*
X178964Y579749D03*
X173964Y584749D03*
X163964Y594749D03*
X160429Y598284D03*
M02*
