G04 EAGLE Gerber RS-274X export*
G75*
%MOMM*%
%FSLAX34Y34*%
%LPD*%
%INSoldermask Bottom*%
%IPPOS*%
%AMOC8*
5,1,8,0,0,1.08239X$1,22.5*%
G01*
%ADD10C,2.061272*%
%ADD11C,1.711200*%
%ADD12C,1.361200*%
%ADD13C,2.183200*%
%ADD14C,3.803200*%
%ADD15C,2.593200*%
%ADD16C,0.959600*%

G36*
X120050Y969247D02*
X120050Y969247D01*
X120100Y969245D01*
X120170Y969267D01*
X120243Y969279D01*
X120287Y969302D01*
X120335Y969317D01*
X120395Y969359D01*
X120460Y969394D01*
X120495Y969430D01*
X120536Y969459D01*
X120579Y969519D01*
X120630Y969572D01*
X120651Y969617D01*
X120680Y969658D01*
X120722Y969772D01*
X120733Y969795D01*
X120734Y969803D01*
X120739Y969815D01*
X125739Y989815D01*
X125739Y989825D01*
X125743Y989833D01*
X125761Y990000D01*
X125761Y1120000D01*
X125758Y1120020D01*
X125760Y1120039D01*
X125738Y1120141D01*
X125722Y1120243D01*
X125712Y1120260D01*
X125708Y1120280D01*
X125655Y1120369D01*
X125606Y1120460D01*
X125592Y1120474D01*
X125582Y1120491D01*
X125503Y1120558D01*
X125428Y1120630D01*
X125410Y1120638D01*
X125395Y1120651D01*
X125299Y1120690D01*
X125205Y1120733D01*
X125185Y1120735D01*
X125167Y1120743D01*
X125000Y1120761D01*
X90000Y1120761D01*
X89980Y1120758D01*
X89961Y1120760D01*
X89859Y1120738D01*
X89757Y1120722D01*
X89740Y1120712D01*
X89720Y1120708D01*
X89631Y1120655D01*
X89540Y1120606D01*
X89526Y1120592D01*
X89509Y1120582D01*
X89442Y1120503D01*
X89371Y1120428D01*
X89362Y1120410D01*
X89349Y1120395D01*
X89310Y1120299D01*
X89267Y1120205D01*
X89265Y1120185D01*
X89257Y1120167D01*
X89239Y1120000D01*
X89239Y990000D01*
X89240Y989991D01*
X89239Y989982D01*
X89261Y989815D01*
X94261Y969815D01*
X94281Y969769D01*
X94292Y969720D01*
X94330Y969657D01*
X94359Y969590D01*
X94392Y969552D01*
X94418Y969509D01*
X94474Y969461D01*
X94523Y969407D01*
X94567Y969382D01*
X94605Y969349D01*
X94673Y969322D01*
X94737Y969285D01*
X94787Y969276D01*
X94833Y969257D01*
X94954Y969244D01*
X94979Y969239D01*
X94987Y969240D01*
X95000Y969239D01*
X120000Y969239D01*
X120050Y969247D01*
G37*
D10*
X147810Y970710D02*
X147810Y939290D01*
X139390Y939290D01*
X139390Y970710D01*
X147810Y970710D01*
X147810Y958872D02*
X139390Y958872D01*
X111710Y939290D02*
X103290Y939290D01*
X103290Y970710D01*
X111710Y970710D01*
X111710Y939290D01*
X111710Y958872D02*
X103290Y958872D01*
X75610Y939290D02*
X67190Y939290D01*
X67190Y970710D01*
X75610Y970710D01*
X75610Y939290D01*
X75610Y958872D02*
X67190Y958872D01*
D11*
X107500Y905000D03*
X21750Y12700D03*
X93250Y12700D03*
D12*
X81750Y40000D03*
X33250Y40000D03*
D13*
X107500Y28900D03*
X107500Y751100D03*
D14*
X27500Y114000D03*
X187500Y666000D03*
D15*
X27500Y751100D03*
D16*
X129000Y698000D03*
X126000Y692000D03*
X129000Y687000D03*
X166500Y556929D03*
X173964Y566464D03*
X168964Y566464D03*
X177500Y547929D03*
X158964Y566464D03*
X163964Y566464D03*
X172500Y547929D03*
X167500Y547929D03*
X162500Y547929D03*
X161500Y552929D03*
X172500Y558929D03*
X180036Y566464D03*
X157500Y547929D03*
X177500Y561929D03*
X168964Y589749D03*
X160429Y591213D03*
X160429Y586213D03*
X178964Y599749D03*
X178964Y594749D03*
X160429Y581213D03*
X178964Y589749D03*
X178964Y584749D03*
X178964Y579749D03*
X173964Y584749D03*
X163964Y594749D03*
X160429Y598284D03*
X81000Y722000D03*
M02*
